<svg xmlns="http://www.w3.org/2000/svg" width="435" height="434" viewBox="0 0 435 434">
  <defs>
    <style>
      .cls-1, .cls-2 {
        fill: none;
        stroke: #9e904c;
        stroke-width: 3px;
      }

      .cls-2 {
        fill-rule: evenodd;
      }
    </style>
  </defs>
  <rect class="cls-1" x="21.594" y="21.656" width="392.75" height="392.625"/>
  <rect class="cls-1" x="2" y="2" width="432" height="431"/>
  <path class="cls-2" d="M22.524,78.541L8.53,47.765l13.994-25.18-8.4,4.663L3.866,3,25.323,23.517Z"/>
  <path class="cls-2" d="M79.193,23.787L48.8,9.528,23.243,22.181l4.893-7.891L4.172,3.785,24.1,24.883Z"/>
  <path class="cls-2" d="M357.435,22.643L388.221,8.61l25.188,14.032-4.664-8.419L433,3.933,412.476,25.449Z"/>
  <path class="cls-2" d="M412.206,79.47L426.469,49,413.813,23.363l7.894,4.907L432.215,4.24l-21.1,19.982Z"/>
  <path class="cls-2" d="M77.565,413.29L46.779,427.322,21.591,413.29l4.665,8.42L2,432l20.524-21.516Z"/>
  <path class="cls-2" d="M22.794,356.463L8.531,386.936l12.657,25.633-7.894-4.906L2.785,431.693l21.1-19.982Z"/>
  <path class="cls-2" d="M412.418,356.459l14.037,30.776-14.037,25.18,8.422-4.663L431.134,432l-21.523-20.517Z"/>
  <path class="cls-2" d="M355.573,411.213l30.483,14.258L411.7,412.819l-4.908,7.891,24.038,10.5-19.988-21.1Z"/>
</svg>
