<svg xmlns="http://www.w3.org/2000/svg" width="435" height="433" viewBox="0 0 435 433">
  <defs>
    <style>
      .cls-1, .cls-2 {
        fill: none;
        stroke: #9e904c;
        stroke-width: 3px;
      }

      .cls-2 {
        fill-rule: evenodd;
      }
    </style>
  </defs>
  <rect class="cls-1" x="21.594" y="20.656" width="392.75" height="392.625"/>
  <path class="cls-2" d="M22.524,77.541L8.53,46.765l13.994-25.18-8.4,4.663L3.866,2,25.323,22.517Z"/>
  <path class="cls-2" d="M79.193,22.787L48.8,8.528,23.243,21.181l4.893-7.891L4.172,2.785,24.1,23.883Z"/>
  <path class="cls-2" d="M357.435,21.643L388.221,7.61l25.188,14.032-4.664-8.419L433,2.933,412.476,24.449Z"/>
  <path class="cls-2" d="M412.206,78.47L426.469,48,413.813,22.363l7.894,4.907L432.215,3.24l-21.1,19.982Z"/>
  <path class="cls-2" d="M77.565,412.29L46.779,426.322,21.591,412.29l4.665,8.42L2,431l20.524-21.516Z"/>
  <path class="cls-2" d="M22.794,355.463L8.531,385.936l12.657,25.633-7.894-4.906L2.785,430.693l21.1-19.982Z"/>
  <path class="cls-2" d="M412.418,355.459l14.037,30.776-14.037,25.18,8.422-4.663L431.134,431l-21.523-20.517Z"/>
  <path class="cls-2" d="M355.573,410.213l30.483,14.258L411.7,411.819l-4.908,7.891,24.038,10.5-19.988-21.1Z"/>
</svg>
