<svg xmlns="http://www.w3.org/2000/svg" xmlns:xlink="http://www.w3.org/1999/xlink" width="108" height="81" viewBox="0 0 108 81">
  <defs>
    <style>
      .cls-1 {
        filter: url(#filter);
      }

      .cls-2, .cls-3, .cls-5 {
        fill: none;
      }

      .cls-2, .cls-3, .cls-4, .cls-5 {
        stroke: #6f334c;
      }

      .cls-2 {
        stroke-width: 4px;
      }

      .cls-2, .cls-3, .cls-4 {
        fill-rule: evenodd;
      }

      .cls-3, .cls-5 {
        stroke-width: 3px;
      }

      .cls-4 {
        fill: #6f334c;
        stroke-width: 10px;
      }
    </style>
    <filter id="filter" filterUnits="userSpaceOnUse">
      <feFlood result="flood" flood-color="#a49758"/>
      <feComposite result="composite" operator="in" in2="SourceGraphic"/>
      <feBlend result="blend" in2="SourceGraphic"/>
    </filter>
  </defs>
  <g id="eye" class="cls-1">
    <path class="cls-2" d="M54,0c30.376,0,54,33.783,54,32,0-4.825-20.981,33-54,33C23.624,65,1,34.063,1,31,1,29.259,23.624,0,54,0Z"/>
    <path class="cls-3" d="M3,42s17.026,26.26,50,27c34.525,0.774,51-28,51-28"/>
    <path class="cls-3" d="M8,49L4,54"/>
    <path class="cls-4" d="M17.779,57.128l2.441,1.744-5,7-2.441-1.744Z"/>
    <path class="cls-4" d="M30.6,65.473L33.4,66.527l-3,8L27.6,73.473Z"/>
    <path class="cls-4" d="M53,71h3V81H53V71Z"/>
    <path class="cls-4" d="M73.689,66.729l2.623-1.457,5,9-2.623,1.457Z"/>
    <path class="cls-4" d="M90.861,57.976l2.278-1.952,6,7-2.278,1.952Z"/>
    <path class="cls-4" d="M99.04,47.152l1.92-2.3,6,5-1.92,2.3Z"/>
    <circle class="cls-5" cx="53.5" cy="30.5" r="20.5"/>
  </g>
</svg>
