<svg xmlns="http://www.w3.org/2000/svg" width="66" height="125" viewBox="0 0 66 125">
  <defs>
    <style>
      .cls-1 {
        fill: none;
        stroke: #9e904c;
        stroke-width: 3px;
        fill-rule: evenodd;
      }
    </style>
  </defs>
  <path class="cls-1" d="M11.5,107.772H47.562v-7.383S50.641,93,52.48,90.546s7.823-6.428,8.2-14.766,0-28.711,0-28.711,2.7-19.5-4.918-11.485c-2.736,3.672-1.639,18.868-1.639,18.868S47.237,63,45.923,65.115,40.93,75.915,41.006,76.6"/>
  <g id="hand">
    <path class="cls-1" d="M12.32,112.054h37.7a3.273,3.273,0,0,1,.82,3.281c-0.62,1.963-1.188,4-.82,4.922s1.608,1.807.82,2.461-38.52,0-38.52,0-2.118-1.312-.82-3.281S9.96,114.922,12.32,112.054Z"/>
    <path class="cls-1" d="M49.2,56.912L45.923,13.435S43.3,6.4,39.366,12.614c-1.075,2.705,0,42.657,0,42.657H36.908L36.088,7.692s-3.2-6.429-7.376,0c0.152,0.934-.82,46.759-0.82,46.759H26.253l-0.82-42.657s-3.287-6.247-7.376,0c-0.326.6-.82,43.478-0.82,43.478H14.779L15.6,21.638S11.691,15.3,9.042,23.278c0.011-.011-3.278,30.352-3.278,30.352s-0.309,1.717-.82,7.383,0.82,29.532.82,29.532,6.3,8.23,7.376,9.843,0.82,8.2.82,8.2"/>
  </g>
</svg>
