<svg xmlns="http://www.w3.org/2000/svg" width="500" height="500" viewBox="0 0 500 500">
  <defs>
    <style>
      .cls-1, .cls-2 {
        fill: none;
        stroke: #9e904c;
        stroke-width: 3px;
      }

      .cls-1 {
        fill-rule: evenodd;
      }
    </style>
  </defs>
  <path class="cls-1" d="M54.591,43.652H447.342V436.28H54.591V43.652Z"/>
  <rect class="cls-2" x="35" y="24" width="432" height="431"/>
  <path class="cls-1" d="M55.524,100.541L41.53,69.765l13.994-25.18-8.4,4.663L36.866,25,58.323,45.517Z"/>
  <path class="cls-1" d="M112.193,45.787L81.8,31.529,56.243,44.181l4.893-7.891-23.964-10.5L57.1,46.883Z"/>
  <path class="cls-1" d="M390.435,44.643L421.221,30.61l25.188,14.032-4.664-8.419L466,25.933,445.476,47.449Z"/>
  <path class="cls-1" d="M445.206,101.47L459.469,71,446.813,45.363l7.894,4.907,10.508-24.03-21.1,19.982Z"/>
  <path class="cls-1" d="M110.565,435.29L79.779,449.322,54.591,435.29l4.665,8.42L35,454l20.524-21.516Z"/>
  <path class="cls-1" d="M55.794,378.463L41.531,408.936l12.657,25.633-7.894-4.906-10.508,24.03,21.1-19.982Z"/>
  <path class="cls-1" d="M445.418,378.459l14.037,30.776-14.037,25.18,8.422-4.663L464.134,454l-21.523-20.517Z"/>
  <path class="cls-1" d="M388.573,433.213l30.483,14.258L444.7,434.819l-4.908,7.891,24.038,10.5-19.988-21.1Z"/>
</svg>
