<svg xmlns="http://www.w3.org/2000/svg" width="25" height="35" style=""><rect id="backgroundrect" width="100%" height="100%" x="0" y="0" fill="none" stroke="none"/>
 <g style="">
  <title>background</title>
  <rect x="-1" y="-1" width="27" height="37" id="canvas_background" fill="none"/>
 </g>

 <g style="" class="currentLayer">
  <title>Layer 1</title>
  <g id="SvgjsG1008" class="" fill-opacity="1" fill="#af8833">
   <path fill="#af8833" d="m12.690434216897787,0.6408711669556437 c-6.054830338861647,0 -10.963185548942619,4.908355210080972 -10.963185548942619,10.963185548942619 c0,1.9473358331309327 0.5229439506845632,3.768595032449025 1.4131546172587037,5.352775344271234 c0.14786596509136368,0.263116453174623 0.30285800078954,0.5221217117683925 0.47114289896580935,0.7715341830068364 l9.078888032718107,15.802061570607167 l9.078888032718107,-15.802061570607167 c0.13978061574901837,-0.206930127236292 0.2603756567873872,-0.4261938382151444 0.3850818924066096,-0.6427167528067611 l0.08633508619792314,-0.12881743020007586 c0.8893884276579703,-1.5841803118222084 1.41288053761998,-3.4054395111403006 1.41288053761998,-5.352775344271234 c0,-6.054830338861647 -4.908766329539057,-10.963185548942619 -10.963185548942619,-10.963185548942619 zm0,5.481592774471309 c3.0272096097017807,0 5.481592774471309,2.454246124950167 5.481592774471309,5.481592774471309 c0,3.0272096097017807 -2.4543831647695287,5.481592774471309 -5.481592774471309,5.481592774471309 c-3.0273466495211423,0 -5.481592774471309,-2.4543831647695287 -5.481592774471309,-5.481592774471309 c0,-3.0273466495211423 2.454246124950167,-5.481592774471309 5.481592774471309,-5.481592774471309 z" class="colore74c3c svgShape" id="svg_8" stroke-width="0"/>
   <path fill="#af8833" d="m12.690434216897787,4.752065747809127 c-3.7842175718562676,0 -6.851990968089137,3.067773396232868 -6.851990968089137,6.851990968089137 c0,3.7836694125788224 3.067773396232868,6.851990968089137 6.851990968089137,6.851990968089137 c3.7836694125788224,0 6.851990968089137,-3.068321555510315 6.851990968089137,-6.851990968089137 c0,-3.7842175718562676 -3.068321555510315,-6.851990968089137 -6.851990968089137,-6.851990968089137 zm0,2.7407963872356547 c2.27074980682474,0 4.111194580853482,1.8405818138481045 4.111194580853482,4.111194580853482 s-1.8404447740287422,4.111194580853482 -4.111194580853482,4.111194580853482 s-4.111194580853482,-1.8405818138481045 -4.111194580853482,-4.111194580853482 s1.8404447740287422,-4.111194580853482 4.111194580853482,-4.111194580853482 z" class="colorc0392b svgShape" id="svg_7" stroke-width="0"/>
  </g>
  <ellipse stroke="#8e6a1c" fill-opacity="0" ry="4.748537063598633" rx="4.666310787200928" id="svg_9" cy="12.229894638061523" cx="12.4506196975708" stroke-width="3" fill="#85141d" class="selected" stroke-opacity="1"/>
 </g>
</svg>