<?xml version="1.0" encoding="utf-8"?>
<!-- Generator: Adobe Illustrator 19.0.0, SVG Export Plug-In . SVG Version: 6.00 Build 0)  -->
<svg version="1.1" id="Layer_1" xmlns="http://www.w3.org/2000/svg" xmlns:xlink="http://www.w3.org/1999/xlink" x="0px" y="0px"
	 viewBox="94 -4 800 467.4" style="enable-background:new 94 -4 800 467.4;" xml:space="preserve">
<style type="text/css">
	.st0{fill:#E2E2E2;}
	.st1{fill:#DFDFDF;}
	.st2{fill:#E1E1E1;}
	.st3{fill:#A6A6A6;}
	.st4{fill:#E0E0E0;}
	.st5{fill:#D4D4D4;}
	.st6{fill:#DBDBDB;}
	.st7{fill:#D0D0D0;}
	.st8{fill:#CFCFCF;}
	.st9{fill:#C1C1C1;}
	.st10{fill:#BEBEBE;}
	.st11{fill:#EFEFEF;}
	.st12{fill:#CECECE;}
	.st13{fill:#C9C9C9;}
	.st14{fill:#A4A4A4;}
	.st15{fill:#C7C7C7;}
	.st16{fill:#D3D3D3;}
	.st17{fill:#ABABAB;}
	.st18{fill:#E5E5E5;}
	.st19{fill:#DADADA;}
	.st20{fill:#C5C5C5;}
	.st21{fill:#BDBDBD;}
	.st22{fill:#D5D5D5;}
	.st23{fill:#E3E3E3;}
	.st24{fill:#ECECEC;}
	.st25{fill:#D9D9D9;}
	.st26{fill:#DDDDDD;}
	.st27{fill:#EAEAEA;}
	.st28{fill:#CACACA;}
	.st29{fill:#D6D6D6;}
	.st30{fill:#C8C8C8;}
	.st31{fill:#E6E6E6;}
	.st32{fill:#E7E7E7;}
	.st33{fill:#D1D1D1;}
	.st34{fill:#F3F3F3;}
	.st35{fill:#CBCBCB;}
	.st36{fill:#E4E4E4;}
	.st37{fill:#DEDEDE;}
	.st38{fill:#B9B9B9;}
	.st39{fill:#D7D7D7;}
	.st40{fill:#D2D2D2;}
	.st41{fill:#F2F2F2;}
	.st42{fill:#EEEEEE;}
	.st43{fill:#EDEDED;}
	.st44{fill:#CDCDCD;}
	.st45{fill:#F1F1F1;}
	.st46{fill:#CCCCCC;}
	.st47{fill:#F4F4F4;}
	.st48{fill:#F6F6F6;}
	.st49{fill:#F8F8F8;}
	.st50{fill:#F5F5F5;}
	.st51{fill:#DCDCDC;}
	.st52{fill:#F7F7F7;}
	.st53{fill:#FCFCFC;}
	.st54{fill:#FBFBFB;}
	.st55{fill:#C6C6C6;}
	.st56{fill:#FDFDFD;}
	.st57{fill:#F9F9F9;}
	.st58{fill:#D8D8D8;}
	.st59{fill:#E8E8E8;}
	.st60{fill:#FAFAFA;}
	.st61{fill:#FEFEFE;}
	.st62{fill:#E9E9E9;}
	.st63{fill:#EBEBEB;}
	.st64{fill:#BABABA;}
	.st65{fill:#B7B7B7;}
	.st66{fill:#B0B0B0;}
	.st67{fill:#F0F0F0;}
	.st68{fill:#C3C3C3;}
	.st69{fill:#C4C4C4;}
	.st70{fill:#C2C2C2;}
	.st71{fill:#BFBFBF;}
</style>
<g>
	<polygon class="st0" points="94,246.9 94,330.3 98.2,311.8 	"/>
	<polygon class="st1" points="94,162.7 94,246.9 98.2,214.9 	"/>
	<polygon class="st2" points="98.2,311.8 94,330.3 102.4,324.4 	"/>
	<polygon class="st3" points="94,-4 94,79.4 102.4,54.9 	"/>
	<polygon class="st0" points="94,330.3 94,414.5 119.3,353.9 	"/>
	<polygon class="st4" points="102.4,324.4 94,330.3 119.3,353.9 	"/>
	<polygon class="st5" points="98.2,311.8 102.4,324.4 127.7,307.6 	"/>
	<polygon class="st1" points="102.4,324.4 119.3,353.9 140.3,328.6 	"/>
	<polygon class="st6" points="127.7,307.6 102.4,324.4 140.3,328.6 	"/>
	<polygon class="st0" points="94,246.9 98.2,311.8 127.7,307.6 	"/>
	<polygon class="st7" points="140.3,328.6 119.3,353.9 148.7,341.3 	"/>
	<polygon class="st8" points="94,79.4 94,92.8 148.7,84.4 	"/>
	<polygon class="st9" points="102.4,54.9 94,79.4 148.7,84.4 	"/>
	<polygon class="st10" points="102.4,54.9 148.7,84.4 152.9,54.9 	"/>
	<path class="st11" d="M144,459.5l-50-45v43.9C110.7,458.8,127.3,459.2,144,459.5z"/>
	<polygon class="st12" points="94,92.8 94,162.7 161.4,122.3 	"/>
	<polygon class="st13" points="148.7,84.4 94,92.8 161.4,122.3 	"/>
	<path class="st2" d="M154.7,459.8l6.7-30.1L94,414.5l50,45C147.5,459.6,151.1,459.7,154.7,459.8z"/>
	<polygon class="st14" points="94,-4 102.4,54.9 165.6,29.7 	"/>
	<polygon class="st15" points="102.4,54.9 152.9,54.9 165.6,29.7 	"/>
	<polygon class="st5" points="161.4,122.3 94,162.7 165.6,134.9 	"/>
	<polygon class="st16" points="148.7,84.4 161.4,122.3 169.8,88.6 	"/>
	<polygon class="st17" points="94,-4 165.6,29.7 177.4,-4 	"/>
	<polygon class="st18" points="119.3,353.9 94,414.5 161.4,429.7 	"/>
	<polygon class="st1" points="94,162.7 98.2,214.9 178.2,206.5 	"/>
	<polygon class="st6" points="165.6,134.9 94,162.7 178.2,206.5 	"/>
	<polygon class="st19" points="98.2,214.9 94,246.9 178.2,206.5 	"/>
	<polygon class="st20" points="152.9,54.9 148.7,84.4 169.8,88.6 	"/>
	<polygon class="st21" points="165.6,29.7 152.9,54.9 190.8,50.7 	"/>
	<polygon class="st20" points="152.9,54.9 190.8,54.9 190.8,50.7 	"/>
	<polygon class="st22" points="152.9,54.9 169.8,88.6 190.8,54.9 	"/>
	<path class="st23" d="M167.9,460.1l27.2-13.6l-33.7-16.8l-6.7,30.1C159.1,459.9,163.5,460,167.9,460.1z"/>
	<polygon class="st24" points="190.8,433.9 161.4,429.7 195.1,446.5 	"/>
	<polygon class="st1" points="148.7,341.3 119.3,353.9 161.4,429.7 	"/>
	<polygon class="st13" points="190.8,54.9 169.8,88.6 199.3,67.6 	"/>
	<polygon class="st5" points="140.3,328.6 148.7,341.3 195.1,341.3 	"/>
	<polygon class="st25" points="94,246.9 127.7,307.6 178.2,206.5 	"/>
	<polygon class="st1" points="199.3,210.7 211.9,214.9 216.1,202.3 	"/>
	<polygon class="st19" points="203.5,341.3 207.7,341.3 216.1,311.8 	"/>
	<polygon class="st25" points="195.1,341.3 203.5,341.3 216.1,311.8 	"/>
	<polygon class="st26" points="127.7,307.6 140.3,328.6 216.1,311.8 	"/>
	<polygon class="st23" points="140.3,328.6 195.1,341.3 216.1,311.8 	"/>
	<polygon class="st11" points="195.1,446.5 211.9,459.2 216.1,450.7 	"/>
	<path class="st27" d="M201.6,460.7l10.3-1.5l-16.8-12.7l-27.2,13.6C179.1,460.3,190.3,460.5,201.6,460.7z"/>
	<polygon class="st2" points="148.7,341.3 161.4,429.7 195.1,341.3 	"/>
	<polygon class="st28" points="177.4,-4 165.6,29.7 190.8,50.7 	"/>
	<polygon class="st25" points="199.3,67.6 169.8,88.6 224.5,109.7 	"/>
	<polygon class="st22" points="161.4,122.3 165.6,134.9 224.5,109.7 	"/>
	<polygon class="st29" points="169.8,88.6 161.4,122.3 224.5,109.7 	"/>
	<polygon class="st30" points="177.4,-4 190.8,50.7 224.5,29.7 	"/>
	<polygon class="st16" points="178.2,206.5 199.3,210.7 216.1,202.3 	"/>
	<polygon class="st31" points="190.8,433.9 195.1,446.5 216.1,450.7 	"/>
	<polygon class="st5" points="190.8,50.7 190.8,54.9 199.3,67.6 	"/>
	<polygon class="st31" points="190.8,433.9 216.1,450.7 228.7,421.3 	"/>
	<polygon class="st32" points="161.4,429.7 190.8,433.9 195.1,341.3 	"/>
	<polygon class="st9" points="190.8,50.7 199.3,67.6 224.5,29.7 	"/>
	<polygon class="st16" points="165.6,134.9 178.2,206.5 216.1,202.3 	"/>
	<polygon class="st2" points="178.2,206.5 127.7,307.6 216.1,311.8 	"/>
	<polygon class="st29" points="199.3,210.7 178.2,206.5 216.1,311.8 	"/>
	<polygon class="st33" points="211.9,214.9 199.3,210.7 237.2,244.4 	"/>
	<polygon class="st6" points="199.3,210.7 216.1,311.8 237.2,244.4 	"/>
	<path class="st34" d="M212.5,460.8l-0.6-1.6l-10.3,1.5C205.2,460.7,208.9,460.8,212.5,460.8z"/>
	<polygon class="st2" points="216.1,202.3 211.9,214.9 237.2,219.2 	"/>
	<polygon class="st35" points="177.4,-4 224.5,29.7 241.4,17.1 	"/>
	<polygon class="st2" points="237.2,219.2 211.9,214.9 237.2,244.4 	"/>
	<polygon class="st18" points="207.7,341.3 203.5,341.3 228.7,421.3 	"/>
	<polygon class="st32" points="195.1,341.3 190.8,433.9 228.7,421.3 	"/>
	<polygon class="st36" points="203.5,341.3 195.1,341.3 228.7,421.3 	"/>
	<polygon class="st6" points="165.6,134.9 216.1,202.3 224.5,109.7 	"/>
	<polygon class="st16" points="199.3,67.6 224.5,109.7 258.2,76 	"/>
	<polygon class="st32" points="237.2,244.4 216.1,311.8 258.2,278.1 	"/>
	<polygon class="st37" points="249.8,252.8 237.2,244.4 258.2,278.1 	"/>
	<polygon class="st5" points="224.5,29.7 199.3,67.6 258.2,76 	"/>
	<polygon class="st27" points="207.7,341.3 228.7,421.3 262.4,362.3 	"/>
	<polygon class="st38" points="177.4,-4 241.4,17.1 260.7,-4 	"/>
	<polygon class="st4" points="224.5,109.7 216.1,202.3 266.6,168.6 	"/>
	<polygon class="st26" points="216.1,202.3 266.6,185.5 266.6,168.6 	"/>
	<polygon class="st0" points="216.1,202.3 237.2,219.2 266.6,185.5 	"/>
	<polygon class="st20" points="224.5,29.7 258.2,76 270.8,67.6 	"/>
	<polygon class="st27" points="216.1,311.8 207.7,341.3 262.4,362.3 	"/>
	<polygon class="st39" points="237.2,219.2 237.2,244.4 249.8,252.8 	"/>
	<polygon class="st6" points="258.2,76 224.5,109.7 279.3,101.3 	"/>
	<polygon class="st40" points="241.4,17.1 224.5,29.7 270.8,67.6 	"/>
	<polygon class="st41" points="262.4,362.3 275.1,362.3 283.5,341.3 	"/>
	<polygon class="st42" points="216.1,311.8 262.4,362.3 283.5,341.3 	"/>
	<polygon class="st42" points="283.5,307.6 216.1,311.8 283.5,341.3 	"/>
	<polygon class="st43" points="258.2,278.1 216.1,311.8 283.5,307.6 	"/>
	<polygon class="st26" points="224.5,109.7 266.6,168.6 287.7,143.4 	"/>
	<polygon class="st28" points="279.3,101.3 224.5,109.7 287.7,143.4 	"/>
	<polygon class="st44" points="270.8,67.6 258.2,76 279.3,101.3 	"/>
	<polygon class="st0" points="249.8,252.8 258.2,278.1 287.7,273.9 	"/>
	<polygon class="st11" points="258.2,278.1 283.5,307.6 287.7,273.9 	"/>
	<polygon class="st34" points="283.5,307.6 283.5,341.3 296.1,328.6 	"/>
	<polygon class="st45" points="262.4,362.3 228.7,421.3 296.1,391.8 	"/>
	<polygon class="st34" points="275.1,362.3 262.4,362.3 296.1,391.8 	"/>
	<polygon class="st41" points="287.7,273.9 283.5,307.6 291.9,303.4 	"/>
	<polygon class="st46" points="270.8,67.6 279.3,101.3 300.3,76 	"/>
	<polygon class="st26" points="249.8,252.8 287.7,273.9 300.3,252.8 	"/>
	<polygon class="st47" points="291.9,303.4 283.5,307.6 296.1,328.6 	"/>
	<polygon class="st48" points="291.9,303.4 296.1,328.6 312.9,307.6 	"/>
	<path class="st47" d="M231.8,460.9c7.7,0,15.5,0,23.2,0l-38.9-10.2l-4.2,8.5l10,1.7C225.2,460.9,228.5,460.9,231.8,460.9z"/>
	<path class="st49" d="M221.9,460.9l-10-1.7l0.6,1.6C215.6,460.8,218.7,460.8,221.9,460.9z"/>
	<polygon class="st50" points="296.1,391.8 228.7,421.3 304.5,400.2 	"/>
	<polygon class="st25" points="237.2,219.2 249.8,252.8 300.3,252.8 	"/>
	<polygon class="st51" points="266.6,185.5 237.2,219.2 300.3,252.8 	"/>
	<polygon class="st15" points="260.7,-4 241.4,17.1 270.8,67.6 	"/>
	<polygon class="st49" points="304.5,400.2 228.7,421.3 317.2,421.3 	"/>
	<path class="st49" d="M314.1,460.7l3.1-39.4h-88.5l60.8,39.5C297.7,460.7,305.9,460.7,314.1,460.7z"/>
	<path class="st34" d="M289.5,460.8l-60.8-39.5l-12.6,29.4l38.9,10.2C266.5,460.8,278,460.8,289.5,460.8z"/>
	<polygon class="st52" points="312.9,307.6 296.1,328.6 325.6,332.8 	"/>
	<path class="st53" d="M322.1,460.6l3.5-5.7l-8.4-33.6l-3.1,39.4C316.8,460.7,319.5,460.7,322.1,460.6z"/>
	<polygon class="st47" points="287.7,273.9 291.9,303.4 312.9,307.6 	"/>
	<polygon class="st54" points="304.5,400.2 317.2,421.3 329.8,412.8 	"/>
	<polygon class="st26" points="300.3,76 279.3,101.3 329.8,97.1 	"/>
	<polygon class="st55" points="260.7,-4 270.8,67.6 334,46.5 	"/>
	<polygon class="st16" points="270.8,67.6 300.3,76 334,46.5 	"/>
	<polygon class="st26" points="279.3,101.3 287.7,143.4 329.8,97.1 	"/>
	<polygon class="st52" points="296.1,328.6 283.5,341.3 325.6,332.8 	"/>
	<polygon class="st50" points="283.5,341.3 275.1,362.3 296.1,391.8 	"/>
	<polygon class="st23" points="266.6,168.6 266.6,185.5 287.7,143.4 	"/>
	<polygon class="st53" points="317.2,421.3 325.6,454.9 338.2,450.7 	"/>
	<path class="st56" d="M327.2,460.6l-1.6-5.7l-3.5,5.7C323.8,460.6,325.5,460.6,327.2,460.6z"/>
	<polygon class="st57" points="283.5,341.3 296.1,391.8 325.6,332.8 	"/>
	<polygon class="st44" points="300.3,76 329.8,97.1 346.6,59.2 	"/>
	<polygon class="st58" points="334,46.5 300.3,76 346.6,59.2 	"/>
	<polygon class="st59" points="287.7,143.4 266.6,185.5 346.6,172.8 	"/>
	<polygon class="st27" points="342.4,160.2 287.7,143.4 346.6,172.8 	"/>
	<polygon class="st40" points="260.7,-4 334,46.5 344.9,-4 	"/>
	<path class="st56" d="M337,460.6l1.2-9.9l-12.6,4.2l1.6,5.7C330.5,460.6,333.7,460.6,337,460.6z"/>
	<polygon class="st56" points="329.8,412.8 317.2,421.3 338.2,450.7 	"/>
	<polygon class="st41" points="300.3,252.8 287.7,273.9 312.9,307.6 	"/>
	<polygon class="st44" points="346.6,59.2 329.8,97.1 355.1,80.2 	"/>
	<polygon class="st23" points="329.8,97.1 287.7,143.4 342.4,160.2 	"/>
	<polygon class="st53" points="304.5,400.2 329.8,412.8 359.3,387.6 	"/>
	<polygon class="st24" points="266.6,185.5 300.3,252.8 346.6,172.8 	"/>
	<polygon class="st53" points="325.6,332.8 304.5,400.2 359.3,387.6 	"/>
	<polygon class="st34" points="346.6,172.8 300.3,252.8 355.1,236 	"/>
	<path class="st56" d="M343.1,460.5l-4.9-9.8l-1.2,9.9C339,460.5,341.1,460.5,343.1,460.5z"/>
	<polygon class="st60" points="296.1,391.8 304.5,400.2 325.6,332.8 	"/>
	<polygon class="st36" points="329.8,97.1 342.4,160.2 367.7,118.1 	"/>
	<polygon class="st26" points="355.1,80.2 329.8,97.1 367.7,118.1 	"/>
	<polygon class="st61" points="329.8,412.8 338.2,450.7 367.7,433.9 	"/>
	<polygon class="st61" points="338.2,450.7 367.7,438.1 367.7,433.9 	"/>
	<polygon class="st46" points="344.9,-4 334,46.5 367.7,25.5 	"/>
	<polygon class="st16" points="334,46.5 346.6,59.2 367.7,25.5 	"/>
	<polygon class="st11" points="342.4,160.2 346.6,172.8 363.5,177.1 	"/>
	<polygon class="st56" points="325.6,332.8 359.3,387.6 359.3,341.3 	"/>
	<polygon class="st42" points="342.4,160.2 363.5,177.1 376.1,151.8 	"/>
	<polygon class="st62" points="367.7,118.1 342.4,160.2 376.1,151.8 	"/>
	<polygon class="st56" points="359.3,387.6 329.8,412.8 367.7,433.9 	"/>
	<polygon class="st34" points="346.6,172.8 355.1,236 363.5,177.1 	"/>
	<polygon class="st45" points="300.3,252.8 312.9,307.6 355.1,236 	"/>
	<polygon class="st50" points="355.1,236 312.9,307.6 380.3,282.3 	"/>
	<path class="st61" d="M361.6,460.4l6.1-22.3l-29.5,12.6l4.9,9.8C349.3,460.5,355.5,460.5,361.6,460.4z"/>
	<polygon class="st63" points="367.7,118.1 376.1,151.8 384.5,139.2 	"/>
	<polygon class="st1" points="355.1,80.2 367.7,118.1 384.5,101.3 	"/>
	<polygon class="st57" points="312.9,307.6 325.6,332.8 380.3,282.3 	"/>
	<polygon class="st53" points="325.6,332.8 359.3,341.3 380.3,282.3 	"/>
	<polygon class="st56" points="380.3,282.3 359.3,341.3 388.7,299.2 	"/>
	<polygon class="st61" points="359.3,341.3 359.3,387.6 401.4,349.7 	"/>
	<polygon class="st41" points="376.1,151.8 363.5,177.1 405.6,177.1 	"/>
	<polygon class="st62" points="384.5,101.3 367.7,118.1 384.5,139.2 	"/>
	<polygon class="st61" points="401.4,349.7 359.3,387.6 409.8,383.4 	"/>
	<polygon class="st61" points="388.7,299.2 359.3,341.3 401.4,349.7 	"/>
	<polygon class="st46" points="346.6,59.2 355.1,80.2 367.7,25.5 	"/>
	<polygon class="st49" points="363.5,177.1 355.1,236 418.2,214.9 	"/>
	<polygon class="st49" points="405.6,177.1 363.5,177.1 418.2,214.9 	"/>
	<polygon class="st61" points="359.3,387.6 367.7,433.9 409.8,383.4 	"/>
	<polygon class="st11" points="384.5,139.2 376.1,151.8 405.6,177.1 	"/>
	<polygon class="st61" points="409.8,383.4 367.7,433.9 422.4,400.2 	"/>
	<polygon class="st16" points="367.7,25.5 355.1,80.2 418.2,38.1 	"/>
	<polygon class="st0" points="355.1,80.2 384.5,101.3 418.2,38.1 	"/>
	<polygon class="st25" points="344.9,-4 367.7,25.5 428.3,-4 	"/>
	<path class="st61" d="M389.8,460.2l-22.1-22.1l-6.1,22.3C371,460.4,380.4,460.3,389.8,460.2z"/>
	<polygon class="st26" points="367.7,25.5 418.2,38.1 428.3,-4 	"/>
	<polygon class="st57" points="355.1,236 380.3,282.3 418.2,214.9 	"/>
	<polygon class="st53" points="380.3,282.3 388.7,299.2 439.3,273.9 	"/>
	<polygon class="st56" points="418.2,214.9 380.3,282.3 439.3,273.9 	"/>
	<polygon class="st61" points="367.7,433.9 367.7,438.1 422.4,400.2 	"/>
	<polygon class="st61" points="388.7,299.2 401.4,349.7 451.9,320.2 	"/>
	<polygon class="st34" points="384.5,139.2 405.6,177.1 451.9,139.2 	"/>
	<polygon class="st6" points="418.2,38.1 384.5,101.3 451.9,71.8 	"/>
	<polygon class="st18" points="418.2,38.1 451.9,71.8 456.1,54.9 	"/>
	<polygon class="st61" points="439.3,273.9 388.7,299.2 451.9,320.2 	"/>
	<polygon class="st11" points="384.5,101.3 384.5,139.2 451.9,139.2 	"/>
	<path class="st61" d="M422.4,460v-59.8l-54.7,37.9l22.1,22.1C400.7,460.2,411.5,460.1,422.4,460z"/>
	<polygon class="st24" points="451.9,71.8 384.5,101.3 451.9,139.2 	"/>
	<polygon class="st61" points="409.8,383.4 422.4,400.2 468.7,387.6 	"/>
	<polygon class="st42" points="451.9,71.8 451.9,139.2 468.7,92.8 	"/>
	<polygon class="st61" points="451.9,320.2 401.4,349.7 464.5,332.8 	"/>
	<polygon class="st61" points="401.4,349.7 409.8,383.4 464.5,332.8 	"/>
	<polygon class="st61" points="464.5,332.8 468.7,387.6 477.2,349.7 	"/>
	<polygon class="st61" points="464.5,332.8 409.8,383.4 468.7,387.6 	"/>
	<polygon class="st6" points="428.3,-4 418.2,38.1 456.1,54.9 	"/>
	<polygon class="st59" points="456.1,54.9 451.9,71.8 472.9,50.7 	"/>
	<polygon class="st39" points="428.3,-4 456.1,54.9 485.6,25.5 	"/>
	<polygon class="st62" points="456.1,54.9 472.9,50.7 485.6,25.5 	"/>
	<polygon class="st49" points="405.6,177.1 418.2,214.9 451.9,139.2 	"/>
	<polygon class="st61" points="477.2,349.7 468.7,387.6 494,366.5 	"/>
	<polygon class="st27" points="451.9,71.8 468.7,92.8 472.9,50.7 	"/>
	<polygon class="st26" points="428.3,-4 485.6,25.5 498.2,0.2 	"/>
	<polygon class="st61" points="477.2,349.7 494,366.5 502.4,362.3 	"/>
	<path class="st61" d="M463.8,459.8l-41.4-59.6V460C436.2,459.9,450,459.8,463.8,459.8z"/>
	<path class="st61" d="M482.6,459.6l-13.9-72l-46.3,12.6l41.4,59.6C470.1,459.7,476.3,459.7,482.6,459.6z"/>
	<polygon class="st61" points="439.3,273.9 451.9,320.2 515.1,265.5 	"/>
	<polygon class="st61" points="451.9,320.2 464.5,332.8 523.5,299.2 	"/>
	<polygon class="st61" points="515.1,265.5 451.9,320.2 523.5,299.2 	"/>
	<polygon class="st61" points="464.5,332.8 477.2,349.7 527.7,311.8 	"/>
	<polygon class="st61" points="523.5,299.2 464.5,332.8 527.7,311.8 	"/>
	<polygon class="st56" points="418.2,214.9 439.3,273.9 515.1,265.5 	"/>
	<polygon class="st61" points="477.2,349.7 502.4,362.3 527.7,311.8 	"/>
	<polygon class="st56" points="418.2,214.9 515.1,265.5 536.1,223.4 	"/>
	<polygon class="st62" points="498.2,0.2 485.6,25.5 512.5,-4 	"/>
	<polygon class="st61" points="527.7,311.8 502.4,362.3 540.3,341.3 	"/>
	<polygon class="st56" points="451.9,139.2 418.2,214.9 536.1,223.4 	"/>
	<polygon class="st50" points="468.7,92.8 451.9,139.2 544.5,139.2 	"/>
	<polygon class="st61" points="515.1,265.5 523.5,299.2 552.9,282.3 	"/>
	<polygon class="st61" points="527.7,311.8 540.3,341.3 544.5,341.3 	"/>
	<polygon class="st54" points="451.9,139.2 536.1,223.4 544.5,139.2 	"/>
	<polygon class="st61" points="523.5,299.2 527.7,311.8 552.9,282.3 	"/>
	<polygon class="st61" points="502.4,362.3 494,366.5 565.6,412.8 	"/>
	<polygon class="st61" points="494,366.5 468.7,387.6 565.6,412.8 	"/>
	<polygon class="st57" points="544.5,139.2 536.1,223.4 569.8,172.8 	"/>
	<path class="st61" d="M523.6,459.5l42-46.7l-96.9-25.2l13.9,72C496.3,459.6,510,459.5,523.6,459.5z"/>
	<polygon class="st23" points="512.5,-4 485.6,25.5 561.4,4.4 	"/>
	<polygon class="st61" points="536.1,223.4 515.1,265.5 552.9,282.3 	"/>
	<polygon class="st61" points="527.7,311.8 544.5,341.3 578.2,320.2 	"/>
	<polygon class="st61" points="552.9,282.3 527.7,311.8 578.2,320.2 	"/>
	<polygon class="st62" points="485.6,25.5 472.9,50.7 578.2,50.7 	"/>
	<polygon class="st25" points="561.4,4.4 485.6,25.5 578.2,50.7 	"/>
	<polygon class="st22" points="578.2,25.5 561.4,4.4 578.2,50.7 	"/>
	<polygon class="st57" points="569.8,172.8 536.1,223.4 578.2,189.7 	"/>
	<polygon class="st61" points="540.3,341.3 502.4,362.3 565.6,412.8 	"/>
	<polygon class="st61" points="544.5,341.3 540.3,341.3 565.6,412.8 	"/>
	<polygon class="st50" points="544.5,139.2 569.8,172.8 582.4,143.4 	"/>
	<polygon class="st63" points="472.9,50.7 468.7,92.8 578.2,50.7 	"/>
	<polygon class="st60" points="578.2,189.7 536.1,223.4 586.6,202.3 	"/>
	<polygon class="st33" points="561.4,4.4 578.2,25.5 586.6,0.2 	"/>
	<polygon class="st24" points="468.7,92.8 544.5,139.2 578.2,50.7 	"/>
	<path class="st61" d="M563.7,459.4l1.9-46.6l-42,46.7C537,459.4,550.3,459.4,563.7,459.4z"/>
	<polygon class="st24" points="428.3,-4 498.2,0.2 512.5,-4 	"/>
	<polygon class="st56" points="536.1,223.4 552.9,282.3 599.3,269.7 	"/>
	<polygon class="st56" points="552.9,282.3 578.2,320.2 599.3,269.7 	"/>
	<polygon class="st53" points="586.6,202.3 536.1,223.4 599.3,269.7 	"/>
	<polygon class="st64" points="595.9,-4 586.6,0.2 599.3,-4 	"/>
	<polygon class="st8" points="586.6,0.2 578.2,25.5 599.3,-4 	"/>
	<polygon class="st24" points="578.2,50.7 544.5,139.2 582.4,143.4 	"/>
	<polygon class="st12" points="561.4,4.4 586.6,0.2 595.9,-4 	"/>
	<polygon class="st52" points="569.8,172.8 578.2,189.7 582.4,143.4 	"/>
	<polygon class="st61" points="544.5,341.3 565.6,412.8 578.2,320.2 	"/>
	<polygon class="st57" points="578.2,189.7 586.6,202.3 637.2,193.9 	"/>
	<polygon class="st1" points="578.2,50.7 582.4,143.4 632.9,76 	"/>
	<polygon class="st61" points="578.2,320.2 565.6,412.8 632.9,391.8 	"/>
	<polygon class="st48" points="582.4,143.4 578.2,189.7 637.2,193.9 	"/>
	<polygon class="st45" points="582.4,143.4 637.2,193.9 645.6,139.2 	"/>
	<polygon class="st53" points="599.3,269.7 578.2,320.2 654,316 	"/>
	<polygon class="st18" points="632.9,76 582.4,143.4 645.6,139.2 	"/>
	<polygon class="st57" points="599.3,269.7 654,316 658.2,299.2 	"/>
	<polygon class="st60" points="586.6,202.3 599.3,269.7 637.2,193.9 	"/>
	<polygon class="st29" points="578.2,25.5 578.2,50.7 632.9,76 	"/>
	<polygon class="st22" points="512.5,-4 561.4,4.4 595.9,-4 	"/>
	<polygon class="st56" points="578.2,320.2 632.9,391.8 658.2,370.7 	"/>
	<polygon class="st56" points="654,316 578.2,320.2 658.2,370.7 	"/>
	<polygon class="st65" points="599.3,-4 578.2,25.5 658.2,12.8 	"/>
	<polygon class="st55" points="578.2,25.5 632.9,76 658.2,12.8 	"/>
	<path class="st61" d="M569.3,459.4c5.1,0,10.2,0,15.3,0l-19-46.6l-1.9,46.6C565.6,459.4,567.4,459.4,569.3,459.4z"/>
	<polygon class="st56" points="654,316 658.2,370.7 662.4,320.2 	"/>
	<polygon class="st54" points="658.2,299.2 654,316 662.4,320.2 	"/>
	<path class="st61" d="M604.5,459.4l-38.9-46.6l19,46.6C591.2,459.4,597.8,459.4,604.5,459.4z"/>
	<polygon class="st53" points="662.4,320.2 658.2,370.7 679.3,353.9 	"/>
	<path class="st61" d="M642.3,459.6l-9.4-67.8l-67.3,21l38.9,46.6C617.1,459.5,629.7,459.6,642.3,459.6z"/>
	<polygon class="st37" points="632.9,76 645.6,139.2 683.5,76 	"/>
	<polygon class="st15" points="658.2,12.8 632.9,76 683.5,76 	"/>
	<polygon class="st66" points="599.3,-4 658.2,12.8 680.1,-4 	"/>
	<polygon class="st61" points="658.2,370.7 632.9,391.8 696.1,412.8 	"/>
	<polygon class="st48" points="637.2,193.9 599.3,269.7 696.1,269.7 	"/>
	<polygon class="st52" points="599.3,269.7 658.2,299.2 696.1,269.7 	"/>
	<polygon class="st62" points="645.6,139.2 637.2,193.9 696.1,139.2 	"/>
	<polygon class="st4" points="683.5,76 645.6,139.2 696.1,139.2 	"/>
	<path class="st61" d="M674.5,459.9l21.6-47.1l-63.2-21l9.4,67.8C653,459.7,663.8,459.8,674.5,459.9z"/>
	<polygon class="st61" points="679.3,353.9 658.2,370.7 696.1,412.8 	"/>
	<polygon class="st53" points="662.4,320.2 679.3,353.9 717.2,320.2 	"/>
	<polygon class="st60" points="658.2,299.2 662.4,320.2 717.2,320.2 	"/>
	<polygon class="st48" points="696.1,269.7 658.2,299.2 717.2,320.2 	"/>
	<polygon class="st19" points="712.9,80.2 696.1,139.2 721.4,88.6 	"/>
	<polygon class="st25" points="683.5,76 696.1,139.2 712.9,80.2 	"/>
	<polygon class="st26" points="729.8,126.5 696.1,139.2 729.8,134.9 	"/>
	<polygon class="st43" points="637.2,193.9 696.1,269.7 729.8,236 	"/>
	<polygon class="st26" points="721.4,88.6 696.1,139.2 729.8,126.5 	"/>
	<polygon class="st7" points="680.1,-4 658.2,12.8 683.5,76 	"/>
	<polygon class="st59" points="729.8,236 696.1,269.7 738.2,244.4 	"/>
	<polygon class="st32" points="696.1,139.2 637.2,193.9 729.8,236 	"/>
	<polygon class="st5" points="680.1,-4 683.5,76 712.9,80.2 	"/>
	<polygon class="st22" points="721.4,88.6 729.8,126.5 750.8,101.3 	"/>
	<polygon class="st32" points="738.2,244.4 696.1,269.7 750.8,261.3 	"/>
	<polygon class="st1" points="696.1,139.2 729.8,236 750.8,214.9 	"/>
	<polygon class="st39" points="712.9,80.2 721.4,88.6 759.3,71.8 	"/>
	<polygon class="st58" points="721.4,88.6 750.8,101.3 759.3,71.8 	"/>
	<polygon class="st43" points="696.1,269.7 717.2,320.2 750.8,261.3 	"/>
	<polygon class="st4" points="729.8,236 738.2,244.4 750.8,214.9 	"/>
	<polygon class="st0" points="750.8,261.3 763.5,303.4 763.5,273.9 	"/>
	<polygon class="st62" points="750.8,261.3 717.2,320.2 763.5,303.4 	"/>
	<polygon class="st6" points="729.8,134.9 696.1,139.2 750.8,214.9 	"/>
	<path class="st56" d="M699.3,460.2l-3.2-47.4l-21.6,47.1C682.8,460,691,460.1,699.3,460.2z"/>
	<polygon class="st46" points="712.9,80.2 763.5,67.6 771.9,21.3 	"/>
	<polygon class="st40" points="680.1,-4 712.9,80.2 771.9,21.3 	"/>
	<polygon class="st37" points="763.5,-4 680.1,-4 771.9,21.3 	"/>
	<polygon class="st8" points="729.8,126.5 729.8,134.9 771.9,139.2 	"/>
	<polygon class="st29" points="759.3,71.8 750.8,101.3 771.9,84.4 	"/>
	<polygon class="st25" points="712.9,80.2 759.3,71.8 763.5,67.6 	"/>
	<polygon class="st35" points="750.8,101.3 729.8,126.5 771.9,139.2 	"/>
	<polygon class="st39" points="763.5,67.6 759.3,71.8 771.9,84.4 	"/>
	<path class="st53" d="M748.2,461.1l15.3-27.2l-67.4-21.1l3.2,47.4C715.6,460.5,731.9,460.8,748.2,461.1z"/>
	<polygon class="st28" points="771.9,21.3 763.5,67.6 776.1,25.5 	"/>
	<polygon class="st56" points="679.3,353.9 696.1,412.8 717.2,320.2 	"/>
	<polygon class="st16" points="750.8,101.3 771.9,139.2 784.5,122.3 	"/>
	<polygon class="st15" points="771.9,84.4 750.8,101.3 780.3,88.6 	"/>
	<polygon class="st52" points="717.2,320.2 696.1,412.8 788.7,370.7 	"/>
	<polygon class="st34" points="696.1,412.8 763.5,433.9 788.7,370.7 	"/>
	<polygon class="st30" points="780.3,88.6 750.8,101.3 784.5,122.3 	"/>
	<polygon class="st22" points="729.8,134.9 750.8,214.9 771.9,139.2 	"/>
	<polygon class="st4" points="750.8,214.9 738.2,244.4 750.8,261.3 	"/>
	<polygon class="st67" points="763.5,303.4 717.2,320.2 788.7,370.7 	"/>
	<polygon class="st68" points="780.3,88.6 784.5,122.3 797.2,101.3 	"/>
	<polygon class="st40" points="797.2,101.3 784.5,122.3 805.6,109.7 	"/>
	<polygon class="st37" points="763.5,273.9 763.5,303.4 805.6,269.7 	"/>
	<polygon class="st55" points="763.5,67.6 771.9,84.4 780.3,88.6 	"/>
	<polygon class="st40" points="771.9,139.2 750.8,214.9 814,193.9 	"/>
	<polygon class="st51" points="750.8,261.3 763.5,273.9 805.6,269.7 	"/>
	<path class="st54" d="M760.7,461.4l2.8-27.5l-15.3,27.2C752.4,461.2,756.6,461.3,760.7,461.4z"/>
	<polygon class="st31" points="763.5,303.4 788.7,370.7 818.2,324.4 	"/>
	<polygon class="st29" points="750.8,214.9 750.8,261.3 805.6,269.7 	"/>
	<polygon class="st29" points="763.5,-4 771.9,21.3 822.4,4.4 	"/>
	<polygon class="st26" points="771.9,21.3 776.1,25.5 822.4,4.4 	"/>
	<polygon class="st4" points="818.2,324.4 788.7,370.7 822.4,366.5 	"/>
	<polygon class="st37" points="805.6,269.7 763.5,303.4 818.2,324.4 	"/>
	<path class="st47" d="M776.9,461.8l-13.4-27.9l-2.8,27.5C766.1,461.5,771.5,461.7,776.9,461.8z"/>
	<path class="st27" d="M829.1,463.4l1.7-8.5l-67.3-21l13.4,27.9C794.3,462.3,811.7,462.8,829.1,463.4z"/>
	<polygon class="st22" points="814,193.9 805.6,269.7 826.6,257.1 	"/>
	<polygon class="st69" points="750.8,214.9 805.6,269.7 814,193.9 	"/>
	<polygon class="st25" points="776.1,25.5 763.5,67.6 780.3,88.6 	"/>
	<polygon class="st28" points="843.5,299.2 818.2,324.4 843.5,307.6 	"/>
	<polygon class="st8" points="784.5,122.3 771.9,139.2 843.5,164.4 	"/>
	<polygon class="st9" points="771.9,139.2 814,193.9 843.5,164.4 	"/>
	<polygon class="st16" points="805.6,269.7 818.2,324.4 843.5,299.2 	"/>
	<polygon class="st16" points="797.2,101.3 805.6,109.7 847.7,92.8 	"/>
	<polygon class="st8" points="805.6,109.7 784.5,122.3 843.5,164.4 	"/>
	<polygon class="st68" points="826.6,257.1 805.6,269.7 843.5,299.2 	"/>
	<polygon class="st23" points="788.7,370.7 763.5,433.9 830.8,454.9 	"/>
	<polygon class="st12" points="805.6,109.7 843.5,164.4 856.1,143.4 	"/>
	<path class="st63" d="M833.7,463.6l-2.9-8.7l-1.7,8.5C830.6,463.5,832.2,463.6,833.7,463.6z"/>
	<polygon class="st2" points="822.4,366.5 788.7,370.7 830.8,454.9 	"/>
	<polygon class="st33" points="814,193.9 826.6,257.1 860.3,227.6 	"/>
	<polygon class="st40" points="860.3,214.9 814,193.9 860.3,227.6 	"/>
	<polygon class="st69" points="843.5,164.4 814,193.9 860.3,214.9 	"/>
	<polygon class="st16" points="847.7,92.8 805.6,109.7 856.1,143.4 	"/>
	<polygon class="st22" points="776.1,25.5 780.3,88.6 847.7,92.8 	"/>
	<polygon class="st39" points="822.4,4.4 776.1,25.5 847.7,92.8 	"/>
	<polygon class="st70" points="780.3,88.6 797.2,101.3 847.7,92.8 	"/>
	<polygon class="st28" points="856.1,143.4 843.5,164.4 872.9,177.1 	"/>
	<polygon class="st20" points="843.5,164.4 860.3,214.9 872.9,177.1 	"/>
	<polygon class="st6" points="818.2,324.4 822.4,366.5 843.5,307.6 	"/>
	<polygon class="st44" points="847.7,-4 822.4,4.4 872.9,4.4 	"/>
	<polygon class="st44" points="763.5,-4 822.4,4.4 847.7,-4 	"/>
	<polygon class="st5" points="822.4,4.4 847.7,92.8 872.9,4.4 	"/>
	<polygon class="st55" points="847.7,-4 872.9,4.4 894,-4 	"/>
	<path class="st23" d="M844.2,464l-13.4-9.1l2.9,8.7C837.2,463.7,840.7,463.9,844.2,464z"/>
	<polygon class="st39" points="847.7,92.8 856.1,143.4 894,79.4 	"/>
	<polygon class="st12" points="894,-4 872.9,4.4 894,79.4 	"/>
	<polygon class="st7" points="872.9,4.4 847.7,92.8 894,79.4 	"/>
	<polygon class="st5" points="894,79.4 856.1,143.4 894,162.7 	"/>
	<polygon class="st71" points="856.1,143.4 872.9,177.1 894,162.7 	"/>
	<polygon class="st33" points="860.3,227.6 826.6,257.1 894,246.9 	"/>
	<polygon class="st33" points="826.6,257.1 843.5,299.2 894,246.9 	"/>
	<polygon class="st46" points="894,162.7 872.9,177.1 894,246.9 	"/>
	<polygon class="st33" points="872.9,177.1 860.3,214.9 894,246.9 	"/>
	<polygon class="st12" points="860.3,214.9 860.3,227.6 894,246.9 	"/>
	<polygon class="st12" points="843.5,307.6 822.4,366.5 894,330.3 	"/>
	<polygon class="st71" points="894,246.9 843.5,299.2 894,330.3 	"/>
	<polygon class="st13" points="843.5,299.2 843.5,307.6 894,330.3 	"/>
	<path class="st37" d="M861.4,464.7c2.7-0.6,5.3-1.2,8-1.8c0.1,0,0.1,0,0.2,0c2.6-0.6,5.3-1.1,8-1.7c0,0,0.1,0,0.1,0
		c5.4-1.1,10.8-2.1,16.3-3v-43.7l-63.2,40.4l13.4,9.1C849.9,464.2,855.7,464.5,861.4,464.7z"/>
	<polygon class="st9" points="894,330.3 822.4,366.5 894,414.5 	"/>
	<polygon class="st39" points="822.4,366.5 830.8,454.9 894,414.5 	"/>
</g>
</svg>
