<?xml version="1.0" encoding="utf-8"?>
<!-- Generator: Adobe Illustrator 19.0.0, SVG Export Plug-In . SVG Version: 6.00 Build 0)  -->
<svg version="1.1" id="Layer_1" xmlns="http://www.w3.org/2000/svg" xmlns:xlink="http://www.w3.org/1999/xlink" x="0px" y="0px"
	 viewBox="0 0 100 100" style="enable-background:new 0 0 100 100;" xml:space="preserve">
<style type="text/css">
	.st0{display:none;fill:#FFFFFF;}
	.st1{display:none;}
	.st2{display:inline;fill:#e31d1a;}
	.st3{display:inline;fill:#FFFFFF;}
	.st4{display:inline;fill:none;stroke:#FFFFFF;stroke-width:5;stroke-miterlimit:10;}
	.st5{display:inline;fill:#FFFFFF;stroke:#FFFFFF;stroke-width:0.25;stroke-miterlimit:10;}
	.st6{display:inline;fill:#313131;}
	.st7{fill:#313131;}
	.st8{fill:#e31d1a;}
	.st9{fill:#FFFFFF;}
	.st10{display:none;fill:#F21414;stroke:#FFFFFF;stroke-width:0.25;stroke-miterlimit:10;}
	.st11{display:inline;}
	.st12{opacity:0.45;fill:#040404;}
	.st13{fill:#FFFFFF;stroke:#FFFFFF;stroke-width:0.25;stroke-miterlimit:10;}
	.st14{fill:#e31d1a;stroke:#FFFFFF;stroke-width:0.25;stroke-miterlimit:10;}
</style>
<image style="display:none;overflow:visible;" width="225" height="225" xlink:href="5E1EAE3A7F853EE9.jpg"  transform="matrix(0.4444 0 0 0.4444 -66 -286)">
</image>
<path class="st0" d="M-33.6-250.5c3.3,0,6.5,0,9.8,0c0.2-0.9,1.1-4,4.1-6.2c0.7-0.5,3.1-2.2,6.5-2.1c0.8,0,4.6,0.2,7,3.3
	c1.4,1.9,1.6,4,1.6,4.9c-1,2.8-2.4,4.5-3.5,5.5c-1.8,1.8-2.6,1.6-5.4,4.1c-1.5,1.3-2.7,2.5-3.8,4.4c-0.9,1.7-1.3,3.2-1.4,4.3
	c0,2,0,3.9,0,5.9c3,0,5.9,0,8.9,0c0.1-1.5,0.2-3,0.3-4.4c0.4-1.1,1.2-2.7,2.7-4.3c1.7-1.8,2.8-1.8,5.2-4c1.1-1,2.6-2.5,4-4.4
	c1.4-2.1,2.3-4.2,2.8-5.9c0.1-1.4,0.1-3.9-1.1-6.6c-0.8-1.9-1.8-3.1-2.5-4c-2.4-2.9-5-4.3-5.5-4.6c-3.5-1.8-6.6-2-8.5-2.1
	c-2.8-0.1-8.9-0.3-14.2,4C-32.2-258.2-33.3-252.2-33.6-250.5z"/>
<g id="question_x5F_icon" class="st1">
	<rect x="-57" y="-191" class="st2" width="100" height="100"/>
	<path class="st3" d="M-9.9-127.5c3.3,0,6.6,0,10,0c0,3.4,0,6.9,0,10.3c-3.4,0-6.8,0-10.1,0C-10-120.6-9.9-124.1-9.9-127.5z"/>
	<circle class="st4" cx="-6.3" cy="-143.6" r="40.5"/>
	<path class="st5" d="M-24.4-155.8c3.1,0,6.3,0,9.4,0c2.1-5.1,6.6-8.1,11-7.8c3.3,0.3,7.3,2.6,7.9,6c0.6,3.5-2.5,6.7-3.3,7.6
		c-2.2,2.3-3.6,2-6.5,5.1c-1.5,1.7-2.3,3-2.7,3.8c-1,1.9-1.3,3.5-1.4,4.1c-0.4,2.3-0.3,4.3,0,5.7c3.1,0,6.1,0,9.2,0
		c0-1,0.1-2.1,0.1-3.1c0.5-2.1,1.4-3.5,2-4.2c0.8-1.1,1.6-1.8,2.3-2.3c1.3-1.1,2.3-1.5,3-2c1.3-1,3.7-2.9,5.4-6
		c0.6-1.2,1.6-3.3,1.7-6.3c0-1.9-0.4-5.6-2.8-9.2c-4.5-6.5-12.4-7.1-14.4-7.3c-1.9-0.1-6.7-0.4-11.6,2.4
		C-22.5-165.1-24.2-157.2-24.4-155.8z"/>
</g>
<g id="_x39_RHpmW.tif" class="st1">
	
		<image style="display:inline;overflow:visible;" width="256" height="249" id="Layer_0_1_" xlink:href="5E1EAE3A7F853EED.png"  transform="matrix(0.1874 0 0 0.1874 -40.2341 -258.9081)">
	</image>
</g>
<g id="yes_x5F_icon" class="st1">
	<rect x="-66" y="-286" class="st6" width="100" height="100"/>
	<circle class="st4" cx="-16.3" cy="-235.6" r="40.5"/>
	<path class="st3" d="M-31.1-236.2c3.3,2.9,6.6,5.8,9.9,8.8c6.1-9.6,12.2-19.2,18.2-28.9c1.7-1.9,4.6-2.4,6.8-1
		c2.2,1.4,3.1,4.2,2,6.6c-7.9,12-15.8,23.9-23.6,35.9c0,0.1-0.6,1.2-1.9,1.5c-1.3,0.2-2.2-0.5-2.2-0.6c-5.5-5.3-11-10.6-16.5-15.9
		c-1.1-1.9-1.1-4.2,0.1-5.8C-36.8-237.6-33.5-238.1-31.1-236.2z"/>
</g>
<g id="JqKaif.tif" class="st1">
	
		<image style="display:inline;overflow:visible;" width="117" height="90" id="Layer_1_1_" xlink:href="5E1EAE3A7F853EE4.png"  transform="matrix(0.7821 0 0 0.7821 -53 -176.3322)">
	</image>
</g>
<g id="people" class="st1">
	<circle class="st6" cx="-6.7" cy="-139.7" r="8.8"/>
	<circle class="st6" cx="-7.2" cy="-166.2" r="9.3"/>
	<path class="st6" d="M-13.8-148.7c-0.6,0.8-1.2,1.6-1.8,2.4c-0.6,1-1.2,1.9-1.8,2.9c-0.5,0.8-1,1.6-1.5,2.4
		c-0.9,0.5-2.2,1.2-3.8,1.2c-4,0.1-8.8-3.6-8.8-8.8c0-4.7,3.9-8.8,8.8-8.8C-17.8-157.6-13.8-153.6-13.8-148.7z"/>
	<path class="st6" d="M-29.4-157.7c-0.6,0.8-1.2,1.6-1.8,2.4c-0.6,1-1.2,1.9-1.8,2.9c-0.5,0.8-1,1.6-1.5,2.4
		c-0.9,0.5-2.2,1.2-3.8,1.2c-4,0.1-8.8-3.6-8.8-8.8c0-4.7,3.9-8.8,8.8-8.8C-33.3-166.6-29.4-162.6-29.4-157.7z"/>
	<path class="st6" d="M0-148.7c0.6,0.8,1.2,1.6,1.8,2.4c0.6,1,1.2,1.9,1.8,2.9c0.5,0.8,1,1.6,1.5,2.4c0.9,0.5,2.2,1.2,3.8,1.2
		c4,0.1,8.8-3.6,8.8-8.8c0-4.7-3.9-8.8-8.8-8.8C4-157.6,0-153.6,0-148.7z"/>
	<path class="st6" d="M15-158.4c0.6,0.8,1.2,1.6,1.8,2.4c0.6,1,1.2,1.9,1.8,2.9c0.5,0.8,1,1.6,1.5,2.4c0.9,0.5,2.2,1.2,3.8,1.2
		c4,0.1,8.8-3.6,8.8-8.8c0-4.7-3.9-8.8-8.8-8.8C19-167.2,15-163.2,15-158.4z"/>
	<path class="st6" d="M-34.8-147.4c-0.1,1,0,2.6,0.9,4c1.2,2,3,2.5,2.9,3.4c-0.1,1.1-2.9,0.6-5.4,2.4c-3.1,2.2-4,6.5-4,8.6
		c0,1.6,0,3.2,0,4.8c-4.2-0.6-8.3-1.2-12.5-1.9c0-3.8,0-7.7,0-11.5c0.3-1.3,1.2-3.8,3.4-6.1c2.3-2.4,4.7-3.4,5.4-3.6
		C-39.8-148.9-36-147.8-34.8-147.4z"/>
	<path class="st6" d="M-18.2-138.2c-0.1,0.9,0,2.4,0.8,3.9c1,2,2.6,2.4,2.5,3.4c-0.1,1.4-3.3,1-5.9,3.4c-2.3,2.2-2.8,5.4-3.1,7.5
		c-0.3,1.9-0.2,3.4-0.1,4.5c-4.6-0.8-9.2-1.5-13.9-2.2c0-3.8,0-7.5,0-11.2c0.4-1.3,1.5-4,4.1-6.2c2.3-2,4.6-2.7,5.8-3
		C-23.8-139.6-20.1-138.8-18.2-138.2z"/>
	<path class="st6" d="M4.7-138.2c0.1,0.9,0,2.4-0.8,3.9c-1,2-2.6,2.4-2.5,3.4c0.1,1.4,3.3,1,5.9,3.4c2.3,2.2,2.8,5.4,3.1,7.5
		c0.3,1.9,0.2,3.4,0.1,4.5c4.6-0.8,9.1-1.7,13.7-2.5c0-3.6,0-7.2,0-10.8c-0.3-1.3-1.3-4.1-3.9-6.5c-2.2-2-4.4-2.6-5.8-3
		C10.3-139.6,6.5-138.8,4.7-138.2z"/>
	<path class="st6" d="M20.4-147.4c0.1,1,0,2.6-0.9,4c-1.2,2-3,2.5-2.9,3.4c0.1,1.1,2.9,0.6,5.4,2.4c3.1,2.2,4,6.5,4,8.6
		c0,1.6,0,3.2,0,4.8c4.2-0.6,8.3-1.2,12.5-1.9c0-3.8,0-7.7,0-11.5c-0.3-1.3-1.2-3.8-3.4-6.1c-2.3-2.4-4.7-3.4-5.4-3.6
		C25.5-148.9,21.6-147.8,20.4-147.4z"/>
	<path class="st6" d="M-21.6-121.9c0.6-1.1,1.7-2.7,3.4-4.2c1.8-1.6,3.7-2.5,4.9-3c4.4,0,8.8,0,13.2,0c1.2,0.4,3.4,1.4,5.4,3.5
		c1.6,1.7,2.5,3.4,2.9,4.6c0,3.9,0,7.9,0,11.8c-3.1,1.2-8.4,2.9-15.1,2.9c-6.5,0-11.7-1.6-14.8-2.9
		C-21.6-113.5-21.6-117.7-21.6-121.9z"/>
	<path class="st6" d="M-32-167.2c0.2-0.5,1.5-3.9,5.2-5.4c4.4-1.7,8.2,0.8,8.5,1c0.2,4.2,0.5,8.3,0.8,12.5c-0.7,0-1.3,0-2,0
		c-0.2-0.4-0.4-0.8-0.6-1.1c-1.8,0-3.5,0-5.2,0c-0.1,0.4-0.2,0.8-0.2,1.2c-0.6-0.1-1.2-0.2-1.8-0.2C-28.9-161.9-30.5-164.6-32-167.2
		z"/>
	<path class="st6" d="M17.6-167.7c-0.2-0.5-1.5-3.9-5.2-5.4c-4.4-1.7-8.2,0.8-8.5,1c-0.2,4.2-0.5,8.3-0.8,12.5c0.7,0,1.3,0,2,0
		c0.2-0.4,0.4-0.8,0.6-1.1c1.8,0,3.5,0,5.2,0c0.1,0.4,0.2,0.8,0.2,1.2c0.6-0.1,1.2-0.2,1.8-0.2C14.6-162.4,16.1-165,17.6-167.7z"/>
	<path class="st6" d="M-13-155.2c3.9,0,7.8,0,11.6,0c0,0.5,0,1.1,0,1.6c0,0,0,0,0,0c-0.4,0-0.8,0-1.3,0c0,1,0,1.9,0,2.9
		c-0.7,0-1.4,0-2.1,0c-1.1,0-2.2,0-3.4,0c-1.2,0-2.3,0-3.5,0c0-1,0-1.9,0-2.9c-0.5,0-0.9,0-1.4,0C-13-154.2-13-154.7-13-155.2z"/>
</g>
<g id="Pt1vgW.tif" class="st1">
	
		<image style="display:inline;overflow:visible;" width="197" height="62" id="Layer_1_2_" xlink:href="5E1EAE3A7F853EE7.png"  transform="matrix(0.4867 0 0 0.4867 2.1164 33.535)">
	</image>
</g>
<g id="_x31_23_x5F_icon">
	<circle class="st7" cx="17.1" cy="48.8" r="15.1"/>
	<circle class="st7" cx="50.1" cy="48.8" r="15.1"/>
	<circle class="st8" cx="82.7" cy="48.9" r="15.1"/>
	<g id="_x31_23">
		<g id="_x31_">
			<path class="st9" d="M13.9,45.9v-1.5c0.7,0,1.2-0.1,1.5-0.1c0.4-0.1,0.8-0.3,1.1-0.6c0.2-0.2,0.3-0.5,0.4-0.8
				c0.1-0.2,0.1-0.4,0.1-0.5h1.9v11.3h-2.3v-7.8H13.9z"/>
		</g>
		<g id="_x32_">
			<path class="st9" d="M46.9,51.4c0.3-0.8,1.1-1.6,2.2-2.4c1-0.7,1.7-1.3,2-1.6c0.5-0.5,0.7-1,0.7-1.6c0-0.5-0.1-0.9-0.4-1.2
				c-0.3-0.3-0.6-0.5-1.1-0.5c-0.7,0-1.1,0.3-1.4,0.8c-0.1,0.3-0.2,0.8-0.2,1.4h-2.2c0-1,0.2-1.7,0.5-2.3c0.6-1.1,1.6-1.7,3.2-1.7
				c1.2,0,2.2,0.3,2.9,1s1.1,1.5,1.1,2.6c0,0.8-0.2,1.6-0.8,2.2c-0.3,0.4-0.9,0.9-1.6,1.4l-0.9,0.6c-0.6,0.4-0.9,0.7-1.1,0.9
				c-0.2,0.2-0.4,0.4-0.5,0.6h4.9v2h-7.8C46.4,52.9,46.5,52.1,46.9,51.4z"/>
		</g>
		<g id="_x33_">
			<path class="st9" d="M81.4,50.2c0,0.5,0.1,0.8,0.2,1.1c0.3,0.5,0.8,0.8,1.5,0.8c0.4,0,0.8-0.1,1.1-0.4c0.3-0.3,0.5-0.7,0.5-1.3
				c0-0.7-0.3-1.2-0.9-1.5c-0.3-0.1-0.9-0.2-1.6-0.2v-1.6c0.7,0,1.2-0.1,1.5-0.2c0.5-0.2,0.7-0.7,0.7-1.3c0-0.4-0.1-0.8-0.4-1.1
				c-0.3-0.3-0.6-0.4-1.1-0.4c-0.5,0-0.9,0.2-1.2,0.5c-0.2,0.3-0.4,0.8-0.4,1.3h-2.1c0-0.6,0.1-1.1,0.3-1.6c0.2-0.4,0.5-0.9,0.9-1.2
				c0.3-0.3,0.6-0.5,1-0.6c0.4-0.1,0.9-0.2,1.5-0.2c1.1,0,2,0.3,2.6,0.8c0.7,0.6,1,1.3,1,2.3c0,0.7-0.2,1.2-0.6,1.7
				c-0.2,0.3-0.5,0.5-0.8,0.6c0.2,0,0.5,0.2,0.9,0.5c0.6,0.5,0.9,1.2,0.9,2.2c0,1-0.3,1.8-1,2.5s-1.6,1.1-2.9,1.1
				c-1.6,0-2.7-0.5-3.3-1.6c-0.3-0.6-0.5-1.3-0.5-2.2H81.4z"/>
		</g>
	</g>
</g>
<rect class="st10" width="100" height="100"/>
<g id="IkQr6c.tif" class="st1">
	
		<image style="display:inline;overflow:visible;" width="115" height="120" id="Layer_1_3_" xlink:href="5E1EAE3A7F853EE2.png"  transform="matrix(0.8199 0 0 0.8199 1.7172 0)">
	</image>
</g>
<g id="_x38_5_x25_" class="st1">
	<g id="base_x5F_circle" class="st11">
		<circle class="st12" cx="50.3" cy="52.3" r="45.3"/>
		<circle class="st13" cx="47.5" cy="45.5" r="45.3"/>
		<circle class="st14" cx="47.5" cy="45.5" r="37.8"/>
	</g>
	<g id="_x38_" class="st11">
		<path class="st9" d="M25.6,47.5c0.4-0.8,1.1-1.4,2-1.8c-0.9-0.6-1.4-1.2-1.7-1.8c-0.3-0.7-0.4-1.3-0.4-1.9c0-1.3,0.5-2.4,1.5-3.3
			c1-0.9,2.3-1.4,4.1-1.4s3.1,0.5,4.1,1.4c1,0.9,1.5,2,1.5,3.3c0,0.6-0.1,1.2-0.4,1.9c-0.3,0.7-0.8,1.2-1.7,1.7
			c0.9,0.5,1.5,1.1,2,1.9c0.4,0.8,0.7,1.7,0.7,2.7c0,1.5-0.6,2.8-1.7,3.8s-2.6,1.6-4.6,1.6s-3.5-0.5-4.5-1.6s-1.5-2.3-1.5-3.8
			C24.9,49.2,25.1,48.3,25.6,47.5z M29.2,52c0.5,0.5,1.1,0.7,1.9,0.7c0.8,0,1.4-0.2,1.9-0.7c0.5-0.5,0.7-1.2,0.7-2
			c0-0.9-0.2-1.6-0.7-2.1c-0.5-0.5-1.1-0.7-1.9-0.7s-1.4,0.2-1.9,0.7c-0.5,0.5-0.7,1.2-0.7,2.1C28.5,50.9,28.7,51.5,29.2,52z
			 M29.4,44c0.4,0.4,0.9,0.6,1.6,0.6c0.7,0,1.3-0.2,1.6-0.6c0.4-0.4,0.6-0.9,0.6-1.6c0-0.7-0.2-1.2-0.6-1.6
			c-0.4-0.4-0.9-0.6-1.6-0.6c-0.7,0-1.3,0.2-1.6,0.6c-0.4,0.4-0.6,0.9-0.6,1.6C28.8,43,29,43.5,29.4,44z"/>
	</g>
	<g id="_x35_" class="st11">
		<path class="st9" d="M42.4,50.4c0.1,0.8,0.4,1.3,0.8,1.8c0.4,0.4,1,0.6,1.7,0.6c0.9,0,1.5-0.3,2-0.9c0.5-0.6,0.7-1.4,0.7-2.3
			c0-0.9-0.2-1.7-0.6-2.3c-0.4-0.6-1.1-0.9-2-0.9c-0.4,0-0.8,0.1-1.1,0.2c-0.5,0.2-1,0.6-1.2,1.1l-3.1-0.1l1.2-9.8h9.7v3h-7.2
			l-0.6,3.9c0.5-0.3,1-0.6,1.3-0.7c0.5-0.2,1.1-0.3,1.8-0.3c1.5,0,2.7,0.5,3.8,1.5c1.1,1,1.6,2.4,1.6,4.3c0,1.6-0.5,3.1-1.6,4.4
			c-1,1.3-2.6,1.9-4.7,1.9c-1.7,0-3.1-0.5-4.1-1.4c-1.1-0.9-1.7-2.2-1.8-3.8H42.4z"/>
	</g>
	<g id="_x25_" class="st11">
		<path class="st9" d="M60.1,45.3c-0.9,0.9-2,1.3-3.2,1.3c-1.3,0-2.3-0.4-3.2-1.3c-0.9-0.9-1.3-2-1.3-3.2c0-1.3,0.4-2.3,1.3-3.2
			c0.9-0.9,2-1.3,3.2-1.3c1.3,0,2.3,0.4,3.2,1.3c0.9,0.9,1.3,2,1.3,3.2C61.4,43.3,61,44.4,60.1,45.3z M58.2,43.4
			c0.4-0.4,0.6-0.8,0.6-1.4s-0.2-1-0.6-1.4c-0.4-0.4-0.8-0.6-1.4-0.6s-1,0.2-1.4,0.6c-0.4,0.4-0.6,0.8-0.6,1.4s0.2,1,0.6,1.4
			c0.4,0.4,0.8,0.6,1.4,0.6S57.9,43.8,58.2,43.4z M66.8,37.4h1.8l-9.9,18.2h-1.9L66.8,37.4z M71.9,54.1c-0.9,0.9-2,1.3-3.2,1.3
			c-1.3,0-2.3-0.4-3.2-1.3s-1.3-2-1.3-3.2c0-1.3,0.4-2.3,1.3-3.2c0.9-0.9,2-1.3,3.2-1.3c1.3,0,2.3,0.4,3.2,1.3
			c0.9,0.9,1.3,2,1.3,3.2C73.3,52.2,72.8,53.3,71.9,54.1z M70.1,49.6c-0.4-0.4-0.8-0.6-1.4-0.6s-1,0.2-1.4,0.6
			c-0.4,0.4-0.6,0.8-0.6,1.4s0.2,1,0.6,1.4c0.4,0.4,0.8,0.6,1.4,0.6s1-0.2,1.4-0.6c0.4-0.4,0.6-0.8,0.6-1.4S70.5,49.9,70.1,49.6z"/>
	</g>
</g>
</svg>
