<?xml version="1.0" encoding="utf-8"?>
<!-- Generator: Adobe Illustrator 19.0.0, SVG Export Plug-In . SVG Version: 6.00 Build 0)  -->
<svg version="1.1" id="Layer_1" xmlns="http://www.w3.org/2000/svg" xmlns:xlink="http://www.w3.org/1999/xlink" x="0px" y="0px"
	 viewBox="325 -617 750 1334" style="enable-background:new 325 -617 750 1334;" xml:space="preserve">
<style type="text/css">
	.st0{fill:#313131;}
	.st1{fill:#e31d1a;}
	.st2{fill:#e31d1a;}
</style>
<g id="signs">
	<polygon id="_x2B__x5F_sym" class="st0" points="695.4,-273.3 695.4,-296 702.6,-296 702.6,-271.1 726,-271.1 726,-265.4 
		701.6,-265.4 702.1,-240 695.4,-240 695.4,-263.9 671,-263.9 671,-271.1 694.5,-271.1 	"/>
	<path id="equal_x5F_sym" class="st0" d="M675,37.5h52.2v6H675V37.5z M675,23.4h52.2v-6H675V23.4z"/>
</g>
<g id="text">
	<path id="XMLID_208_" d="M720.7,511.5c2.3,1.1,4,2.6,5.2,4.4c1.1,1.7,1.9,3.8,2.3,6.1c0.3,1.6,0.5,4.1,0.5,7.6h-25
		c0.1,3.5,0.9,6.3,2.5,8.4c1.5,2.1,3.9,3.2,7.1,3.2c3,0,5.4-1,7.2-3c1-1.2,1.7-2.5,2.1-4h5.7c-0.1,1.3-0.6,2.7-1.5,4.2
		c-0.8,1.6-1.8,2.8-2.8,3.8c-1.7,1.7-3.9,2.9-6.5,3.5c-1.4,0.3-2.9,0.5-4.7,0.5c-4.2,0-7.9-1.6-10.8-4.7c-3-3.1-4.4-7.5-4.4-13.1
		c0-5.5,1.5-10,4.5-13.4s6.9-5.2,11.7-5.2C716.1,509.8,718.4,510.3,720.7,511.5z M722.8,525c-0.2-2.5-0.8-4.5-1.6-6
		c-1.6-2.8-4.2-4.2-7.9-4.2c-2.6,0-4.8,1-6.6,2.9c-1.8,1.9-2.7,4.3-2.8,7.3L722.8,525L722.8,525z"/>
	<path id="XMLID_206_" d="M669.5,510.5l9.2,28l9.6-28h6.3l-12.9,34.4h-6.2l-12.7-34.4H669.5z"/>
	<path id="XMLID_203_" d="M648.5,524.1c1.3-0.2,2.2-0.7,2.7-1.7c0.3-0.5,0.4-1.3,0.4-2.2c0-2-0.7-3.4-2.1-4.3s-3.4-1.3-6-1.3
		c-3,0-5.1,0.8-6.4,2.5c-0.7,0.9-1.2,2.2-1.4,4h-5.4c0.1-4.2,1.5-7.2,4.1-8.9s5.7-2.5,9.2-2.5c4,0,7.3,0.8,9.8,2.3s3.8,3.9,3.8,7.2
		V539c0,0.6,0.1,1.1,0.4,1.4c0.2,0.4,0.8,0.5,1.6,0.5c0.3,0,0.5,0,0.9,0c0.3,0,0.7-0.1,1-0.1v4.3c-0.9,0.3-1.6,0.4-2.1,0.5
		s-1.1,0.1-1.9,0.1c-2,0-3.4-0.7-4.3-2.1c-0.5-0.7-0.8-1.8-1-3.2c-1.2,1.5-2.9,2.9-5.1,4s-4.6,1.7-7.3,1.7c-3.2,0-5.8-1-7.8-2.9
		s-3-4.4-3-7.3c0-3.2,1-5.7,3-7.4c2-1.8,4.6-2.8,7.8-3.2L648.5,524.1z M636.3,539.7c1.2,1,2.7,1.4,4.3,1.4c2,0,4-0.5,5.9-1.4
		c3.2-1.6,4.8-4.1,4.8-7.7v-4.6c-0.7,0.5-1.6,0.8-2.7,1.1c-1.1,0.3-2.2,0.5-3.3,0.6l-3.5,0.4c-2.1,0.3-3.7,0.7-4.7,1.3
		c-1.8,1-2.7,2.6-2.7,4.8C634.5,537.4,635.1,538.8,636.3,539.7z"/>
	<path id="XMLID_201_" d="M600.7,534.1c0.2,1.9,0.7,3.4,1.5,4.4c1.5,1.9,4.1,2.8,7.7,2.8c2.2,0,4.1-0.5,5.8-1.4s2.5-2.4,2.5-4.3
		c0-1.5-0.7-2.6-2-3.4c-0.8-0.5-2.5-1-5-1.6l-4.7-1.2c-3-0.7-5.2-1.5-6.6-2.4c-2.5-1.6-3.8-3.7-3.8-6.5c0-3.3,1.2-5.9,3.6-7.9
		s5.6-3,9.6-3c5.2,0,9,1.5,11.3,4.6c1.5,1.9,2.2,4,2.1,6.2h-5.5c-0.1-1.3-0.6-2.5-1.4-3.5c-1.4-1.5-3.7-2.3-7.1-2.3
		c-2.2,0-3.9,0.4-5.1,1.2c-1.1,0.8-1.7,1.9-1.7,3.3c0,1.5,0.8,2.7,2.3,3.6c0.9,0.5,2.2,1,3.9,1.4l3.9,0.9c4.2,1,7.1,2,8.5,2.9
		c2.2,1.5,3.4,3.8,3.4,7c0,3.1-1.2,5.7-3.5,7.9c-2.3,2.2-5.9,3.3-10.7,3.3c-5.2,0-8.8-1.2-11-3.5s-3.3-5.2-3.5-8.6L600.7,534.1
		L600.7,534.1z"/>
	<path id="XMLID_196_" d="M523.8,525c1.4-0.2,2.3-0.8,2.8-1.8c0.3-0.5,0.4-1.3,0.4-2.4c0-2.1-0.7-3.6-2.2-4.6
		c-1.5-0.9-3.6-1.4-6.4-1.4c-3.2,0-5.5,0.9-6.8,2.6c-0.7,1-1.2,2.4-1.5,4.3h-5.7c0.1-4.5,1.6-7.6,4.4-9.4c2.8-1.8,6-2.6,9.7-2.6
		c4.3,0,7.8,0.8,10.4,2.4c2.7,1.6,4,4.2,4,7.6v21c0,0.6,0.1,1.1,0.4,1.5s0.8,0.6,1.7,0.6c0.3,0,0.6,0,0.9-0.1c0.3,0,0.7-0.1,1.1-0.2
		v4.5c-1,0.3-1.7,0.4-2.2,0.5s-1.2,0.1-2,0.1c-2.1,0-3.6-0.7-4.6-2.2c-0.5-0.8-0.9-1.9-1.1-3.4c-1.2,1.6-3,3-5.4,4.3
		c-2.3,1.2-4.9,1.8-7.7,1.8c-3.4,0-6.1-1-8.3-3.1c-2.1-2.1-3.2-4.6-3.2-7.7c0-3.4,1.1-6,3.2-7.9s4.9-3,8.3-3.4L523.8,525z
		 M510.9,541.6c1.3,1,2.8,1.5,4.6,1.5c2.2,0,4.2-0.5,6.3-1.5c3.4-1.7,5.1-4.4,5.1-8.1v-4.9c-0.7,0.5-1.7,0.9-2.9,1.2
		c-1.2,0.3-2.3,0.5-3.5,0.7l-3.7,0.5c-2.2,0.3-3.9,0.8-5,1.4c-1.9,1.1-2.8,2.8-2.8,5.1C509,539.2,509.6,540.6,510.9,541.6z"/>
	<path id="XMLID_199_" d="M543,510.6h5.8v5.2c1.7-2.1,3.6-3.7,5.5-4.6c1.9-0.9,4.1-1.4,6.4-1.4c5.2,0,8.7,1.8,10.5,5.4
		c1,2,1.5,4.8,1.5,8.5v23.4h-6.2v-23c0-2.2-0.3-4-1-5.4c-1.1-2.3-3.1-3.4-5.9-3.4c-1.5,0-2.6,0.1-3.6,0.4c-1.7,0.5-3.2,1.5-4.4,3
		c-1,1.2-1.7,2.4-2,3.7c-0.3,1.3-0.5,3.1-0.5,5.5V547H543V510.6z"/>
	<path id="XMLID_194_" d="M493.5,512.6c2.6,2,4.1,5.4,4.6,10.3h-6c-0.4-2.2-1.2-4.1-2.5-5.6s-3.4-2.2-6.2-2.2
		c-3.9,0-6.7,1.9-8.4,5.7c-1.1,2.5-1.6,5.5-1.6,9.1s0.8,6.7,2.3,9.2s4,3.7,7.3,3.7c2.5,0,4.6-0.8,6-2.3c1.4-1.5,2.5-3.7,3.1-6.4h6
		c-0.7,4.8-2.4,8.4-5.1,10.6c-2.7,2.2-6.2,3.4-10.4,3.4c-4.8,0-8.6-1.7-11.4-5.2s-4.3-7.8-4.3-13c0-6.4,1.6-11.4,4.7-14.9
		c3.1-3.6,7.1-5.3,11.9-5.3C487.6,509.6,490.9,510.6,493.5,512.6z"/>
	<path id="XMLID_129_" d="M992.3,467.9c0.2,2,0.7,3.5,1.5,4.5c1.5,1.9,4.1,2.8,7.9,2.8c2.2,0,4.2-0.5,5.9-1.4s2.5-2.4,2.5-4.4
		c0-1.5-0.7-2.6-2-3.4c-0.9-0.5-2.6-1-5.1-1.7l-4.7-1.2c-3-0.7-5.3-1.6-6.7-2.5c-2.6-1.6-3.8-3.8-3.8-6.6c0-3.3,1.2-6,3.6-8
		c2.4-2,5.7-3.1,9.7-3.1c5.3,0,9.2,1.5,11.5,4.6c1.5,2,2.2,4.1,2.2,6.3h-5.5c-0.1-1.3-0.6-2.5-1.4-3.6c-1.4-1.5-3.8-2.3-7.2-2.3
		c-2.3,0-4,0.4-5.2,1.3c-1.2,0.8-1.8,2-1.8,3.4c0,1.5,0.8,2.7,2.3,3.6c0.9,0.5,2.2,1,3.9,1.4l4,0.9c4.3,1,7.2,2,8.6,3
		c2.3,1.5,3.4,3.9,3.4,7.1c0,3.1-1.2,5.8-3.6,8.1c-2.4,2.3-6,3.4-10.9,3.4c-5.3,0-9-1.2-11.2-3.5c-2.2-2.4-3.4-5.3-3.5-8.8
		L992.3,467.9L992.3,467.9z"/>
	<path id="XMLID_149_" d="M973.3,444.9c2.3,1.2,4.1,2.7,5.3,4.5s1.9,3.8,2.3,6.2c0.3,1.6,0.5,4.2,0.5,7.7H956
		c0.1,3.6,0.9,6.4,2.5,8.6c1.6,2.1,4,3.2,7.2,3.2c3,0,5.5-1,7.3-3.1c1-1.2,1.7-2.5,2.2-4.1h5.8c-0.2,1.3-0.7,2.7-1.5,4.3
		s-1.8,2.9-2.9,3.9c-1.8,1.7-4,2.9-6.6,3.5c-1.4,0.3-3,0.5-4.8,0.5c-4.3,0-8-1.6-11-4.8c-3-3.2-4.5-7.6-4.5-13.3
		c0-5.6,1.5-10.2,4.5-13.7s7-5.3,11.9-5.3C968.6,443.1,970.9,443.7,973.3,444.9z M975.4,458.6c-0.2-2.5-0.8-4.6-1.7-6.1
		c-1.6-2.8-4.3-4.2-8-4.2c-2.7,0-4.9,1-6.7,2.9s-2.8,4.4-2.9,7.4L975.4,458.6L975.4,458.6z"/>
	<path id="XMLID_170_" d="M934.3,434.1h5.9v9.8h5.6v4.8h-5.6v22.8c0,1.2,0.4,2,1.2,2.4c0.5,0.2,1.2,0.4,2.3,0.4c0.3,0,0.6,0,0.9,0
		c0.3,0,0.7-0.1,1.1-0.1v4.7c-0.7,0.2-1.4,0.3-2.1,0.4c-0.7,0.1-1.5,0.1-2.4,0.1c-2.7,0-4.6-0.7-5.6-2.1s-1.5-3.2-1.5-5.5v-23.1
		h-4.7v-4.8h4.7v-9.8H934.3z"/>
	<path id="XMLID_172_" d="M901.8,443.9v23.2c0,1.8,0.3,3.2,0.8,4.4c1,2.1,2.9,3.1,5.7,3.1c4,0,6.7-1.8,8.1-5.5
		c0.8-2,1.2-4.6,1.2-8.1v-17.2h5.9v35H918l0.1-5.2c-0.7,1.3-1.7,2.4-2.8,3.4c-2.2,1.8-4.9,2.7-8,2.7c-4.9,0-8.2-1.7-10-5
		c-1-1.8-1.4-4.2-1.4-7.1v-23.8L901.8,443.9L901.8,443.9z"/>
	<path id="XMLID_211_" d="M858.7,443.9h5.6v5c1.7-2,3.4-3.5,5.3-4.4c1.8-0.9,3.9-1.3,6.2-1.3c5,0,8.3,1.7,10.1,5.2
		c1,1.9,1.4,4.6,1.4,8.1v22.4h-6v-22c0-2.1-0.3-3.9-0.9-5.2c-1-2.2-2.9-3.3-5.7-3.3c-1.4,0-2.5,0.1-3.4,0.4c-1.6,0.5-3,1.4-4.2,2.9
		c-1,1.2-1.6,2.3-1.9,3.6c-0.3,1.2-0.4,3-0.4,5.3v18.3h-5.9v-35H858.7z"/>
	<path id="XMLID_215_" d="M843.9,430.9h6v6.7h-6V430.9z M843.9,444.1h6v34.8h-6V444.1z"/>
	<path id="XMLID_257_" d="M788.2,443.9h5.8v5c1.4-1.7,2.7-3,3.8-3.8c1.9-1.3,4.1-2,6.6-2c2.8,0,5,0.7,6.7,2.1c1,0.8,1.8,1.9,2.6,3.5
		c1.3-1.9,2.8-3.3,4.6-4.2c1.8-0.9,3.7-1.4,5.9-1.4c4.7,0,7.9,1.7,9.6,5.1c0.9,1.8,1.4,4.3,1.4,7.4v23.3h-6.1v-24.3
		c0-2.3-0.6-3.9-1.7-4.8c-1.2-0.9-2.6-1.3-4.3-1.3c-2.3,0-4.3,0.8-6,2.3c-1.7,1.5-2.5,4.1-2.5,7.7v20.3h-6V456
		c0-2.4-0.3-4.1-0.8-5.2c-0.9-1.6-2.6-2.4-5-2.4c-2.2,0-4.2,0.9-6.1,2.6c-1.8,1.7-2.7,4.8-2.7,9.3v18.5h-5.9v-34.9H788.2z"/>
	<path id="lives_x5F_text" d="M809.4,495.9h6.1v49.6h-6.1V495.9z M824.6,495.9h6.2v6.9h-6.2V495.9z M824.6,509.5h6.2v36h-6.2V509.5z
		 M842.9,509.4l9.7,29.5l10.1-29.5h6.7l-13.6,36.2h-6.5L836,509.4H842.9z M896.9,510.4c2.4,1.2,4.2,2.8,5.5,4.7c1.2,1.8,2,4,2.4,6.4
		c0.4,1.7,0.5,4.3,0.5,8H879c0.1,3.7,1,6.6,2.6,8.9c1.6,2.2,4.1,3.3,7.5,3.3c3.2,0,5.7-1.1,7.5-3.2c1.1-1.2,1.8-2.6,2.2-4.2h6
		c-0.2,1.3-0.7,2.8-1.6,4.4c-0.9,1.6-1.9,3-3,4c-1.8,1.8-4.1,3-6.8,3.6c-1.5,0.4-3.1,0.5-4.9,0.5c-4.5,0-8.3-1.6-11.4-4.9
		c-3.1-3.3-4.7-7.9-4.7-13.8c0-5.8,1.6-10.5,4.7-14.2c3.1-3.6,7.2-5.4,12.3-5.4C892,508.5,894.5,509.1,896.9,510.4z M899.1,524.6
		c-0.2-2.6-0.8-4.7-1.7-6.3c-1.7-2.9-4.4-4.4-8.3-4.4c-2.8,0-5.1,1-7,3s-2.9,4.6-3,7.7L899.1,524.6L899.1,524.6z M916.6,534.2
		c0.2,2,0.7,3.6,1.6,4.7c1.6,2,4.3,2.9,8.1,2.9c2.3,0,4.3-0.5,6.1-1.5c1.7-1,2.6-2.5,2.6-4.5c0-1.6-0.7-2.7-2.1-3.5
		c-0.9-0.5-2.7-1.1-5.3-1.7l-4.9-1.2c-3.1-0.8-5.4-1.6-6.9-2.6c-2.7-1.6-4-3.9-4-6.8c0-3.4,1.3-6.2,3.7-8.3
		c2.5-2.1,5.9-3.2,10.1-3.2c5.5,0,9.5,1.6,11.9,4.8c1.5,2,2.3,4.2,2.2,6.6H934c-0.1-1.4-0.6-2.6-1.5-3.7c-1.4-1.6-3.9-2.4-7.4-2.4
		c-2.4,0-4.1,0.4-5.3,1.3s-1.8,2-1.8,3.5c0,1.6,0.8,2.8,2.4,3.8c0.9,0.6,2.3,1.1,4.1,1.5l4.1,1c4.5,1.1,7.4,2.1,8.9,3.1
		c2.4,1.6,3.5,4,3.5,7.3c0,3.2-1.2,6-3.7,8.3s-6.2,3.5-11.3,3.5c-5.5,0-9.3-1.2-11.6-3.7c-2.3-2.4-3.5-5.5-3.6-9.1h5.8V534.2z"/>
	<path id="_x38__x5F_text" class="st1" d="M753.1,526.4c1.3-2.3,3.1-4,5.6-5.2c-2.4-1.6-4-3.4-4.7-5.2s-1.1-3.6-1.1-5.3
		c0-3.6,1.4-6.7,4.1-9.3c2.8-2.6,6.6-3.9,11.6-3.9s8.9,1.3,11.6,3.9s4.1,5.7,4.1,9.3c0,1.6-0.4,3.4-1.1,5.3s-2.3,3.5-4.7,4.9
		c2.5,1.4,4.3,3.2,5.6,5.5c1.2,2.3,1.9,4.8,1.9,7.6c0,4.2-1.6,7.8-4.7,10.8s-7.5,4.4-13.1,4.4c-5.6,0-9.9-1.5-12.7-4.4
		c-2.9-3-4.3-6.6-4.3-10.8C751.2,531.3,751.8,528.7,753.1,526.4z M763.3,539.1c1.3,1.4,3,2,5.3,2s4-0.7,5.3-2
		c1.3-1.4,1.9-3.3,1.9-5.7c0-2.6-0.7-4.5-2-5.8c-1.3-1.3-3.1-2-5.3-2c-2.2,0-4,0.7-5.3,2c-1.3,1.3-2,3.3-2,5.8
		C761.4,535.9,762,537.8,763.3,539.1z M763.9,516.3c1.1,1.2,2.7,1.7,4.7,1.7s3.6-0.6,4.7-1.7c1.1-1.2,1.6-2.6,1.6-4.5
		c0-2-0.5-3.5-1.6-4.7c-1.1-1.1-2.7-1.7-4.7-1.7s-3.5,0.6-4.7,1.7c-1.1,1.1-1.7,2.7-1.7,4.7C762.3,513.7,762.8,515.2,763.9,516.3z"
		/>
	<path id="_x32__x5F_text" class="st1" d="M734.3,470.4c1.3-3.1,4.4-6.4,9.2-9.9c4.2-3,6.9-5.2,8.2-6.5c1.9-2,2.9-4.3,2.9-6.7
		c0-2-0.5-3.6-1.6-4.9s-2.7-2-4.7-2c-2.8,0-4.7,1-5.7,3.1c-0.6,1.2-0.9,3.1-1,5.7h-8.9c0.1-4,0.9-7.2,2.2-9.6c2.4-4.6,6.8-7,13-7
		c4.9,0,8.8,1.4,11.8,4.1c2.9,2.7,4.4,6.3,4.4,10.8c0,3.4-1,6.5-3.1,9.2c-1.4,1.8-3.6,3.8-6.7,5.9l-3.7,2.6
		c-2.3,1.6-3.9,2.8-4.7,3.5c-0.8,0.7-1.6,1.6-2.1,2.5H764v8.1h-31.9C732.2,476.2,732.9,473.1,734.3,470.4z"/>
	<path id="person_x5F_text" d="M443.8,446.2h5.7v4.6c1.2-1.6,2.5-2.8,3.9-3.7c2-1.3,4.3-2,7-2c4,0,7.3,1.5,10.1,4.5s4.1,7.4,4.1,13
		c0,7.6-2,13-6,16.3c-2.5,2.1-5.5,3.1-8.8,3.1c-2.6,0-4.9-0.6-6.6-1.7c-1-0.7-2.2-1.8-3.5-3.4v17.8h-5.9
		C443.8,494.7,443.8,446.2,443.8,446.2z M465.8,473.5c1.8-2.3,2.7-5.7,2.7-10.3c0-2.8-0.4-5.2-1.2-7.2c-1.5-3.8-4.3-5.8-8.4-5.8
		c-4.1,0-6.9,2-8.4,6.1c-0.8,2.2-1.2,4.9-1.2,8.3c0,2.7,0.4,5,1.2,6.9c1.5,3.6,4.3,5.4,8.4,5.4C461.7,476.9,464,475.8,465.8,473.5z
		 M502.9,447c2.3,1.2,4.1,2.7,5.3,4.5c1.2,1.8,1.9,3.8,2.3,6.2c0.3,1.6,0.5,4.2,0.5,7.7h-25.4c0.1,3.5,0.9,6.4,2.5,8.5
		s4,3.2,7.2,3.2c3,0,5.5-1,7.3-3c1-1.2,1.7-2.5,2.2-4.1h5.8c-0.2,1.3-0.7,2.7-1.5,4.3c-0.9,1.6-1.8,2.9-2.9,3.9
		c-1.8,1.7-4,2.9-6.6,3.5c-1.4,0.3-3,0.5-4.8,0.5c-4.3,0-8-1.6-11-4.7c-3-3.2-4.5-7.6-4.5-13.3c0-5.6,1.5-10.2,4.5-13.7
		s7-5.2,11.9-5.2C498.2,445.2,500.6,445.8,502.9,447z M505,460.7c-0.2-2.5-0.8-4.6-1.6-6.1c-1.6-2.8-4.3-4.2-8-4.2
		c-2.7,0-4.9,1-6.7,2.9c-1.8,1.9-2.8,4.4-2.9,7.4L505,460.7L505,460.7z M518.6,446h5.6v6c0.5-1.2,1.6-2.6,3.4-4.3
		c1.8-1.7,3.8-2.5,6.2-2.5c0.1,0,0.3,0,0.6,0c0.3,0,0.7,0.1,1.3,0.1v6.2c-0.3-0.1-0.7-0.1-1-0.1s-0.6,0-1,0c-3,0-5.2,1-6.8,2.9
		c-1.6,1.9-2.4,4.1-2.4,6.6V481h-5.9L518.6,446L518.6,446z M544.2,469.9c0.2,2,0.7,3.5,1.5,4.5c1.5,1.9,4.1,2.8,7.8,2.8
		c2.2,0,4.2-0.5,5.9-1.4c1.7-0.9,2.5-2.4,2.5-4.4c0-1.5-0.7-2.6-2-3.4c-0.9-0.5-2.6-1-5.1-1.7l-4.7-1.2c-3-0.7-5.3-1.6-6.7-2.5
		c-2.6-1.6-3.8-3.8-3.8-6.6c0-3.3,1.2-6,3.6-8c2.4-2,5.7-3.1,9.7-3.1c5.3,0,9.2,1.5,11.5,4.6c1.5,2,2.2,4.1,2.1,6.3H561
		c-0.1-1.3-0.6-2.5-1.4-3.6c-1.4-1.5-3.8-2.3-7.2-2.3c-2.3,0-4,0.4-5.2,1.3c-1.2,0.8-1.8,2-1.8,3.3c0,1.5,0.8,2.7,2.3,3.6
		c0.9,0.5,2.2,1,3.9,1.4l4,0.9c4.3,1,7.2,2,8.6,3c2.3,1.5,3.4,3.9,3.4,7.1c0,3.1-1.2,5.8-3.6,8c-2.4,2.3-6,3.4-10.9,3.4
		c-5.3,0-9-1.2-11.2-3.5c-2.2-2.4-3.4-5.3-3.5-8.7h5.8V469.9z M599.3,449.5c3.1,3,4.6,7.4,4.6,13.2c0,5.6-1.4,10.3-4.1,13.9
		c-2.7,3.7-6.9,5.5-12.6,5.5c-4.8,0-8.6-1.6-11.4-4.9c-2.8-3.2-4.2-7.6-4.2-13.1c0-5.9,1.5-10.5,4.4-14c3-3.5,6.9-5.2,11.9-5.2
		C592.5,445,596.2,446.5,599.3,449.5z M595.7,472.7c1.4-2.9,2.1-6.2,2.1-9.8c0-3.3-0.5-5.9-1.5-7.9c-1.6-3.2-4.4-4.8-8.4-4.8
		c-3.5,0-6.1,1.4-7.7,4.1c-1.6,2.7-2.4,6-2.4,9.9c0,3.7,0.8,6.8,2.4,9.3c1.6,2.5,4.2,3.7,7.7,3.7
		C591.6,477.1,594.3,475.6,595.7,472.7z M611.2,446h5.6v5c1.7-2,3.4-3.5,5.2-4.4c1.8-0.9,3.9-1.3,6.2-1.3c5,0,8.3,1.7,10,5.2
		c1,1.9,1.4,4.6,1.4,8.1V481h-6v-22c0-2.1-0.3-3.8-0.9-5.1c-1-2.2-2.9-3.3-5.7-3.3c-1.4,0-2.5,0.1-3.4,0.4c-1.6,0.5-3,1.4-4.2,2.9
		c-1,1.2-1.6,2.3-1.9,3.6c-0.3,1.2-0.4,3-0.4,5.3v18.3h-5.9L611.2,446L611.2,446z M666.8,433h6v6.6h-6V433z M666.8,446.2h6v34.7h-6
		V446.2z M681.6,446h5.6v5c1.7-2,3.4-3.5,5.2-4.4s3.9-1.3,6.2-1.3c5,0,8.3,1.7,10,5.2c1,1.9,1.4,4.6,1.4,8.1V481h-6v-22
		c0-2.1-0.3-3.8-0.9-5.1c-1-2.2-2.9-3.3-5.7-3.3c-1.4,0-2.5,0.1-3.4,0.4c-1.6,0.5-3,1.4-4.2,2.9c-1,1.2-1.6,2.3-1.9,3.6
		c-0.3,1.2-0.4,3-0.4,5.3v18.3h-5.9L681.6,446L681.6,446z"/>
	<path id="_x31__x5F_text" class="st1" d="M386.7,448.5v-6.7c3.1-0.1,5.3-0.3,6.5-0.6c2-0.4,3.6-1.3,4.8-2.6
		c0.8-0.9,1.5-2.1,1.9-3.6c0.3-0.9,0.4-1.6,0.4-2h8.2v50.1h-10v-34.5h-11.8V448.5z"/>
</g>
<g id="_x38_faces">
	<path id="face8" class="st0" d="M858.8,252.6c-7.7-6-19.7-7-26,1.2c-0.5-0.2-1-0.3-1.6-0.2c-2.6-6.1-9.2-9.9-16.2-11.5
		c-0.3-0.3-0.6-0.5-0.9-0.7c-0.4-0.3-0.9-0.1-1.3,0.2l-0.1,0.1c-2.4-0.3-4.7-0.4-6.9-0.2c-13.6,1.2-25.8,9.8-27.2,24
		c0,0.2,0.1,0.3,0.2,0.4c-1.1,4.1-1.9,8.7-2.2,13.3c-2.9-1.3-6,1.6-5.5,4.7c0.3,1.7,1.5,3.2,3.1,3.8c0.7,0.2,1.5,0.4,2.4,0.3
		c0.4,4.7,1.4,9.2,3.2,13.1c4.5,9.4,14.2,15.9,24.6,16.1c10.8,0.3,21-5.9,26-15.4c2.3-4.5,3.5-9.2,4-14c1.2,0.6,2.8,0.4,3.9-0.3
		c1.8-1.1,2.5-3.2,2.2-5.2c-0.3-1.9-1.5-3.8-3.4-4.3c-0.9-0.3-1.9-0.1-2.6,0.4c-0.3-5-1.1-10.1-2-15c0.3-0.4,0.2-0.8-0.1-1
		c1.5-0.3,2.7-1.8,3.1-3.4c2.2,3.1,4.2,6.2,5.5,9.9c1.3,3.7,1.5,7.4,2.1,11.3c0.2,1.3,2,0.8,2.1-0.3c0.7-7.5-3-16-8.3-21.4
		c10.6,3.4,15.7,15.4,16.6,25.7c0.1,1.2,1.7,1.2,1.9,0c1.5-11.5-7.8-26.6-20-27.6c-0.2-0.6-0.5-1.1-0.9-1.5c3.3,0.3,6.7-0.1,9.9,0.9
		c4.4,1.3,8,4.5,10.5,8.2c5.2,7.6,5,16.6,5.3,25.4c0,1.3,1.8,1.2,2,0c1.3-9.8,0-20.9-6.4-28.8c-4.7-5.8-12.2-9.3-19.6-7.9
		c7.7-4.7,17.3-2.6,23.9,4.3c7.1,7.4,8.6,16.8,8,26.6c-0.1,1.1,1.6,1.3,1.9,0.3C872.9,272.8,867.9,259.6,858.8,252.6z M776.5,285.4
		c-0.3,0-0.6,0.1-0.9,0c-1-0.2-1.7-0.8-2-1.7c-0.6-1.8,1.2-3.2,2.9-2.7C776.5,282.4,776.5,283.9,776.5,285.4z M834.8,279.9
		c1.7-1.6,4,1.4,3.8,3.3c-0.1,1.1-0.7,2.1-1.8,2.4c-0.7,0.2-1.4-0.1-2.1-0.2C834.8,283.6,834.9,281.8,834.8,279.9z M830.5,260.5
		c-0.5,0.3-0.9,0.8-0.8,1.6c0.1,0.4,0.2,0.9,0.2,1.3c-0.6,0.5-1.3,0.9-1.9,1.3c0.1-6-2.5-13.6-7-18
		C825.9,249.4,829.6,254,830.5,260.5z M820.7,253.4c-0.4-1.5-0.9-3.3-1.6-5c1.5,1.7,2.9,3.4,4.1,5.4c2,3.7,2.8,7.7,3.3,11.9
		c-1.6,0.9-3.3,1.7-5.1,2.4C822.2,263.2,822,258.2,820.7,253.4z M814.5,244.4c1.8,2.6,4.1,10.1,4.4,11.2c1,4.3,1,8.6,0.8,13
		c-2.5,0.8-5.1,1.2-7.7,1.4c2.1-8.2,2.5-18-0.2-26.1C812.7,244.1,813.6,244.2,814.5,244.4z M808,252c0.4-1.3,1-4.9,2.1-6.8
		c0.4,4.1,1.2,8.1,1.2,12.2c0.1,4.3-0.4,8.6-0.9,12.8c-1.2,0.1-2.5,0.1-3.7,0c-0.9,0-1.7-0.1-2.6-0.2c0.9-4,1.4-8.2,2.4-12.2
		C806.9,255.8,807.4,253.9,808,252z M807.1,246.5c-0.6,1.8-0.9,3.8-1.2,4.9c-1.7,5.8-3.4,12.2-3.5,18.4c-1.8-0.2-3.6-0.5-5.4-0.8
		C800.6,261.5,801.9,253,807.1,246.5z M805.1,245.4c-1.9,2.4-3.3,5.1-4.5,8c-1.5,3.5-6.3,11.7-3.9,15.3c-0.1-0.2-0.4-0.2-0.6-0.1
		l-0.1,0.1c-0.1,0-0.1,0.1-0.1,0.2c-1-0.2-2.1-0.4-3.1-0.6c-1-0.2-2-0.4-2.9-0.6C793.1,259.9,797.7,250.3,805.1,245.4z M788.8,267.4
		c-1.3-0.3-2.6-0.7-3.8-1.2v-0.1c0-0.1-0.1-0.2-0.2-0.1c1.6-0.9,3.1-6.4,3.9-7.9c1.4-2.6,3.1-5,5.3-7.1c2-2,4.2-3.4,6.6-4.6
		C794.7,251.9,790.5,260.7,788.8,267.4z M797,246c-1.8,1.2-3.5,2.6-5,4.1c-2.4,2.5-4.3,5.4-5.8,8.6c-1,2.1-2.5,4.7-2.4,7
		c-0.8-0.4-1.6-0.9-2.3-1.5c0.1-0.7,0.1-1.4,0.1-2.1c0-0.4-0.2-0.6-0.5-0.7C784,254.4,789.9,248.8,797,246z M829.2,297.4
		c-4.1,10.3-14.1,17.5-25.5,16.8c-10.3-0.7-19.4-7.9-22.4-17.7c-3-9.6-0.9-20.3,0-30.3c1.9,1.9,4.4,2.8,7.2,3.5
		c5.6,1.4,11.4,2.4,17.2,2.8c8.6,0.5,17.9-1,24.6-6.6C832,276.2,833.2,287.2,829.2,297.4z M832.4,259.7c0.1-1.6-0.1-3.1-0.6-4.6
		c0.1,0,0.1,0.1,0.2,0.1c0.1,0.3,0.5,0.6,0.8,0.5c0.4,0.3,0.7,0.7,0.9,1.2c-0.1,0.2-0.1,0.5,0.1,0.6c0,0.1,0,0.2,0,0.3
		C833.7,258.9,833.1,259.3,832.4,259.7z M811.6,293c-0.3,3.1-4.8,3.4-6.6,1.4c-1.9-2-0.8-6,2-6.4c0.8-0.1,1.5,1,0.6,1.5
		c-1.1,0.6-1.9,2.3-0.9,3.4c1.1,1.1,2.5,0,3.5-0.6C810.8,291.9,811.7,292.4,811.6,293z M818.5,295.7c0.3,6-5.1,11.4-11.1,11.5
		c-4.5,0.1-12.6-3.7-10.8-9.3c0.3-0.9,1.6-0.7,1.6,0.2c-0.1,4.9,7.4,7,11,6c4.2-1.2,6.1-4.8,7-8.7
		C816.6,294,818.5,294.4,818.5,295.7z M789.8,285l-0.6-4.6c-0.4-2.8,3.4-3.3,3.8-0.5c0.2,1.6,0.4,3.1,0.6,4.7
		C793.8,286.6,790.1,287.1,789.8,285z M823.2,284.4c0.2,2.1-3.1,2.4-3.6,0.5c-0.3-1.3-0.5-2.6-0.6-4s-0.3-2.5,0.7-3.6
		c0.6-0.6,1.6-0.6,2.2,0c1,1,0.8,2.1,0.9,3.4C823,281.9,823.1,283.1,823.2,284.4z"/>
	<path id="face7" class="st0" d="M745.3,219.8c-0.5-0.5-1.4-1-2.3-1.3c2-6.4,2.6-13.2,1.6-19.5c-0.1-0.4-0.3-0.6-0.7-0.7
		c0.3-0.2,0.2-0.8-0.3-0.8c-0.1,0-0.2,0-0.2,0c-4.5-8.3-5.7-20.8-14.3-26.1c-4.3-2.6-9.7-3-14.5-1.7c-5.4,1.4-18.7,8-19.8-2.4
		c-0.1-0.8-1.4-0.9-1.4,0c-0.1,3.9,2.6,6.5,6.2,7.5c6.5,1.8,12.6-3.2,19-3.6c15.2-1.1,15.4,13,20.9,22.8c-2.1-3.1-3.2-7.1-5.6-10.1
		c-3-4-7.4-6.8-12.2-8.2c-4.7-1.4-9.6-1.4-14.2,0.2c-5.5,1.9-16.1,7.9-18.6-1.4c-0.2-0.9-1.5-0.4-1.5,0.4c0.2,4.4,4.6,6.7,8.6,6.7
		c6.9,0,12.4-5.2,19.5-4.9c7.6,0.3,14.8,4.6,18.5,11.3c1.4,2.6,2.6,6,4.6,8.3c-7.7-4.9-11.4-15.3-20.4-18.1c-3.4-1.1-6.7-0.4-10,0.8
		c-5.1,1.9-12.2,6.2-17.6,3.8c-0.8-0.3-1.6,0.8-0.8,1.3c3.1,2.2,6.7,1.1,10.1,0.1c5.1-1.5,10.8-5.5,16.3-4.5
		c10.1,1.8,12.9,15,22.7,17.6c-9.6-1.8-14.3-13.7-24.4-15.5c-5-0.9-10,0.9-14.2,3.3c-0.9,0.5-1.8,1.1-2.6,1.6
		c-2.5,1.5-3.3,1.9-6.3,1.3c-2.3,0.3-3.5-0.6-3.7-2.8c-0.1-0.7-0.2-1.3-0.1-2c0-1.4,0.1-2.8,0.3-4.2c0.1-0.8-1-0.9-1.2-0.2
		c-1.1,3.7-1.8,9.2,2.3,11.5c5.5,3,12-3.9,16.7-5.6c10-3.6,15.7,2.7,22.6,8.7c2.5,2.2,5.6,4.3,8.8,5.1c-9.3-0.4-16.4-11.1-26.2-11.1
		c-5.5,0-9.7,3.7-14.6,5.5c-9.2,3.2-11.8-4.5-13.3-11.7c-0.2-1-1.7-0.8-1.6,0.2c0.3,4.7,1.4,10.5,5.8,13.2c1,0.6,2,1,3.1,1.2l0,0
		c-1.6,3.7-2.9,7.8-3.6,12c-0.7-0.2-1.5-0.2-2.2-0.1c-1.5,0.4-2.6,1.8-2.7,3.3c-0.1,1.6,0.6,3.1,2,3.8c0.7,0.4,1.5,0.6,2.3,0.5
		c0.1,4,0.8,7.9,2.4,11.4c3.9,8.8,12.1,15.1,21.7,16.3c14.1,1.8,24.7-6.9,30.4-18.5c1.7,1.8,4.9,1.3,5.8-1.2
		C746.7,222.3,746.3,220.7,745.3,219.8z M684.7,213.6c-0.9-0.4-1.2-1.3-1.1-2.2c0.1-0.9,0.7-1.5,1.5-1.8c0.5-0.2,0.9-0.2,1.3-0.1
		c-0.2,1.4-0.3,2.9-0.4,4.3C685.6,213.9,685.1,213.8,684.7,213.6z M735.6,228.7c-5.5,8.5-15,13.6-25.2,12.4
		c-9.2-1.1-17.1-7.3-20.4-16c-3.6-9.7,0.2-19,1.4-28.7c0-0.1,0-0.1,0-0.2c4.4,0.3,8.9-2.5,12.8-4.4c9.5-4.6,15.7,1.7,23.6,6.1
		c4.7,2.6,10.2,4.3,15.1,1.4C741.5,209.7,741.6,219.6,735.6,228.7z M741.1,223.5c0.4-1,0.9-2,1.2-3.1c0.3,0.1,0.5,0.1,0.8,0.2
		c0.8,0.4,1.4,1,1.3,1.9C744.3,224.3,742.2,224.6,741.1,223.5z M713.4,225.4c-1.5,0.2-2.9-0.7-3.5-2c-1.3-3,2.1-5.7,4.8-4
		c0.7,0.5,0,1.5-0.8,1.3c-1.2-0.5-2.7,0.6-2,1.9c0.3,0.6,0.8,0.9,1.4,0.7c0.7-0.2,0.9-0.8,1.3-1.3c0.4-0.7,1.6-0.3,1.7,0.5
		C716.3,223.9,714.9,225.2,713.4,225.4z M710.3,236.3c-3.3-0.9-6.6-5.3-4.3-8.6c0.3-0.4,0.7-0.1,0.8,0.2c0.6,2.4,1,4.9,3.7,5.8
		c3,1,5.3-1.3,5.3-4.2c0-1.4,2.3-1.3,2.4,0C718.5,234,714.6,237.5,710.3,236.3z M700.1,213.3c0,0.3-0.1,0.6-0.1,0.8
		c-0.3,1.7-2.6,1.6-3,0.2c-0.2-0.2-0.3-0.5-0.4-0.8l0,0c0-0.1,0-0.1,0-0.2l0,0c0-1,0.3-2,0.8-2.8c0.4-0.7,1-1,1.8-0.8
		c0.5,0.1,0.8,0.5,1,0.9c0.2,0.3,0.2,0.6,0.2,0.9c-0.1,0.4-0.1,0.8-0.2,1.2l0,0C700.2,212.9,700.1,213.1,700.1,213.3z M729.6,218.8
		c-0.4,0.7-1,1-1.8,0.8c-0.7-0.2-1.2-0.9-1.1-1.7c0.2-1,0.3-2,0.5-3c0.1-0.8,0.9-1.3,1.6-1.2c0.8,0.1,1.2,0.8,1.2,1.5
		c0.1,0.2,0.2,0.4,0.2,0.7c0,0.1,0,0.3,0,0.4l0,0v0.1C730.3,217.2,730,218,729.6,218.8z"/>
	<path id="face6" class="st0" d="M706.3,303.9c-0.7-0.5-2-1-3.1-1.1c1.3-8.2,0.8-16.7-1.5-24.3c-0.1-0.5-0.5-0.7-0.9-0.7
		c0.4-0.3,0-1-0.5-0.9c-0.1,0-0.2,0.1-0.3,0.1c-7.1-9.4-10.7-24.6-22.3-29.5c-5.8-2.5-12.4-1.9-18.1,0.5
		c-6.3,2.7-21.6,13.3-24.8,0.7c-0.2-1-1.9-0.8-1.8,0.2c0.6,4.8,4.4,7.6,9.1,8.2c8.4,1.1,15-6.2,22.7-7.9
		c18.5-4.1,21.3,13.3,29.8,24.3c-3.2-3.5-5.2-8.1-8.7-11.5c-4.5-4.3-10.4-7-16.5-7.9c-6-0.9-12,0.1-17.4,2.8
		c-6.4,3.3-18.4,12.6-23.2,1.7c-0.5-1-1.9-0.3-1.7,0.7c1.1,5.3,6.9,7.4,11.9,6.7c8.5-1.2,14.3-8.6,23.1-9.6
		c9.5-1,19.1,2.9,24.8,10.5c2.2,2.9,4.3,6.9,7.2,9.4c-10.4-4.7-16.8-16.8-28.4-18.6c-4.4-0.7-8.4,0.7-12.1,2.9
		c-5.9,3.3-13.8,9.8-20.9,7.9c-1.1-0.3-1.8,1.3-0.8,1.8c4.2,2.2,8.5,0.2,12.5-1.7c6-2.8,12.4-8.7,19.3-8.5
		c12.8,0.3,18.6,16.2,31.2,17.6c-12.1-0.5-20.2-14.3-32.8-14.6c-6.3-0.2-12.1,2.9-16.9,6.7c-1,0.8-2,1.7-3,2.5
		c-2.8,2.3-3.7,3-7.5,2.8c-2.7,0.8-4.4-0.1-5-2.8c-0.3-0.8-0.5-1.6-0.6-2.5c-0.3-1.7-0.4-3.5-0.4-5.3c0-1-1.4-1-1.5,0
		c-0.6,4.8-0.5,11.7,5,13.7c7.3,2.7,14.1-7,19.6-10c11.7-6.3,19.8,0.4,29.4,6.6c3.5,2.3,7.6,4.3,11.8,4.7
		c-11.5,1.2-22.2-10.7-34.3-8.9c-6.8,1-11.2,6.4-17,9.4c-10.8,5.7-15.4-3.4-18.5-12c-0.4-1.2-2.2-0.7-1.9,0.5
		c1.2,5.8,3.6,12.7,9.5,15.2c1.4,0.6,2.7,0.9,4,0.9l0,0c-1.3,4.8-2.1,10.1-2.2,15.4c-0.9-0.1-1.9,0-2.7,0.3
		c-1.8,0.8-2.9,2.7-2.7,4.6c0.1,1.9,1.3,3.7,3.1,4.4c0.9,0.3,2,0.4,2.9,0.2c0.8,4.9,2.4,9.6,5,13.6c6.4,10.1,17.6,16.4,29.6,16.1
		c17.7-0.4,29.2-12.9,34-28.3c2.4,1.9,6.2,0.7,6.9-2.6C708.5,306.8,707.8,305,706.3,303.9z M630.6,307.4c-1.1-0.3-1.7-1.4-1.8-2.5
		c0-1.1,0.5-2,1.5-2.5c0.6-0.3,1.1-0.4,1.6-0.3c0,1.8,0.1,3.6,0.3,5.4C631.8,307.5,631.2,307.6,630.6,307.4z M696.1,316.8
		c-5.3,11.5-16,19.5-28.8,19.8c-11.6,0.3-22.4-5.9-28-16c-6.3-11.2-3.2-23.4-3.5-35.6c0-0.1,0-0.2-0.1-0.3
		c5.5-0.5,10.5-4.7,14.9-7.8c10.8-7.4,19.7-0.7,30.2,3.2c6.3,2.4,13.4,3.4,18.9-1.1C699.8,292.2,701.8,304.3,696.1,316.8z
		 M701.8,309.3c0.4-1.3,0.7-2.7,1-4c0.3,0,0.7,0.1,1,0.2c1,0.3,1.9,0.9,2,2.1C705.9,309.7,703.4,310.5,701.8,309.3z M668.1,316.7
		c-1.8,0.5-3.7-0.3-4.7-1.9c-2.1-3.5,1.5-7.4,5.1-5.7c1,0.5,0.3,1.9-0.7,1.7c-1.6-0.3-3.2,1.3-2.1,2.7c0.4,0.6,1.2,0.9,1.9,0.6
		c0.8-0.4,1-1.1,1.3-1.9c0.4-0.9,2-0.7,2.1,0.3C671.4,314.4,670,316.2,668.1,316.7z M666.2,330.7c-4.2-0.5-9.1-5.3-6.9-9.8
		c0.2-0.5,0.9-0.3,1,0.1c1.2,2.9,2.2,5.9,5.6,6.5c3.9,0.7,6.3-2.6,5.8-6.2c-0.2-1.7,2.6-2,3-0.4C676,326.3,671.7,331.3,666.2,330.7z
		 M649.5,304.2c0,0.4,0,0.7,0,1.1c0,2.2-2.9,2.4-3.7,0.8c-0.3-0.2-0.5-0.5-0.6-0.9l0,0c0-0.1,0-0.1,0-0.2l0,0
		c-0.2-1.2,0.1-2.5,0.5-3.6c0.4-0.9,1.1-1.5,2-1.3c0.6,0.1,1.1,0.4,1.3,0.9c0.2,0.3,0.4,0.7,0.4,1.1c0,0.5,0,1,0,1.5l0,0
		C649.6,303.8,649.5,304,649.5,304.2z M686.9,305.6c-0.4,0.9-1.1,1.5-2.1,1.4c-0.9-0.1-1.7-0.9-1.6-1.9c0-1.3,0-2.5,0.1-3.8
		c0-1,0.9-1.8,1.8-1.8c1,0,1.6,0.7,1.8,1.6c0.2,0.2,0.4,0.5,0.4,0.8c0,0.2,0,0.3,0,0.5l0,0v0.1C687.4,303.6,687.3,304.6,686.9,305.6
		z"/>
	<path id="face5" class="st0" d="M773.3,293.5c-0.8,0.4-0.7,1.8,0.3,2c1.1,0.2,2.3-0.1,3.1,0.7c0.7,0.6,0.8,1.6,0.6,2.5
		c-0.6,2.2-2.9,3.1-4.9,2.9c0.6-7-0.1-14.1-1.7-19.8c-0.1-0.2-0.1-0.3-0.3-0.5c0.2-0.2,0.3-0.5,0.4-0.8c0.5,0.3,1,0.3,1.6-0.3
		c1.6-1.7,2.2-3.5,2.2-5.3c0.7,0.2,1.6-0.2,1.6-1.1c0.7-9.9-4-19.7-11.5-26.1c-8.1-6.9-18.9-8.7-29.3-8.6c2-6.2-5.5-11.4-11.2-9.2
		c-4.3,1.7-7.3,8.5-4.6,12.3c-15.2,6.4-25.6,22.2-19.2,39.6c-1.6,3.8-1.6,8.3,2.5,10.5c0.4,0.2,0.9-0.2,0.6-0.6
		c-2.2-3.3-2.4-6.1-1.4-8.6c0.1,2.4,1.1,4.7,2.7,6.4c-0.3-0.1-0.7,0.1-0.8,0.5c-0.9,3.9-0.9,7.7-0.3,11.3c-3.4,0.4-5.8,3.8-4.2,7.3
		c1.2,2.7,5.3,3.8,7.4,1.8c6.3,11.7,20.1,19.5,33.8,19.7c9.6,0.1,21.7-2.5,26.9-11.4c2.5-4.3,4-9.8,4.6-15.5
		c3.3,0.8,6.9-0.8,7.8-4.3C780.8,295,776.9,291.6,773.3,293.5z M725.3,232.5c2.1-0.8,4.7-0.4,6.3,1.4c1.4,1.6,1.3,3.3,1.2,5.2
		c-3.7,0.2-7.4,0.9-10.9,2.1C720.4,238.2,722,233.8,725.3,232.5z M701.6,279.5c-1.2-9.9,0.8-20,7.9-27.5c3.7-3.9,8-6.4,12.7-7.9
		c0.1,0,0.2,0.1,0.3,0.1c0.4,0.1,0.7-0.1,0.8-0.4c3.6-1,7.5-1.5,11.4-1.5c9.7-0.1,20,1.3,27.7,7.8c6.3,5.4,9.8,12.8,10.9,20.8
		c-1.3-2.2-3.4-4-5.8-5.1c-8.4-3.7-18.9-2.8-28.1-1c-0.4-0.6-1.5-0.5-1.6,0.3c-1.4,0.3-2.7,0.6-4.1,0.9c-6,1.4-11.9,3.2-17.7,5.1
		c-4.1,1.3-8.4,2.7-11.8,5.5C703.4,277.2,702.4,278.3,701.6,279.5z M765.2,268.3c-0.1,0.1-0.2,0.1-0.2,0.2c-1,1.6-1.4,3.8-1.7,5.9
		c-1-0.4-2.1-0.7-3.2-0.9c0.2-1.2,0.2-2.4,0.5-3.6c0.2-0.9,0.5-1.7,0.6-2.6C762.6,267.5,763.9,267.9,765.2,268.3z M758.6,273.2
		c-1.4-0.2-2.8-0.4-4.2-0.4c0-2.1,0.3-4.3,0.3-6.4c1.3,0.1,2.9,0.3,4.5,0.6C758.4,268.8,758.3,271.3,758.6,273.2z M752.8,272.7
		c-1.4,0-2.9,0-4.3,0.1l0,0c-0.2-1.5-0.5-3-0.7-4.5c-0.1-0.6-0.1-1.3-0.2-1.9c1.2-0.1,2.3-0.1,3.5-0.2c0.4,0,1,0,1.7,0
		C752.5,268.3,752.6,270.6,752.8,272.7z M747.2,272.9c-2,0.1-4,0.4-5.8,0.6c-0.2-2.1-0.5-4.3-1-6.3c1.7-0.3,3.5-0.5,5.2-0.7
		C745.7,268.7,746.5,271.1,747.2,272.9z M734.7,268.3c1.2-0.3,2.3-0.5,3.5-0.7c0.4,2.1,1,4.2,1.7,6.1c-1.6,0.2-3.2,0.5-4.7,0.8
		C735.2,272.6,735.2,270.3,734.7,268.3z M733.9,274.8c-1.4,0.3-2.8,0.6-4.1,1c-0.1-1.3-0.3-2.6-0.5-3.8c-0.1-0.7-0.2-1.5-0.4-2.2
		c0.6-0.2,1.2-0.3,1.7-0.4c0.8-0.2,1.5-0.4,2.3-0.6c0.1,0.6,0.3,1.3,0.4,1.9C733.5,272.1,733.7,273.4,733.9,274.8z M728.6,276.2
		c-1.5,0.4-3,0.9-4.5,1.4c-0.2-2.1-0.5-4.3-1.2-6.3c1.5-0.4,2.9-0.8,4.2-1.1C727.3,272.2,728.1,274.4,728.6,276.2z M722.8,278.1
		c-1.1,0.4-2.2,0.8-3.3,1.3c-0.6,0.2-1.2,0.5-1.8,0.8c-0.1-2.2-0.3-4.6-1-6.7c0-0.1-0.1-0.2-0.2-0.2c1.7-0.6,3.4-1.1,5.1-1.6
		C721.7,273.8,722.2,276,722.8,278.1z M703.6,280.9L703.6,280.9c0.5-0.7,1.1-1.3,1.7-1.8c-0.1,2.2,0.7,4.5,2.1,6.2
		c0.5,0.5,1.2-0.1,0.9-0.7c-1-2.2-1.4-4.2-1.6-6.6c1.1-0.8,2.4-1.5,3.8-2.2c0,0,0,0,0,0.1c-0.1,2.2,0.3,4.4,1.2,6.4
		c0.3,0.6,1.1,0.1,1-0.4c-0.4-2-0.7-4-0.9-6c0-0.2-0.2-0.4-0.3-0.5c1.3-0.6,2.7-1.2,4.1-1.7l0,0c-0.1,2.3,0.5,4.7,1.1,7
		c-4.1,1.8-8.5,4-11.2,7.4C704.3,285.7,703.8,283.5,703.6,280.9z M701.4,307.1c-0.5-2,0.8-3.6,2.6-4.3c0.4,1.9,1,3.7,1.8,5.4
		C704.2,309.2,702.1,309.4,701.4,307.1z M766.5,312.9c-3.5,10.9-15.4,14.1-25.8,13.9c-20.4-0.3-35.8-16.2-35.3-36.6
		c0-0.2-0.1-0.3-0.2-0.4c0.4,0,0.8-0.5,0.6-0.9c0,0,0-0.1-0.1-0.1c5-1.4,9.6-4.9,14.5-6.8c5.1-2.1,10.5-3.7,15.9-4.7
		c5.5-1.1,11.1-1.6,16.7-1.4c6.2,0.2,10.5,2.1,15.6,5.2c-0.3,0.2-0.4,0.5-0.4,1C768.7,292.4,769.8,302.7,766.5,312.9z M770,279
		c-0.6-0.7-1.2-1.4-2-2c0.9-1.6,2-3.7,1.9-5.6c0-0.8-1.2-1.2-1.6-0.4c-0.4,0.9-0.6,1.8-0.9,2.8c-0.2,0.8-0.5,1.5-0.8,2.3
		c-0.5-0.3-1-0.6-1.5-0.8c0.6-2,1.5-4.3,1.3-6.3c0-0.1,0-0.1-0.1-0.2c4.7,1.8,7.7,4.7,3.9,9.4C770.2,278.4,770.1,278.7,770,279z
		 M728.2,291.6L728.2,291.6c0,0.9,0,1.7,0,2.6c0,2.5-3.8,2.5-3.8,0c0-1.3,0-2.6,0-3.9c0-1,0.9-1.9,1.9-1.9c1.1,0,1.9,0.9,1.9,1.9
		c0-0.3,0.1,0.4,0.1,0.4C728.3,291,728.3,291.3,728.2,291.6z M756.2,291.7c-0.1,1-0.8,1.9-1.9,1.9c-1,0-1.9-0.9-1.9-1.9
		c0-0.4,0-0.8,0-1.2c0-0.3,0-0.6,0-0.8c-0.1-0.9-0.2-1.7,0.6-2.4c0.6-0.5,1.3-0.6,2-0.3c0.2,0.1,0.4,0.2,0.6,0.4
		c0.4,0.3,0.7,0.8,0.6,1.4C756.4,289.7,756.3,290.9,756.2,291.7z M744.2,304.4c-1.1,1-2.5,1.5-3.9,1.2c-2.5-0.4-3.9-3.9-1.4-5.3
		c0.7-0.4,1.3,0.5,0.9,1.1c-0.4,0.5,0,1.3,0.4,1.6c0.5,0.4,1.3,0.1,1.8-0.1c1.3-0.7,1.5-2.4,2.8-3c0.5-0.3,1.4-0.1,1.5,0.6
		C746.4,302,745.3,303.5,744.2,304.4z M722.7,308.3c-0.4-1.3,1.6-2.1,2.2-0.9c3.1,6,9.8,7.6,16.1,7.3c8.6-0.4,11.9-5.8,13.7-13.4
		c0.5-1.9,3.2-1.4,3.3,0.4C759.2,320.3,727.6,325.6,722.7,308.3z"/>
	<path id="face4" class="st0" d="M845.2,234.5c5.4-0.2,10.6-4.6,12.3-9.6c2-6.2-0.8-12.6-6.2-15.6c4-1.7,6.8-6.3,6.7-10.7
		c-0.2-4.9-4.1-9.2-8.9-9.3c9.8-15.9-16.7-37.2-29.6-24.3c-0.3-2.2-2.3-4.4-4-5.3c-2.5-1.2-5.8-0.7-7.7,1.3c-1-6.1-7.1-10-13.4-8.2
		c-3.3,0.9-6.1,3.3-7.7,6.4c-0.4,0.7-1,1.9-1.3,3c-7.7-6.7-20.3-2.6-26.6,4.3c-4.2,4.6-7.7,11.1-7.2,17.5c0.2,3.1,1.5,6.3,3.8,8.2
		c-4.1,0.3-8.8,3.4-9.9,6.6c-1.5,4.3,1.5,8.2,5.5,9.1c-4.7,4.7-6.2,14.7,0.2,18.5c6.4,3.7,16,1.4,20.1-4.7
		c3.4,9.9,12.6,18.2,22.9,20.7c6.9,1.7,13.9,1.1,20.2-1.4c0.6,5.2,4.1,12,8.5,14.8c4.3,2.8,10.7,1.9,15-0.4
		C844.4,252.3,850.6,240.7,845.2,234.5z M796.7,240.4c-18-3.2-27.7-20.2-22.7-37.2c0.1,0,0.2,0,0.4,0c3.6-0.4,6.8-2.5,8.2-5.9
		c0.6-1.4,0.9-3.1,0.8-4.7c1.1,0.6,2.5,0.8,3.8,0.5c1.7-0.4,3.8-1.9,4.6-3.8c4.3,8,18.9,8.7,25.8,2.8c0.1,1.7,0.9,3.4,2.1,4.5
		c1.8,1.7,5.4,2.4,8.1,1.6c-2.3,5.7-0.5,13.3,4.9,16.5c-0.3,0.1-0.5,0.4-0.6,0.8C829.2,232.4,813.6,243.4,796.7,240.4z M833.3,254.3
		c-8.8,2.2-15.3-6-16.4-14.1l0,0c3-1.5,5.8-3.4,8.3-5.8c0.8,0.4,1.8,0.6,2.6,0.6c1.4,0,4-0.1,5-1.4c0.9-1.3,0.3-3.6-0.4-4.8
		c-0.3-0.5-1-1.2-1.7-1.4c2-3.5,3.3-7.4,3.8-11.7c0-0.1,0-0.2,0-0.3c0.9,0,1.6-1.1,0.9-1.8c-2.1-2.2-4.2-4-5.1-7
		c-1.1-3.4-0.7-6.8,0.4-10.1c0-0.1,0.1-0.1,0.2-0.2c0.4-0.6,0.1-1.7-0.8-1.7c-2.5,0.1-4.5,1.6-7.1,0.7c-2.8-1-3.9-4.4-2.4-6.9
		c0.3-0.5-0.1-0.9-0.5-0.9c-0.4-0.3-0.9-0.3-1.2,0c-3.8,3.2-7.2,5.6-12.3,5.5c-4.9,0-11.6-1.6-13.9-6.5c-0.2-0.3-0.5-0.5-0.9-0.4
		c-0.4-0.3-1-0.3-1.2,0.1c-1,1.7-1.1,3.5-3.2,4.3c-1.6,0.7-3.3,0.1-4.5-1c-0.3-0.7-0.8-1.3-1.4-1.8c-0.1-0.2-0.4-0.3-0.6-0.3
		c-0.6,0-1.1,0.5-1,1.1c0.4,2.5,1.5,4.5,0.7,7.2c-1,2.9-3.4,4.8-6.2,5.6c-0.2,0.1-0.4,0.2-0.5,0.3c-0.1,0-0.3,0.1-0.3,0.2
		c-1,1.6-1.7,3.2-2.3,4.8c-0.6-0.5-1.5-0.7-2.4-0.5c-1.7,0.4-3.1,1.9-3.5,3.5c-0.5,1.7,0.1,3.4,1.3,4.6c0.8,0.7,2.2,1.5,3.5,1.5
		c0.1,1.4,0.4,2.8,0.7,4.2c-3.7,4.3-9.4,5.9-15,4.9c-9-1.6-5.5-11.1-2.7-16.4c0.1-0.1,0.1-0.3,0.1-0.4h0.1c0.6,0,0.6-0.9,0.1-1
		c-4.2-1.6-8.1-6.1-3.4-9.8c2.8-2.2,6.3-1.5,9.2-3.1c0.7-0.3,0.6-1.2-0.1-1.5c-0.3-0.2-0.7-0.3-1-0.4c-2.6-3.9-4.1-7.1-3.2-12.1
		c0.9-4.9,3.8-9.5,7.4-12.9c7.1-6.8,16.1-7.3,23.8-1.4c1,0.8,2.2-0.6,1.5-1.6c-0.2-0.2-0.4-0.5-0.5-0.7c0.3-1.6,1.9-3.8,2.4-4.5
		c1.5-1.9,3.5-3.4,5.9-4c5-1.2,10.2,1.8,10.2,7.2c0,1.7,2.6,1.9,2.6,0.3c1.9-1.5,4.3-2.3,6.5-0.9c2.3,1.4,1.8,3.4,2.8,5.5
		c0.3,0.6,1.2,0.7,1.6,0.2c0.1-0.1,0.1-0.2,0.2-0.3c0.1,0,0.3,0,0.4-0.1c6.4-4.9,15.2-3.5,21.4,1.1c7.3,5.4,8.5,13.5,5.3,21.5
		c-0.4,0.9,0.7,1.6,1.4,1.2c4.4,0.4,8,3.5,7.7,8.3c-0.4,4.7-3.8,6.3-7.5,8.3c-0.3,0.1-0.4,0.4-0.5,0.7c0,0.1,0,0.1,0,0.2v0.1v0.1
		c0,0.6,0.3,1.1,1,1.1c0.1,0,0.1,0,0.2,0c5.2,2.9,8.4,8.6,6.2,14.6c-2.3,6.4-8,7.1-13.9,7c-1.1,0-1.4,1.3-0.4,1.8
		c0.5,0.2,1,0.4,1.5,0.6C848.9,240.6,841,252.4,833.3,254.3z M826.9,232.6c1-1.2,2-2.4,2.9-3.8c0.3,0.3,0.7,0.6,0.9,1.1
		c0.4,0.8,0.8,2.2-0.2,2.6c-0.8,0.3-2.1,0.4-2.9,0.3C827.3,232.7,827.1,232.7,826.9,232.6z M769.9,213.9c-0.5,0-0.9-0.1-1.4-0.3
		c-0.9-0.5-1.5-1.4-1.5-2.4s0.6-1.9,1.4-2.5c0.6-0.4,1.6-0.7,2.3-0.3C770.1,210.2,769.9,212.1,769.9,213.9z M789.9,207
		c-0.8,0.1-1.6-0.1-2.3-0.5c-0.5-0.2-1-0.5-1.3-1c-0.6-0.8-0.7-1.8-0.5-2.7c-0.8-0.4-1.5-1-2-1.7c-0.4-0.6,0.1-1.5,0.9-1.2
		c0.7,0.3,1.4,0.8,1.9,1.4c0.1-0.2,0.3-0.3,0.5-0.4c-0.8-0.5-1.6-1.4-1.5-2.3c0.1-0.5,0.6-0.7,1-0.5c0.5,0.3,0.6,0.7,0.9,1.2
		c0.2,0.4,0.6,0.7,0.9,1c1.3-0.3,2.7,0.1,3.6,1.2C793.5,203.5,792.3,206.6,789.9,207z M824.6,213c-0.4,0.6-1.3,0.7-2,0.7
		c-0.5,0-1,0-1.5-0.2c0,0.3-0.1,0.6-0.3,0.9c-0.6,1.2-1.8,2-3.2,1.8c-1.3-0.2-2.4-1.2-2.7-2.4c0-0.1,0-0.1,0-0.2
		c0-0.1-0.1-0.2-0.1-0.3c-0.2-1.4,0.4-2.7,1.7-3.3c1.2-0.5,2.6-0.2,3.5,0.6c0.5-0.1,1-0.3,1.4-0.7c0.3-0.2,0.6-0.6,1-0.6
		c0.4-0.1,0.8,0.1,0.9,0.5c0.1,0.3,0.1,0.6-0.1,0.8c-0.6,0.7-1.4,1.1-2.3,1.3c0,0.1,0.1,0.2,0.1,0.3c0.4,0,0.9,0,1.3-0.1
		c0.6-0.1,1-0.5,1.5-0.5C824.7,211.7,825,212.5,824.6,213z M803.1,221.3c-1,1-2.8,0.8-3.9,0.1c-1.2-0.7-1.8-2.1-1.6-3.5
		c0.2-1.5,1.1-2.7,2.5-3.2c1.4-0.4,3,0,3.8,1.2c0.4,0.6-0.1,1.4-0.8,1.2c-1.1-0.3-2.7-0.3-2.9,1.2c-0.2,1.4,1.4,1.5,2.4,1.5
		C803.4,219.8,803.5,220.8,803.1,221.3z M796.6,233.5c-5.8-1.6-11.4-7.5-9.5-13.8c0.3-1,2-0.9,2.1,0.2c0.3,4.7,3.8,8.9,8.4,10.2
		c5,1.4,7.7-1.4,11.5-3.8c0.7-0.4,1.9-0.1,1.7,0.9C809.6,233,801.6,234.9,796.6,233.5z M786.5,209.3c-0.1,0-0.2,0-0.2,0
		c-2.1-1.4-4.9-2.6-6.9-0.2c-1.9,2.2-0.1,4.8,2.1,5.7c2.1,0.9,6.6,1.7,8.3-0.5C791.4,212.1,788.7,209.6,786.5,209.3z M786.8,213.8
		c-1.3,0.3-3.3-0.1-4.5-0.6c-1.7-0.7-3-3.1-0.1-3.6c1.2-0.2,2.8,0.3,4,0.8c0.4,0.4,0.9,0.6,1.4,0.9c0.8,0.3,0.9,0.8,0.3,1.5
		C787.8,213.6,787.4,213.9,786.8,213.8z M819.7,220.7c-1.8-1.7-4.8-2.4-6.7-0.6c-0.8,0.7-1.3,1.8-1,2.8c0.4,1.3,2,1.9,3.2,2.4
		c2,0.9,5.6,2.9,7.6,0.8C825.1,223.8,821.9,221.3,819.7,220.7z M819.6,224.9c-1.1-0.3-2.3-0.8-3.3-1.3c-0.4-0.2-1.5-0.5-1.7-0.8
		c0-0.5,0-0.9-0.1-1.4c0.5-0.3,1-0.5,1.5-0.5c0.9-0.1,1.7,0.3,2.6,0.6c0,0.3,0.2,0.5,0.5,0.6c0.3,0.1,0.6,0.3,0.9,0.4
		c0.9,0.3,1.2,1.1,0.9,2.5C820.6,225.2,819.9,225,819.6,224.9z M774.5,191c-2.1,1-4.6-0.4-5.2-2.6c-0.3-1.2,0-2.3,0.6-3.2
		c-2.9,0.4-6.1-1.5-6.4-4.7c-0.2-2.3,2.9-6.1,5.5-6.5c-0.4-1.5,0-3.2,1.1-4.2c2-1.8,5.2-1.3,6.4,1.1c0.3,0.7-0.6,1.1-1,0.6
		c-1-1-3-1.4-4-0.2s-0.5,2.8,0.3,3.9c0.4,0.6-0.1,1.4-0.8,1.1c-0.5-0.2-0.8-0.5-1.1-0.8c-2.4,0.3-4.9,3.7-4,5.8
		c1,2.3,3.4,2.1,5.5,1.7c-0.1-0.4-0.2-0.8-0.2-1.1c-0.1-0.7,0.9-0.9,1.1-0.2c0.1,0.4,0.2,0.8,0.4,1.2c0.1,0.1,0.2,0.2,0.2,0.4
		c0.1,0.2,0.3,0.4,0.4,0.6c0.5,0.6,1.3,0.9,1.9,1.5c0.4,0.4,0.2,1.1-0.4,1.1c-1-0.1-1.8-0.7-2.4-1.5c-1,0.6-1.7,1.9-1.3,3.1
		c0.4,1.3,1.9,1.9,3.2,1.8C774.8,189.7,775.2,190.6,774.5,191z M828.7,179.7c-0.6,0-1.2-0.1-1.9,0c-0.6,0.1-1.1,0.5-1.6,0.9
		c-0.6,0.7-1.7-0.4-1.2-1.1c0.2-0.2,0.4-0.5,0.6-0.7l-0.1-0.1c-0.7-1.5-1.5-3-3.4-3.2c-1.9-0.1-3.3,1.3-4.1,2.9
		c-0.1,0.2-0.4,0.3-0.6,0.2c-0.1,0.3-0.3,0.7-0.6,1c-0.6,0.8-1.7,0.1-1.5-0.8c0.6-2.4-0.4-4.9-3.1-5.2c-1.4-0.2-6.3,1-5.4,3.2
		c0.6,0.2,1.1,0.6,1.3,1.1c0.2,0.4-0.1,0.9-0.6,0.9c-0.7-0.1-1.2-0.6-1.9-0.9c-0.8-0.3-1.6-0.4-2.5-0.4c-0.7,0.1-1-1-0.2-1.2
		c0.5-0.1,0.9-0.1,1.4-0.1c0.2-1.5,0.1-3.2-1.7-3.7c-1.6-0.4-3.7,0.6-3.2,2.5c0.1,0.4-0.5,0.6-0.7,0.3c-2-2.4,1.5-4.7,3.7-4.5
		c1.7,0.2,3.3,1.7,3.7,3.3c1.4-1.6,4.5-2.6,6-2.5c2.4,0.1,4.9,2.1,5.5,4.5c0.8-1.6,2.4-2.7,4.3-2.7c2.3,0,5,2,5.1,4.5
		c1-0.4,2.2-0.4,3.1,0.2C830,178.7,829.5,179.7,828.7,179.7z M847.8,201.2c-1.7,2.5-5.9,2.4-7.4-0.2c-0.5-0.8-0.6-1.7-0.4-2.6
		c-1.5-0.3-2.8-1.3-3.3-2.8c-0.7-2.3,1.5-5.1,3.9-3.8c0.4,0.2,0.4,1.1-0.2,1c-1.9-0.3-2.5,1.8-1.3,3c0.7,0.6,1.6,0.7,2.5,0.6
		c0.3-0.2,0.7-0.3,1.1-0.3c-0.3-0.6-0.3-1.3,0.4-1.6c0.4-0.1,0.9,0.1,0.9,0.6c0,0.1,0,0.2,0,0.2c0.1,0.1,0.1,0.2,0.2,0.3
		c0.2,0.3,0.4,0.5,0.7,0.7c0.6,0.4,1.2,0.7,1.8,1.2c0.4,0.3,0.3,1.2-0.3,1.3c-1.1,0-2-0.5-2.7-1.2c0,0,0,0.1-0.1,0.1
		c-0.4,0.3-0.9,0.5-1.4,0.7c-0.4,0.6-0.3,1.3,0.4,1.9c1.3,1.1,2.8,0.2,4.1-0.4C847.5,199.4,848.3,200.4,847.8,201.2z M763.3,217
		c-1.5,1.7-4.5,1.4-5.6-0.7c-0.9-1.7-0.2-3.5,1.2-4.5c-1.6-1.1-2.5-3-2-5.1c0.6-2.5,3.5-4.1,5.8-3.1c0.1-1,0.5-1.9,1.2-2.7
		c1-0.9,2.4,0.8,1.3,1.6c-0.9,0.7-1,1.6-0.8,2.6c0.2,0.7-0.9,1.2-1.2,0.6c-0.2-0.3-0.4-0.7-0.5-1.1c0,0,0,0-0.1,0
		c-1.5,0-3,0.2-3.9,1.5c-1.2,1.9,0.1,4.3,2.2,4.7c0.8,0.2,1,1.5,0.1,1.6c-3.4,0.4-1.8,5.3,1.6,3.6C763.1,216,763.6,216.6,763.3,217z
		 M838.7,247.6c-1.6,1.6-3.9,1.4-5.6,0.1c-0.8,1.8-2.8,3-4.8,2.4c-2.7-0.7-3.8-4.2-1.9-6.3c0.3-0.4,1-0.1,0.8,0.4
		c-0.6,1.6,0,4.4,2.3,4.2c1.5-0.1,2.3-1.5,2.3-2.9c0-1,1.4-1.1,1.8-0.3c0.8,1.7,3.1,2.2,4.3,0.7c0.8-1,0.5-2.1,0-3.1
		c-0.5,0.4-1.1,0.6-1.8,0.7c-0.7,0.1-1.1-0.9-0.4-1.2c0.5-0.2,1-0.5,1.4-0.9c0-0.2,0.2-0.4,0.4-0.4l0,0c0.4-0.6,0.4-1.4,0.9-2
		c0.3-0.4,0.9-0.3,1.1,0.1c0.5,0.9,0,1.9-0.6,2.6C840.3,243.3,840.2,246.1,838.7,247.6z"/>
	<path id="face3" class="st0" d="M643.5,283.2c4-3.6,5.2-10.3,3.2-15.3c-2.4-6.1-8.7-9.2-14.7-8c2-3.9,1.2-9.3-1.7-12.5
		c-3.3-3.6-9-4.4-12.8-1.4c-2.7-18.5-36.7-17.7-38.2,0.4c-1.6-1.5-4.6-1.9-6.4-1.5c-2.7,0.7-4.8,3.2-5.1,6c-4.7-4.1-11.9-3-15.5,2.4
		c-1.9,2.9-2.5,6.5-1.8,9.8c0.2,0.8,0.5,2.1,1,3.2c-10.2-0.2-17.2,11-17.6,20.4c-0.3,6.2,1.2,13.5,5.7,18.1c2.1,2.2,5.2,3.9,8.2,3.8
		c-2.9,2.9-4.5,8.2-3.3,11.5c1.6,4.3,6.4,5.3,10.1,3.4c-0.6,6.6,4.7,15.3,12,14c7.3-1.2,13.2-9.2,12.4-16.5
		c8.9,5.4,21.4,5.8,30.9,1.1c6.4-3.1,11.4-8.1,14.6-14c3.8,3.6,10.9,6.5,16,5.9s9.4-5.4,11.2-9.9
		C654.4,297.4,651.7,284.5,643.5,283.2z M610.2,318.9C594.4,328,576,321.2,569,305c0.1,0,0.2-0.1,0.3-0.2c2.5-2.6,3.6-6.3,2.5-9.8
		c-0.4-1.4-1.3-2.9-2.5-4.1c1.2-0.3,2.4-1,3.3-2c1.1-1.4,1.7-4,1.1-5.9c8.4,3.4,20.1-5.5,21.6-14.4c1.2,1.2,2.8,2,4.5,2.1
		c2.5,0.1,5.7-1.6,7.3-4c1.9,5.8,8.1,10.6,14.4,9.5c-0.1,0.3-0.1,0.7,0.1,1C630,291.9,625,310.3,610.2,318.9z M647.2,306.1
		c-5.3,7.4-15.6,5.2-21.6-0.3l0,0c1.4-3.1,2.3-6.4,2.6-9.7c0.9-0.2,1.8-0.7,2.4-1.2c1.1-0.9,3-2.7,2.9-4.3s-2.1-3-3.4-3.4
		c-0.6-0.2-1.6-0.2-2.2,0.1c-0.7-3.9-2.2-7.8-4.7-11.4c-0.1-0.1-0.2-0.2-0.2-0.2c0.7-0.5,0.5-1.9-0.5-2c-3-0.3-5.7-0.4-8.4-2.1
		c-3-1.9-4.9-4.8-6.1-8c0-0.1,0-0.2,0-0.2c-0.1-0.7-1-1.4-1.7-0.8c-1.8,1.6-2.4,4.1-5,5.1c-2.8,1.1-5.8-0.8-6.3-3.7
		c-0.1-0.5-0.7-0.7-1-0.3c-0.4,0-0.9,0.3-1,0.8c-0.9,4.8-1.9,8.9-5.9,12.2c-3.8,3.2-9.9,6.2-14.8,4c-0.3-0.2-0.7,0-0.9,0.2
		c-0.5,0-0.9,0.4-0.9,0.9c0.3,1.9,1.4,3.4,0.3,5.3c-0.8,1.5-2.4,2.2-4,2.1c-0.7-0.3-1.4-0.5-2.2-0.5c-0.2-0.1-0.4,0-0.6,0.2
		c-0.4,0.3-0.5,1.1,0,1.5c1.9,1.7,4.1,2.5,5.1,5.1c1.1,2.8,0.5,5.8-1.2,8.3c-0.1,0.2-0.2,0.4-0.2,0.5c-0.1,0.1-0.1,0.2-0.1,0.4
		c0.3,1.9,0.7,3.6,1.3,5.2c-0.8,0-1.6,0.5-2.2,1.2c-1.1,1.4-1.2,3.4-0.4,5c0.7,1.6,2.2,2.6,4,2.7c1.1,0.1,2.7-0.3,3.6-1.1
		c1,1,2.1,1.9,3.3,2.8c0,5.7-3.4,10.6-8.4,13.4c-7.9,4.5-11.4-5-12.6-10.8c0-0.1-0.1-0.3-0.2-0.4c0,0,0,0,0.1-0.1
		c0.4-0.4-0.1-1-0.6-0.9c-4.2,1.5-10.1,0.5-8.9-5.3c0.7-3.5,3.8-5.2,5.1-8.2c0.3-0.7-0.3-1.3-1-1.1c-0.4,0.1-0.7,0.2-1,0.4
		c-4.5-1.3-7.7-2.8-10.2-7.2c-2.4-4.3-3.2-9.7-2.7-14.6c1.1-9.8,7.6-16,17.4-16.4c1.3-0.1,1.3-1.9,0.1-2.2c-0.3-0.1-0.6-0.1-0.9-0.2
		c-0.8-1.4-1-4.1-1-5c-0.1-2.4,0.5-4.8,1.9-6.8c3-4.1,8.9-5.2,12.4-1c1.1,1.3,3.2-0.2,2.2-1.5c0.5-2.3,1.8-4.6,4.4-4.9
		c2.6-0.4,3.6,1.5,5.7,2.4c0.6,0.3,1.4-0.2,1.3-0.9c0-0.1,0-0.2,0-0.3c0.1-0.1,0.2-0.2,0.2-0.4c1.8-7.9,9.4-12.4,17.1-12.9
		c9-0.5,15.2,4.9,17.9,13.1c0.3,1,1.5,0.8,1.9,0c3.6-2.5,8.4-2.5,11.2,1.4c2.8,3.9,1.1,7.3-0.4,11.2c-0.1,0.3-0.1,0.6,0,0.9
		c0,0.1,0,0.1,0.1,0.2c0,0,0,0,0,0.1c0,0,0,0.1,0.1,0.1c0.3,0.4,0.9,0.7,1.4,0.2c0.1,0,0.1-0.1,0.2-0.1c5.9-1.1,11.9,1.2,14.1,7.2
		c2.3,6.4-1.6,10.6-6.1,14.3c-0.9,0.7-0.2,1.9,0.9,1.7c0.5-0.1,1-0.3,1.5-0.5C650.3,285.5,651.8,299.6,647.2,306.1z M628.3,293.5
		c0-1.6,0-3.2-0.2-4.7c0.5,0,0.9,0,1.4,0.2c0.8,0.4,2,1.2,1.5,2.1c-0.4,0.7-1.4,1.6-2.1,2.1C628.7,293.4,628.5,293.5,628.3,293.5z
		 M572.6,315.8c-0.4,0.3-0.8,0.5-1.3,0.6c-1,0.2-2-0.1-2.7-0.9c-0.6-0.8-0.8-1.8-0.5-2.8c0.2-0.7,0.8-1.6,1.6-1.7
		C570.4,312.8,571.4,314.4,572.6,315.8z M583.5,297.7c-0.5,0.6-1.3,1-2,1.1c-0.5,0.2-1.1,0.2-1.6,0.1c-1-0.3-1.7-0.9-2.1-1.8
		c-0.9,0.1-1.8,0.2-2.6,0c-0.7-0.2-0.9-1.2-0.1-1.5c0.7-0.3,1.6-0.3,2.4-0.2c0-0.2,0.1-0.4,0.1-0.6c-1,0.1-2.1,0-2.6-0.8
		c-0.3-0.4,0-0.9,0.5-1s0.9,0.2,1.4,0.3c0.4,0.1,0.9,0.2,1.3,0.2c0.8-1,2.2-1.6,3.5-1.4C584,292.7,585.1,295.8,583.5,297.7z
		 M614,280c0.1,0.7-0.5,1.4-1,1.8c-0.3,0.3-0.8,0.6-1.2,0.8c0.2,0.3,0.3,0.6,0.4,0.9c0.4,1.3-0.1,2.7-1.3,3.4
		c-1.1,0.7-2.6,0.7-3.6-0.2l-0.1-0.1c-0.1-0.1-0.2-0.1-0.3-0.2c-1.1-0.9-1.4-2.4-0.8-3.6c0.6-1.1,1.8-1.8,3.1-1.8
		c0.3-0.4,0.5-0.9,0.6-1.4c0.1-0.4,0.1-0.8,0.3-1.1c0.2-0.3,0.7-0.4,1-0.2c0.2,0.1,0.5,0.4,0.5,0.7c0,0.9-0.4,1.8-1,2.5
		c0.1,0.1,0.2,0.1,0.3,0.2c0.3-0.3,0.7-0.5,1-0.9c0.3-0.4,0.4-1,0.9-1.3C613.2,278.9,613.9,279.4,614,280z M602.8,300.2
		c-0.1,1.5-1.6,2.4-2.9,2.6c-1.4,0.2-2.8-0.5-3.5-1.6c-0.8-1.2-0.9-2.8-0.1-4.1c0.8-1.2,2.3-1.9,3.7-1.5c0.7,0.2,0.8,1.1,0.1,1.4
		c-1.1,0.5-2.2,1.5-1.4,2.7s2.1,0.2,2.8-0.4C602.1,298.8,602.8,299.5,602.8,300.2z M605.7,313.7c-5.5,2.5-13.5,1.6-16.1-4.4
		c-0.4-1,1-2,1.7-1.2c3.3,3.5,8.7,4.4,13,2.4c4.8-2.2,5-6,6.4-10.3c0.2-0.7,1.4-1.3,1.9-0.4C615.3,305,610.4,311.5,605.7,313.7z
		 M582.4,301.6c-0.1,0.1-0.1,0.1-0.2,0.2c-2.6,0.3-5.4,1.1-5.5,4.3c0,2.9,3,3.7,5.3,3c2.2-0.6,6.2-3,6-5.7
		C587.9,300.6,584.2,300.5,582.4,301.6z M585.5,304.9c-0.8,1.1-2.5,2-3.8,2.4c-1.7,0.5-4.3-0.4-2.4-2.7c0.8-1,2.3-1.6,3.6-1.9
		c0.6,0,1.1-0.2,1.6-0.2c0.9-0.3,1.2,0.1,1.2,1C586.1,304.1,586.1,304.5,585.5,304.9z M615.2,289c-2.4-0.1-5.2,1.2-5.6,3.8
		c-0.1,1,0.1,2.2,1.1,2.8c1.2,0.8,2.8,0.1,3.9-0.2c2.1-0.6,6.1-1.4,6.3-4.2C621.2,288,617.2,288.1,615.2,289z M617.7,292.3
		c-1.1,0.5-2.3,0.8-3.4,1.1c-0.4,0.1-1.5,0.6-1.8,0.5c-0.3-0.3-0.6-0.7-0.9-1c0.2-0.6,0.5-1,0.9-1.3c0.6-0.6,1.5-0.9,2.4-1.2
		c0.2,0.2,0.5,0.3,0.8,0.2s0.6-0.2,1-0.3c0.9-0.4,1.6,0,2.3,1.3C618.7,291.9,618.1,292.2,617.7,292.3z M561.4,295.3
		c-1,2.1-3.8,2.6-5.7,1.4c-1-0.7-1.5-1.8-1.6-2.9c-1.9,2.2-5.7,2.8-7.9,0.5c-1.6-1.6-1.7-6.6,0.1-8.5c-1.2-0.9-2.1-2.5-1.9-4
		c0.3-2.7,3.2-4.4,5.6-3.3c0.7,0.3,0.3,1.2-0.4,1.2c-1.4-0.1-3.2,0.9-3.2,2.4c-0.1,1.6,1.4,2.5,2.7,2.8c0.6,0.2,0.8,1.2,0.1,1.4
		c-0.5,0.1-0.9,0.2-1.4,0.1c-1.6,1.8-1.4,6,0.6,7c2.3,1.1,4-0.6,5.3-2.2c-0.3-0.2-0.6-0.5-0.9-0.7c-0.5-0.5,0.2-1.3,0.7-0.8
		c0.3,0.3,0.7,0.5,1.1,0.7c0.2,0,0.3,0.1,0.4,0.2c0.2,0.1,0.5,0.2,0.7,0.2c0.8,0.1,1.6-0.1,2.4-0.1c0.6,0,0.9,0.7,0.4,1.1
		c-0.8,0.6-1.8,0.6-2.8,0.4c-0.4,1.1-0.1,2.5,0.9,3.2c1.2,0.7,2.7,0.3,3.6-0.6C560.8,294.1,561.7,294.6,561.4,295.3z M595.7,251.8
		c-0.5,0.4-1,0.7-1.4,1.2c-0.4,0.5-0.6,1.1-0.6,1.7c-0.1,0.9-1.5,0.8-1.6-0.1c0-0.3,0-0.6,0.1-0.9h-0.1c-1.5-0.7-3.1-1.4-4.6-0.3
		c-1.5,1.1-1.7,3.1-1.3,4.8c0.1,0.2-0.1,0.5-0.3,0.6c0.1,0.3,0.2,0.7,0.2,1.1c0,1-1.2,1.2-1.7,0.3c-1.1-2.3-3.4-3.5-5.7-2
		c-1.2,0.8-4.2,4.8-2.1,6c0.6-0.2,1.2-0.3,1.7,0c0.4,0.2,0.5,0.8,0.1,1.1c-0.6,0.4-1.3,0.3-2,0.6c-0.8,0.3-1.5,0.7-2.1,1.3
		c-0.5,0.5-1.4-0.2-0.9-0.8c0.3-0.4,0.7-0.7,1-1c-0.9-1.3-1.9-2.5-3.7-1.7c-1.5,0.7-2.4,2.8-0.9,4c0.3,0.2,0,0.8-0.3,0.7
		c-3-0.6-1.9-4.6-0.1-5.8c1.4-0.9,3.6-0.8,5,0.1c0.1-2.1,1.8-4.9,3-5.8c1.9-1.5,5.2-1.5,7.1-0.1c-0.4-1.7,0.1-3.7,1.5-4.9
		c1.8-1.5,5.1-1.7,6.8,0.1c0.5-1,1.4-1.7,2.5-1.8C596.1,250.2,596.4,251.3,595.7,251.8z M624.1,256c0.3,3-2.9,5.6-5.8,4.6
		c-0.9-0.3-1.6-0.9-2-1.7c-1.3,0.7-3,0.8-4.3,0c-2.1-1.3-2.1-4.8,0.6-5.4c0.5-0.1,1,0.6,0.4,0.9c-1.6,0.9-0.7,3,0.9,3.1
		c0.9,0,1.7-0.5,2.3-1.1c0.1-0.3,0.4-0.6,0.6-0.9c-0.6-0.3-1.1-0.8-0.7-1.5c0.2-0.4,0.8-0.5,1-0.1c0.1,0.1,0.1,0.2,0.1,0.2
		c0.1,0,0.2,0.1,0.3,0.1c0.3,0.1,0.7,0.1,1,0.1c0.7,0,1.4-0.2,2.1-0.2c0.5,0,1.1,0.7,0.6,1.2c-0.8,0.7-1.8,0.9-2.9,0.8v0.1
		c-0.1,0.5-0.3,1-0.6,1.4c0.1,0.7,0.6,1.2,1.6,1.2c1.7,0,2.2-1.7,2.8-2.9C622.8,254.9,624,255.1,624.1,256z M569.5,322.4
		c-0.1,2.3-2.6,4-4.8,3.1c-1.8-0.7-2.4-2.6-2-4.3c-1.9,0.2-3.9-0.7-4.8-2.6c-1.1-2.3,0.1-5.4,2.5-6.1c-0.6-0.8-0.9-1.8-0.8-2.8
		c0.1-1.3,2.3-0.9,2.1,0.4c-0.2,1.1,0.3,1.9,1.1,2.5c0.6,0.4,0.1,1.4-0.6,1.2c-0.4-0.1-0.7-0.3-1-0.5l0,0c-1.1,0.9-2.2,2.1-2,3.7
		c0.2,2.2,2.8,3.2,4.7,2.2c0.8-0.4,1.8,0.5,1.1,1.2c-2.3,2.5,2,5.2,3.5,1.7C568.7,321.8,569.5,321.9,569.5,322.4z M647,297.4
		c-0.2,2.2-2.1,3.6-4.2,3.7c0.5,1.9-0.3,4.1-2.2,4.9c-2.5,1.1-5.6-0.8-5.5-3.5c0-0.5,0.7-0.7,0.9-0.2c0.6,1.6,2.8,3.4,4.4,1.8
		c1-1,0.8-2.7-0.1-3.7c-0.7-0.8,0.4-1.8,1.2-1.4c1.7,0.8,3.8-0.3,3.7-2.2c0-1.2-0.9-2-2-2.4c-0.2,0.6-0.4,1.2-0.9,1.7s-1.4,0-1-0.7
		c0.3-0.5,0.5-1,0.5-1.6c-0.1-0.2-0.1-0.4,0-0.6l0,0c-0.1-0.7-0.6-1.3-0.6-2.1c0-0.5,0.5-0.8,1-0.6c0.9,0.4,1.2,1.4,1.3,2.4
		C645.5,293.1,647.2,295.3,647,297.4z"/>
	<path id="face2" class="st0" d="M745,151.1c-0.8,0.4-0.7,1.8,0.3,2c1.1,0.2,2.3-0.1,3.1,0.7c0.7,0.6,0.8,1.6,0.6,2.5
		c-0.6,2.2-2.9,3.1-4.9,2.9c0.6-7-0.1-14.1-1.7-19.8c-0.1-0.2-0.1-0.3-0.3-0.5c0.2-0.2,0.3-0.5,0.4-0.8c0.5,0.3,1,0.3,1.6-0.3
		c1.6-1.7,2.2-3.5,2.2-5.3c0.7,0.2,1.6-0.2,1.6-1.1c0.7-9.9-4-19.7-11.5-26.1c-8.1-6.9-18.9-8.7-29.3-8.6c2-6.2-5.5-11.4-11.2-9.2
		c-4.3,1.7-7.3,8.5-4.6,12.3c-15.2,6.4-25.6,22.2-19.2,39.6c-1.6,3.8-1.6,8.3,2.5,10.5c0.4,0.2,0.9-0.2,0.6-0.6
		c-2.2-3.3-2.4-6.1-1.4-8.6c0.1,2.4,1.1,4.7,2.7,6.4c-0.3-0.1-0.7,0.1-0.8,0.5c-0.9,3.9-0.9,7.7-0.3,11.3c-3.4,0.4-5.8,3.8-4.2,7.3
		c1.2,2.7,5.3,3.8,7.4,1.8c6.3,11.7,20.1,19.5,33.8,19.7c9.6,0.1,21.7-2.5,26.9-11.4c2.5-4.3,4-9.8,4.6-15.5
		c3.3,0.8,6.9-0.8,7.8-4.3C752.6,152.6,748.6,149.2,745,151.1z M697.1,90.1c2.1-0.8,4.7-0.4,6.3,1.4c1.4,1.6,1.3,3.3,1.2,5.2
		c-3.7,0.2-7.4,0.9-10.9,2.1C692.1,95.7,693.7,91.3,697.1,90.1z M673.4,137.1c-1.2-9.9,0.8-20,7.9-27.5c3.7-3.9,8-6.4,12.7-7.9
		c0.1,0,0.2,0.1,0.3,0.1c0.4,0.1,0.7-0.1,0.8-0.4c3.6-1,7.5-1.5,11.4-1.5c9.7-0.1,20,1.3,27.7,7.8c6.3,5.4,9.8,12.8,10.9,20.8
		c-1.3-2.2-3.4-4-5.8-5.1c-8.4-3.7-18.9-2.8-28.1-1c-0.4-0.6-1.5-0.5-1.6,0.3c-1.4,0.3-2.7,0.6-4.1,0.9c-6,1.4-11.9,3.2-17.7,5.1
		c-4.1,1.3-8.4,2.7-11.8,5.5C675.1,134.8,674.2,135.9,673.4,137.1z M737,125.9c-0.1,0.1-0.2,0.1-0.2,0.2c-1,1.6-1.4,3.8-1.7,5.9
		c-1-0.4-2.1-0.7-3.2-0.9c0.2-1.2,0.2-2.4,0.5-3.6c0.2-0.9,0.5-1.7,0.6-2.6C734.3,125.1,735.7,125.4,737,125.9z M730.3,130.8
		c-1.4-0.2-2.8-0.4-4.2-0.4c0-2.1,0.3-4.3,0.3-6.4c1.3,0.1,2.9,0.3,4.5,0.6C730.1,126.3,730,128.8,730.3,130.8z M724.6,130.3
		c-1.4,0-2.9,0-4.3,0.1l0,0c-0.2-1.5-0.5-3-0.7-4.5c-0.1-0.6-0.1-1.3-0.2-1.9c1.2-0.1,2.3-0.1,3.5-0.2c0.4,0,1,0,1.7,0
		C724.2,125.9,724.4,128.2,724.6,130.3z M719,130.5c-2,0.1-4,0.4-5.8,0.6c-0.2-2.1-0.5-4.3-1-6.3c1.7-0.3,3.5-0.5,5.2-0.7
		C717.4,126.2,718.2,128.6,719,130.5z M706.5,125.9c1.2-0.3,2.3-0.5,3.5-0.7c0.4,2.1,1,4.2,1.7,6.1c-1.6,0.2-3.2,0.5-4.7,0.8
		C707,130.2,707,127.8,706.5,125.9z M705.7,132.4c-1.4,0.3-2.8,0.6-4.1,1c-0.1-1.3-0.3-2.6-0.5-3.8c-0.1-0.7-0.2-1.5-0.4-2.2
		c0.6-0.2,1.2-0.3,1.7-0.4c0.8-0.2,1.5-0.4,2.3-0.6c0.1,0.6,0.3,1.3,0.4,1.9C705.3,129.6,705.5,131,705.7,132.4z M700.4,133.7
		c-1.5,0.4-3,0.9-4.5,1.4c-0.2-2.1-0.5-4.3-1.2-6.3c1.5-0.4,2.9-0.8,4.2-1.1C699.1,129.8,699.8,132,700.4,133.7z M694.6,135.7
		c-1.1,0.4-2.2,0.8-3.3,1.3c-0.6,0.2-1.2,0.5-1.8,0.8c-0.1-2.2-0.3-4.6-1-6.7c0-0.1-0.1-0.2-0.2-0.2c1.7-0.6,3.4-1.1,5.1-1.6
		C693.4,131.4,694,133.6,694.6,135.7z M675.4,138.4L675.4,138.4c0.5-0.7,1.1-1.3,1.7-1.8c-0.1,2.2,0.7,4.5,2.1,6.2
		c0.5,0.5,1.2-0.1,0.9-0.7c-1-2.2-1.4-4.2-1.6-6.6c1.1-0.8,2.4-1.5,3.8-2.2c0,0,0,0,0,0.1c-0.1,2.2,0.3,4.4,1.2,6.4
		c0.3,0.6,1.1,0.1,1-0.4c-0.4-2-0.7-4-0.9-6c0-0.2-0.2-0.4-0.3-0.5c1.3-0.6,2.7-1.2,4.1-1.7l0,0c-0.1,2.3,0.5,4.7,1.1,7
		c-4.1,1.8-8.5,4-11.2,7.4C676.1,143.3,675.6,141.1,675.4,138.4z M673.2,164.6c-0.5-2,0.8-3.6,2.6-4.3c0.4,1.9,1,3.7,1.8,5.4
		C676,166.8,673.8,167,673.2,164.6z M738.3,170.5c-3.5,10.9-15.4,14.1-25.8,13.9c-20.4-0.3-35.8-16.2-35.3-36.6
		c0-0.2-0.1-0.3-0.2-0.4c0.4,0,0.8-0.5,0.6-0.9c0,0,0-0.1-0.1-0.1c5-1.4,9.6-4.9,14.5-6.8c5.1-2.1,10.5-3.7,15.9-4.7
		c5.5-1.1,11.1-1.6,16.7-1.4c6.2,0.2,10.5,2.1,15.6,5.2c-0.3,0.2-0.4,0.5-0.4,1C740.4,149.9,741.6,160.3,738.3,170.5z M741.8,136.6
		c-0.6-0.7-1.2-1.4-2-2c0.9-1.6,2-3.7,1.9-5.6c0-0.8-1.2-1.2-1.6-0.4c-0.4,0.9-0.6,1.8-0.9,2.8c-0.2,0.8-0.5,1.5-0.8,2.3
		c-0.5-0.3-1-0.6-1.5-0.8c0.6-2,1.5-4.3,1.3-6.3c0-0.1,0-0.1-0.1-0.2c4.7,1.8,7.7,4.7,3.9,9.4C741.9,136,741.8,136.3,741.8,136.6z
		 M699.9,149.2L699.9,149.2c0,0.9,0,1.7,0,2.6c0,2.5-3.8,2.5-3.8,0c0-1.3,0-2.6,0-3.9c0-1,0.9-1.9,1.9-1.9c1.1,0,1.9,0.9,1.9,1.9
		c0-0.3,0.1,0.4,0.1,0.4C700,148.6,700,148.9,699.9,149.2z M728,149.2c-0.1,1-0.8,1.9-1.9,1.9c-1,0-1.9-0.9-1.9-1.9
		c0-0.4,0-0.8,0-1.2c0-0.3,0-0.6,0-0.8c-0.1-0.9-0.2-1.7,0.6-2.4c0.6-0.5,1.3-0.6,2-0.3c0.2,0.1,0.4,0.2,0.6,0.4
		c0.4,0.3,0.7,0.8,0.6,1.4C728.2,147.3,728.1,148.4,728,149.2z M716,162c-1.1,1-2.5,1.5-3.9,1.2c-2.5-0.4-3.9-3.9-1.4-5.3
		c0.7-0.4,1.3,0.5,0.9,1.1c-0.4,0.5,0,1.3,0.4,1.6c0.5,0.4,1.3,0.1,1.8-0.1c1.3-0.7,1.5-2.4,2.8-3c0.5-0.3,1.4-0.1,1.5,0.6
		C718.2,159.5,717,161,716,162z M694.5,165.8c-0.4-1.3,1.6-2.1,2.2-0.9c3.1,6,9.8,7.6,16.1,7.3c8.6-0.4,11.9-5.8,13.7-13.4
		c0.5-1.9,3.2-1.4,3.3,0.4C731,177.8,699.4,183.1,694.5,165.8z"/>
	<path id="face1" class="st0" d="M677,227.2c6.3-11.5,4.6-26-3.2-36.4c-8.8-11.7-23.9-17.7-38.3-16.8c-13.9,0.9-26.9,7.9-34.2,19.9
		c-6.6,10.7-8.6,26.1,0.7,35.9c0.1,0.1,0.1,0.1,0.2,0.2c-0.6,1.2-0.8,2.5-0.2,4c0.8,2,4,3.6,5.8,2.3c1.5,3.3,3.6,6.3,6.3,8.9
		c8,7.9,21.5,10.2,32.3,8.8c10.5-1.4,20.2-7.9,25.2-17.4c0.2-0.4,0.4-0.8,0.6-1.1c2.4,0.9,5.5,0.3,6.8-2.1
		C680,231.5,679.1,228.2,677,227.2z M603.6,232.4c-0.2-1.3,0.6-2.6,1.5-3.5c0.4,1.8,1,3.6,1.7,5.4
		C605.3,234.8,603.8,234.4,603.6,232.4z M667.6,236.4c-5.1,8.4-14.1,13.8-23.9,14.5c-9.6,0.7-21.1-1.4-28.1-8.5
		c-6.4-6.4-8.9-15.6-9.9-24.4c0.1,0,0.2-0.1,0.3-0.1c6-4.3,16.6-11.3,17.9-19.6c4,6.2,12.6,8.9,19.5,10c7.4,1.2,18.3,3.4,25.4-0.6
		C671.7,217.7,673.6,226.7,667.6,236.4z M676.4,232.6c-0.7,1.3-2.2,1.4-3.5,1.2c0.6-1.6,1.2-3.3,1.6-5.1c0.1,0.3,0.4,0.6,0.8,0.7
		C676.5,229.8,677.1,231.3,676.4,232.6z M629,224.4c-2.8,3.6-11.4,3.9-11.5-2c0-1,1.4-1.1,1.7-0.2c1.5,4.4,6,1.3,8.8,0.5
		C629.1,222.4,629.6,223.7,629,224.4z M657.2,226c-2.9,0.6-6.1-0.8-7.5-3.4c-0.5-0.9,0.6-1.6,1.3-1c1.6,1.4,3.6,2.1,5.7,1.4
		c1.9-0.7,2.4-2.4,3.7-3.7c0.6-0.6,1.9-0.4,2.1,0.6C663,222.8,659.9,225.4,657.2,226z M643.1,234.3c-0.9,2.7-5.1,2.3-6.3,0.1
		c-1.4-2.6,1.8-6.1,4.4-4.4c0.4,0.3,0.3,1.1-0.3,1.1c-0.9-0.1-1.7,0.4-2.1,1.2c-0.3,0.6-0.1,1.2,0.4,1.5c0.5,0.2,1.1,0.2,1.6-0.1
		c0.7-0.4,1.2-1,2-0.4C643.1,233.5,643.2,234,643.1,234.3z M631,233.8c-1.7-3.3-7-3.1-10-2.4c-0.1,0-0.2,0.1-0.3,0.2
		c-2.1,0-4.1,1.5-3.3,3.9c1.1,3.4,6.7,4.2,9.6,3.8C629.7,238.9,632.5,236.7,631,233.8z M628.3,237c-1.6,0.9-4.2,0.5-5.8,0.1
		c-0.6-0.1-1.2-0.4-1.7-0.6c-1.1-0.3-1.4-1-0.9-2c0.1-1.2,0.4-1.5,1-1.7c1.2,0.6,2.2,0.4,3.5,0.4c0.9,0,1.9-0.1,2.8,0.1
		C629,233.6,630.4,235.6,628.3,237z M658.2,229.4c-0.2,0-0.4,0.1-0.5,0.3c-2.6-0.9-7.1,0.1-8.1,2.9c-1.2,3.2,4.2,4.5,6.3,4.7
		c2.7,0.3,8.2-0.3,8.9-3.6C665.6,229.9,660.8,229.1,658.2,229.4z M661.1,234.8c-1.8,0.7-3.8,0.8-5.7,0.4c-1.7-0.3-4.5-0.9-2.8-2.9
		c1.1-1.3,3.5-1.3,5-1.5c0.1,0.2,0.3,0.3,0.7,0.3c0.7,0,2.6-0.2,3.1,0.1c0.3,1,0.7,2,1,3C661.9,234.4,661.5,234.6,661.1,234.8z
		 M639.8,245.2c-1.9,0.4-4.4-0.8-4.8-2.8c-0.2-0.8,0.9-1.4,1.4-0.8c0.1,0,0.1,0.1,0.2,0.1c0.2,0,0.3,0,0.5,0c0.3,0,0.4,0.4,0.1,0.5
		c0.6,0.4,1.2,0.7,2,0.6c1.2-0.2,1.5-1.3,1.9-2.2c0.4-1,2.1-1.3,2.4,0C643.7,242.8,641.8,244.8,639.8,245.2z"/>
</g>
<g id="watch_1_">
	<path id="red_x5F_bar" class="st2" d="M698.1-117.6c0-26.1,0-52.1,0-78.2c2.1-0.3,5.2-0.5,8.8,0c3.3,0.5,6,1.5,7.8,2.3
		C709.2-168.2,703.6-142.9,698.1-117.6z"/>
	<path id="watch" d="M776.2-157.5c-0.5-0.3-1.2-0.5-1.2-1.3c0-0.2,0.1-0.5,0.2-0.6c1.1-0.7,2.3-1.2,3.5-1.9c0.6-0.3,1-0.8,1.6-1.1
		c0.2-0.1,0.7-0.2,0.8-0.1c0.4,0.4,0.7,0.8,0.9,1.3c0.1,0.1-0.1,0.5-0.3,0.6c-0.9,0.6-1.9,1.1-2.8,1.6S777.2-158,776.2-157.5z
		 M620.7-157.8c0.3-0.4,0.6-0.8,0.7-1.3c0-0.1-0.4-0.3-0.7-0.5c-0.1-0.1-0.2-0.2-0.3-0.2c-0.8-0.5-1.5-0.9-2.3-1.4
		c-0.7-0.4-1.4-0.7-2.1-1.1c-0.7-0.4-0.9-0.5-1.3,0.2c-0.2,0.3-0.3,0.5-0.4,0.8c0,0.2,0,0.4,0.1,0.5c0.5,0.4,1.1,0.7,1.7,1
		c0.7,0.3,1.4,0.6,2.1,1s1.3,0.9,1.9,1.5C620.2-157.5,620.5-157.6,620.7-157.8z M616.5-65.4c0.8-0.4,1.5-0.7,2.3-1.1
		c0.1,0,0.1-0.1,0.2-0.2c0.6-0.4,1.1-0.8,1.7-1.1c0.4-0.2,0.7-0.5,0.5-0.8c-0.3-0.5-0.7-0.8-1.1-1.2c0,0,0,0-0.1,0
		c-0.6,0.3-1.2,0.6-1.7,0.9c-1.3,0.7-2.5,1.5-3.8,2.3c-0.3,0.2-0.4,0.4-0.3,0.7c0.2,0.7,0.8,1,1.3,1.3
		C615.9-64.9,616.2-65.2,616.5-65.4z M744.4-191.6c0.7-1.2,1.4-2.5,2.2-3.7c0.7-1.1,0.8-1.1-0.2-1.9l-0.1-0.1
		c-0.3-0.3-1-0.3-1.2,0.1c-0.5,0.7-0.9,1.5-1.3,2.3c-0.5,0.9-1,1.7-1.4,2.6c-0.2,0.4-0.3,0.9-0.1,1.2c0.1,0.3,0.6,0.4,0.9,0.6
		C744-190.5,744.1-191.2,744.4-191.6z M791.6-112.3c0.7,0,1.4,0,2,0c0.5,0,1,0,1.1-0.6c0.2-0.9-0.1-1.9-0.6-2.2
		c-0.1-0.1-0.3-0.1-0.4-0.1c-1.9,0-3.8,0-5.7,0c-0.7,0-1.3,0.8-1.2,1.6c0,0.5,0.7,1.2,1.3,1.2C789.3-112.3,790.4-112.3,791.6-112.3
		L791.6-112.3z M788.2-112.8c-0.6,0-0.7-0.2-0.7-0.8c0-0.5,0-0.9,0.7-0.9c1.8,0,3.6,0,5.4,0c0.6,0,0.8,0.3,0.8,0.8s-0.2,0.8-0.7,0.8
		c-0.9,0-1.9,0-2.8,0l0,0C790-112.8,789.1-112.9,788.2-112.8z M602.9-112.2c1.8,0,3.5,0,5.3,0c0.8,0,1.4-0.7,1.4-1.4
		c0-0.8-0.6-1.5-1.4-1.5c-1.7,0-3.5,0-5.2,0c-1.1,0-1.4,0.3-1.4,1.4C601.4-112.6,601.8-112.2,602.9-112.2z M602.7-112.8
		c-0.6,0-0.8-0.3-0.8-0.9s0.3-0.8,0.9-0.8c1.8,0,3.6,0,5.4,0c0.6,0,0.7,0.4,0.7,0.9s-0.1,0.9-0.7,0.9c-0.9,0-1.9,0-2.8,0l0,0
		C604.4-112.8,603.5-112.8,602.7-112.8z M775.2-67.7c0.2,0.2,0.5,0.3,0.8,0.4c0.7,0.4,1.3,0.9,2,1.2c0.7,0.4,1.5,0.6,2,1.1
		s0.9,0.6,1.4,0.2c0.4-0.3,0.6-0.8,0.9-1.2s0.1-0.7-0.3-0.9c-0.8-0.4-1.6-0.8-2.4-1.3c-1.1-0.7-2.2-1.4-3.3-2.1
		c-0.1,0-0.2-0.1-0.3,0c-0.3,0.1-1.3,1.4-1.4,1.9C774.7-68.1,774.9-67.9,775.2-67.7z M781.1-65.2c-0.2,0.1-0.6,0-0.8-0.2
		c-1.5-0.8-2.9-1.7-4.3-2.5c-0.7-0.4-0.8-0.6-0.4-1.2c0.3-0.5,0.6-0.5,1.2-0.1c1.4,0.9,2.9,1.7,4.3,2.5c0.2,0.1,0.4,0.4,0.7,0.6
		C781.5-65.7,781.3-65.3,781.1-65.2z M651.4-30.1c0.1-0.2,0.1-0.4,0.2-0.6c0.7-1.2,1.4-2.3,2.1-3.5c0.2-0.4,0.5-0.8,0.7-1.1
		c0.2-0.4,0.2-0.8-0.2-1c-0.2-0.1-0.3-0.2-0.4-0.3c-0.6-0.5-1.4-0.4-1.7,0.3c-0.4,0.9-0.8,1.7-1.3,2.6c-0.5,0.9-1.1,1.6-1.6,2.5
		c-0.1,0.3-0.1,0.9,0.1,1c0.5,0.4,1.1,0.5,1.8,0.9C651.1-29.7,651.3-29.8,651.4-30.1z M649.6-30.7c-0.1-0.1-0.1-0.5,0-0.6
		c0.9-1.6,1.8-3.1,2.7-4.7c0.4-0.6,0.7-0.5,1.2-0.2s0.4,0.6,0.2,1.1c-0.9,1.5-1.8,3-2.7,4.5c-0.1,0.2-0.3,0.4-0.5,0.6
		C650.2-30.2,649.9-30.4,649.6-30.7z M654.2-192.3c-0.9-1.6-1.8-3.2-2.7-4.7c-0.4-0.7-1.2-0.8-1.7-0.3c-0.1,0.1-0.2,0.2-0.4,0.3
		c-0.6,0.4-0.6,0.9-0.2,1.5c0.5,0.7,1.1,1.4,1.5,2.1c0.5,0.8,1,1.7,1.4,2.6c0.3,0.6,0.9,0.6,1.4,0.5c0.5-0.2,1-0.4,0.9-1.2
		C654.4-191.8,654.3-192.1,654.2-192.3z M651-196.9c1,1.6,1.9,3.2,2.8,4.8c0.2,0.4,0.2,0.7-0.2,0.9c-0.4,0.2-0.9,0.6-1.2,0
		c-0.7-1.2-1.4-2.4-2.1-3.6c-0.2-0.3-0.4-0.7-0.6-1c-0.3-0.5,0.1-1.3,0.9-1.4C650.7-197.2,650.9-197.1,651-196.9z M742.3-36.4
		c-0.5,0.4-0.6,0.8-0.2,1.4c0.5,0.6,0.8,1.4,1.2,2.1c0.2,0.3,0.3,0.6,0.5,0.9c0.4,0.7,0.7,1.4,1.2,2c0.1,0.2,0.4,0.4,0.6,0.4
		c0.6-0.2,1.1-0.4,1.6-0.7c0.2-0.1,0.3-0.7,0.2-0.9c-0.5-0.9-1.1-1.7-1.7-2.6c-0.6-0.9-1-1.9-1.6-2.8c-0.2-0.3-0.5-0.4-0.8-0.7
		C742.9-36.9,742.6-36.7,742.3-36.4z M745.8-30.1c-0.1,0.1-0.5-0.2-0.6-0.4c-1-1.6-1.9-3.2-2.8-4.7c-0.2-0.4-0.2-0.6,0.2-0.8
		s0.8-0.8,1.3,0c0.7,1.2,1.4,2.4,2,3.6c0.2,0.4,0.4,0.7,0.6,1.1c0.1,0.2,0.2,0.3,0.3,0.6C746.5-30.6,746.2-30.3,745.8-30.1z
		 M699.1-207.8c0,1.3,0,2.6,0,3.8c0,0.8-0.5,1.2-1.1,1.2s-0.9-0.6-0.9-1.3c0-1.6,0-3.2,0-4.9c0-0.3,0.2-0.6,0.3-0.9
		c0.1-0.2,0.2-0.3,0.3-0.5c-0.3,0-0.5,0-0.8,0c-0.1,0.4-0.2,0.8-0.2,1.1c0,1.7,0,3.5,0,5.2c0,1.3,0.8,1.9,2.1,1.5
		c0.5-0.2,0.8-0.4,0.8-1c0-2,0-4,0-5.9c0-0.9-0.1-0.9-1-0.9C699.3-209.6,699.1-208.7,699.1-207.8z M605.6-124.1
		c-0.5,0-0.9-0.1-1.4,0c-0.2,0-0.4,0.3-0.6,0.5c0.2,0.2,0.3,0.4,0.5,0.5c1.5,0.6,3.1,0.7,4.7,0.6c0.4,0,0.7-0.4,0.4-0.7
		c-0.3-0.3-0.8-0.6-1.2-0.7C607.3-124,606.5-124,605.6-124.1L605.6-124.1z M788.5-122.3c1.1-0.2,2.3-0.4,3.4-0.7
		c0.3-0.1,0.5-0.3,0.7-0.5c-0.3-0.2-0.6-0.5-0.9-0.5c-1.2,0-2.5,0-3.7,0.2c-0.4,0-0.8,0.4-1.1,0.7c-0.1,0.1,0.1,0.5,0.2,0.6
		C787.5-122.4,788-122.4,788.5-122.3C788.5-122.4,788.5-122.4,788.5-122.3z M792.2-103.3c0.4-0.1,0.5-0.3,0.2-0.7
		c-0.4-0.5-0.9-0.7-1.6-0.7c-1,0-2-0.1-3-0.1c-0.3,0-0.5,0.3-0.8,0.4c0.2,0.2,0.3,0.5,0.6,0.6c1,0.3,2.1,0.5,3,0.7
		C791.3-103.2,791.8-103.2,792.2-103.3z M699.6-23.5c0-0.9-0.2-1.1-1.1-1.2c-0.3,0-0.5,0-0.8,0c-0.8,0.1-1.1,0.6-1.1,1.4
		c0.1,1.7,0.1,3.3,0,5c0,0.9,0.3,1.4,1.2,1.5c0.2,0,0.4,0,0.6,0c0.8,0.1,1.1-0.5,1.1-1.1c0-1,0-1.9,0-2.9
		C699.6-21.7,699.6-22.6,699.6-23.5z M699.1-23.8c0,1.9,0,3.8,0,5.7c0,0.5-0.6,0.8-1.2,0.8c-0.6-0.1-0.8-0.4-0.8-1
		c0-1.7,0-3.4,0-5.2c0-0.4,0-0.8,0.5-0.9c0.4,0,0.7,0,1.1,0C698.8-24.1,699.1-24,699.1-23.8z M789.4-133.8c-0.4,0.1-0.8,0.2-1.2,0.3
		c-0.7,0.2-1.4,0.4-2.1,0.6c-0.1,0-0.3,0.3-0.3,0.5s0.2,0.4,0.4,0.4c0.7,0.2,1.4,0.1,2.1-0.3c0.3-0.2,0.7-0.3,1-0.2
		c0.6,0.1,1.2,0,1.6-0.5c0.2-0.2,0.4-0.6,0.4-0.6c-0.2-0.2-0.5-0.4-0.8-0.5C789.9-134,789.6-133.9,789.4-133.8z M609.5-131.8
		c0.1,0,0.3,0,0.3,0c0.3-0.1,0.5-0.3,0.8-0.5c-0.2-0.2-0.3-0.6-0.6-0.7c-0.7-0.2-1.4-0.4-2.1-0.6c-0.3-0.1-0.7-0.2-1-0.3
		c-0.5-0.1-0.9-0.2-1.4-0.2c-0.1,0-0.4,0.4-0.3,0.6c0.1,0.5,1.1,0.9,1.7,0.9c0.4,0,0.8,0.1,1.1,0.2
		C608.5-132.3,608.9-132,609.5-131.8C609.4-131.7,609.5-131.7,609.5-131.8z M707.4-205.8c-0.1,0.9-0.3,1.7-0.4,2.6
		c-0.1,0.5,0.3,0.6,0.7,0.6c0.4,0,0.5-0.2,0.5-0.6c0.1-1.2,0.3-2.4,0.5-3.6c0-0.3,0.3-0.8-0.3-1c-0.7-0.2-0.9-0.1-0.8,0.9
		C707.4-206.6,707.4-206.2,707.4-205.8z M708.6-20.5L708.6-20.5c-0.1-1.2-0.3-2.2-0.4-3.3c0-0.3,0-0.7-0.5-0.6c-0.4,0-0.8,0-0.8,0.6
		c0.1,0.4,0.2,0.7,0.3,1.1c0.1,1.1,0.2,2.2,0.4,3.3C708.6-19.2,708.9-19.5,708.6-20.5z M688.1-24c0.2,1.2-0.1,2.4-0.5,3.6
		c-0.1,0.3,0,0.7,0.2,0.9c0.2,0.2,0.5,0.2,0.8,0.2c0.1,0,0.2-0.3,0.3-0.4c0.2-1.3,0.3-2.6,0.5-3.8c0.1-0.7,0-0.9-0.8-0.9
		C688.3-24.5,688-24.4,688.1-24z M718.2-22.6c-0.1-0.3-0.1-0.6-0.2-0.9c-0.2-0.6-0.4-1.2-0.6-1.8c-0.1-0.3-0.2-0.6-0.4-0.8
		c-0.2-0.1-0.7,0-0.7,0.1c-0.1,0.3-0.1,0.7,0,1c0.1,0.5,0.5,1,0.4,1.4c0,0.8,0.2,1.5,0.6,2.2c0.1,0.3,0.2,0.6,0.6,0.4
		c0.3-0.2,0.5-0.4,0.3-0.8c-0.1-0.3-0.2-0.7-0.3-1C718.1-22.6,718.1-22.6,718.2-22.6z M608.7-103.7c0.3-0.1,0.4-0.4,0.7-0.6
		c-0.3-0.2-0.6-0.5-0.9-0.5c-1.1,0-2.2,0-3.3,0.1c-0.5,0.1-0.9,0.4-1.3,0.7c-0.3,0.2-0.3,0.6,0.2,0.7c0.4,0.1,0.9,0.1,1.5,0.2
		C606.4-103.3,607.6-103.5,608.7-103.7z M608.7-104.5c0,0.1,0,0.2,0,0.4c-0.3,0-0.7,0.1-1,0.1c0-0.1,0-0.2,0-0.4
		C608-104.4,608.3-104.4,608.7-104.5z M609.5-84.2c0.4-0.1,0.8-0.3,1.2-0.4c0.2,0,0.4,0,0.5-0.1c0.3-0.5,0.8-0.5,1.3-0.5
		c0.2,0,0.4-0.4,0.5-0.6c0-0.2-0.1-0.6-0.2-0.7c-0.1-0.1-0.5,0-0.7,0.1c-0.8,0.3-1.7,0.6-2.5,0.9c0,0,0,0-0.1,0
		c-0.5-0.1-0.9,0.1-1.1,0.5c-0.2,0.2-0.3,0.4-0.4,0.7c0.2,0.1,0.5,0.3,0.7,0.4C608.9-84,609.2-84.1,609.5-84.2z M782.5-150.5
		c0.7-0.4,1.6-0.4,2-1.2c0.1-0.2,0.1-0.5,0.2-0.7c-0.3-0.1-0.7-0.2-1-0.1c-1,0.4-2,1-3,1.4c-0.9,0.4-1,0.6-0.7,1.5
		C780.9-149.9,781.8-150.1,782.5-150.5z M786.8-95.4c-0.2,0-0.3,0-0.5,0c-0.2,0.1-0.4,0.2-0.6,0.3c0.1,0.2,0.2,0.5,0.4,0.6
		c0.1,0.1,0.3,0.1,0.4,0.2c1.3,0.3,2.5,0.7,3.8,0.9c0.2,0,0.5-0.1,0.6-0.2c0.1-0.2,0.1-0.6-0.1-0.8c-0.2-0.2-0.5-0.3-0.8-0.4
		c-0.4-0.1-0.9-0.2-1.3-0.3c-0.6-0.2-1.2-0.4-1.8-0.5C786.9-95.5,786.8-95.5,786.8-95.4z M787.6-84c0.1,0,0.2,0,0.3,0
		c0.2-0.1,0.4-0.2,0.6-0.3c-0.1-0.2-0.2-0.4-0.3-0.6c-0.4-0.5-0.8-0.7-1.4-0.7c-0.2,0-0.5-0.2-0.7-0.2c-0.2-0.1-0.5-0.2-0.7-0.3
		c-0.4-0.1-0.7-0.3-1.1-0.4c-0.2-0.1-0.7,0-0.7,0c-0.1,0.3-0.1,0.6,0,0.9c0.1,0.2,0.4,0.3,0.6,0.3c0.8,0.2,1.6,0.5,2.4,0.7l0.1,0.1
		C787-84.3,787.3-84.2,787.6-84C787.5-83.9,787.5-83.9,787.6-84z M615.6-151c-0.5-0.2-1-0.4-1.5-0.6s-1-0.3-1.4-0.6
		c-0.5-0.4-0.9-0.3-1.5,0c0.2,0.3,0.3,0.6,0.6,0.8c0.6,0.4,1.2,0.7,1.9,1c0.8,0.3,1.5,0.7,2.3,1C616.6-150.3,616.5-150.7,615.6-151z
		 M610.4-94.6c0.1-0.1,0.2-0.4,0.1-0.6c-0.1-0.1-0.4-0.3-0.5-0.3c-0.9,0.1-1.9,0.1-2.7,0.6c-0.2,0.1-0.6,0-0.9,0.1
		c-0.4,0.1-0.8,0.3-1.1,0.6c-0.1,0.1,0,0.7,0.1,0.7c0.4,0.1,0.9,0.3,1.2,0.1c0.6-0.3,1.2-0.6,2.1-0.3
		C609.2-94,609.8-94.3,610.4-94.6z M606.6-94.1c0-0.1,0-0.2,0-0.3c0.4-0.1,0.8-0.2,1.2-0.2c0,0.1,0,0.2,0.1,0.4
		C607.4-94.2,607-94.1,606.6-94.1z M670.7-27.9c0-0.1,0-0.1,0-0.2c-0.1-0.2-0.2-0.4-0.2-0.6c-0.2,0.1-0.4,0.2-0.5,0.4
		c-0.4,0.5-0.7,1-0.6,1.6c0,0.2-0.2,0.3-0.2,0.5c-0.1,0.2-0.2,0.5-0.3,0.7c-0.1,0.3-0.3,0.7-0.4,1s-0.2,0.6-0.1,0.9
		c0,0.1,0.4,0.2,0.6,0.2c0.2-0.1,0.5-0.3,0.6-0.6c0.2-0.8,0.9-1.5,0.8-2.5c0-0.1,0.1-0.3,0.2-0.4C670.6-27.1,670.7-27.5,670.7-27.9
		C670.8-27.8,670.8-27.9,670.7-27.9z M727.9-24.3c-0.2-0.5-0.4-1-0.6-1.5c-0.1-0.1-0.2-0.3-0.2-0.4c-0.1-0.3-0.2-0.6-0.3-0.9
		c-0.2-0.5-0.5-1-0.8-1.4c0,0-0.4,0.1-0.5,0.2c-0.1,0.2-0.1,0.5,0,0.7c0.4,1.3,0.8,2.6,1.3,3.9c0.1,0.2,0.5,0.3,0.7,0.3
		s0.4-0.3,0.5-0.4C728-24,728-24.2,727.9-24.3z M678.1-204.4c0,0.1,0.1,0.3,0.1,0.4c0.2,0.7,0.4,1.4,0.6,2c0.1,0.3,0.3,0.5,0.5,0.7
		c0.2,0.1,0.6,0,0.7-0.2c0.1-0.3,0.1-0.6,0-0.9c-0.1-0.6-0.6-1.2-0.5-1.8c0.1-0.8-0.3-1.4-0.6-2.1c-0.1-0.2-0.4-0.3-0.6-0.4
		c-0.1,0.2-0.4,0.5-0.3,0.7c0,0.5,0.2,1,0.2,1.5C678.2-204.4,678.1-204.4,678.1-204.4z M634.3-184.2c0.1,0.3,0.2,0.5,0.4,0.8
		c0.8,1,1.7,2,2.6,3c0.3,0.4,0.6,0.7,1.1,0.4c0.5-0.3,0.1-0.8-0.1-1.1c-0.5-0.6-1-1.2-1.6-1.7c-0.6-0.6-1.3-1.1-2-1.7
		C634.5-184.4,634.4-184.3,634.3-184.2z M726.8-200.5c0-0.2,0.2-0.4,0.2-0.6c0.1-0.2,0.2-0.5,0.3-0.7c0.1-0.4,0.3-0.7,0.4-1.1
		c0.1-0.3,0-0.6,0.1-0.8c-0.3,0-0.9-0.1-1,0.1c-0.4,0.6-0.6,1.3-0.8,2c-0.2,0.5-0.2,1.1-0.4,1.6c-0.2,0.6-0.3,1.1,0.2,1.7
		C726.3-199.2,726.9-199.6,726.8-200.5z M689.5-203.3c0-0.3-0.2-0.7-0.2-1c-0.1-1-0.4-2-0.4-3c0-0.5-0.2-0.7-0.6-0.7
		c-0.8,0-1,0.3-0.7,1.1c0.3,1.2,0.6,2.4,0.5,3.7c-0.1,0.5,0.1,0.7,0.6,0.6C689.3-202.6,689.5-202.7,689.5-203.3z M688.4-206.6
		c0.4,0.7,0.5,1.4,0.3,2.1c-0.1,0-0.2,0-0.3,0C688.4-205.2,688.4-205.9,688.4-206.6z M614-76.7c-0.5,0.2-1,0.6-1.6,0.6
		c-0.7,0-0.8,0.4-0.9,0.9c0,0.1,0.1,0.4,0.2,0.5c0.2,0.1,0.4,0.1,0.6,0c0.6-0.3,1.1-0.7,1.7-0.9c0.5-0.3,1-0.5,1.5-0.7
		c0.8-0.2,1-0.7,0.5-1.5C615.3-77.4,614.7-77,614-76.7z M780.3-76.4c0.6,0.3,1.2,0.4,1.8,0.7s1.2,0.7,1.8,1c0.2,0.1,0.4,0.1,0.6,0.1
		c0.1,0,0.3-0.3,0.3-0.4c-0.1-0.5-0.2-0.9-0.8-1c-0.7-0.1-1.3-0.4-2-0.7c-0.6-0.3-1.2-0.6-2-1.1C780.1-77.3,779.7-76.7,780.3-76.4z
		 M631.1-174.8c-0.6-0.6-1.3-1.1-2-1.7c-0.3-0.2-0.5-0.5-0.9-0.7c-0.2-0.1-0.5,0.1-0.7,0.1c0.1,0.2,0.1,0.6,0.2,0.7
		c0.8,0.7,1.6,1.4,2.5,2.1c0.4,0.3,0.7,0.9,1.7,0.6C631.6-174.1,631.4-174.5,631.1-174.8z M679.6-26.2c-0.4,0-0.8,0.2-0.9,0.8
		c0,0.4,0,0.9-0.2,1.2c-0.6,0.9-0.3,1.9-0.6,2.8c-0.1,0.2,0.2,0.5,0.3,0.6c0.1,0.1,0.5,0,0.5,0c0.1-0.7,0.8-1.2,0.8-2
		c-0.1-0.6,0.2-1.2,0.4-1.9c0.1-0.2,0.2-0.4,0.4-0.7C680.1-25.7,679.9-26.2,679.6-26.2z M679.3-23.8c-0.1,0-0.2,0-0.3,0
		c0.1-0.5,0.1-0.9,0.2-1.4c0.1,0,0.2,0,0.3,0C679.4-24.7,679.3-24.2,679.3-23.8z M637.2-46.8c-0.7,1-1.6,1.9-2.4,2.8
		c-0.2,0.2-0.3,0.5-0.4,0.8c0.3,0,0.6,0,0.9-0.1c0.1,0,0.2-0.1,0.3-0.2c0.6-0.7,1.2-1.4,1.8-2.1c0.4-0.5,0.8-0.9,1.2-1.4
		C638-47.4,637.6-47.3,637.2-46.8z M624.7-167.8c-0.5-0.3-0.9-0.7-1.4-1s-0.8-1-1.5-0.8c-0.3,0.1-0.7,0.3-0.4,0.6
		c0.7,0.7,1.5,1.3,2.3,1.9c0.4,0.3,0.9,0.6,1.4,0.9c0.1,0.1,0.4,0.3,0.5,0.2c0.1-0.1,0.2-0.3,0.2-0.4
		C625.7-167.2,625.2-167.5,624.7-167.8z M751.2-185.8c0.4-0.6,0.7-1.1,1.1-1.7c0.6-0.8,1.2-1.6,1.8-2.4c0.2-0.3,0.2-0.5-0.2-0.6
		c-0.4-0.2-0.7,0-0.9,0.3c-0.5,0.7-1,1.3-1.4,2c-0.3,0.4-0.6,0.8-0.8,1.2c-0.1,0.3,0,0.7,0.1,1.1C751-185.8,751.1-185.8,751.2-185.8
		z M759.1-46.8c-0.4-0.4-0.7-0.6-1.4-0.4c0.2,0.3,0.3,0.7,0.5,0.9c0.2,0.3,0.5,0.6,0.7,0.8c0.5,0.6,1,1.3,1.6,1.8
		c0.4,0.4,0.9,0.8,1.4,0.2C760.9-44.5,760-45.6,759.1-46.8z M770.8-61.5c-0.3,1-0.1,1.5,0.6,1.9c0.6,0.3,1.2,0.7,1.7,1.2
		c0.7,0.7,1.4,0.8,2.1,0.2C773.7-59.4,772.3-60.4,770.8-61.5z M767.7-177c-0.5,0.4-0.9,0.8-1.4,1.2c-0.5,0.5-1.1,0.9-1.5,1.4
		c-0.1,0.2-0.1,0.5-0.1,0.8c0.3,0,0.6,0,0.8-0.1c1.1-0.9,2.1-1.8,3.2-2.7c0.1-0.1,0.2-0.4,0.1-0.6c0-0.1-0.2-0.2-0.4-0.3
		C768.1-177.2,767.9-177.1,767.7-177z M784.1-140.9c0.6-0.3,1.3-0.5,1.9-0.7c0.7-0.2,1.4-0.4,2-0.7c0.2-0.1,0.4-0.3,0.6-0.4
		c-0.2-0.2-0.3-0.5-0.5-0.6c-0.2-0.1-0.6-0.1-0.8,0c-0.5,0.2-1.1,0.4-1.6,0.6c-0.6,0.2-1.3,0.4-1.9,0.6c-0.2,0.1-0.3,0.4-0.4,0.5
		C783.3-140.7,783.5-140.7,784.1-140.9z M784.4-141.5c-0.2,0-0.4-0.1-0.6-0.2c0.2-0.1,0.4-0.2,0.6-0.3c0.2,0,0.4,0.1,0.5,0.1
		c0,0.1,0,0.1,0,0.2C784.7-141.5,784.5-141.5,784.4-141.5z M774.5-168.6c0.2-0.2,0.3-0.5,0.4-0.7c-0.3-0.1-0.6-0.3-0.9-0.3
		c-0.2,0-0.4,0.2-0.6,0.4c-0.7,0.5-1.4,1-2.1,1.5c-0.8,0.5-1,0.9-0.6,1.9C772.1-166.8,773.3-167.7,774.5-168.6z M670.5-198.6
		c0.4-0.6,0.3-1.2,0-1.8c-0.2-0.5-0.3-0.9-0.5-1.4c-0.2-0.6-0.4-1.2-0.6-1.8c-0.2-0.4-0.6-0.5-0.9-0.2c-0.1,0.1-0.1,0.5,0,0.8
		c0.3,0.8,0.6,1.7,0.9,2.5c0.3,0.7,0.5,1.3,0.8,2C670.3-198.6,670.4-198.6,670.5-198.6z M645.2-41.6c-1,1.3-2,2.6-2.9,4
		c-0.1,0.2,0,0.5-0.1,0.8c0.3-0.1,0.7-0.1,0.9-0.3c0.5-0.6,1-1.3,1.5-2c0.3-0.4,0.7-0.9,0.8-1.3c0.1-0.3,0-0.7,0-1.1
		C645.4-41.5,645.3-41.5,645.2-41.6z M750.7-40.7c0.4,0.7,0.8,1.3,1.2,2c0.3,0.5,0.8,0.8,1,1.3c0.3,0.7,0.7,0.7,1.5,0.5
		c-1-1.7-2.2-3.1-3.5-4.6C750.8-41.3,750.6-40.9,750.7-40.7z M660.6-30.3c-0.4,0.9-0.9,1.9-1.3,2.8c-0.1,0.2,0.1,0.5,0.2,0.7
		c0.2-0.1,0.6-0.2,0.7-0.4c0.3-0.5,0.5-1.1,0.7-1.7c0.2-0.5,0.5-1.1,0.8-1.6c0.4-0.6,0.3-1.1-0.2-1.7
		C661.2-31.5,660.9-31,660.6-30.3z M645.3-187.2c-0.7-0.9-1.3-1.8-2-2.8c-0.5-0.7-0.8-0.7-1.4-0.1c1,1.4,2.1,2.8,3.2,4.3
		C645.7-186.3,645.7-186.7,645.3-187.2z M764.7-53.6c0,0.2,0,0.5,0.2,0.7c1,0.9,2,1.8,3,2.7c0.1,0.1,0.3,0.2,0.5,0.2
		s0.4-0.1,0.5-0.2c0.1-0.1,0-0.4-0.1-0.5c-1-1-2.1-1.9-3.2-2.9c-0.1-0.1-0.3-0.2-0.5-0.3C764.9-53.8,764.7-53.7,764.7-53.6z
		 M607.8-142.9c0.2,0.2,0.4,0.4,0.6,0.5c0.1,0.1,0.2,0.1,0.2,0.1c0.9,0.3,1.8,0.7,2.7,1c0.3,0.1,0.6,0.2,0.9,0.3
		c0.4,0.2,0.7,0.1,0.8-0.4s-0.1-0.9-0.7-1c-0.3,0-0.6-0.1-0.8-0.2c-0.8-0.3-1.6-0.7-2.5-1c-0.1,0-0.2,0-0.5-0.1
		C608.3-143.3,608.1-143.1,607.8-142.9z M611.5-141.9c0.3,0.1,0.6,0.1,1,0.2c0,0.1-0.1,0.3-0.1,0.3c-0.4,0-0.7-0.1-1-0.2
		C611.4-141.7,611.4-141.8,611.5-141.9C611.4-141.9,611.5-141.9,611.5-141.9z M697.6-210.3c-0.1,0.2-0.2,0.3-0.3,0.5
		c-0.1,0.3-0.3,0.6-0.3,0.9c0,1.6,0,3.2,0,4.9c0,0.7,0.3,1.3,0.9,1.3c0.7,0.1,1.1-0.4,1.1-1.2c0-1.3,0-2.6,0-3.8
		c0-0.9,0.1-1.8-0.6-2.5C698.3-210.3,698-210.3,697.6-210.3z M698.8-204c0,0.5-0.1,0.9-0.7,0.8c-0.6,0-0.6-0.5-0.6-0.9
		c0-1.6,0-3.3,0-4.9c0-0.5,0.1-0.8,0.6-0.8s0.7,0.2,0.7,0.7c0,0.9,0,1.7,0,2.6l0,0C698.8-205.7,698.7-204.8,698.8-204z M661.8-196.6
		c-0.5-1.2-1-2.3-1.6-3.4c-0.1-0.2-0.5-0.3-0.7-0.4c0,0.2-0.2,0.5-0.1,0.7c0.3,0.7,0.5,1.5,0.9,2.2c0.4,0.7,0.4,1.8,1.6,2.2
		C661.8-195.8,662-196.2,661.8-196.6z M622.6-58c0.9-0.6,1.8-1.2,2.6-1.9c0.3-0.2,0.4-0.6,0.5-0.9c0-0.1-0.1-0.4-0.2-0.6
		c-0.2,0.1-0.4,0.1-0.5,0.2c-0.8,0.6-1.6,1.2-2.3,1.8c-0.4,0.3-0.8,0.5-1.1,0.8c-0.1,0.1-0.3,0.4-0.2,0.5c0.1,0.2,0.4,0.2,0.6,0.4
		C622.1-57.8,622.4-57.9,622.6-58z M623.2-59.1c-0.1-0.1-0.1-0.1-0.1-0.1c0.1-0.1,0.3-0.2,0.4-0.3c0,0.1,0.1,0.1,0.1,0.2
		C623.4-59.3,623.3-59.2,623.2-59.1z M624.2-60l-0.1,0.1H624c0-0.1,0-0.1,0.1-0.2C624.2-60,624.2-60,624.2-60z M622.4-58.6
		L622.4-58.6c0-0.1,0.1-0.1,0.2-0.2c0,0,0,0.1,0.1,0.1C622.5-58.6,622.5-58.6,622.4-58.6z M734.7-195.4c1.3-1.3,1.5-3.2,2.5-4.7
		c-0.7-0.5-0.9-0.4-1.1,0.2c-0.5,1.2-1.1,2.3-1.6,3.5c-0.1,0.3,0,0.7,0,1.1C734.5-195.4,734.6-195.4,734.7-195.4z M627.8-49.9
		c0.3-0.1,0.6-0.2,0.9-0.5c0.7-0.5,1.3-1.1,1.9-1.6c0.3-0.3,0.7-0.6,1-1c0.1-0.2,0-0.6,0-0.9c-0.3,0-0.8-0.1-0.9,0
		c-1.1,1-2.2,2-3.3,3c-0.1,0.1-0.1,0.3-0.2,0.6C627.4-50.1,627.6-49.9,627.8-49.9z M628.2-50.4c-0.1,0.1-0.3,0-0.4,0
		c0.3-0.7,3-3.1,3.6-3.2c0.1,0.1,0.1,0.1,0.2,0.2C630.4-52.3,629.3-51.3,628.2-50.4z M715.9-201.8c0.3,0.3,0.5,0.7,0.8,0.7
		c0.5,0.1,0.8-0.2,0.9-0.7c0-0.2,0-0.4,0.1-0.6c0.1-0.4,0.3-0.9,0.4-1.3c0.1-0.2,0.1-0.4,0.2-0.6c0.1-0.6,0.2-1.1,0.2-1.7
		c0-0.3-0.3-0.6-0.5-0.8c-0.1,0-0.5,0.2-0.6,0.4c-0.2,0.3-0.4,0.6-0.5,1c-0.2,1.1-0.4,2.3-0.6,3.4
		C716.1-201.8,716-201.8,715.9-201.8z M717.4-205.8c0-0.2,0.2-0.3,0.4-0.4c0.1,0.2,0.3,0.4,0.3,0.5c-0.2,1.2-0.5,2.4-0.8,3.6
		c0,0.2-0.3,0.3-0.5,0.4c-0.1-0.1-0.2-0.3-0.2-0.3C716.9-203.4,717.1-204.6,717.4-205.8z M734.3-30.8c0.5,1.2,1.1,2.4,1.6,3.6
		c0.2,0.5,0.6,0.6,1,0.5c0.4-0.1,0.4-0.5,0.2-0.9c-0.3-0.6-0.5-1.1-0.8-1.7c-0.4-0.8-0.8-1.7-1.2-2.5c-0.1-0.2-0.2-0.4-0.4-0.6
		C734.1-31.8,734.1-31.3,734.3-30.8z M734.6-31.6c0.7,0.3,2.2,3.8,1.8,4.3C735.8-28.1,734.5-31.2,734.6-31.6z M760-181.9
		c0.2-0.2,0.4-0.4,0.5-0.7c0.2-0.3,0.5-0.6,0.7-0.9c0.3-0.4,0.1-0.5-0.3-0.5c-0.3,0.3-0.7,0.6-1,1c-0.4,0.5-0.8,1-1.3,1.5
		c-0.2,0.2-0.4,0.5-0.6,0.7c0.2,0.1,0.4,0.2,0.6,0.3c0.2-0.2,0.4-0.4,0.5-0.6c0.1-0.1,0.2-0.2,0.3-0.3
		C759.7-181.5,759.9-181.7,760-181.9z M758.1-180.2c0-0.2,0.1-0.4,0.1-0.6c0.2-0.2,0.4-0.5,0.6-0.7c0-0.1,0-0.3,0-0.4
		c-0.3,0.3-0.7,0.6-1,0.9c-0.3,0.3-0.5,0.8-0.1,1.2c0.2,0.2,0.7,0.1,1,0c0.4-0.2,0.7-0.8,0.6-1.2c-0.2,0.2-0.4,0.4-0.5,0.6
		C758.5-180.4,758.3-180.3,758.1-180.2z M761.8-183.6c0.1-0.7-0.3-0.7-0.8-0.6c0,0.1,0,0.1,0,0.2c0.4,0,0.6,0.1,0.3,0.5
		c-0.2,0.3-0.5,0.6-0.7,0.9C761-182.9,761.4-183.2,761.8-183.6z M760-183c-0.4,0.4-0.8,0.8-1.2,1.1c0,0.1,0,0.3,0,0.4
		C759.1-182,759.6-182.5,760-183z M762.1-184.1c-0.1-0.2-0.3-0.4-0.4-0.4c-0.2,0-0.4,0.2-0.6,0.4c0.5-0.2,0.9-0.2,0.8,0.6
		C761.9-183.8,762.1-184,762.1-184.1z M760.2-181.7c-0.1-0.1-0.1-0.1-0.2-0.2c-0.2,0.2-0.3,0.4-0.5,0.5
		C759.8-181.5,760-181.6,760.2-181.7z M790.9-112.9c0.9,0,1.9,0,2.8,0c0.5,0,0.8-0.3,0.7-0.8c0-0.5-0.2-0.8-0.8-0.8
		c-1.8,0-3.6,0-5.4,0c-0.7,0-0.7,0.4-0.7,0.9s0.1,0.8,0.7,0.8C789.1-112.9,790-112.8,790.9-112.9
		C790.9-112.8,790.9-112.8,790.9-112.9z M605.3-112.8c0.9,0,1.9,0,2.8,0c0.6,0,0.7-0.4,0.7-0.9s-0.1-0.9-0.7-0.9
		c-1.8,0-3.6,0.1-5.4,0c-0.6,0-0.9,0.2-0.9,0.8c0,0.6,0.2,0.9,0.8,0.9C603.5-112.8,604.4-112.8,605.3-112.8L605.3-112.8z
		 M781.1-66.6c-1.4-0.9-2.9-1.7-4.3-2.5c-0.6-0.4-0.9-0.4-1.2,0.1c-0.4,0.6-0.3,0.8,0.4,1.2c1.5,0.8,2.9,1.7,4.3,2.5
		c0.2,0.1,0.6,0.3,0.8,0.2c0.3-0.1,0.4-0.5,0.7-0.9C781.5-66.3,781.3-66.5,781.1-66.6z M651.1-30.6c0.9-1.5,1.8-3,2.7-4.5
		c0.3-0.5,0.4-0.7-0.2-1.1c-0.5-0.3-0.9-0.5-1.2,0.2c-0.9,1.6-1.8,3.1-2.7,4.7c-0.1,0.2-0.1,0.5,0,0.6c0.3,0.3,0.6,0.5,1,0.8
		C650.8-30.2,651-30.4,651.1-30.6z M649.8-195.9c0.2,0.3,0.4,0.7,0.6,1c0.7,1.2,1.4,2.4,2.1,3.6c0.4,0.7,0.8,0.2,1.2,0
		c0.4-0.2,0.4-0.5,0.2-0.9c-0.9-1.6-1.9-3.2-2.8-4.8c-0.1-0.2-0.3-0.3-0.4-0.4C649.9-197.2,649.4-196.4,649.8-195.9z M746.5-31.5
		c-0.2-0.4-0.4-0.7-0.6-1.1c-0.7-1.2-1.4-2.4-2-3.6c-0.4-0.7-0.8-0.2-1.3,0c-0.4,0.2-0.4,0.5-0.2,0.8c0.9,1.6,1.9,3.2,2.8,4.7
		c0.1,0.2,0.5,0.5,0.6,0.4c0.4-0.2,0.7-0.5,1-0.7C746.7-31.2,746.6-31.3,746.5-31.5z M697.5-23.8c0,1.9,0,3.8,0,5.6
		c0,0.2,0.4,0.5,0.6,0.5c0.4,0.1,0.6-0.1,0.6-0.6c0-1.5,0-2.9,0-4.4c0-0.6,0-1.1,0-1.7c-0.4,0-0.7,0-1.1,0
		C697.6-24.1,697.5-23.9,697.5-23.8z M697.1-23.4c0,1.7,0,3.4,0,5.2c0,0.6,0.2,0.9,0.8,1s1.2-0.3,1.2-0.8c0-1.9,0-3.8,0-5.7
		c0-0.2-0.3-0.3-0.4-0.5c0,0.6,0,1.1,0,1.7c0,1.5,0,2.9,0,4.4c0,0.5-0.2,0.7-0.6,0.6c-0.2-0.1-0.6-0.3-0.6-0.5c-0.1-1.9,0-3.8,0-5.6
		c0-0.2,0.1-0.4,0.2-0.5C697.1-24.2,697.1-23.9,697.1-23.4z M607.7-104c0.3,0,0.7-0.1,1-0.1c0-0.1,0-0.2,0-0.4c-0.3,0-0.7,0.1-1,0.1
		C607.7-104.3,607.7-104.1,607.7-104z M607.8-94.6c-0.4,0.1-0.8,0.2-1.2,0.2c0,0.1,0,0.2,0,0.3c0.4-0.1,0.8-0.1,1.2-0.2
		C607.8-94.4,607.8-94.5,607.8-94.6z M688.6-204.5c0.2-0.7,0.1-1.4-0.3-2.1c0,0.7,0,1.4,0,2.1C688.5-204.5,688.6-204.5,688.6-204.5z
		 M679.1-25.2c-0.1,0.5-0.1,0.9-0.2,1.4c0.1,0,0.2,0,0.3,0c0-0.5,0.1-0.9,0.1-1.4C679.3-25.2,679.2-25.2,679.1-25.2z M784.9-141.8
		c-0.2,0-0.4-0.1-0.5-0.1c-0.2,0-0.4,0.2-0.6,0.3c0.2,0.1,0.4,0.1,0.6,0.2c0.2,0,0.4,0,0.5-0.1C784.9-141.6,784.9-141.7,784.9-141.8
		z M611.3-141.6c0.3,0.1,0.7,0.1,1,0.2c0,0,0.1-0.2,0.1-0.3c-0.3-0.1-0.6-0.1-1-0.2c-0.1,0-0.1,0-0.2,0.1
		C611.3-141.8,611.3-141.7,611.3-141.6z M698.8-206.5c0-0.9,0-1.7,0-2.6c0-0.5-0.2-0.8-0.7-0.7c-0.5,0-0.6,0.3-0.6,0.8
		c0,1.6,0,3.3,0,4.9c0,0.5,0,0.9,0.6,0.9s0.7-0.4,0.7-0.8C698.7-204.8,698.8-205.7,698.8-206.5L698.8-206.5z M623.5-59.5
		c-0.1,0.1-0.3,0.2-0.4,0.3l0.1,0.1C623.3-59.2,623.5-59.3,623.5-59.5C623.5-59.4,623.5-59.5,623.5-59.5z M624-59.9
		C624-59.9,624.1-59.8,624-59.9c0.1,0,0.2,0,0.2-0.1c0,0-0.1,0-0.1-0.1C624.1-60,624.1-59.9,624-59.9z M622.5-58.7
		c-0.1,0-0.1,0-0.2,0.1v0.1c0.1,0,0.1,0,0.2,0C622.6-58.7,622.5-58.7,622.5-58.7z M631.3-53.5c-0.5,0.1-3.3,2.5-3.6,3.2
		c0.2,0,0.4,0.1,0.4,0c1.1-1,2.2-2,3.3-3C631.5-53.4,631.4-53.5,631.3-53.5z M716.7-201.7c0.2-0.1,0.5-0.2,0.5-0.4
		c0.3-1.2,0.5-2.4,0.8-3.6c0-0.2-0.2-0.4-0.3-0.5c-0.1,0.1-0.3,0.3-0.4,0.4c-0.3,1.2-0.5,2.5-0.8,3.8
		C716.6-202,716.7-201.8,716.7-201.7z M734.6-31.6c-0.1,0.4,1.1,3.4,1.8,4.3C736.8-27.8,735.3-31.2,734.6-31.6z M758.2-180.8
		c0,0.2-0.1,0.4-0.1,0.6c0.2-0.1,0.4-0.2,0.7-0.3C758.5-180.6,758.3-180.7,758.2-180.8z"/>
	<path id="_x32_" d="M633.8-95.2c2.2-4.6,6.6-8.8,13.1-12.6l9.7-5.6c4.4-2.5,7.4-4.7,9.2-6.5c2.8-2.8,4.2-6,4.2-9.6
		c0-4.2-1.3-7.6-3.8-10.1s-5.9-3.7-10.1-3.7c-6.2,0-10.6,2.4-13,7.1c-1.3,2.5-2,6.1-2.1,10.6h-9.3c0.1-6.3,1.3-11.5,3.5-15.4
		c3.9-7,10.9-10.5,20.9-10.5c8.3,0,14.4,2.2,18.2,6.7c3.8,4.5,5.7,9.5,5.7,15c0,5.8-2,10.8-6.1,14.9c-2.4,2.4-6.6,5.3-12.7,8.7
		l-6.9,3.8c-3.3,1.8-5.9,3.6-7.8,5.2c-3.4,2.9-5.5,6.2-6.4,9.8h39.6v8.6H630C630.3-85.2,631.6-90.6,633.8-95.2z"/>
	<g id="min_x5F_text">
		<path id="m" d="M689.6-107.9h4.9v4.2c1.2-1.4,2.2-2.5,3.2-3.2c1.6-1.1,3.5-1.7,5.6-1.7c2.3,0,4.2,0.6,5.7,1.7
			c0.8,0.7,1.5,1.6,2.2,2.9c1.1-1.6,2.4-2.7,3.9-3.5s3.2-1.1,5-1.1c4,0,6.7,1.4,8.1,4.3c0.8,1.5,1.2,3.6,1.2,6.2v19.6h-5.1V-99
			c0-2-0.5-3.3-1.5-4s-2.2-1.1-3.6-1.1c-1.9,0-3.6,0.7-5,2c-1.4,1.3-2.1,3.5-2.1,6.5v17.1h-5v-19.2c0-2-0.2-3.5-0.7-4.4
			c-0.8-1.4-2.2-2.1-4.2-2.1c-1.9,0-3.6,0.7-5.1,2.2c-1.5,1.4-2.3,4.1-2.3,7.9v15.6h-4.9v-29.4H689.6z"/>
		<path id="i" d="M736.5-118.9h5v5.6h-5V-118.9z M736.5-107.8h5v29.3h-5V-107.8z"/>
		<path id="n" d="M749-107.9h4.7v4.2c1.4-1.7,2.9-3,4.4-3.7c1.6-0.8,3.3-1.1,5.2-1.1c4.2,0,7,1.5,8.5,4.4c0.8,1.6,1.2,3.9,1.2,6.8
			v18.9h-5V-97c0-1.8-0.3-3.2-0.8-4.3c-0.9-1.8-2.5-2.7-4.8-2.7c-1.2,0-2.1,0.1-2.9,0.4c-1.4,0.4-2.5,1.2-3.6,2.4
			c-0.8,1-1.4,2-1.6,3s-0.4,2.5-0.4,4.4v15.4H749V-107.9z"/>
	</g>
</g>
<g id="_x31__person">
	<path id="_x31_person_x2013_image_1_" class="st0" d="M792.3-386.5c15.3-28.1,11.2-63.2-7.9-88.6c-21.5-28.5-58.2-43-93.4-40.9
		c-33.9,2.1-65.4,19.3-83.3,48.5c-16.1,26.2-21,63.7,1.7,87.5c0.2,0.2,0.4,0.3,0.5,0.4c-1.6,2.8-2,6.2-0.6,9.8c2,5,9.7,8.8,14.2,5.6
		c3.8,8,8.8,15.4,15.3,21.8c19.6,19.2,52.4,24.9,78.7,21.5c25.6-3.3,49.3-19.4,61.4-42.3c0.5-0.9,0.9-1.8,1.4-2.8
		c5.9,2.2,13.4,0.8,16.6-5C799.7-376.1,797.6-384.1,792.3-386.5z M613.6-373.9c-0.4-3.3,1.4-6.3,3.7-8.5c1,4.5,2.4,8.9,4,13.1
		C617.7-368.1,614.2-369.1,613.6-373.9z M769.6-364c-12.5,20.5-34.3,33.6-58.2,35.3c-23.5,1.7-51.3-3.4-68.5-20.6
		c-15.6-15.6-21.7-37.9-24.1-59.4c0.2-0.1,0.4-0.2,0.6-0.4c14.6-10.4,40.4-27.5,43.6-47.8c9.8,15,30.8,21.7,47.5,24.5
		c17.9,3,44.7,8.4,61.9-1.5C779.4-409.6,784.1-387.7,769.6-364z M790.9-373.4c-1.7,3.1-5.3,3.5-8.6,2.9c1.6-4,2.9-8.1,3.9-12.5
		c0.3,0.8,0.9,1.4,1.8,1.8C791.1-380.1,792.5-376.4,790.9-373.4z M675.5-393.2c-6.9,8.8-27.8,9.5-28-4.9c0-2.5,3.4-2.8,4.2-0.6
		c3.7,10.8,14.7,3.1,21.4,1.3C675.7-398.1,677-395,675.5-393.2z M744.2-389.5c-7.1,1.5-14.8-2-18.2-8.3c-1.1-2.1,1.5-3.9,3.2-2.4
		c3.9,3.3,8.8,5.2,13.8,3.4c4.7-1.7,5.8-5.8,9.1-8.9c1.5-1.4,4.7-1,5.1,1.3C758.3-397.1,750.8-390.9,744.2-389.5z M707.4-343.1
		c-10.3,0.8-24.1-1.7-26.3-6.2c-0.9-1.8,5.1-3.2,7.6-1.7c0.3,0.1,0.6,0.2,0.9,0.3c0.9,0,1.9-0.1,2.8,0c1.6,0,2,0.9,0.6,1.2
		c3.1,0.9,6.5,1.6,10.8,1.2c6.6-0.5,7.9-2.8,10.2-5c2.2-2.2,11.6-3,12.9,0C729-348.4,718.6-343.9,707.4-343.1z M709.8-369.1
		c-2.2,6.5-12.4,5.7-15.4,0.3c-3.5-6.4,4.3-14.9,10.8-10.8c1,0.7,0.8,2.8-0.7,2.6c-2.1-0.3-4.2,1-5.1,2.9c-0.7,1.4-0.4,2.9,1.1,3.6
		c1.2,0.6,2.7,0.5,3.8-0.2c1.7-1,3-2.5,4.9-0.9C709.8-371.1,710-369.9,709.8-369.1z"/>
</g>
</svg>
