<?xml version="1.0" encoding="utf-8"?>
<!-- Generator: Adobe Illustrator 19.0.0, SVG Export Plug-In . SVG Version: 6.00 Build 0)  -->
<svg version="1.1" id="Layer_1" xmlns="http://www.w3.org/2000/svg" xmlns:xlink="http://www.w3.org/1999/xlink" x="0px" y="0px"
	 viewBox="0 0 100 100" style="enable-background:new 0 0 100 100;" xml:space="preserve">
<style type="text/css">
	.st0{display:none;fill:none;stroke:#C10505;stroke-width:3;stroke-miterlimit:10;}
	.st1{fill:none;stroke:#E31D1A;stroke-width:4;stroke-miterlimit:10;}
	.st2{fill:#E31D1A;stroke:#E31D1A;stroke-width:0.25;stroke-miterlimit:10;}
	.st3{fill:none;stroke:#E31D1A;stroke-width:3;stroke-miterlimit:10;}
</style>
<image style="display:none;overflow:visible;" width="128" height="128" xlink:href="../../../Downloads/register.png"  transform="matrix(0.7843 0 0 0.7843 0 1.0127)">
</image>
<path class="st0" d="M94.6,79.8H5c-1.1,0-2-0.9-2-2V24.2c0-1.1,0.9-2,2-2h89.6c1.1,0,2,0.9,2,2v53.6C96.6,78.9,95.7,79.8,94.6,79.8z
	"/>
<g>
	<path class="st1" d="M92.5,81.8h-85c-2.8,0-5-2.2-5-5V27.5c0-2.8,2.2-5,5-5h85c2.8,0,5,2.2,5,5v49.3C97.5,79.6,95.2,81.8,92.5,81.8
		z"/>
	<path class="st2" d="M83.3,42.2H58.5c-0.6,0-1-0.4-1-1v-1.8c0-0.6,0.4-1,1-1h24.8c0.6,0,1,0.4,1,1v1.8
		C84.3,41.7,83.8,42.2,83.3,42.2z"/>
	<path class="st2" d="M83.3,54.1H58.5c-0.6,0-1-0.4-1-1v-1.8c0-0.6,0.4-1,1-1h24.8c0.6,0,1,0.4,1,1v1.8
		C84.3,53.6,83.8,54.1,83.3,54.1z"/>
	<path class="st2" d="M83.3,65H58.5c-0.6,0-1-0.4-1-1v-1.8c0-0.6,0.4-1,1-1h24.8c0.6,0,1,0.4,1,1V64C84.3,64.5,83.8,65,83.3,65z"/>
	<path class="st3" d="M17.1,44.9c-0.2-1.4-0.3-3.5,0-6.2c1.4-4.9,5.6-8.5,10.5-8.8c6.2-0.4,10.8,4.4,12.1,8.7c0.2,0.6,1.1,3.6,0,6.4
		c-0.8,2.1-2.6,3.9-3,4.3c-1.7,1.7-3.2,2.3-3.3,3.9c-0.1,0.8,0.2,1.5,0.3,1.7c0.1,0.3,0.6,1.3,1.9,2.2c2.4,1.6,4.2,0.5,6.2,1.7
		c0.7,0.5,1.7,1.4,2.3,3.5c0,3.4,0,6.7,0,10.1c-10.4,0-20.9,0-31.3,0c0-2.9,0-5.8,0-8.7c0-0.6,0.2-2.3,1.6-3.9
		c1.2-1.4,2.6-1.1,5.1-2.2c3.1-1.4,3.9-2.1,4.2-2.9c0.3-0.7,0.1-1.4,0-1.9c-1-1.2-1.9-2.1-2.6-2.6c-1.6-1.3-2.6-1.6-3.3-3
		C17.4,46.8,17.2,46.3,17.1,44.9z"/>
	<path class="st3" d="M24.5,54c2.6,0,5.2,0,7.8,0"/>
	<path class="st3" d="M20.1,58.2c0.1,4.8,4,8.6,8.7,8.5c4.5-0.1,8.2-3.7,8.4-8.3"/>
	<path class="st3" d="M18.6,46c0.9-0.5,2.3-1.1,4.1-1.6c3.2-0.9,4.3-0.3,5.9-1.4c2.3-1.5,1.9-3.8,3.5-4c1.6-0.2,3.4,2.3,4.7,4.1
		c0.8,1.1,1.3,2,1.6,2.7"/>
</g>
</svg>
