<?xml version="1.0" encoding="utf-8"?>
<!-- Generator: Adobe Illustrator 19.0.0, SVG Export Plug-In . SVG Version: 6.00 Build 0)  -->
<svg version="1.1" id="Layer_1" xmlns="http://www.w3.org/2000/svg" xmlns:xlink="http://www.w3.org/1999/xlink" x="0px" y="0px"
	 viewBox="0 0 100 100" style="enable-background:new 0 0 100 100;" xml:space="preserve">
<style type="text/css">
	.st0{display:none;fill:#FFFFFF;}
	.st1{display:none;}
	.st2{display:inline;fill:#e31d1a;}
	.st3{display:inline;fill:#FFFFFF;}
	.st4{display:inline;fill:none;stroke:#FFFFFF;stroke-width:5;stroke-miterlimit:10;}
	.st5{display:inline;fill:#FFFFFF;stroke:#FFFFFF;stroke-width:0.25;stroke-miterlimit:10;}
	.st6{display:inline;fill:#313131;}
	.st7{display:inline;fill:#CA3435;}
	.st8{display:inline;}
	.st9{fill:#FFFFFF;}
	.st10{display:none;fill:#F21414;stroke:#FFFFFF;stroke-width:0.25;stroke-miterlimit:10;}
	.st11{opacity:0.45;fill:#040404;}
	.st12{fill:#FFFFFF;stroke:#FFFFFF;stroke-width:0.25;stroke-miterlimit:10;}
	.st13{fill:#e31d1a;stroke:#FFFFFF;stroke-width:0.25;stroke-miterlimit:10;}
	.st14{fill:#040404;stroke:#FFFFFF;stroke-width:0.25;stroke-miterlimit:10;}
</style>
<image style="display:none;overflow:visible;" width="225" height="225" xlink:href="3CAFC0460738E607.jpg"  transform="matrix(0.4444 0 0 0.4444 -83 -405)">
</image>
<path class="st0" d="M-50.6-369.5c3.3,0,6.5,0,9.8,0c0.2-0.9,1.1-4,4.1-6.2c0.7-0.5,3.1-2.2,6.5-2.1c0.8,0,4.6,0.2,7,3.3
	c1.4,1.9,1.6,4,1.6,4.9c-1,2.8-2.4,4.5-3.5,5.5c-1.8,1.8-2.6,1.6-5.4,4.1c-1.5,1.3-2.7,2.5-3.8,4.4c-0.9,1.7-1.3,3.2-1.4,4.3
	c0,2,0,3.9,0,5.9c3,0,5.9,0,8.9,0c0.1-1.5,0.2-3,0.3-4.4c0.4-1.1,1.2-2.7,2.7-4.3c1.7-1.8,2.8-1.8,5.2-4c1.1-1,2.6-2.5,4-4.4
	c1.4-2.1,2.3-4.2,2.8-5.9c0.1-1.4,0.1-3.9-1.1-6.6c-0.8-1.9-1.8-3.1-2.5-4c-2.4-2.9-5-4.3-5.5-4.6c-3.5-1.8-6.6-2-8.5-2.1
	c-2.8-0.1-8.9-0.3-14.2,4C-49.2-377.2-50.3-371.2-50.6-369.5z"/>
<g id="question_x5F_icon" class="st1">
	<rect x="-74" y="-310" class="st2" width="100" height="100"/>
	<path class="st3" d="M-26.9-246.5c3.3,0,6.6,0,10,0c0,3.4,0,6.9,0,10.3c-3.4,0-6.8,0-10.1,0C-27-239.6-26.9-243.1-26.9-246.5z"/>
	<circle class="st4" cx="-23.3" cy="-262.6" r="40.5"/>
	<path class="st5" d="M-41.4-274.8c3.1,0,6.3,0,9.4,0c2.1-5.1,6.6-8.1,11-7.8c3.3,0.3,7.3,2.6,7.9,6c0.6,3.5-2.5,6.7-3.3,7.6
		c-2.2,2.3-3.6,2-6.5,5.1c-1.5,1.7-2.3,3-2.7,3.8c-1,1.9-1.3,3.5-1.4,4.1c-0.4,2.3-0.3,4.3,0,5.7c3.1,0,6.1,0,9.2,0
		c0-1,0.1-2.1,0.1-3.1c0.5-2.1,1.4-3.5,2-4.2c0.8-1.1,1.6-1.8,2.3-2.3c1.3-1.1,2.3-1.5,3-2c1.3-1,3.7-2.9,5.4-6
		c0.6-1.2,1.6-3.3,1.7-6.3c0-1.9-0.4-5.6-2.8-9.2c-4.5-6.5-12.4-7.1-14.4-7.3c-1.9-0.1-6.7-0.4-11.6,2.4
		C-39.5-284.1-41.2-276.2-41.4-274.8z"/>
</g>
<g id="_x39_RHpmW.tif" class="st1">
	
		<image style="display:inline;overflow:visible;" width="256" height="249" id="Layer_0_1_" xlink:href="3CAFC0460738E605.png"  transform="matrix(0.1874 0 0 0.1874 -57.2341 -377.9081)">
	</image>
</g>
<g id="yes_x5F_icon" class="st1">
	<rect x="-83" y="-405" class="st6" width="100" height="100"/>
	<circle class="st4" cx="-33.3" cy="-354.6" r="40.5"/>
	<path class="st3" d="M-48.1-355.2c3.3,2.9,6.6,5.8,9.9,8.8c6.1-9.6,12.2-19.2,18.2-28.9c1.7-1.9,4.6-2.4,6.8-1
		c2.2,1.4,3.1,4.2,2,6.6c-7.9,12-15.8,23.9-23.6,35.9c0,0.1-0.6,1.2-1.9,1.5c-1.3,0.2-2.2-0.5-2.2-0.6c-5.5-5.3-11-10.6-16.5-15.9
		c-1.1-1.9-1.1-4.2,0.1-5.8C-53.8-356.6-50.5-357.1-48.1-355.2z"/>
</g>
<g id="JqKaif.tif" class="st1">
	
		<image style="display:inline;overflow:visible;" width="117" height="90" id="Layer_1_1_" xlink:href="3CAFC0460738E60B.png"  transform="matrix(0.7821 0 0 0.7821 -70 -295.3322)">
	</image>
</g>
<g id="people" class="st1">
	<circle class="st6" cx="-23.7" cy="-258.7" r="8.8"/>
	<circle class="st6" cx="-24.2" cy="-285.2" r="9.3"/>
	<path class="st6" d="M-30.8-267.7c-0.6,0.8-1.2,1.6-1.8,2.4c-0.6,1-1.2,1.9-1.8,2.9c-0.5,0.8-1,1.6-1.5,2.4
		c-0.9,0.5-2.2,1.2-3.8,1.2c-4,0.1-8.8-3.6-8.8-8.8c0-4.7,3.9-8.8,8.8-8.8C-34.8-276.6-30.8-272.6-30.8-267.7z"/>
	<path class="st6" d="M-46.4-276.7c-0.6,0.8-1.2,1.6-1.8,2.4c-0.6,1-1.2,1.9-1.8,2.9c-0.5,0.8-1,1.6-1.5,2.4
		c-0.9,0.5-2.2,1.2-3.8,1.2c-4,0.1-8.8-3.6-8.8-8.8c0-4.7,3.9-8.8,8.8-8.8C-50.3-285.6-46.4-281.6-46.4-276.7z"/>
	<path class="st6" d="M-17-267.7c0.6,0.8,1.2,1.6,1.8,2.4c0.6,1,1.2,1.9,1.8,2.9c0.5,0.8,1,1.6,1.5,2.4c0.9,0.5,2.2,1.2,3.8,1.2
		c4,0.1,8.8-3.6,8.8-8.8c0-4.7-3.9-8.8-8.8-8.8C-13-276.6-17-272.6-17-267.7z"/>
	<path class="st6" d="M-2-277.4c0.6,0.8,1.2,1.6,1.8,2.4c0.6,1,1.2,1.9,1.8,2.9c0.5,0.8,1,1.6,1.5,2.4c0.9,0.5,2.2,1.2,3.8,1.2
		c4,0.1,8.8-3.6,8.8-8.8c0-4.7-3.9-8.8-8.8-8.8C2-286.2-2-282.2-2-277.4z"/>
	<path class="st6" d="M-51.8-266.4c-0.1,1,0,2.6,0.9,4c1.2,2,3,2.5,2.9,3.4c-0.1,1.1-2.9,0.6-5.4,2.4c-3.1,2.2-4,6.5-4,8.6
		c0,1.6,0,3.2,0,4.8c-4.2-0.6-8.3-1.2-12.5-1.9c0-3.8,0-7.7,0-11.5c0.3-1.3,1.2-3.8,3.4-6.1c2.3-2.4,4.7-3.4,5.4-3.6
		C-56.8-267.9-53-266.8-51.8-266.4z"/>
	<path class="st6" d="M-35.2-257.2c-0.1,0.9,0,2.4,0.8,3.9c1,2,2.6,2.4,2.5,3.4c-0.1,1.4-3.3,1-5.9,3.4c-2.3,2.2-2.8,5.4-3.1,7.5
		c-0.3,1.9-0.2,3.4-0.1,4.5c-4.6-0.8-9.2-1.5-13.9-2.2c0-3.8,0-7.5,0-11.2c0.4-1.3,1.5-4,4.1-6.2c2.3-2,4.6-2.7,5.8-3
		C-40.8-258.6-37.1-257.8-35.2-257.2z"/>
	<path class="st6" d="M-12.3-257.2c0.1,0.9,0,2.4-0.8,3.9c-1,2-2.6,2.4-2.5,3.4c0.1,1.4,3.3,1,5.9,3.4c2.3,2.2,2.8,5.4,3.1,7.5
		c0.3,1.9,0.2,3.4,0.1,4.5c4.6-0.8,9.1-1.7,13.7-2.5c0-3.6,0-7.2,0-10.8c-0.3-1.3-1.3-4.1-3.9-6.5c-2.2-2-4.4-2.6-5.8-3
		C-6.7-258.6-10.5-257.8-12.3-257.2z"/>
	<path class="st6" d="M3.4-266.4c0.1,1,0,2.6-0.9,4c-1.2,2-3,2.5-2.9,3.4c0.1,1.1,2.9,0.6,5.4,2.4c3.1,2.2,4,6.5,4,8.6
		c0,1.6,0,3.2,0,4.8c4.2-0.6,8.3-1.2,12.5-1.9c0-3.8,0-7.7,0-11.5c-0.3-1.3-1.2-3.8-3.4-6.1c-2.3-2.4-4.7-3.4-5.4-3.6
		C8.5-267.9,4.6-266.8,3.4-266.4z"/>
	<path class="st6" d="M-38.6-240.9c0.6-1.1,1.7-2.7,3.4-4.2c1.8-1.6,3.7-2.5,4.9-3c4.4,0,8.8,0,13.2,0c1.2,0.4,3.4,1.4,5.4,3.5
		c1.6,1.7,2.5,3.4,2.9,4.6c0,3.9,0,7.9,0,11.8c-3.1,1.2-8.4,2.9-15.1,2.9c-6.5,0-11.7-1.6-14.8-2.9
		C-38.6-232.5-38.6-236.7-38.6-240.9z"/>
	<path class="st6" d="M-49-286.2c0.2-0.5,1.5-3.9,5.2-5.4c4.4-1.7,8.2,0.8,8.5,1c0.2,4.2,0.5,8.3,0.8,12.5c-0.7,0-1.3,0-2,0
		c-0.2-0.4-0.4-0.8-0.6-1.1c-1.8,0-3.5,0-5.2,0c-0.1,0.4-0.2,0.8-0.2,1.2c-0.6-0.1-1.2-0.2-1.8-0.2C-45.9-280.9-47.5-283.6-49-286.2
		z"/>
	<path class="st6" d="M0.6-286.7c-0.2-0.5-1.5-3.9-5.2-5.4c-4.4-1.7-8.2,0.8-8.5,1c-0.2,4.2-0.5,8.3-0.8,12.5c0.7,0,1.3,0,2,0
		c0.2-0.4,0.4-0.8,0.6-1.1c1.8,0,3.5,0,5.2,0c0.1,0.4,0.2,0.8,0.2,1.2c0.6-0.1,1.2-0.2,1.8-0.2C-2.4-281.4-0.9-284,0.6-286.7z"/>
	<path class="st6" d="M-30-274.2c3.9,0,7.8,0,11.6,0c0,0.5,0,1.1,0,1.6c0,0,0,0,0,0c-0.4,0-0.8,0-1.3,0c0,1,0,1.9,0,2.9
		c-0.7,0-1.4,0-2.1,0c-1.1,0-2.2,0-3.4,0c-1.2,0-2.3,0-3.5,0c0-1,0-1.9,0-2.9c-0.5,0-0.9,0-1.4,0C-30-273.2-30-273.7-30-274.2z"/>
</g>
<g id="Pt1vgW.tif" class="st1">
	
		<image style="display:inline;overflow:visible;" width="197" height="62" id="Layer_1_2_" xlink:href="3CAFC0460738E60D.png"  transform="matrix(0.4867 0 0 0.4867 -14.8836 -85.465)">
	</image>
</g>
<g id="_x31_23_x5F_icon" class="st1">
	<circle class="st6" cx="0.1" cy="-70.2" r="15.1"/>
	<circle class="st6" cx="33.1" cy="-70.2" r="15.1"/>
	<circle class="st7" cx="65.7" cy="-70.1" r="15.1"/>
	<g id="_x31_23" class="st8">
		<g id="_x31_">
			<path class="st9" d="M-3.1-73.1v-1.5c0.7,0,1.2-0.1,1.5-0.1c0.4-0.1,0.8-0.3,1.1-0.6c0.2-0.2,0.3-0.5,0.4-0.8
				C0-76.4,0-76.6,0-76.7h1.9v11.3h-2.3v-7.8H-3.1z"/>
		</g>
		<g id="_x32_">
			<path class="st9" d="M29.9-67.6c0.3-0.8,1.1-1.6,2.2-2.4c1-0.7,1.7-1.3,2-1.6c0.5-0.5,0.7-1,0.7-1.6c0-0.5-0.1-0.9-0.4-1.2
				c-0.3-0.3-0.6-0.5-1.1-0.5c-0.7,0-1.1,0.3-1.4,0.8c-0.1,0.3-0.2,0.8-0.2,1.4h-2.2c0-1,0.2-1.7,0.5-2.3c0.6-1.1,1.6-1.7,3.2-1.7
				c1.2,0,2.2,0.3,2.9,1s1.1,1.5,1.1,2.6c0,0.8-0.2,1.6-0.8,2.2c-0.3,0.4-0.9,0.9-1.6,1.4l-0.9,0.6c-0.6,0.4-0.9,0.7-1.1,0.9
				c-0.2,0.2-0.4,0.4-0.5,0.6h4.9v2h-7.8C29.4-66.1,29.5-66.9,29.9-67.6z"/>
		</g>
		<g id="_x33_">
			<path class="st9" d="M64.4-68.8c0,0.5,0.1,0.8,0.2,1.1c0.3,0.5,0.8,0.8,1.5,0.8c0.4,0,0.8-0.1,1.1-0.4c0.3-0.3,0.5-0.7,0.5-1.3
				c0-0.7-0.3-1.2-0.9-1.5c-0.3-0.1-0.9-0.2-1.6-0.2v-1.6c0.7,0,1.2-0.1,1.5-0.2c0.5-0.2,0.7-0.7,0.7-1.3c0-0.4-0.1-0.8-0.4-1.1
				c-0.3-0.3-0.6-0.4-1.1-0.4c-0.5,0-0.9,0.2-1.2,0.5c-0.2,0.3-0.4,0.8-0.4,1.3h-2.1c0-0.6,0.1-1.1,0.3-1.6c0.2-0.4,0.5-0.9,0.9-1.2
				c0.3-0.3,0.6-0.5,1-0.6c0.4-0.1,0.9-0.2,1.5-0.2c1.1,0,2,0.3,2.6,0.8c0.7,0.6,1,1.3,1,2.3c0,0.7-0.2,1.2-0.6,1.7
				c-0.2,0.3-0.5,0.5-0.8,0.6c0.2,0,0.5,0.2,0.9,0.5c0.6,0.5,0.9,1.2,0.9,2.2c0,1-0.3,1.8-1,2.5s-1.6,1.1-2.9,1.1
				c-1.6,0-2.7-0.5-3.3-1.6c-0.3-0.6-0.5-1.3-0.5-2.2H64.4z"/>
		</g>
	</g>
</g>
<rect x="-17" y="-119" class="st10" width="100" height="100"/>
<g id="IkQr6c.tif" class="st1">
	
		<image style="display:inline;overflow:visible;" width="115" height="120" id="Layer_1_3_" xlink:href="3CAFC0460738E60F.png"  transform="matrix(0.8199 0 0 0.8199 -15.2828 -119)">
	</image>
</g>
<g id="_x38_5_x25_" class="st1">
	<g id="base_x5F_circle" class="st8">
		<circle class="st11" cx="33.3" cy="-66.7" r="45.3"/>
		<circle class="st12" cx="30.5" cy="-73.5" r="45.3"/>
		<circle class="st13" cx="30.5" cy="-73.5" r="37.8"/>
	</g>
	<g id="_x38_" class="st8">
		<path class="st9" d="M8.6-71.5c0.4-0.8,1.1-1.4,2-1.8c-0.9-0.6-1.4-1.2-1.7-1.8c-0.3-0.7-0.4-1.3-0.4-1.9c0-1.3,0.5-2.4,1.5-3.3
			c1-0.9,2.3-1.4,4.1-1.4s3.1,0.5,4.1,1.4c1,0.9,1.5,2,1.5,3.3c0,0.6-0.1,1.2-0.4,1.9c-0.3,0.7-0.8,1.2-1.7,1.7
			c0.9,0.5,1.5,1.1,2,1.9c0.4,0.8,0.7,1.7,0.7,2.7c0,1.5-0.6,2.8-1.7,3.8s-2.6,1.6-4.6,1.6s-3.5-0.5-4.5-1.6s-1.5-2.3-1.5-3.8
			C7.9-69.8,8.1-70.7,8.6-71.5z M12.2-67c0.5,0.5,1.1,0.7,1.9,0.7c0.8,0,1.4-0.2,1.9-0.7c0.5-0.5,0.7-1.2,0.7-2
			c0-0.9-0.2-1.6-0.7-2.1c-0.5-0.5-1.1-0.7-1.9-0.7s-1.4,0.2-1.9,0.7c-0.5,0.5-0.7,1.2-0.7,2.1C11.5-68.1,11.7-67.5,12.2-67z
			 M12.4-75c0.4,0.4,0.9,0.6,1.6,0.6c0.7,0,1.3-0.2,1.6-0.6c0.4-0.4,0.6-0.9,0.6-1.6c0-0.7-0.2-1.2-0.6-1.6
			c-0.4-0.4-0.9-0.6-1.6-0.6c-0.7,0-1.3,0.2-1.6,0.6c-0.4,0.4-0.6,0.9-0.6,1.6C11.8-76,12-75.5,12.4-75z"/>
	</g>
	<g id="_x35_" class="st8">
		<path class="st9" d="M25.4-68.6c0.1,0.8,0.4,1.3,0.8,1.8c0.4,0.4,1,0.6,1.7,0.6c0.9,0,1.5-0.3,2-0.9c0.5-0.6,0.7-1.4,0.7-2.3
			c0-0.9-0.2-1.7-0.6-2.3c-0.4-0.6-1.1-0.9-2-0.9c-0.4,0-0.8,0.1-1.1,0.2c-0.5,0.2-1,0.6-1.2,1.1l-3.1-0.1l1.2-9.8h9.7v3h-7.2
			l-0.6,3.9c0.5-0.3,1-0.6,1.3-0.7c0.5-0.2,1.1-0.3,1.8-0.3c1.5,0,2.7,0.5,3.8,1.5c1.1,1,1.6,2.4,1.6,4.3c0,1.6-0.5,3.1-1.6,4.4
			c-1,1.3-2.6,1.9-4.7,1.9c-1.7,0-3.1-0.5-4.1-1.4c-1.1-0.9-1.7-2.2-1.8-3.8H25.4z"/>
	</g>
	<g id="_x25_" class="st8">
		<path class="st9" d="M43.1-73.7c-0.9,0.9-2,1.3-3.2,1.3c-1.3,0-2.3-0.4-3.2-1.3c-0.9-0.9-1.3-2-1.3-3.2c0-1.3,0.4-2.3,1.3-3.2
			c0.9-0.9,2-1.3,3.2-1.3c1.3,0,2.3,0.4,3.2,1.3c0.9,0.9,1.3,2,1.3,3.2C44.4-75.7,44-74.6,43.1-73.7z M41.2-75.6
			c0.4-0.4,0.6-0.8,0.6-1.4s-0.2-1-0.6-1.4c-0.4-0.4-0.8-0.6-1.4-0.6s-1,0.2-1.4,0.6c-0.4,0.4-0.6,0.8-0.6,1.4s0.2,1,0.6,1.4
			c0.4,0.4,0.8,0.6,1.4,0.6S40.9-75.2,41.2-75.6z M49.8-81.6h1.8l-9.9,18.2h-1.9L49.8-81.6z M54.9-64.9c-0.9,0.9-2,1.3-3.2,1.3
			c-1.3,0-2.3-0.4-3.2-1.3s-1.3-2-1.3-3.2c0-1.3,0.4-2.3,1.3-3.2c0.9-0.9,2-1.3,3.2-1.3c1.3,0,2.3,0.4,3.2,1.3
			c0.9,0.9,1.3,2,1.3,3.2C56.3-66.8,55.8-65.7,54.9-64.9z M53.1-69.4c-0.4-0.4-0.8-0.6-1.4-0.6s-1,0.2-1.4,0.6
			c-0.4,0.4-0.6,0.8-0.6,1.4s0.2,1,0.6,1.4c0.4,0.4,0.8,0.6,1.4,0.6s1-0.2,1.4-0.6c0.4-0.4,0.6-0.8,0.6-1.4S53.5-69.1,53.1-69.4z"/>
	</g>
</g>
<g id="base_x5F_circle_1_">
	<circle class="st11" cx="51.4" cy="53.4" r="45.3"/>
	<circle class="st12" cx="48.6" cy="46.6" r="45.3"/>
	<circle class="st13" cx="48.6" cy="46.6" r="37.8"/>
	<circle class="st12" cx="48.2" cy="45.2" r="16.5"/>
	<circle class="st14" cx="56" cy="46.5" r="3.5"/>
</g>
<g id="dIlv4d.tif" class="st1">
	
		<image style="display:inline;overflow:visible;" width="133" height="138" id="Layer_1_4_" xlink:href="3CAFC0460738E60C.png"  transform="matrix(0.7143 0 0 0.7143 2 0)">
	</image>
</g>
</svg>
