<?xml version="1.0" encoding="utf-8"?>
<!-- Generator: Adobe Illustrator 19.0.0, SVG Export Plug-In . SVG Version: 6.00 Build 0)  -->
<svg version="1.1" id="Layer_1" xmlns="http://www.w3.org/2000/svg" xmlns:xlink="http://www.w3.org/1999/xlink" x="0px" y="0px"
	 viewBox="0 0 100 100" style="enable-background:new 0 0 100 100;" xml:space="preserve">
<style type="text/css">
	.st0{display:none;fill:none;stroke:#000000;stroke-width:3;stroke-miterlimit:10;}
	.st1{fill:#313131;}
	.st2{fill:none;}
	.st3{fill:none;stroke:#313131;stroke-width:3.5;stroke-miterlimit:10;}
</style>
<image style="display:none;overflow:visible;" width="900" height="900" xlink:href="../jpg/app_icon.png"  transform="matrix(0.1111 0 0 0.1111 0 0)">
</image>
<path class="st0" d="M50.8,20.7c-1.9-1.7-5.9-4.9-11.8-6.2c-1.8-0.4-12.3-2.4-20.8,4.9c-8.1,7-7.9,17-7.9,18.8
	c0.2,11.8,8.6,19,9.9,20c0.1,3.5,1.3,6.3,2.9,7.1c1.4,0.7,2.4,0.8,2.4,0.8c1.1,0.1,1.6-0.2,2,0.2c0.5,0.5,0.1,1.3,0.3,2.6
	c0.3,1.9,1.7,3.1,2,3.3c1.8,1.5,4,1.4,4.6,1.4c0,0.6,0.4,4,3.3,6.2c1.7,1.2,3.4,1.5,4.2,1.5c0.2,2.9,1.9,5.5,4.4,6.5
	c2.6,1,4.9,0.1,5.5-0.2c2.6-2.6,5.2-5.3,7.7-7.9c0.3-1,0.5-1.9,0.8-2.9c0.3,0.1,3.3,1,5.9-0.9c1.9-1.4,2.9-3.8,2.6-6.2
	c0.7,0.1,2.2,0.2,3.8-0.6c2.2-1.1,3.5-3.6,3.5-6.4c0.6,0,3.8-0.1,5.5-2.1c0.9-1,1.2-2.1,1.2-2.1c0.4-1.1,0.2-1.5,0.6-2.4
	c0.3-0.6,0.6-0.8,1.4-1.7c0,0,0.6-0.6,1.8-2.4c0.9-1.3,2.8-5.1,3.3-9.6C90,40.4,91,33.1,86.4,26c-5.5-8.4-14.7-10-16.8-10.3
	C59.5,14.3,52.2,19.7,50.8,20.7z"/>
<path class="st1" d="M48.4,22.2c-9.3-8.6-23.6-8-31.5,0.4c-8.5,9-7.5,24.8,3.4,33.1c-0.7,1-1.4,1.9-2.1,2.9
	C5.3,48.6,4.4,30,14.5,19.7c9.2-9.3,25.7-9.9,36.4,0.2C50.1,20.7,49.2,21.4,48.4,22.2z"/>
<path class="st1" d="M52.3,22.6c9.5-6.7,22.6-4.7,29.3,4c6.1,7.9,5.5,19.7-1.7,27.4c0.6,1.1,1.1,2.3,1.7,3.4
	c9.4-8.8,10.4-23.5,2.6-33.3C76,14,60.8,11.9,50,19.8C50.7,20.7,51.5,21.7,52.3,22.6z"/>
<path class="st2" d="M20.2,56.4c2.3-2.3,4.6-4.6,6.9-6.9c3-1.6,6.6-1.1,8.8,1c2.2,2.1,2.1,5.1,2.1,5.6c0.4,0,3.5-0.1,5.8,2.4
	c1.9,2.1,1.8,4.6,1.8,5.1c0.4,0,3.9-0.1,6.1,2.7c1.6,2.1,1.5,4.4,1.4,5c0.3,0,3.9-0.3,6.2,2.7c1.6,2.1,1.9,4.9,0.8,7.3
	c-2.7,2.7-5.3,5.4-8,8.1c-2.1,1.4-4.8,1.6-7,0.5c-2.5-1.3-4-4-3.7-6.9c-0.5,0-3.1,0.3-5.3-1.6c-2.6-2.2-2.4-5.6-2.4-5.9
	c-0.5,0-2.9,0.1-5-1.6c-2.6-2.2-2.4-5.6-2.4-5.9c-0.6,0-3.3,0-5.4-2.1c-3-2.9-2.1-7.1-2.1-7.3C19.2,57.9,19.7,57.1,20.2,56.4z"/>
<path class="st1" d="M57.7,31.8c0.8-0.8,1.6-1.6,2.4-2.4c7.6,7.6,15.2,15.1,22.8,22.7c1.7,3.2,1.2,6.9-1,9.1c-2.1,2-4.9,1.9-5.4,1.9
	c0,0.4-0.1,3.9-3,6.1c-2,1.5-4.1,1.5-4.8,1.4c0.1,2.8-1.1,5.4-3.4,6.7c-2.3,1.4-4.7,0.9-5.3,0.8c-0.2-1.3-0.4-2.7-0.6-4
	c1.5,1,3.5,0.9,4.8-0.2c1.1-0.9,1.6-2.5,1.3-4c-5.6-5.6-11.2-11.3-16.8-16.9c-0.5-0.7-0.5-1.7,0-2.4c0.5-0.6,1.3-0.9,2.1-0.6
	c5.8,5.8,11.6,11.5,17.4,17.3c0.1,0,2.3,0.5,3.8-1.1c1.5-1.6,1-3.7,1-3.8c-5.6-5.7-11.2-11.4-16.8-17.1c-0.4-0.6-0.4-1.5,0.2-2.1
	c0.5-0.6,1.4-0.7,2.1-0.3c5.7,5.6,11.4,11.3,17.1,16.9c1.4,0.4,2.9-0.1,3.8-1.1c1-1.1,1.3-2.6,0.8-4C72.7,47,65.2,39.4,57.7,31.8z"
	/>
<path class="st1" d="M50.4,19.6C44,26,37.6,32.4,31.1,38.8c0.4,0.6,3.4,4.8,9.1,5.3c5.8,0.5,9.4-3.3,9.9-3.8
	c3.5-3.5,7-6.9,10.5-10.4c-0.7-0.6-1.4-1.3-2.1-1.9c-0.6,0.2-1.2,0.4-1.8,0.6c-3.3,3.2-6.6,6.5-9.9,9.7c-0.6,0.5-2.6,2.1-5.6,2.1
	c-2.6,0-4.5-1.1-5.1-1.6C41.8,33.2,47.4,27.6,53,22C52.1,21.2,51.3,20.4,50.4,19.6z"/>
<path class="st3" d="M19.5,58.1c1.3-1.5,2.8-3,4.4-4.6c1.5-1.5,3-2.8,4.4-4c1.8-0.8,3.9-0.4,5.2,1c1.3,1.4,1.5,3.5,0.6,5.2
	c-2.6,2.7-5.2,5.3-7.8,8c-1.6,0.9-3.6,0.8-5-0.2C19.6,62.3,18.9,60.1,19.5,58.1z"/>
<path class="st3" d="M28.5,66.1c1.3-1.5,2.8-3,4.4-4.6c1.5-1.5,3-2.8,4.4-4c1.8-0.8,3.9-0.4,5.2,1c1.3,1.4,1.5,3.5,0.6,5.2
	c-2.6,2.7-5.2,5.3-7.8,8c-1.6,0.9-3.6,0.8-5-0.2C28.6,70.3,27.9,68.1,28.5,66.1z"/>
<path class="st3" d="M35.5,73.1c1.3-1.5,2.8-3,4.4-4.6c1.5-1.5,3-2.8,4.4-4c1.8-0.8,3.9-0.4,5.2,1c1.3,1.4,1.5,3.5,0.6,5.2
	c-2.6,2.7-5.2,5.3-7.8,8c-1.6,0.9-3.6,0.8-5-0.2C35.6,77.3,34.9,75.1,35.5,73.1z"/>
<path class="st3" d="M43.5,81.1c1.3-1.5,2.8-3,4.4-4.6c1.5-1.5,3-2.8,4.4-4c1.8-0.8,3.9-0.4,5.2,1c1.3,1.4,1.5,3.5,0.6,5.2
	c-2.6,2.7-5.2,5.3-7.8,8c-1.6,0.9-3.6,0.8-5-0.2C43.6,85.3,42.9,83.1,43.5,81.1z"/>
</svg>
