<?xml version="1.0" encoding="utf-8"?>
<!-- Generator: Adobe Illustrator 19.0.0, SVG Export Plug-In . SVG Version: 6.00 Build 0)  -->
<svg version="1.1" id="Layer_1" xmlns="http://www.w3.org/2000/svg" xmlns:xlink="http://www.w3.org/1999/xlink" x="0px" y="0px"
	 viewBox="0 0 100 100" style="enable-background:new 0 0 100 100;" xml:space="preserve">
<style type="text/css">
	.st0{fill:#e31d1a;}
	.st1{fill:#FFFEFE;}
	.st2{display:none;}
	.st3{display:inline;}
	.st4{display:inline;fill:#FFFFFF;}
	.st5{font-family:'Helvetica';}
	.st6{font-size:10px;}
</style>
<image style="display:none;overflow:visible;" width="91" height="49" xlink:href="../jpg/heart icon.jpg"  transform="matrix(1 0 0 1 5 25)">
</image>
<g id="indivisual">
	<g id="heart_2_">
		<path class="st0" d="M47.1,36c-3.9-5-9.4-7.3-14-6c-6,1.7-7.9,8.9-8.3,10.3C22.5,50.5,31.6,63.2,47,73C47,60.7,47.1,48.3,47.1,36z
			"/>
		<path class="st0" d="M46.5,36c3.9-5,9.4-7.3,14-6c6,1.7,7.9,8.9,8.3,10.3c2.4,10.2-6.7,22.9-22.1,32.7
			C46.6,60.7,46.6,48.3,46.5,36z"/>
	</g>
	<path class="st1" d="M42.2,44.9c-0.5-3.2,2-6.9,4.8-6.8c2.5,0,4.7,3,4.6,5.9c-0.1,2.8-2.2,5.8-4.9,5.7
		C44.3,49.6,42.5,47.1,42.2,44.9z"/>
	<path class="st1" d="M41.4,48c2.1-0.3,3,2.8,5.6,2.9c2.6,0,3.7-3.4,5.7-3c1.5,0.3,2.2,2.4,2.9,4.1c0.6,1.6,1.3,4.5,0.6,8.4
		c-6.3,0-12.7,0-19,0c-0.4-2.2-0.5-5.8,1.3-9.2C39.1,49.9,40,48.2,41.4,48z"/>
</g>
<g id="organigation" class="st2">
	<g id="heart" class="st3">
		<path class="st0" d="M50.1,36c-3.9-5-9.4-7.3-14-6c-6,1.7-7.9,8.9-8.3,10.3C25.5,50.5,34.6,63.2,50,73C50,60.7,50.1,48.3,50.1,36z
			"/>
		<path class="st0" d="M49.5,36c3.9-5,9.4-7.3,14-6c6,1.7,7.9,8.9,8.3,10.3c2.4,10.2-6.7,22.9-22.1,32.7
			C49.6,60.7,49.6,48.3,49.5,36z"/>
	</g>
	<g id="indivisual_1_" class="st3">
		<g id="person">
			<path class="st1" d="M34.2,44.9c-0.5-3.2,2-6.9,4.8-6.8c2.5,0,4.7,3,4.6,5.9c-0.1,2.8-2.2,5.8-4.9,5.7
				C36.3,49.6,34.5,47.1,34.2,44.9z"/>
			<path class="st1" d="M33.4,48c2.1-0.3,3,2.8,5.6,2.9c2.6,0,3.7-3.4,5.7-3c1.5,0.3,2.2,2.4,2.9,4.1c0.6,1.6,1.3,4.5,0.6,8.4
				c-6.3,0-12.7,0-19,0c-0.4-2.2-0.5-5.8,1.3-9.2C31.1,49.9,32,48.2,33.4,48z"/>
		</g>
	</g>
	<g id="person_1_" class="st3">
		<path class="st1" d="M44.3,45.4c-0.6-3.8,2.4-8.3,5.8-8.3c3,0.1,5.6,3.7,5.6,7.1c-0.1,3.3-2.7,7-6,6.9
			C46.8,51.1,44.7,48,44.3,45.4z"/>
		<path class="st1" d="M43.4,49.4c2.6-0.4,3.7,3.4,6.7,3.5c3.2,0,4.4-4.1,6.9-3.7c1.8,0.4,2.7,2.9,3.5,5c0.7,1.9,1.6,5.4,0.8,10.2
			c-7.7,0-15.4,0-23.1,0c-0.4-2.7-0.6-7,1.5-11.1C40.6,51.7,41.6,49.7,43.4,49.4z"/>
	</g>
	<g id="person_2_" class="st3">
		<path class="st1" d="M57.2,44.9c-0.5-3.2,2-6.9,4.8-6.8c2.5,0,4.7,3,4.6,5.9c-0.1,2.8-2.2,5.8-4.9,5.7
			C59.3,49.6,57.5,47.1,57.2,44.9z"/>
		<path class="st1" d="M56.4,48c2.1-0.3,3,2.8,5.6,2.9c2.6,0,3.7-3.4,5.7-3c1.5,0.3,2.2,2.4,2.9,4.1c0.6,1.6,1.3,4.5,0.6,8.4
			c-6.3,0-12.7,0-19,0c-0.4-2.2-0.5-5.8,1.3-9.2C54.1,49.9,55,48.2,56.4,48z"/>
	</g>
</g>
<g id="start" class="st2">
	<g id="heart_1_" class="st3">
		<path class="st0" d="M51.1,37c-3.9-5-9.4-7.3-14-6c-6,1.7-7.9,8.9-8.3,10.3C26.5,51.5,35.6,64.2,51,74C51,61.7,51.1,49.3,51.1,37z
			"/>
		<path class="st0" d="M50.5,37c3.9-5,9.4-7.3,14-6c6,1.7,7.9,8.9,8.3,10.3c2.4,10.2-6.7,22.9-22.1,32.7
			C50.6,61.7,50.6,49.3,50.5,37z"/>
	</g>
	<text transform="matrix(1 0 0 1 34.9839 51.3174)" class="st4 st5 st6">START</text>
</g>
</svg>
