<?xml version="1.0" encoding="utf-8"?>
<!-- Generator: Adobe Illustrator 19.0.0, SVG Export Plug-In . SVG Version: 6.00 Build 0)  -->
<svg version="1.1" id="Layer_1" xmlns="http://www.w3.org/2000/svg" xmlns:xlink="http://www.w3.org/1999/xlink" x="0px" y="0px"
	 viewBox="0 0 100 100" style="enable-background:new 0 0 100 100;" xml:space="preserve">
<style type="text/css">
	.st0{display:none;fill:#FFFFFF;}
	.st1{display:none;}
	.st2{display:inline;fill:#e31d1a;}
	.st3{display:inline;fill:#FFFFFF;}
	.st4{display:inline;fill:none;stroke:#FFFFFF;stroke-width:5;stroke-miterlimit:10;}
	.st5{display:inline;fill:#FFFFFF;stroke:#FFFFFF;stroke-width:0.25;stroke-miterlimit:10;}
	.st6{display:inline;fill:#313131;}
	.st7{display:inline;fill:#CA3435;}
	.st8{display:inline;}
	.st9{fill:#FFFFFF;}
	.st10{display:none;fill:#F21414;stroke:#FFFFFF;stroke-width:0.25;stroke-miterlimit:10;}
	.st11{opacity:0.45;fill:#040404;}
	.st12{fill:#FFFFFF;stroke:#FFFFFF;stroke-width:0.25;stroke-miterlimit:10;}
	.st13{fill:#e31d1a;stroke:#FFFFFF;stroke-width:0.25;stroke-miterlimit:10;}
	.st14{display:inline;opacity:0.45;fill:#040404;}
	.st15{display:inline;fill:#e31d1a;stroke:#FFFFFF;stroke-width:0.25;stroke-miterlimit:10;}
	.st16{display:inline;fill:#040404;stroke:#FFFFFF;stroke-width:0.25;stroke-miterlimit:10;}
	.st17{display:none;fill:none;stroke:#FFFFFF;stroke-width:3;stroke-miterlimit:10;}
	.st18{display:inline;fill:none;stroke:#FFFFFF;stroke-width:3;stroke-miterlimit:10;}
	.st19{fill:none;stroke:#e31d1a;stroke-miterlimit:10;}
</style>
<image style="display:none;overflow:visible;" width="225" height="225" xlink:href="866620C61B145D5.jpg"  transform="matrix(0.4444 0 0 0.4444 -71 -588)">
</image>
<path class="st0" d="M-38.6-552.5c3.3,0,6.5,0,9.8,0c0.2-0.9,1.1-4,4.1-6.2c0.7-0.5,3.1-2.2,6.5-2.1c0.8,0,4.6,0.2,7,3.3
	c1.4,1.9,1.6,4,1.6,4.9c-1,2.8-2.4,4.5-3.5,5.5c-1.8,1.8-2.6,1.6-5.4,4.1c-1.5,1.3-2.7,2.5-3.8,4.4c-0.9,1.7-1.3,3.2-1.4,4.3
	c0,2,0,3.9,0,5.9c3,0,5.9,0,8.9,0c0.1-1.5,0.2-3,0.3-4.4c0.4-1.1,1.2-2.7,2.7-4.3c1.7-1.8,2.8-1.8,5.2-4c1.1-1,2.6-2.5,4-4.4
	c1.4-2.1,2.3-4.2,2.8-5.9c0.1-1.4,0.1-3.9-1.1-6.6c-0.8-1.9-1.8-3.1-2.5-4c-2.4-2.9-5-4.3-5.5-4.6c-3.5-1.8-6.6-2-8.5-2.1
	c-2.8-0.1-8.9-0.3-14.2,4C-37.2-560.2-38.3-554.2-38.6-552.5z"/>
<g id="question_x5F_icon" class="st1">
	<rect x="-62" y="-493" class="st2" width="100" height="100"/>
	<path class="st3" d="M-14.9-429.5c3.3,0,6.6,0,10,0c0,3.4,0,6.9,0,10.3c-3.4,0-6.8,0-10.1,0C-15-422.6-14.9-426.1-14.9-429.5z"/>
	<circle class="st4" cx="-11.3" cy="-445.6" r="40.5"/>
	<path class="st5" d="M-29.4-457.8c3.1,0,6.3,0,9.4,0c2.1-5.1,6.6-8.1,11-7.8c3.3,0.3,7.3,2.6,7.9,6c0.6,3.5-2.5,6.7-3.3,7.6
		c-2.2,2.3-3.6,2-6.5,5.1c-1.5,1.7-2.3,3-2.7,3.8c-1,1.9-1.3,3.5-1.4,4.1c-0.4,2.3-0.3,4.3,0,5.7c3.1,0,6.1,0,9.2,0
		c0-1,0.1-2.1,0.1-3.1c0.5-2.1,1.4-3.5,2-4.2c0.8-1.1,1.6-1.8,2.3-2.3c1.3-1.1,2.3-1.5,3-2c1.3-1,3.7-2.9,5.4-6
		c0.6-1.2,1.6-3.3,1.7-6.3c0-1.9-0.4-5.6-2.8-9.2c-4.5-6.5-12.4-7.1-14.4-7.3c-1.9-0.1-6.7-0.4-11.6,2.4
		C-27.5-467.1-29.2-459.2-29.4-457.8z"/>
</g>
<g id="_x39_RHpmW.tif" class="st1">
	
		<image style="display:inline;overflow:visible;" width="256" height="249" id="Layer_0_1_" xlink:href="866620C61B145C2.png"  transform="matrix(0.1874 0 0 0.1874 -45.2341 -560.908)">
	</image>
</g>
<g id="yes_x5F_icon" class="st1">
	<rect x="-71" y="-588" class="st6" width="100" height="100"/>
	<circle class="st4" cx="-21.3" cy="-537.6" r="40.5"/>
	<path class="st3" d="M-36.1-538.2c3.3,2.9,6.6,5.8,9.9,8.8c6.1-9.6,12.2-19.2,18.2-28.9c1.7-1.9,4.6-2.4,6.8-1
		c2.2,1.4,3.1,4.2,2,6.6c-7.9,12-15.8,23.9-23.6,35.9c0,0.1-0.6,1.2-1.9,1.5c-1.3,0.2-2.2-0.5-2.2-0.6c-5.5-5.3-11-10.6-16.5-15.9
		c-1.1-1.9-1.1-4.2,0.1-5.8C-41.8-539.6-38.5-540.1-36.1-538.2z"/>
</g>
<g id="JqKaif.tif" class="st1">
	
		<image style="display:inline;overflow:visible;" width="117" height="90" id="Layer_1_1_" xlink:href="866620C61B145C3.png"  transform="matrix(0.7821 0 0 0.7821 -58 -478.3322)">
	</image>
</g>
<g id="people" class="st1">
	<circle class="st6" cx="-11.7" cy="-441.7" r="8.8"/>
	<circle class="st6" cx="-12.2" cy="-468.2" r="9.3"/>
	<path class="st6" d="M-18.8-450.7c-0.6,0.8-1.2,1.6-1.8,2.4c-0.6,1-1.2,1.9-1.8,2.9c-0.5,0.8-1,1.6-1.5,2.4
		c-0.9,0.5-2.2,1.2-3.8,1.2c-4,0.1-8.8-3.6-8.8-8.8c0-4.7,3.9-8.8,8.8-8.8C-22.8-459.6-18.8-455.6-18.8-450.7z"/>
	<path class="st6" d="M-34.4-459.7c-0.6,0.8-1.2,1.6-1.8,2.4c-0.6,1-1.2,1.9-1.8,2.9c-0.5,0.8-1,1.6-1.5,2.4
		c-0.9,0.5-2.2,1.2-3.8,1.2c-4,0.1-8.8-3.6-8.8-8.8c0-4.7,3.9-8.8,8.8-8.8C-38.3-468.6-34.4-464.6-34.4-459.7z"/>
	<path class="st6" d="M-5-450.7c0.6,0.8,1.2,1.6,1.8,2.4c0.6,1,1.2,1.9,1.8,2.9c0.5,0.8,1,1.6,1.5,2.4c0.9,0.5,2.2,1.2,3.8,1.2
		c4,0.1,8.8-3.6,8.8-8.8c0-4.7-3.9-8.8-8.8-8.8C-1-459.6-5-455.6-5-450.7z"/>
	<path class="st6" d="M10-460.4c0.6,0.8,1.2,1.6,1.8,2.4c0.6,1,1.2,1.9,1.8,2.9c0.5,0.8,1,1.6,1.5,2.4c0.9,0.5,2.2,1.2,3.8,1.2
		c4,0.1,8.8-3.6,8.8-8.8c0-4.7-3.9-8.8-8.8-8.8C14-469.2,10-465.2,10-460.4z"/>
	<path class="st6" d="M-39.8-449.4c-0.1,1,0,2.6,0.9,4c1.2,2,3,2.5,2.9,3.4c-0.1,1.1-2.9,0.6-5.4,2.4c-3.1,2.2-4,6.5-4,8.6
		c0,1.6,0,3.2,0,4.8c-4.2-0.6-8.3-1.2-12.5-1.9c0-3.8,0-7.7,0-11.5c0.3-1.3,1.2-3.8,3.4-6.1c2.3-2.4,4.7-3.4,5.4-3.6
		C-44.8-450.9-41-449.8-39.8-449.4z"/>
	<path class="st6" d="M-23.2-440.2c-0.1,0.9,0,2.4,0.8,3.9c1,2,2.6,2.4,2.5,3.4c-0.1,1.4-3.3,1-5.9,3.4c-2.3,2.2-2.8,5.4-3.1,7.5
		c-0.3,1.9-0.2,3.4-0.1,4.5c-4.6-0.8-9.2-1.5-13.9-2.2c0-3.8,0-7.5,0-11.2c0.4-1.3,1.5-4,4.1-6.2c2.3-2,4.6-2.7,5.8-3
		C-28.8-441.6-25.1-440.8-23.2-440.2z"/>
	<path class="st6" d="M-0.3-440.2c0.1,0.9,0,2.4-0.8,3.9c-1,2-2.6,2.4-2.5,3.4c0.1,1.4,3.3,1,5.9,3.4c2.3,2.2,2.8,5.4,3.1,7.5
		c0.3,1.9,0.2,3.4,0.1,4.5c4.6-0.8,9.1-1.7,13.7-2.5c0-3.6,0-7.2,0-10.8c-0.3-1.3-1.3-4.1-3.9-6.5c-2.2-2-4.4-2.6-5.8-3
		C5.3-441.6,1.5-440.8-0.3-440.2z"/>
	<path class="st6" d="M15.4-449.4c0.1,1,0,2.6-0.9,4c-1.2,2-3,2.5-2.9,3.4c0.1,1.1,2.9,0.6,5.4,2.4c3.1,2.2,4,6.5,4,8.6
		c0,1.6,0,3.2,0,4.8c4.2-0.6,8.3-1.2,12.5-1.9c0-3.8,0-7.7,0-11.5c-0.3-1.3-1.2-3.8-3.4-6.1c-2.3-2.4-4.7-3.4-5.4-3.6
		C20.5-450.9,16.6-449.8,15.4-449.4z"/>
	<path class="st6" d="M-26.6-423.9c0.6-1.1,1.7-2.7,3.4-4.2c1.8-1.6,3.7-2.5,4.9-3c4.4,0,8.8,0,13.2,0c1.2,0.4,3.4,1.4,5.4,3.5
		c1.6,1.7,2.5,3.4,2.9,4.6c0,3.9,0,7.9,0,11.8c-3.1,1.2-8.4,2.9-15.1,2.9c-6.5,0-11.7-1.6-14.8-2.9
		C-26.6-415.5-26.6-419.7-26.6-423.9z"/>
	<path class="st6" d="M-37-469.2c0.2-0.5,1.5-3.9,5.2-5.4c4.4-1.7,8.2,0.8,8.5,1c0.2,4.2,0.5,8.3,0.8,12.5c-0.7,0-1.3,0-2,0
		c-0.2-0.4-0.4-0.8-0.6-1.1c-1.8,0-3.5,0-5.2,0c-0.1,0.4-0.2,0.8-0.2,1.2c-0.6-0.1-1.2-0.2-1.8-0.2C-33.9-463.9-35.5-466.6-37-469.2
		z"/>
	<path class="st6" d="M12.6-469.7c-0.2-0.5-1.5-3.9-5.2-5.4c-4.4-1.7-8.2,0.8-8.5,1c-0.2,4.2-0.5,8.3-0.8,12.5c0.7,0,1.3,0,2,0
		c0.2-0.4,0.4-0.8,0.6-1.1c1.8,0,3.5,0,5.2,0c0.1,0.4,0.2,0.8,0.2,1.2c0.6-0.1,1.2-0.2,1.8-0.2C9.6-464.4,11.1-467,12.6-469.7z"/>
	<path class="st6" d="M-18-457.2c3.9,0,7.8,0,11.6,0c0,0.5,0,1.1,0,1.6c0,0,0,0,0,0c-0.4,0-0.8,0-1.3,0c0,1,0,1.9,0,2.9
		c-0.7,0-1.4,0-2.1,0c-1.1,0-2.2,0-3.4,0c-1.2,0-2.3,0-3.5,0c0-1,0-1.9,0-2.9c-0.5,0-0.9,0-1.4,0C-18-456.2-18-456.7-18-457.2z"/>
</g>
<g id="Pt1vgW.tif" class="st1">
	
		<image style="display:inline;overflow:visible;" width="197" height="62" id="Layer_1_2_" xlink:href="866620C61B145C0.png"  transform="matrix(0.4867 0 0 0.4867 -2.8836 -268.465)">
	</image>
</g>
<g id="_x31_23_x5F_icon" class="st1">
	<circle class="st6" cx="12.1" cy="-253.2" r="15.1"/>
	<circle class="st6" cx="45.1" cy="-253.2" r="15.1"/>
	<circle class="st7" cx="77.7" cy="-253.1" r="15.1"/>
	<g id="_x31_23" class="st8">
		<g id="_x31_">
			<path class="st9" d="M8.9-256.1v-1.5c0.7,0,1.2-0.1,1.5-0.1c0.4-0.1,0.8-0.3,1.1-0.6c0.2-0.2,0.3-0.5,0.4-0.8
				c0.1-0.2,0.1-0.4,0.1-0.5h1.9v11.3h-2.3v-7.8H8.9z"/>
		</g>
		<g id="_x32_">
			<path class="st9" d="M41.9-250.6c0.3-0.8,1.1-1.6,2.2-2.4c1-0.7,1.7-1.3,2-1.6c0.5-0.5,0.7-1,0.7-1.6c0-0.5-0.1-0.9-0.4-1.2
				c-0.3-0.3-0.6-0.5-1.1-0.5c-0.7,0-1.1,0.3-1.4,0.8c-0.1,0.3-0.2,0.8-0.2,1.4h-2.2c0-1,0.2-1.7,0.5-2.3c0.6-1.1,1.6-1.7,3.2-1.7
				c1.2,0,2.2,0.3,2.9,1s1.1,1.5,1.1,2.6c0,0.8-0.2,1.6-0.8,2.2c-0.3,0.4-0.9,0.9-1.6,1.4l-0.9,0.6c-0.6,0.4-0.9,0.7-1.1,0.9
				c-0.2,0.2-0.4,0.4-0.5,0.6h4.9v2h-7.8C41.4-249.1,41.5-249.9,41.9-250.6z"/>
		</g>
		<g id="_x33_">
			<path class="st9" d="M76.4-251.8c0,0.5,0.1,0.8,0.2,1.1c0.3,0.5,0.8,0.8,1.5,0.8c0.4,0,0.8-0.1,1.1-0.4c0.3-0.3,0.5-0.7,0.5-1.3
				c0-0.7-0.3-1.2-0.9-1.5c-0.3-0.1-0.9-0.2-1.6-0.2v-1.6c0.7,0,1.2-0.1,1.5-0.2c0.5-0.2,0.7-0.7,0.7-1.3c0-0.4-0.1-0.8-0.4-1.1
				c-0.3-0.3-0.6-0.4-1.1-0.4c-0.5,0-0.9,0.2-1.2,0.5c-0.2,0.3-0.4,0.8-0.4,1.3h-2.1c0-0.6,0.1-1.1,0.3-1.6c0.2-0.4,0.5-0.9,0.9-1.2
				c0.3-0.3,0.6-0.5,1-0.6c0.4-0.1,0.9-0.2,1.5-0.2c1.1,0,2,0.3,2.6,0.8c0.7,0.6,1,1.3,1,2.3c0,0.7-0.2,1.2-0.6,1.7
				c-0.2,0.3-0.5,0.5-0.8,0.6c0.2,0,0.5,0.2,0.9,0.5c0.6,0.5,0.9,1.2,0.9,2.2c0,1-0.3,1.8-1,2.5s-1.6,1.1-2.9,1.1
				c-1.6,0-2.7-0.5-3.3-1.6c-0.3-0.6-0.5-1.3-0.5-2.2H76.4z"/>
		</g>
	</g>
</g>
<rect x="-5" y="-302" class="st10" width="100" height="100"/>
<g id="IkQr6c.tif" class="st1">
	
		<image style="display:inline;overflow:visible;" width="115" height="120" id="Layer_1_3_" xlink:href="866620C61B145C1.png"  transform="matrix(0.8199 0 0 0.8199 -3.2828 -302)">
	</image>
</g>
<g id="_x38_5_x25_" class="st1">
	<g id="base_x5F_circle" class="st8">
		<circle class="st11" cx="46.3" cy="-50.3" r="45.3"/>
		<circle class="st12" cx="43.5" cy="-57.1" r="45.3"/>
		<circle class="st13" cx="43.5" cy="-57.1" r="37.8"/>
	</g>
	<g id="_x38_" class="st8">
		<path class="st9" d="M21.6-55.1c0.4-0.8,1.1-1.4,2-1.8c-0.9-0.6-1.4-1.2-1.7-1.8c-0.3-0.7-0.4-1.3-0.4-1.9c0-1.3,0.5-2.4,1.5-3.3
			c1-0.9,2.3-1.4,4.1-1.4s3.1,0.5,4.1,1.4c1,0.9,1.5,2,1.5,3.3c0,0.6-0.1,1.2-0.4,1.9c-0.3,0.7-0.8,1.2-1.7,1.7
			c0.9,0.5,1.5,1.1,2,1.9c0.4,0.8,0.7,1.7,0.7,2.7c0,1.5-0.6,2.8-1.7,3.8S28.9-47,26.9-47s-3.5-0.5-4.5-1.6s-1.5-2.3-1.5-3.8
			C20.9-53.4,21.1-54.3,21.6-55.1z M25.2-50.6c0.5,0.5,1.1,0.7,1.9,0.7c0.8,0,1.4-0.2,1.9-0.7c0.5-0.5,0.7-1.2,0.7-2
			c0-0.9-0.2-1.6-0.7-2.1c-0.5-0.5-1.1-0.7-1.9-0.7s-1.4,0.2-1.9,0.7c-0.5,0.5-0.7,1.2-0.7,2.1C24.5-51.8,24.7-51.1,25.2-50.6z
			 M25.4-58.7c0.4,0.4,0.9,0.6,1.6,0.6c0.7,0,1.3-0.2,1.6-0.6c0.4-0.4,0.6-0.9,0.6-1.6c0-0.7-0.2-1.2-0.6-1.6
			c-0.4-0.4-0.9-0.6-1.6-0.6c-0.7,0-1.3,0.2-1.6,0.6c-0.4,0.4-0.6,0.9-0.6,1.6C24.8-59.6,25-59.1,25.4-58.7z"/>
	</g>
	<g id="_x35_" class="st8">
		<path class="st9" d="M38.4-52.2c0.1,0.8,0.4,1.3,0.8,1.8c0.4,0.4,1,0.6,1.7,0.6c0.9,0,1.5-0.3,2-0.9c0.5-0.6,0.7-1.4,0.7-2.3
			c0-0.9-0.2-1.7-0.6-2.3c-0.4-0.6-1.1-0.9-2-0.9c-0.4,0-0.8,0.1-1.1,0.2c-0.5,0.2-1,0.6-1.2,1.1l-3.1-0.1l1.2-9.8h9.7v3h-7.2
			l-0.6,3.9c0.5-0.3,1-0.6,1.3-0.7c0.5-0.2,1.1-0.3,1.8-0.3c1.5,0,2.7,0.5,3.8,1.5c1.1,1,1.6,2.4,1.6,4.3c0,1.6-0.5,3.1-1.6,4.4
			c-1,1.3-2.6,1.9-4.7,1.9c-1.7,0-3.1-0.5-4.1-1.4c-1.1-0.9-1.7-2.2-1.8-3.8H38.4z"/>
	</g>
	<g id="_x25_" class="st8">
		<path class="st9" d="M56.1-57.4c-0.9,0.9-2,1.3-3.2,1.3c-1.3,0-2.3-0.4-3.2-1.3c-0.9-0.9-1.3-2-1.3-3.2c0-1.3,0.4-2.3,1.3-3.2
			c0.9-0.9,2-1.3,3.2-1.3c1.3,0,2.3,0.4,3.2,1.3c0.9,0.9,1.3,2,1.3,3.2C57.4-59.3,57-58.2,56.1-57.4z M54.2-59.2
			c0.4-0.4,0.6-0.8,0.6-1.4s-0.2-1-0.6-1.4c-0.4-0.4-0.8-0.6-1.4-0.6s-1,0.2-1.4,0.6c-0.4,0.4-0.6,0.8-0.6,1.4s0.2,1,0.6,1.4
			c0.4,0.4,0.8,0.6,1.4,0.6S53.9-58.8,54.2-59.2z M62.8-65.2h1.8L54.8-47h-1.9L62.8-65.2z M67.9-48.5c-0.9,0.9-2,1.3-3.2,1.3
			c-1.3,0-2.3-0.4-3.2-1.3s-1.3-2-1.3-3.2c0-1.3,0.4-2.3,1.3-3.2c0.9-0.9,2-1.3,3.2-1.3c1.3,0,2.3,0.4,3.2,1.3
			c0.9,0.9,1.3,2,1.3,3.2C69.3-50.4,68.8-49.4,67.9-48.5z M66.1-53.1c-0.4-0.4-0.8-0.6-1.4-0.6s-1,0.2-1.4,0.6
			c-0.4,0.4-0.6,0.8-0.6,1.4s0.2,1,0.6,1.4c0.4,0.4,0.8,0.6,1.4,0.6s1-0.2,1.4-0.6c0.4-0.4,0.6-0.8,0.6-1.4S66.5-52.7,66.1-53.1z"/>
	</g>
</g>
<g id="base_x5F_circle_1_" class="st1">
	<circle class="st14" cx="46.7" cy="-50.3" r="45.3"/>
	<circle class="st5" cx="43.9" cy="-57.1" r="45.3"/>
	<circle class="st15" cx="43.9" cy="-57.1" r="37.8"/>
	<circle class="st5" cx="43.5" cy="-58.5" r="16.5"/>
	<circle class="st16" cx="51.3" cy="-57.2" r="3.5"/>
</g>
<g id="dIlv4d.tif" class="st1">
	
		<image style="display:inline;overflow:visible;" width="133" height="138" id="Layer_1_4_" xlink:href="866620C61B145CE.png"  transform="matrix(0.7143 0 0 0.7143 -3.9688 -104.2857)">
	</image>
</g>
<g id="wW76QS.tif" class="st1">
	
		<image style="display:inline;overflow:visible;" width="66" height="56" id="Layer_1_5_" xlink:href="866620C61B145CF.png"  transform="matrix(0.8274 0 0 0.8274 18 -80.3333)">
	</image>
</g>
<path class="st17" d="M34.6-56.9c5.5-3.5,11-7,16.5-10.5c-0.1-0.8-0.2-2.8,0.9-4.8c0.2-0.4,2.2-3.9,6-4.1c0.6,0,3.5-0.2,5.3,2.3
	c1.8,2.6,0.5,5.6,0.4,5.7c0.5,0,2.7,0.1,4.4,1.9c1.5,1.7,2.2,4.3,1.1,6.6c-1.2,2.4-3.8,3.5-6,3.3c-2-0.2-3.3-1.4-3.8-1.8
	c-6.4,3.8-12.8,7.6-19.1,11.4c1.3,2.6,1,5.6-0.6,7.7c-1.4,1.7-3.9,3.1-6.4,2.4c-2.9-0.8-5-4.3-4.2-8.1c-0.3,0-3.1,0.4-5.2-1.8
	c-0.1-0.1-2.2-2.2-1.8-5c0.5-3.6,4.9-5.3,7.4-5.7C31.7-57.8,33.6-57.3,34.6-56.9z"/>
<g id="tissue" class="st1">
	<g id="base_x5F_circle_2_" class="st8">
		<circle class="st11" cx="47.3" cy="-50.3" r="45.3"/>
		<circle class="st12" cx="44.5" cy="-57.1" r="45.3"/>
		<circle class="st13" cx="44.5" cy="-57.1" r="37.8"/>
	</g>
	<path class="st18" d="M32.5-56.5c6.3-4.3,12.7-8.6,19-12.8c0-1,0.2-2.6,1-4.3c1.5-2.9,5-6.2,8.7-5.3c1.6,0.4,3.2,1.5,4,3.2
		c1,2.1-0.3,3.4,0.8,5c1,1.4,2.2,0.8,4,2.7c0.5,0.5,1.5,1.6,1.8,3.3c0.4,2.2-0.6,3.9-0.8,4.3c-1.5,2.4-4.1,2.9-4.5,3
		c-2.5-0.2-5-0.4-7.5-0.7c-6.7,4.3-13.3,8.7-20,13c-0.2,1.6-0.4,3.1-0.7,4.7c-0.1,0.3-1.8,4.1-5.8,4.8c-2.2,0.4-5.5,0-7.2-2.7
		c-1.5-2.4-0.6-5.1-0.5-5.5c-3.5-0.6-6-3.5-6-6.8c0-3.7,3.2-6.9,7.2-6.8C28.2-57.2,30.3-56.8,32.5-56.5z"/>
</g>
<g id="yr6rZ3.tif" class="st1">
	
		<image style="display:inline;overflow:visible;" width="110" height="110" id="Layer_1_6_" xlink:href="866620C61B145C9.png"  transform="matrix(0.6915 0 0 0.6915 10.9688 8.9688)">
	</image>
</g>
<g id="kidney">
	<g id="base_x5F_circle_3_">
		<circle class="st11" cx="51.3" cy="53.7" r="45.3"/>
		<circle class="st12" cx="48.5" cy="46.9" r="45.3"/>
		<circle class="st13" cx="48.5" cy="46.9" r="37.8"/>
	</g>
	<path class="st9" d="M33.9,61.6c0.8,0,1.6,0,2.4,0c1.5,2,2.9,4,4.4,6c0,0.3-0.2,1.2-1,1.9c-0.9,0.8-2.4,0.8-3.6,0.1
		C35.3,67,34.6,64.3,33.9,61.6z"/>
	<path class="st9" d="M33.5,39.6c0-2.4,0-4.8,0-7.1c1.9-0.2,3.8-0.4,5.8-0.6c0,1.5,0.1,3,0.1,4.5c0.5,1.4,0.1,2.9-0.9,3.8
		c-0.8,0.6-1.7,0.6-2,0.6c0.2,0.5,0.3,0.9,0.5,1.4c0.5,0.4,1,0.8,1.5,1.1c0.1,0.7,0.2,1.9,0,3.2c-0.7,3.7-3.3,5-4.1,8.6
		c-0.2,0.9-0.4,2.3,0,4.2c-0.6,0-2.1,0-3.6-1c-2.2-1.5-2.6-3.8-2.6-4.2c-0.2-1.2-0.4-3,0-5.1c0.1-0.4,0.4-2.2,1.5-4.4
		C30.8,42.3,32.3,40.7,33.5,39.6z"/>
	<path class="st9" d="M40.6,39c1.9-0.5,4.6-1.5,7.5-3.5c2.4-1.7,4.2-3.6,5.3-5c3,0.7,5.2,0.8,5.5,0.2c0.3-0.9-3-3-3.4-3.2
		c0.1-1.6,0.2-3.2,0.3-4.7c-0.6,0-1.2,0-1.7,0c0,1.4-0.1,2.8-0.1,4.1c-0.7,0-1.4,0-2.1-0.1c0-1.8,0.1-3.5,0.1-5.3
		c-0.6,0-1.2,0-1.9-0.1c-0.1,2.2-0.1,4.4-0.2,6.5c-0.5,0-1.1,0-1.6,0c-0.9-1.8-1.7-3.6-2.6-5.3c-0.4,0.3-0.9,0.6-1.3,1
		c0.7,1.6,1.3,3.2,2,4.8c-0.8,0.5-1.8,1.3-2.9,2.4c-1,1-1.9,2-2.5,3.4C40.1,36,40.4,37.9,40.6,39z"/>
	<path class="st9" d="M40.9,40.5c1.2-1.9,3.2-1.5,6.5-3.2c2.8-1.4,4.8-3.5,6.4-5.5c3.7,0,7.3,0,11,0c0.2,0.9,0,1.5-0.2,1.8
		c-0.9,1.2-3.2-0.2-5.9,0.8c-0.4,0.1-2.7,1-2.9,2.4c-0.3,2,3.8,3.4,7.6,7c2.2,2.1,4.2,4.8,5.8,8.6c0.4,2.1,0.7,5.4,0,9.3
		c-0.6,3.4-1.2,6.7-3.6,8.9c-4.3,3.8-11.5,1.7-13.9,1c-8.8-2.6-13.5-9.7-15.1-12.4c0-1.8,0.1-3.7,0.1-5.5c1.3-1.2,3-3,3.6-5.5
		C41.2,44.5,39.5,42.7,40.9,40.5z"/>
	<path class="st9" d="M58.3,36.2c0.3-0.6,2-0.7,2.5,0c0.1,0.1,0.3,0.4,0.2,1c0.4,0.1,0.8,0.1,1.3,0.2c1.2,0.2,2.5,0.3,3.7,0.4
		c0.5,0.1,1,0.1,1.5-0.2c0.6-0.3,0.7-0.9,0.9-0.8c0.2,0.1,0.4,1,0,1.5c-0.4,0.5-1,0.3-2.2,0.8c-0.6,0.2-1,0.6-1.2,0.8
		c0,0.4,0,0.7,0,1.1c1,0,1.9,0.1,2.9,0.1c-0.1,0.4-0.1,0.8-0.2,1.2c-1,0.1-2.5,0.1-4.2-0.6C60.3,40.4,57.8,37.2,58.3,36.2z"/>
	<path class="st19" d="M52.4,35.1c-0.6,0.8-1.2,1.7-1.8,2.5c-0.3,1.4-0.5,3.5,0.1,5.9c0.7,2.9,1.9,2.9,2.8,5.4
		c1.4,4.3-1.2,6.4,0.2,12.3c0.3,1.4,0.7,2.3,1,2.8c1.4,2.6,3.5,4,4.8,4.7"/>
	<path class="st19" d="M51.5,45.1c-0.7,0.4-3.7,2.2-4.5,5.7c-0.3,1.1-0.3,2.1-0.2,2.9"/>
	<path class="st19" d="M53.9,52.2c0.9,0,3.9,0,6.4,2.2c1.2,1,1.8,2.1,2.2,2.8"/>
	<path class="st19" d="M54.6,62.8c0.5-0.2,3.5-1.3,6.8,0.2c3.1,1.4,4.2,4.2,4.4,4.8"/>
	<path class="st19" d="M53.3,58.4c-0.2,0.1-3.4,1.3-4.1,4.7c-0.6,2.9,1.1,5,1.3,5.3"/>
</g>
</svg>
