<?xml version="1.0" encoding="utf-8"?>
<!-- Generator: Adobe Illustrator 21.0.0, SVG Export Plug-In . SVG Version: 6.00 Build 0)  -->
<svg version="1.1" id="Layer_1" xmlns="http://www.w3.org/2000/svg" xmlns:xlink="http://www.w3.org/1999/xlink" x="0px" y="0px"
	 viewBox="0 0 165 25" style="enable-background:new 0 0 165 25;" xml:space="preserve">
<style type="text/css">
	.st0{fill:#EC1E24;}
</style>
<g>
	<path d="M9.8,22c0.1-0.9,0.1-2.4,0.1-3.9V3H14v7.5H14c0.8-1.1,2.1-1.8,4-1.8c3.1,0,5.4,2.6,5.4,6.6c0,4.7-3,7.1-6,7.1
		c-1.5,0-3-0.6-3.9-2.1h-0.1L13.2,22H9.8z M14,16.5c0,0.3,0,0.5,0.1,0.7c0.3,1.1,1.2,1.9,2.4,1.9c1.7,0,2.8-1.3,2.8-3.7
		c0-2-0.9-3.6-2.8-3.6c-1.1,0-2.1,0.8-2.4,2C14,14,14,14.3,14,14.5V16.5z"/>
	<path d="M29.1,16.8c0.1,1.7,1.8,2.5,3.7,2.5c1.4,0,2.5-0.2,3.6-0.5l0.5,2.8c-1.3,0.5-3,0.8-4.7,0.8c-4.4,0-7-2.6-7-6.7
		c0-3.3,2.1-7,6.6-7c4.2,0,5.8,3.3,5.8,6.5c0,0.7-0.1,1.3-0.1,1.6H29.1z M33.9,14c0-1-0.4-2.6-2.3-2.6c-1.7,0-2.4,1.6-2.5,2.6H33.9z
		"/>
	<path class="st0" d="M47.5,22l-0.2-1.3h-0.1c-0.9,1-2.2,1.6-3.7,1.6c-2.6,0-4.2-1.9-4.2-4c0-3.4,3.1-5,7.7-5v-0.2
		c0-0.7-0.4-1.7-2.4-1.7c-1.3,0-2.8,0.5-3.6,1l-0.7-2.6c0.9-0.5,2.7-1.2,5.1-1.2c4.4,0,5.8,2.6,5.8,5.6v4.5c0,1.3,0.1,2.5,0.2,3.2
		H47.5z M47.1,15.9c-2.1,0-3.8,0.5-3.8,2.1c0,1,0.7,1.6,1.6,1.6c1,0,1.8-0.7,2.1-1.5c0.1-0.2,0.1-0.5,0.1-0.7V15.9z"/>
	<path d="M66.9,3v15.1c0,1.5,0.1,3,0.1,3.9h-3.6l-0.2-1.9h-0.1c-0.8,1.5-2.4,2.2-4.1,2.2c-3.1,0-5.6-2.6-5.6-6.7c0-4.4,2.7-7,5.9-7
		c1.6,0,2.9,0.6,3.5,1.5h0.1V3H66.9z M62.8,14.5c0-0.2,0-0.5-0.1-0.7c-0.2-1.1-1.1-2-2.4-2c-1.8,0-2.8,1.7-2.8,3.7
		c0,2.2,1.1,3.6,2.8,3.6c1.2,0,2.1-0.8,2.4-2c0.1-0.3,0.1-0.6,0.1-0.9V14.5z"/>
	<path d="M83.1,15.3c0,4.8-3.4,7-6.9,7c-3.8,0-6.8-2.5-6.8-6.7s2.8-6.9,7-6.9C80.4,8.7,83.1,11.4,83.1,15.3z M73.6,15.5
		c0,2.2,0.9,3.9,2.7,3.9c1.6,0,2.6-1.6,2.6-3.9c0-2-0.7-3.9-2.6-3.9C74.4,11.5,73.6,13.6,73.6,15.5z"/>
	<path d="M85.6,13.1c0-1.6-0.1-3-0.1-4.2H89l0.2,1.8h0.1c0.5-0.8,1.9-2.1,4-2.1c2.7,0,4.7,1.8,4.7,5.6V22H94v-7.3
		c0-1.7-0.6-2.8-2.1-2.8c-1.1,0-1.8,0.8-2.1,1.5c-0.1,0.2-0.2,0.6-0.2,1V22h-4.1V13.1z"/>
	<path d="M114.2,15.3c0,4.8-3.4,7-6.9,7c-3.8,0-6.8-2.5-6.8-6.7s2.8-6.9,7-6.9C111.6,8.7,114.2,11.4,114.2,15.3z M104.8,15.5
		c0,2.2,0.9,3.9,2.7,3.9c1.6,0,2.6-1.6,2.6-3.9c0-2-0.7-3.9-2.6-3.9C105.5,11.5,104.8,13.6,104.8,15.5z"/>
	<path d="M116.7,13.3c0-1.9-0.1-3.2-0.1-4.3h3.5l0.1,2.4h0.1c0.7-1.9,2.3-2.7,3.5-2.7c0.4,0,0.6,0,0.9,0.1v3.8
		c-0.3-0.1-0.6-0.1-1.1-0.1c-1.5,0-2.5,0.8-2.8,2.1c-0.1,0.3-0.1,0.6-0.1,0.9V22h-4.1V13.3z"/>
	<path d="M124.9,19.9c0-1.4,1-2.5,2.4-2.5c1.4,0,2.4,1,2.4,2.5c0,1.4-1,2.5-2.4,2.5C125.9,22.3,124.9,21.3,124.9,19.9z"/>
	<path d="M142,21.7c-0.7,0.3-2.1,0.6-3.6,0.6c-4.2,0-6.9-2.6-6.9-6.7c0-3.8,2.6-7,7.5-7c1.1,0,2.2,0.2,3.1,0.5l-0.6,3
		c-0.5-0.2-1.2-0.4-2.3-0.4c-2.1,0-3.5,1.5-3.5,3.7c0,2.4,1.6,3.7,3.6,3.7c1,0,1.7-0.2,2.3-0.4L142,21.7z"/>
	<path d="M151.7,22l-0.2-1.3h-0.1c-0.9,1-2.2,1.6-3.7,1.6c-2.6,0-4.2-1.9-4.2-4c0-3.4,3.1-5,7.7-5v-0.2c0-0.7-0.4-1.7-2.4-1.7
		c-1.3,0-2.8,0.5-3.6,1l-0.7-2.6c0.9-0.5,2.7-1.2,5.1-1.2c4.4,0,5.8,2.6,5.8,5.6v4.5c0,1.3,0.1,2.5,0.2,3.2H151.7z M151.3,15.9
		c-2.1,0-3.8,0.5-3.8,2.1c0,1,0.7,1.6,1.6,1.6c1,0,1.8-0.7,2.1-1.5c0.1-0.2,0.1-0.5,0.1-0.7V15.9z"/>
</g>
</svg>
