<?xml version="1.0" encoding="utf-8"?>
<!-- Generator: Adobe Illustrator 19.0.0, SVG Export Plug-In . SVG Version: 6.00 Build 0)  -->
<svg version="1.1" id="Layer_1" xmlns="http://www.w3.org/2000/svg" xmlns:xlink="http://www.w3.org/1999/xlink" x="0px" y="0px"
	 viewBox="0 0 1000 400" style="enable-background:new 0 0 1000 400;" xml:space="preserve">

<image style="display:none;overflow:visible;" width="1000" height="400" id="XMLID_2_" xlink:href="F9FBC11C278D58F0.jpg"  transform="matrix(1 0 0 1 0 0.6787)">
</image>
<g id="XMLID_17_">
	<path id="XMLID_28_" class="st0" d="M162.1,173.6c10.6-19.4,7.7-43.7-5.5-61.2c-14.8-19.7-40.2-29.7-64.5-28.2
		c-23.4,1.4-45.2,13.4-57.6,33.5c-11.1,18.1-14.5,44,1.2,60.4c0.1,0.1,0.2,0.2,0.4,0.3c-1.1,2-1.4,4.3-0.4,6.8
		c1.4,3.4,6.7,6.1,9.8,3.8c2.6,5.5,6.1,10.7,10.5,15c13.5,13.2,36.2,17.2,54.4,14.8c17.7-2.3,34-13.4,42.4-29.2
		c0.3-0.6,0.6-1.3,0.9-1.9c4.1,1.5,9.3,0.6,11.5-3.5C167.1,180.8,165.7,175.3,162.1,173.6z M38.6,182.3c-0.3-2.2,1-4.3,2.6-5.9
		c0.7,3.1,1.6,6.1,2.8,9.1C41.4,186.3,39,185.7,38.6,182.3z M146.3,189.1c-8.6,14.1-23.7,23.2-40.2,24.4
		c-16.2,1.1-35.4-2.4-47.3-14.2c-10.8-10.8-15-26.2-16.6-41c0.1-0.1,0.3-0.1,0.4-0.3c10.1-7.2,27.9-19,30.1-33
		c6.8,10.4,21.2,15,32.8,16.9c12.4,2.1,30.9,5.8,42.7-1C153.2,157.6,156.4,172.7,146.3,189.1z M161,182.6c-1.2,2.1-3.6,2.4-5.9,2
		c1.1-2.7,2-5.6,2.7-8.6c0.2,0.5,0.6,1,1.3,1.2C161.2,178,162.2,180.6,161,182.6z"/>
	<path id="XMLID_11_" class="st0" d="M79.7,166.1c-4.6,1.2-12.2,6.6-14.8-0.9c-0.5-1.5-2.9-1.4-2.9,0.4c0.2,9.9,14.6,9.4,19.3,3.4
		C82.4,167.7,81.5,165.6,79.7,166.1z"/>
	<path id="XMLID_10_" class="st0" d="M137.7,161.2c-0.3-1.6-2.5-1.9-3.5-0.9c-2.3,2.2-3,5-6.3,6.2c-3.5,1.3-6.8-0.1-9.5-2.4
		c-1.2-1-3,0.2-2.2,1.7c2.4,4.4,7.7,6.8,12.6,5.8C133.4,170.6,138.6,166.3,137.7,161.2z"/>
	<path id="XMLID_9_" class="st0" d="M104.6,183.8c-1.3-1.1-2.2-0.1-3.4,0.6c-0.8,0.5-1.8,0.5-2.6,0.1c-1-0.5-1.2-1.5-0.7-2.5
		c0.6-1.3,2.1-2.2,3.5-2c1,0.1,1.2-1.3,0.5-1.8c-4.4-2.8-9.9,3-7.4,7.4c2,3.7,9.1,4.3,10.6-0.2C105.2,185,105,184.2,104.6,183.8z"/>
</g>
<polygon id="XMLID_18_" class="st0" points="249,150.8 249,135 254,135 254,152.3 270.3,152.3 270.3,156.3 253.3,156.3 253.7,174 
	249,174 249,157.3 232,157.3 232,152.3 248.3,152.3 "/>
<rect id="XMLID_16_" x="571" y="159" class="st0" width="39" height="4.5"/>
<rect id="XMLID_20_" x="571" y="144" class="st0" width="39" height="4.5"/>
<g id="XMLID_21_">
	<path id="XMLID_213_" d="M414.6,156.9h4.2v3.6c1-1.2,1.9-2.1,2.7-2.7c1.4-1,3-1.4,4.7-1.4c2,0,3.6,0.5,4.8,1.5
		c0.7,0.6,1.3,1.4,1.9,2.5c0.9-1.3,2-2.3,3.3-3s2.7-1,4.3-1c3.4,0,5.7,1.2,6.9,3.7c0.7,1.3,1,3.1,1,5.3V182H444v-17.4
		c0-1.7-0.4-2.8-1.3-3.4s-1.9-0.9-3.1-0.9c-1.7,0-3.1,0.6-4.3,1.7s-1.8,3-1.8,5.6V182h-4.3v-16.4c0-1.7-0.2-2.9-0.6-3.7
		c-0.6-1.2-1.8-1.8-3.6-1.8c-1.6,0-3,0.6-4.3,1.9s-2,3.5-2,6.7V182h-4.2V156.9z"/>
	<path id="XMLID_215_" d="M454.6,147.6h4.3v4.8h-4.3V147.6z M454.6,157h4.3v25h-4.3V157z"/>
	<path id="XMLID_218_" d="M465.2,156.9h4v3.6c1.2-1.5,2.4-2.5,3.8-3.2s2.8-1,4.4-1c3.6,0,6,1.2,7.2,3.7c0.7,1.4,1,3.3,1,5.8V182
		h-4.3v-15.8c0-1.5-0.2-2.8-0.7-3.7c-0.8-1.6-2.1-2.3-4.1-2.3c-1,0-1.8,0.1-2.5,0.3c-1.2,0.3-2.2,1-3,2.1c-0.7,0.8-1.2,1.7-1.4,2.6
		s-0.3,2.1-0.3,3.8V182h-4.2V156.9z"/>
</g>
<g id="XMLID_24_">
	<path id="XMLID_211_" d="M367.1,167.7c1.9-3.9,5.6-7.5,11.2-10.7l8.3-4.8c3.7-2.2,6.3-4,7.8-5.5c2.4-2.4,3.5-5.1,3.5-8.2
		c0-3.6-1.1-6.5-3.2-8.6s-5-3.2-8.6-3.2c-5.3,0-9,2-11,6.1c-1.1,2.2-1.7,5.2-1.8,9h-7.9c0.1-5.4,1.1-9.8,3-13.2c3.4-6,9.3-9,17.8-9
		c7.1,0,12.2,1.9,15.5,5.7c3.3,3.8,4.9,8.1,4.9,12.8c0,4.9-1.7,9.2-5.2,12.7c-2,2-5.6,4.5-10.8,7.4l-5.9,3.3c-2.8,1.6-5,3-6.6,4.4
		c-2.9,2.5-4.7,5.3-5.4,8.3h33.7v7.3h-42.4C364,176.3,365.1,171.7,367.1,167.7z"/>
</g>
<g id="XMLID_26_">
	<path id="XMLID_38_" class="st0" d="M799.4,162.1c5.3-9.8,3.9-22.1-2.8-30.9c-7.5-9.9-20.3-15-32.6-14.2
		c-11.8,0.7-22.8,6.7-29.1,16.9c-5.6,9.1-7.3,22.2,0.6,30.5c0.1,0.1,0.1,0.1,0.2,0.1c-0.5,1-0.7,2.2-0.2,3.4
		c0.7,1.7,3.4,3.1,4.9,1.9c1.3,2.8,3.1,5.4,5.3,7.6c6.8,6.7,18.3,8.7,27.5,7.5c8.9-1.2,17.2-6.7,21.4-14.7c0.2-0.3,0.3-0.6,0.5-1
		c2.1,0.8,4.7,0.3,5.8-1.8C802,165.7,801.3,162.9,799.4,162.1z M737.1,166.5c-0.1-1.1,0.5-2.2,1.3-3c0.4,1.6,0.8,3.1,1.4,4.6
		C738.5,168.5,737.3,168.2,737.1,166.5z M791.5,169.9c-4.4,7.1-12,11.7-20.3,12.3c-8.2,0.6-17.9-1.2-23.9-7.2
		c-5.4-5.4-7.6-13.2-8.4-20.7c0.1,0,0.1-0.1,0.2-0.1c5.1-3.6,14.1-9.6,15.2-16.7c3.4,5.2,10.7,7.6,16.6,8.5c6.2,1,15.6,2.9,21.6-0.5
		C794.9,154,796.5,161.7,791.5,169.9z M798.9,166.6c-0.6,1.1-1.8,1.2-3,1c0.5-1.4,1-2.8,1.3-4.3c0.1,0.3,0.3,0.5,0.6,0.6
		C799,164.3,799.5,165.6,798.9,166.6z"/>
	<path id="XMLID_37_" class="st0" d="M757.8,158.3c-2.3,0.6-6.2,3.3-7.5-0.4c-0.3-0.8-1.5-0.7-1.5,0.2c0.1,5,7.4,4.7,9.8,1.7
		C759.2,159.1,758.7,158.1,757.8,158.3z"/>
	<path id="XMLID_36_" class="st0" d="M787.1,155.8c-0.1-0.8-1.2-1-1.8-0.5c-1.1,1.1-1.5,2.5-3.2,3.1c-1.8,0.6-3.5,0-4.8-1.2
		c-0.6-0.5-1.5,0.1-1.1,0.9c1.2,2.2,3.9,3.4,6.4,2.9C784.9,160.6,787.6,158.4,787.1,155.8z"/>
	<path id="XMLID_35_" class="st0" d="M770.4,167.2c-0.7-0.6-1.1,0-1.7,0.3c-0.4,0.2-0.9,0.3-1.3,0.1c-0.5-0.2-0.6-0.8-0.4-1.2
		c0.3-0.7,1.1-1.1,1.8-1c0.5,0.1,0.6-0.7,0.2-0.9c-2.2-1.4-5,1.5-3.8,3.8c1,1.9,4.6,2.2,5.4-0.1
		C770.7,167.9,770.6,167.4,770.4,167.2z"/>
	<path id="XMLID_32_" class="st0" d="M760.4,167.7c-1.4-2.8-5.9-2.7-8.5-2.1c-0.1,0-0.2,0.1-0.3,0.2c-1.8,0-3.5,1.3-2.8,3.3
		c1,2.9,5.7,3.6,8.2,3.2C759.3,172,761.6,170.2,760.4,167.7z M758,170.4c-1.3,0.8-3.5,0.5-4.9,0.1c-0.5-0.1-1-0.3-1.5-0.5
		c-0.9-0.3-1.2-0.8-0.7-1.7c0.1-1,0.4-1.3,0.9-1.4c1,0.5,1.9,0.4,3,0.3c0.8,0,1.6-0.1,2.4,0.1C758.6,167.6,759.9,169.3,758,170.4z"
		/>
	<path id="XMLID_29_" class="st0" d="M783.5,164c-0.2,0-0.3,0.1-0.5,0.2c-2.2-0.8-6,0.1-6.9,2.5c-1,2.7,3.6,3.8,5.4,4
		c2.3,0.2,7-0.2,7.6-3.1C789.7,164.4,785.7,163.7,783.5,164z M785.9,168.5c-1.5,0.6-3.2,0.6-4.8,0.3c-1.4-0.3-3.8-0.8-2.4-2.5
		c0.9-1.1,2.9-1.1,4.3-1.3c0.1,0.2,0.3,0.3,0.6,0.3c0.6,0,2.2-0.2,2.6,0.1c0.3,0.8,0.6,1.7,0.8,2.5
		C786.6,168.2,786.2,168.4,785.9,168.5z"/>
	<path id="XMLID_27_" class="st0" d="M770.9,173.5c-0.2-1.1-1.7-0.8-2,0c-0.3,0.8-0.6,1.7-1.6,1.9c-0.7,0.1-1.2-0.1-1.7-0.5
		c0.2-0.1,0.2-0.4-0.1-0.4c-0.1,0-0.3,0-0.4,0c0,0-0.1-0.1-0.1-0.1c-0.4-0.6-1.3,0-1.2,0.7c0.3,1.7,2.5,2.7,4.1,2.4
		C769.6,177.1,771.2,175.4,770.9,173.5z"/>
</g>
<g id="XMLID_43_">
	<path id="XMLID_48_" class="st0" d="M857.2,97.4c-0.7,0.4-0.6,1.5,0.2,1.7c0.9,0.2,1.9-0.1,2.7,0.6c0.6,0.5,0.7,1.4,0.5,2.1
		c-0.5,1.8-2.5,2.6-4.2,2.4c0.5-5.9-0.1-12-1.4-16.9c0-0.2-0.1-0.3-0.2-0.4c0.2-0.2,0.3-0.4,0.3-0.6c0.4,0.2,0.9,0.2,1.3-0.2
		c1.4-1.4,1.9-3,1.9-4.5c0.6,0.2,1.3-0.1,1.4-1c0.6-8.4-3.4-16.7-9.7-22.1c-6.9-5.9-16.1-7.4-24.9-7.3c1.7-5.2-4.7-9.7-9.5-7.8
		c-3.6,1.4-6.2,7.3-3.9,10.4c-12.9,5.5-21.7,18.9-16.3,33.7c-1.4,3.3-1.3,7,2.1,8.9c0.3,0.2,0.7-0.2,0.5-0.5c-1.8-2.8-2-5.2-1.2-7.3
		c0.1,2,1,4,2.3,5.4c-0.3-0.1-0.6,0.1-0.7,0.4c-0.7,3.3-0.8,6.5-0.3,9.6c-2.9,0.3-4.9,3.3-3.6,6.2c1,2.3,4.5,3.2,6.3,1.6
		c5.3,9.9,17,16.6,28.7,16.7c8.1,0.1,18.4-2.1,22.8-9.7c2.1-3.7,3.4-8.3,3.9-13.2c2.8,0.7,5.9-0.7,6.6-3.7
		C863.7,98.7,860.3,95.8,857.2,97.4z M816.5,45.6c1.8-0.7,4-0.3,5.3,1.2c1.2,1.3,1.1,2.8,1,4.4c-3.2,0.1-6.3,0.8-9.3,1.8
		C812.3,50.4,813.7,46.7,816.5,45.6z M796.4,85.5c-1-8.4,0.7-17,6.7-23.4c3.1-3.3,6.8-5.4,10.8-6.7c0.1,0,0.1,0.1,0.2,0.1
		c0.3,0.1,0.6-0.1,0.7-0.4c3.1-0.9,6.4-1.3,9.7-1.3c8.2-0.1,17,1.1,23.5,6.6c5.4,4.6,8.3,10.8,9.3,17.7c-1.1-1.8-2.9-3.4-4.9-4.3
		c-7.1-3.1-16-2.4-23.9-0.9c-0.4-0.5-1.3-0.5-1.3,0.3c-1.2,0.2-2.3,0.5-3.4,0.8c-5.1,1.2-10.1,2.7-15.1,4.3c-3.5,1.1-7.1,2.3-10,4.7
		C797.8,83.6,797.1,84.5,796.4,85.5z M850.4,76c-0.1,0.1-0.1,0.1-0.2,0.2c-0.9,1.4-1.2,3.3-1.5,5c-0.9-0.3-1.8-0.6-2.7-0.8
		c0.1-1,0.2-2.1,0.4-3.1c0.2-0.7,0.4-1.5,0.5-2.2C848.2,75.4,849.3,75.6,850.4,76z M844.8,80.2c-1.2-0.2-2.4-0.3-3.6-0.4
		c0-1.8,0.3-3.6,0.3-5.5c1.1,0.1,2.5,0.3,3.8,0.5C844.6,76.4,844.5,78.5,844.8,80.2z M839.9,79.8c-1.2,0-2.4,0-3.6,0.1c0,0,0,0,0,0
		c-0.2-1.3-0.4-2.5-0.6-3.8c-0.1-0.5-0.1-1.1-0.1-1.6c1-0.1,2-0.1,3-0.1c0.4,0,0.9,0,1.5,0C839.6,76,839.7,78,839.9,79.8z
		 M835.1,79.9c-1.7,0.1-3.4,0.3-4.9,0.5c-0.2-1.7-0.4-3.6-0.9-5.3c1.5-0.2,2.9-0.4,4.4-0.6C833.8,76.3,834.5,78.3,835.1,79.9z
		 M824.5,76c1-0.2,2-0.4,2.9-0.6c0.3,1.7,0.9,3.5,1.4,5.2c-1.3,0.2-2.7,0.4-4,0.7C824.9,79.7,824.9,77.7,824.5,76z M823.8,81.5
		c-1.2,0.3-2.3,0.5-3.5,0.9c-0.1-1.1-0.3-2.2-0.5-3.3c-0.1-0.6-0.2-1.3-0.3-1.9c0.5-0.1,1-0.3,1.5-0.4c0.7-0.2,1.3-0.3,2-0.5
		c0.1,0.6,0.2,1.1,0.3,1.6C823.5,79.2,823.6,80.4,823.8,81.5z M819.3,82.7c-1.3,0.4-2.5,0.8-3.8,1.2c-0.2-1.8-0.4-3.7-1-5.3
		c1.3-0.3,2.5-0.7,3.6-0.9C818.2,79.3,818.9,81.2,819.3,82.7z M814.4,84.3c-0.9,0.4-1.9,0.7-2.8,1.1c-0.5,0.2-1,0.4-1.5,0.7
		c-0.1-1.9-0.2-3.9-0.9-5.7c0-0.1-0.1-0.2-0.1-0.2c1.4-0.5,2.9-1,4.3-1.4C813.4,80.7,813.9,82.6,814.4,84.3z M798.1,86.7
		c0,0,0-0.1,0-0.1c0.4-0.5,0.9-1,1.5-1.4c-0.1,1.9,0.6,3.9,1.8,5.3c0.4,0.5,1-0.1,0.8-0.6c-0.9-1.9-1.2-3.6-1.4-5.6
		c1-0.7,2.1-1.3,3.2-1.9c0,0,0,0,0,0.1c-0.1,1.9,0.2,3.7,1,5.4c0.2,0.5,0.9,0.1,0.8-0.3c-0.3-1.7-0.6-3.4-0.8-5.1
		c0-0.2-0.1-0.3-0.3-0.4c1.1-0.5,2.3-1,3.5-1.4c0,0,0,0,0,0c-0.1,2,0.4,4,0.9,5.9c-3.5,1.5-7.2,3.4-9.5,6.3
		C798.7,90.8,798.3,88.9,798.1,86.7z M796.2,108.9c-0.5-1.7,0.7-3.1,2.2-3.7c0.4,1.6,0.9,3.1,1.5,4.6
		C798.6,110.8,796.8,110.9,796.2,108.9z M851.5,113.9c-3,9.3-13.1,11.9-21.9,11.8c-17.3-0.2-30.4-13.8-30-31.1
		c0-0.1-0.1-0.3-0.1-0.4c0.4,0,0.7-0.4,0.5-0.8c0,0,0-0.1,0-0.1c4.2-1.2,8.2-4.1,12.3-5.8c4.4-1.8,8.9-3.1,13.5-4
		c4.7-0.9,9.5-1.4,14.2-1.2c5.2,0.2,8.9,1.8,13.3,4.4c-0.2,0.2-0.4,0.4-0.4,0.8C853.3,96.4,854.3,105.3,851.5,113.9z M854.5,85.1
		c-0.5-0.6-1.1-1.2-1.7-1.7c0.8-1.4,1.7-3.1,1.6-4.7c0-0.7-1-1-1.3-0.4c-0.4,0.7-0.5,1.6-0.7,2.3c-0.2,0.7-0.5,1.3-0.7,1.9
		c-0.4-0.3-0.8-0.5-1.2-0.7c0.5-1.7,1.2-3.6,1.1-5.4c0-0.1,0-0.1,0-0.2c4,1.5,6.6,4,3.3,8C854.6,84.6,854.5,84.9,854.5,85.1z"/>
	<path id="XMLID_47_" class="st0" d="M819,95c0,0-0.1-0.6-0.1-0.3c-0.1-0.9-0.7-1.6-1.6-1.6c-0.9,0-1.6,0.7-1.6,1.6
		c0,1.1,0,2.2,0,3.3c0,2.1,3.2,2.1,3.2,0c0-0.7,0-1.5,0-2.2c0,0,0,0,0,0C819,95.5,819,95.3,819,95z"/>
	<path id="XMLID_46_" class="st0" d="M842.7,93.3c0-0.5-0.2-0.9-0.5-1.2c-0.1-0.1-0.3-0.3-0.5-0.3c-0.6-0.3-1.2-0.2-1.7,0.2
		c-0.6,0.6-0.6,1.3-0.5,2c0,0.2,0,0.5,0,0.7c0,0.3,0,0.7,0,1c0,0.9,0.8,1.6,1.6,1.6c0.9,0,1.5-0.7,1.6-1.6
		C842.8,95.2,842.9,94.2,842.7,93.3z"/>
	<path id="XMLID_45_" class="st0" d="M834.2,103.4c-0.1-0.6-0.8-0.7-1.3-0.5c-1.1,0.5-1.3,2-2.4,2.6c-0.4,0.2-1.1,0.4-1.5,0.1
		c-0.4-0.2-0.6-1-0.3-1.4c0.4-0.5-0.1-1.3-0.7-0.9c-2.1,1.2-1,4.2,1.2,4.5c1.2,0.2,2.4-0.2,3.3-1
		C833.5,105.9,834.4,104.6,834.2,103.4z"/>
	<path id="XMLID_44_" class="st0" d="M844.4,104.4c-0.1-1.5-2.4-2-2.8-0.4c-1.6,6.4-4.4,11-11.7,11.4c-5.4,0.3-11.1-1.1-13.7-6.2
		c-0.5-1-2.2-0.3-1.9,0.8C818.5,124.7,845.3,120.1,844.4,104.4z"/>
</g>
<g id="XMLID_64_">
	<path id="XMLID_80_" class="st0" d="M771,209.7c3.4-3.1,4.4-8.8,2.7-13c-2.1-5.1-7.4-7.8-12.5-6.8c1.7-3.3,1-7.9-1.5-10.6
		c-2.8-3.1-7.7-3.8-10.8-1.2c-2.3-15.7-31.2-15.1-32.5,0.4c-1.4-1.2-3.9-1.6-5.5-1.2c-2.3,0.6-4.1,2.7-4.3,5.1
		c-4-3.4-10.1-2.6-13.2,2c-1.6,2.4-2.2,5.5-1.6,8.4c0.1,0.6,0.4,1.7,0.8,2.7c-8.7-0.2-14.6,9.3-15,17.4c-0.2,5.3,1,11.5,4.8,15.3
		c1.8,1.9,4.4,3.3,7,3.3c-2.5,2.4-3.9,7-2.8,9.7c1.3,3.6,5.5,4.5,8.5,2.9c-0.5,5.6,4,13,10.2,11.9c6.2-1,11.2-7.8,10.5-14
		c7.6,4.6,18.1,5,26.2,1c5.4-2.7,9.7-6.9,12.4-11.9c3.2,3,9.2,5.5,13.6,5c4.3-0.5,8-4.6,9.5-8.4C780.2,221.7,777.9,210.8,771,209.7z
		 M742.7,240c-13.4,7.7-29.1,2-35-11.8c0.1,0,0.2-0.1,0.3-0.2c2.2-2.2,3-5.4,2.1-8.3c-0.4-1.2-1.1-2.5-2.1-3.5
		c1.1-0.2,2-0.8,2.8-1.7c0.9-1.2,1.4-3.4,0.9-5c7.1,2.9,17.1-4.6,18.3-12.2c1,1,2.4,1.7,3.8,1.8c2.1,0.1,4.8-1.4,6.2-3.4
		c1.6,5,6.9,9,12.2,8.1c-0.1,0.3-0.1,0.6,0.1,0.9C759.5,217,755.3,232.7,742.7,240z M774.1,229.1c-4.5,6.2-13.2,4.4-18.3-0.2
		c0,0,0,0,0,0c1.2-2.6,1.9-5.4,2.2-8.3c0.8-0.2,1.5-0.6,2-1c1-0.8,2.6-2.3,2.5-3.6c-0.1-1.3-1.8-2.5-2.9-2.9c-0.5-0.2-1.3-0.2-1.9,0
		c-0.6-3.3-1.9-6.6-4-9.7c-0.1-0.1-0.1-0.1-0.2-0.2c0.6-0.4,0.4-1.6-0.4-1.7c-2.6-0.3-4.9-0.3-7.2-1.8c-2.5-1.6-4.1-4.1-5.2-6.8
		c0-0.1,0-0.1,0-0.2c0-0.6-0.9-1.2-1.4-0.7c-1.6,1.4-2.1,3.5-4.2,4.4c-2.4,0.9-5-0.7-5.3-3.2c-0.1-0.4-0.6-0.6-0.8-0.3
		c-0.4,0-0.7,0.3-0.8,0.7c-0.7,4.1-1.6,7.5-5,10.3c-3.2,2.7-8.4,5.3-12.6,3.4c-0.3-0.1-0.6,0-0.8,0.2c-0.4,0-0.8,0.3-0.7,0.8
		c0.3,1.6,1.2,2.9,0.3,4.5c-0.7,1.3-2.1,1.9-3.4,1.8c-0.6-0.3-1.2-0.4-1.9-0.4c-0.2,0-0.4,0-0.5,0.1c-0.4,0.3-0.4,0.9,0,1.3
		c1.6,1.5,3.5,2.1,4.3,4.3c0.9,2.4,0.4,5-1,7c-0.1,0.2-0.1,0.3-0.1,0.5c-0.1,0.1-0.1,0.2-0.1,0.3c0.2,1.6,0.6,3,1.1,4.4
		c-0.7,0-1.4,0.4-1.8,1c-0.9,1.2-1,2.9-0.4,4.2c0.6,1.3,1.9,2.2,3.4,2.3c0.9,0.1,2.3-0.2,3.1-1c0.9,0.9,1.8,1.6,2.8,2.3
		c0,4.8-2.9,9-7.1,11.4c-6.7,3.9-9.7-4.2-10.7-9.2c0-0.1-0.1-0.2-0.2-0.3c0,0,0,0,0.1,0c0.3-0.3-0.1-0.9-0.5-0.7
		c-3.6,1.3-8.6,0.5-7.6-4.5c0.6-2.9,3.3-4.4,4.3-7c0.2-0.6-0.3-1.1-0.9-0.9c-0.3,0.1-0.6,0.2-0.9,0.3c-3.8-1.1-6.5-2.3-8.7-6.2
		c-2.1-3.7-2.7-8.3-2.3-12.4c0.9-8.4,6.5-13.6,14.8-13.9c1.1,0,1.1-1.6,0.1-1.9c-0.2-0.1-0.5-0.1-0.7-0.1c-0.6-1.2-0.8-3.5-0.9-4.2
		c-0.1-2.1,0.4-4.1,1.6-5.8c2.6-3.5,7.6-4.4,10.6-0.8c0.9,1.1,2.8-0.2,1.9-1.3c0.4-2,1.6-3.9,3.7-4.2c2.2-0.3,3.1,1.3,4.8,2
		c0.5,0.2,1.2-0.2,1.1-0.8c0-0.1,0-0.2,0-0.3c0.1-0.1,0.2-0.2,0.2-0.3c1.5-6.7,8-10.6,14.5-10.9c7.7-0.4,12.9,4.1,15.2,11.1
		c0.3,0.8,1.3,0.7,1.6,0c3.1-2.1,7.2-2.1,9.5,1.2c2.3,3.3,0.9,6.2-0.3,9.5c-0.1,0.2-0.1,0.5,0,0.7c0,0,0,0.1,0.1,0.1c0,0,0,0,0,0.1
		c0,0,0,0.1,0.1,0.1c0.3,0.4,0.8,0.6,1.2,0.2c0,0,0.1-0.1,0.1-0.1c5-0.9,10.1,1.1,12,6.1c2,5.4-1.3,9-5.2,12.2
		c-0.7,0.6-0.2,1.6,0.7,1.4c0.4-0.1,0.9-0.3,1.3-0.4C776.8,211.6,778.1,223.6,774.1,229.1z M758.1,218.4c0-1.3,0-2.7-0.2-4
		c0.4,0,0.8,0,1.2,0.2c0.7,0.3,1.7,1,1.3,1.8c-0.3,0.6-1.2,1.4-1.8,1.8C758.4,218.3,758.3,218.4,758.1,218.4z M710.7,237.4
		c-0.3,0.2-0.7,0.5-1.1,0.5c-0.8,0.2-1.7-0.1-2.3-0.8c-0.5-0.6-0.7-1.6-0.5-2.4c0.2-0.6,0.7-1.3,1.3-1.4
		C708.9,234.8,709.7,236.2,710.7,237.4z"/>
	<path id="XMLID_79_" class="st0" d="M718.4,217.3c-1.1-0.2-2.3,0.3-3,1.2c-0.4,0-0.8-0.1-1.1-0.2c-0.4-0.1-0.7-0.4-1.2-0.3
		c-0.4,0.1-0.6,0.5-0.4,0.9c0.4,0.7,1.4,0.8,2.2,0.7c0,0.2-0.1,0.3-0.1,0.5c-0.7-0.1-1.4-0.1-2,0.2c-0.7,0.2-0.5,1.1,0.1,1.3
		c0.7,0.2,1.5,0.1,2.2,0c0.4,0.7,1,1.3,1.8,1.5c0.5,0.1,0.9,0.1,1.4-0.1c0.7-0.1,1.3-0.4,1.7-0.9
		C721.4,220.4,720.4,217.7,718.4,217.3z"/>
	<path id="XMLID_78_" class="st0" d="M744.8,206.4c-0.4,0.3-0.5,0.8-0.8,1.1c-0.2,0.3-0.6,0.5-0.8,0.8c-0.1-0.1-0.2-0.1-0.2-0.1
		c0.5-0.6,0.8-1.3,0.8-2.1c0-0.3-0.2-0.5-0.4-0.6c-0.3-0.2-0.7-0.1-0.9,0.2c-0.2,0.3-0.2,0.6-0.3,0.9c-0.1,0.4-0.3,0.8-0.5,1.2
		c-1.1,0-2.1,0.6-2.6,1.5c-0.5,1.1-0.2,2.3,0.7,3.1c0.1,0.1,0.2,0.1,0.3,0.2c0,0,0.1,0.1,0.1,0.1c0.9,0.7,2.1,0.7,3.1,0.1
		c1-0.6,1.4-1.8,1.1-2.9c-0.1-0.3-0.2-0.5-0.3-0.7c0.4-0.1,0.8-0.4,1-0.7c0.4-0.4,0.9-0.9,0.9-1.5
		C745.8,206.4,745.3,206,744.8,206.4z"/>
	<path id="XMLID_77_" class="st0" d="M735.3,223.4c-0.7,0.5-1.8,1.4-2.4,0.3c-0.7-1.1,0.3-1.9,1.2-2.3c0.6-0.3,0.5-1-0.1-1.2
		c-1.2-0.4-2.5,0.2-3.1,1.3c-0.7,1.1-0.6,2.4,0.1,3.5c0.6,1,1.8,1.5,3,1.4c1.1-0.1,2.4-1,2.5-2.2
		C736.4,223.5,735.8,222.9,735.3,223.4z"/>
	<path id="XMLID_76_" class="st0" d="M744.7,223.7c-0.4-0.8-1.4-0.3-1.6,0.3c-1.2,3.7-1.4,6.9-5.4,8.8c-3.7,1.7-8.3,0.9-11-2
		c-0.6-0.7-1.8,0.2-1.5,1c2.2,5.2,9,5.9,13.7,3.8C742.9,233.7,747,228.2,744.7,223.7z"/>
	<path id="XMLID_73_" class="st0" d="M719.1,225.3c-0.1,0-0.1,0.1-0.1,0.2c-2.2,0.2-4.6,1-4.6,3.7c0,2.5,2.5,3.2,4.5,2.6
		c1.8-0.5,5.2-2.5,5.1-4.8C723.8,224.5,720.6,224.3,719.1,225.3z M721.7,228.1c-0.7,0.9-2.2,1.7-3.2,2.1c-1.5,0.5-3.6-0.3-2.1-2.3
		c0.7-0.8,2-1.3,3-1.7c0.5,0,0.9-0.1,1.4-0.2c0.7-0.2,1.1,0,1,0.8C722.2,227.4,722.2,227.8,721.7,228.1z"/>
	<path id="XMLID_70_" class="st0" d="M746.9,214.6c-2.1-0.1-4.4,1-4.7,3.2c-0.1,0.9,0.1,1.9,0.9,2.4c1,0.7,2.3,0.1,3.3-0.2
		c1.8-0.5,5.2-1.2,5.4-3.6C752.1,213.7,748.6,213.8,746.9,214.6z M749.1,217.4c-0.9,0.4-1.9,0.7-2.9,1c-0.3,0.1-1.2,0.5-1.5,0.4
		c-0.3-0.3-0.5-0.6-0.8-0.8c0.1-0.5,0.4-0.8,0.7-1.1c0.5-0.5,1.3-0.8,2-1c0.2,0.2,0.4,0.2,0.7,0.1c0.3-0.1,0.5-0.2,0.8-0.3
		c0.7-0.3,1.4,0,1.9,1.1C749.9,217.1,749.4,217.3,749.1,217.4z"/>
	<path id="XMLID_69_" class="st0" d="M700.3,219.3c-0.8,0.7-2.1,1.2-3.1,0.5c-0.9-0.6-1.1-1.8-0.8-2.7c0.8,0.2,1.7,0.2,2.4-0.3
		c0.4-0.3,0.2-0.9-0.3-0.9c-0.7,0-1.3,0.2-2,0.1c-0.2,0-0.4-0.1-0.6-0.2c-0.1-0.1-0.2-0.1-0.4-0.1c-0.3-0.2-0.7-0.4-0.9-0.6
		c-0.5-0.4-1,0.3-0.6,0.7c0.2,0.2,0.5,0.4,0.7,0.6c-1.1,1.4-2.6,2.9-4.5,1.9c-1.7-0.8-1.9-4.4-0.5-5.9c0.4,0.1,0.8,0,1.2-0.1
		c0.6-0.2,0.5-1-0.1-1.2c-1.1-0.3-2.3-1.1-2.3-2.4c0-1.3,1.6-2.2,2.8-2.1c0.6,0.1,0.9-0.7,0.3-1c-2.1-0.9-4.5,0.6-4.8,2.8
		c-0.2,1.3,0.5,2.6,1.6,3.4c-1.5,1.7-1.4,5.9-0.1,7.3c1.9,1.9,5.1,1.5,6.7-0.4c0.1,0.9,0.6,1.8,1.4,2.4c1.6,1.1,4,0.6,4.8-1.2
		C701.5,219.3,700.7,218.9,700.3,219.3z"/>
	<path id="XMLID_68_" class="st0" d="M729.9,181.7c-0.9,0.1-1.7,0.7-2.1,1.5c-1.4-1.6-4.2-1.4-5.8-0.1c-1.2,1-1.7,2.7-1.3,4.1
		c-1.7-1.2-4.5-1.1-6,0.1c-1,0.8-2.5,3.1-2.5,4.9c-1.2-0.8-3.1-0.9-4.3-0.1c-1.6,1.1-2.5,4.5,0,4.9c0.3,0.1,0.6-0.4,0.3-0.6
		c-1.3-1-0.5-2.8,0.7-3.4c1.5-0.7,2.4,0.3,3.1,1.4c-0.3,0.2-0.6,0.5-0.9,0.8c-0.4,0.5,0.3,1.1,0.8,0.7c0.5-0.5,1.1-0.9,1.8-1.1
		c0.6-0.2,1.2-0.1,1.7-0.5c0.3-0.2,0.3-0.7-0.1-0.9c-0.4-0.2-1-0.2-1.5,0c-1.8-1,0.8-4.4,1.8-5.1c2-1.3,4-0.2,4.9,1.7
		c0.3,0.7,1.4,0.6,1.4-0.3c0-0.3-0.1-0.7-0.1-1c0.2-0.1,0.3-0.3,0.3-0.5c-0.4-1.4-0.2-3.2,1.1-4.1c1.3-0.9,2.7-0.4,4,0.2
		c0,0,0.1,0,0.1,0c0,0.3-0.1,0.5,0,0.8c0.1,0.7,1.3,0.9,1.4,0.1c0-0.5,0.2-1,0.5-1.4c0.3-0.4,0.8-0.7,1.2-1
		C730.9,182.6,730.7,181.6,729.9,181.7z"/>
	<path id="XMLID_67_" class="st0" d="M753.1,186.3c-0.5,1.1-1,2.5-2.4,2.5c-0.9,0-1.2-0.4-1.3-1c0.2-0.4,0.4-0.7,0.5-1.2
		c0,0,0-0.1,0-0.1c0.9,0.1,1.8,0,2.4-0.7c0.4-0.4,0-1-0.5-1c-0.6,0-1.2,0.2-1.8,0.2c-0.3,0-0.6,0-0.9-0.1c-0.1,0-0.2,0-0.3-0.1
		c0,0-0.1-0.1-0.1-0.2c-0.2-0.4-0.7-0.2-0.9,0.1c-0.3,0.6,0.1,1,0.6,1.2c-0.2,0.2-0.4,0.5-0.5,0.7c-0.6,0.5-1.2,1-2,0.9
		c-1.4-0.1-2.2-1.8-0.8-2.6c0.4-0.3,0-0.8-0.4-0.7c-2.3,0.5-2.2,3.5-0.5,4.6c1.1,0.7,2.5,0.6,3.7,0c0.3,0.7,0.9,1.2,1.7,1.5
		c2.4,0.8,5.2-1.4,4.9-3.9C754.4,185.8,753.4,185.6,753.1,186.3z"/>
	<path id="XMLID_66_" class="st0" d="M707.3,242.8c-1.3,3-5,0.7-3-1.5c0.6-0.6-0.3-1.3-0.9-1c-1.6,0.8-3.8,0-4-1.9
		c-0.1-1.3,0.7-2.4,1.7-3.1c0,0,0,0,0,0c0.3,0.2,0.5,0.3,0.9,0.4c0.6,0.2,1-0.7,0.5-1c-0.7-0.5-1.1-1.2-1-2.1
		c0.2-1.1-1.6-1.5-1.7-0.3c-0.1,0.9,0.1,1.7,0.6,2.4c-2.1,0.7-3.1,3.3-2.1,5.2c0.8,1.6,2.4,2.3,4.1,2.2c-0.4,1.4,0.2,3,1.7,3.6
		c1.9,0.7,4-0.7,4-2.6C708.1,242.6,707.5,242.5,707.3,242.8z"/>
	<path id="XMLID_65_" class="st0" d="M770.9,217.9c0-0.8-0.3-1.7-1.1-2c-0.4-0.2-0.8,0.1-0.8,0.6c0,0.6,0.4,1.1,0.5,1.7c0,0,0,0,0,0
		c-0.1,0.1-0.1,0.3,0,0.5c0,0.5-0.2,0.9-0.4,1.3c-0.3,0.5,0.5,1,0.9,0.6c0.4-0.4,0.6-0.9,0.8-1.4c0.9,0.3,1.7,0.9,1.7,2
		c0.1,1.6-1.7,2.6-3.1,1.9c-0.7-0.3-1.6,0.5-1,1.2c0.7,0.8,1,2.2,0.1,3.1c-1.4,1.3-3.3-0.1-3.8-1.5c-0.1-0.4-0.7-0.3-0.7,0.2
		c-0.1,2.3,2.6,4,4.7,3c1.6-0.7,2.2-2.6,1.8-4.2c1.7-0.1,3.4-1.2,3.5-3.1C774.1,219.9,772.7,218.1,770.9,217.9z"/>
</g>
<g id="XMLID_107_">
	<path id="XMLID_105_" class="st0" d="M942.3,168.3c4.6-0.2,9-3.9,10.4-8.2c1.7-5.3-0.6-10.7-5.2-13.2c3.4-1.4,5.8-5.4,5.7-9.1
		c-0.1-4.2-3.5-7.8-7.5-7.9c8.3-13.5-14.2-31.6-25.1-20.6c-0.3-1.8-1.9-3.8-3.4-4.5c-2.2-1-4.9-0.6-6.5,1.1
		c-0.9-5.2-6.1-8.5-11.4-6.9c-2.8,0.8-5.2,2.8-6.6,5.4c-0.3,0.6-0.8,1.6-1.1,2.6c-6.5-5.7-17.2-2.2-22.6,3.7
		c-3.6,3.9-6.6,9.4-6.2,14.9c0.2,2.6,1.2,5.4,3.3,7c-3.4,0.3-7.4,2.9-8.4,5.6c-1.3,3.6,1.3,7,4.7,7.7c-4,4-5.3,12.5,0.2,15.7
		c5.4,3.2,13.6,1.2,17-4c2.9,8.4,10.7,15.5,19.5,17.6c5.9,1.4,11.8,0.9,17.1-1.2c0.5,4.4,3.5,10.2,7.2,12.6
		c3.6,2.4,9.1,1.6,12.7-0.3C941.7,183.4,946.9,173.6,942.3,168.3z M901.2,173.3c-15.3-2.7-23.6-17.2-19.2-31.6c0.1,0,0.2,0,0.3,0
		c3.1-0.3,5.8-2.2,6.9-5c0.5-1.2,0.7-2.6,0.6-4c1,0.5,2.1,0.7,3.2,0.5c1.5-0.3,3.3-1.7,3.9-3.2c3.6,6.8,16.1,7.4,21.9,2.4
		c0.1,1.4,0.7,2.9,1.8,3.8c1.6,1.4,4.6,2,6.9,1.4c-1.9,4.8-0.5,11.3,4.2,14c-0.2,0.1-0.5,0.3-0.5,0.7
		C928.8,166.5,915.5,175.8,901.2,173.3z M932.2,185.1c-7.5,1.9-13-5.1-13.9-12c0,0,0,0,0,0c2.6-1.3,5-2.9,7-4.9
		c0.7,0.4,1.5,0.5,2.2,0.5c1.2,0,3.4-0.1,4.2-1.2c0.8-1.1,0.3-3.1-0.4-4.1c-0.3-0.5-0.9-1-1.5-1.2c1.7-3,2.8-6.3,3.2-10
		c0-0.1,0-0.2,0-0.3c0.7,0,1.4-0.9,0.8-1.5c-1.8-1.9-3.6-3.4-4.4-6c-0.9-2.8-0.6-5.8,0.4-8.6c0-0.1,0.1-0.1,0.1-0.2
		c0.4-0.5,0.1-1.5-0.7-1.4c-2.1,0.1-3.8,1.4-6,0.6c-2.4-0.8-3.3-3.7-2-5.9c0.2-0.4-0.1-0.8-0.4-0.8c-0.3-0.2-0.7-0.3-1.1,0
		c-3.2,2.7-6.1,4.7-10.5,4.7c-4.2,0-9.8-1.4-11.8-5.5c-0.1-0.3-0.4-0.4-0.7-0.3c-0.3-0.3-0.8-0.3-1,0.1c-0.8,1.4-1,2.9-2.7,3.7
		c-1.4,0.6-2.8,0.1-3.8-0.8c-0.3-0.6-0.7-1.1-1.1-1.5c-0.1-0.2-0.3-0.2-0.5-0.2c-0.5,0-0.9,0.4-0.9,1c0.3,2.2,1.3,3.9,0.6,6.1
		c-0.8,2.5-2.9,4-5.3,4.7c-0.2,0.1-0.3,0.1-0.4,0.3c-0.1,0-0.2,0.1-0.3,0.2c-0.8,1.3-1.5,2.7-2,4.1c-0.5-0.4-1.3-0.6-2-0.4
		c-1.5,0.3-2.6,1.6-3,3c-0.4,1.4,0.1,2.9,1.1,3.9c0.7,0.6,1.9,1.3,3,1.2c0.1,1.2,0.3,2.4,0.6,3.6c-3.1,3.7-8,5-12.8,4.2
		c-7.6-1.4-4.7-9.4-2.3-13.9c0.1-0.1,0.1-0.2,0.1-0.4c0,0,0,0,0.1,0c0.5,0,0.5-0.7,0.1-0.9c-3.6-1.3-6.9-5.2-2.9-8.3
		c2.3-1.9,5.3-1.3,7.8-2.6c0.6-0.3,0.5-1,0-1.3c-0.3-0.1-0.6-0.2-0.9-0.3c-2.2-3.3-3.5-6-2.7-10.3c0.8-4.1,3.2-8.1,6.3-11
		c6.1-5.8,13.7-6.2,20.2-1.2c0.9,0.7,1.9-0.5,1.3-1.4c-0.2-0.2-0.3-0.4-0.5-0.6c0.3-1.3,1.6-3.2,2-3.8c1.2-1.7,3-2.9,5-3.4
		c4.2-1,8.6,1.5,8.6,6.1c0,1.4,2.2,1.7,2.2,0.2c1.6-1.3,3.7-2,5.6-0.8c1.9,1.2,1.5,2.9,2.4,4.6c0.3,0.5,1,0.6,1.4,0.1
		c0.1-0.1,0.1-0.2,0.1-0.2c0.1,0,0.2,0,0.4-0.1c5.5-4.1,12.9-3,18.2,1c6.2,4.6,7.2,11.4,4.5,18.3c-0.3,0.8,0.6,1.4,1.2,1.1
		c3.7,0.4,6.8,3,6.5,7.1c-0.3,4-3.3,5.4-6.4,7c-0.2,0.1-0.4,0.3-0.4,0.6c0,0,0,0.1,0,0.1c0,0,0,0,0,0.1c0,0,0,0.1,0,0.1
		c0,0.5,0.2,0.9,0.8,0.9c0.1,0,0.1,0,0.2,0c4.4,2.5,7.1,7.3,5.3,12.4c-2,5.4-6.8,6.1-11.8,6c-0.9,0-1.2,1.1-0.4,1.6
		c0.4,0.2,0.8,0.4,1.3,0.5C945.5,173.5,938.8,183.5,932.2,185.1z M926.8,166.7c0.9-1,1.7-2.1,2.4-3.2c0.3,0.3,0.6,0.5,0.8,0.9
		c0.3,0.7,0.7,1.9-0.2,2.2c-0.7,0.3-1.8,0.3-2.5,0.2C927.1,166.8,927,166.8,926.8,166.7z M878.3,150.8c-0.4,0-0.8-0.1-1.2-0.3
		c-0.7-0.4-1.3-1.2-1.2-2.1c0-0.8,0.5-1.6,1.2-2.1c0.5-0.3,1.4-0.6,1.9-0.2C878.6,147.6,878.4,149.2,878.3,150.8z"/>
	<path id="XMLID_97_" class="st0" d="M897.2,140.3c-0.7-0.9-1.9-1.3-3-1c-0.3-0.3-0.5-0.5-0.7-0.9c-0.2-0.4-0.3-0.8-0.7-1
		c-0.4-0.2-0.8,0-0.9,0.4c-0.1,0.8,0.6,1.5,1.3,1.9c-0.1,0.1-0.3,0.2-0.4,0.3c-0.5-0.5-1-0.9-1.7-1.2c-0.6-0.2-1.1,0.5-0.7,1
		c0.4,0.6,1,1,1.7,1.4c-0.2,0.8,0,1.6,0.4,2.3c0.3,0.4,0.7,0.7,1.1,0.8c0.6,0.4,1.2,0.5,1.9,0.4
		C897.4,144.6,898.4,141.9,897.2,140.3z"/>
	<path id="XMLID_96_" class="st0" d="M924.4,148.9c-0.5,0-0.8,0.3-1.3,0.4c-0.4,0.1-0.8,0-1.1,0c0-0.1-0.1-0.2-0.1-0.3
		c0.8-0.2,1.5-0.5,2-1.1c0.2-0.2,0.2-0.5,0.1-0.7c-0.1-0.3-0.5-0.5-0.8-0.4c-0.3,0.1-0.6,0.4-0.8,0.6c-0.4,0.3-0.8,0.5-1.2,0.6
		c-0.8-0.7-2-0.9-3-0.5c-1.1,0.5-1.7,1.7-1.4,2.8c0,0.1,0.1,0.2,0.1,0.3c0,0,0,0.1,0,0.1c0.2,1.1,1.2,1.9,2.3,2.1
		c1.2,0.2,2.2-0.5,2.7-1.5c0.1-0.2,0.2-0.5,0.2-0.8c0.4,0.1,0.8,0.2,1.2,0.1c0.6,0,1.3-0.1,1.7-0.6
		C925.1,149.6,924.9,148.9,924.4,148.9z"/>
	<path id="XMLID_95_" class="st0" d="M906.1,155.8c-0.9,0-2.2-0.1-2.1-1.3c0.2-1.2,1.5-1.2,2.4-1c0.6,0.2,1.1-0.5,0.7-1
		c-0.7-1.1-2-1.4-3.2-1c-1.2,0.4-2,1.5-2.2,2.7c-0.1,1.2,0.4,2.3,1.4,3c1,0.6,2.4,0.8,3.3-0.1C906.9,156.7,906.9,155.8,906.1,155.8z
		"/>
	<path id="XMLID_94_" class="st0" d="M913.1,162.1c0.2-0.8-0.9-1.1-1.4-0.8c-3.3,2-5.5,4.4-9.8,3.2c-3.9-1.1-6.9-4.6-7.1-8.7
		c-0.1-0.9-1.5-1-1.8-0.2c-1.6,5.4,3.1,10.3,8.1,11.7C905.3,168.6,912.1,167.1,913.1,162.1z"/>
	<path id="XMLID_104_" class="st0" d="M892.5,146.9c-0.1,0-0.1,0-0.2,0c-1.8-1.2-4.2-2.2-5.9-0.2c-1.6,1.9-0.1,4,1.8,4.9
		c1.8,0.8,5.6,1.4,7-0.4C896.6,149.3,894.3,147.1,892.5,146.9z M892.7,150.7c-1.1,0.3-2.8-0.1-3.8-0.5c-1.4-0.6-2.6-2.6-0.1-3
		c1.1-0.2,2.4,0.3,3.4,0.7c0.4,0.3,0.8,0.5,1.2,0.8c0.7,0.3,0.8,0.7,0.2,1.3C893.6,150.5,893.3,150.8,892.7,150.7z"/>
	<path id="XMLID_103_" class="st0" d="M920.7,156.6c-1.5-1.4-4-2.1-5.7-0.5c-0.7,0.6-1.1,1.5-0.8,2.4c0.3,1.1,1.7,1.6,2.7,2
		c1.7,0.8,4.7,2.4,6.4,0.7C925.2,159.2,922.5,157.1,920.7,156.6z M920.6,160.1c-1-0.2-1.9-0.7-2.8-1.1c-0.3-0.1-1.3-0.4-1.5-0.7
		c0-0.4,0-0.8-0.1-1.2c0.4-0.3,0.8-0.4,1.3-0.4c0.8-0.1,1.5,0.2,2.2,0.5c0,0.2,0.1,0.4,0.4,0.6c0.3,0.1,0.5,0.2,0.8,0.3
		c0.8,0.2,1.1,0.9,0.8,2.1C921.4,160.4,920.9,160.2,920.6,160.1z"/>
	<path id="XMLID_89_" class="st0" d="M881.9,130.2c-1.1,0.1-2.3-0.4-2.7-1.6c-0.3-1,0.3-2.1,1.1-2.6c0.5,0.7,1.2,1.2,2,1.3
		c0.5,0,0.7-0.6,0.3-0.9c-0.5-0.5-1.1-0.7-1.6-1.2c-0.1-0.2-0.3-0.3-0.4-0.5c0-0.1-0.1-0.3-0.2-0.3c-0.2-0.3-0.3-0.7-0.3-1.1
		c-0.1-0.6-0.9-0.4-0.9,0.2c0,0.3,0.1,0.6,0.2,0.9c-1.8,0.4-3.8,0.5-4.7-1.4c-0.8-1.7,1.4-4.6,3.4-4.9c0.3,0.3,0.6,0.5,1,0.7
		c0.6,0.3,1-0.5,0.7-1c-0.7-1-1.1-2.3-0.2-3.3c0.9-1,2.6-0.7,3.4,0.2c0.4,0.4,1.2,0,0.9-0.5c-1-2-3.8-2.5-5.5-0.9
		c-0.9,0.9-1.3,2.4-0.9,3.6c-2.3,0.3-4.9,3.6-4.7,5.5c0.2,2.7,2.9,4.4,5.4,4c-0.5,0.8-0.8,1.8-0.5,2.8c0.5,1.8,2.7,3,4.4,2.2
		C882.9,131,882.5,130.2,881.9,130.2z"/>
	<path id="XMLID_88_" class="st0" d="M928.8,120.5c-0.8-0.6-1.7-0.5-2.6-0.2c0-2.1-2.3-3.8-4.3-3.8c-1.6,0-3,1-3.7,2.3
		c-0.5-2-2.7-3.7-4.7-3.8c-1.2,0-3.9,0.8-5.1,2.2c-0.4-1.4-1.8-2.7-3.2-2.8c-1.9-0.2-4.8,1.8-3.1,3.8c0.2,0.3,0.7,0.1,0.6-0.3
		c-0.4-1.6,1.4-2.5,2.7-2.1c1.6,0.4,1.6,1.8,1.5,3.1c-0.4,0-0.8,0-1.2,0.1c-0.7,0.1-0.5,1,0.2,1c0.7-0.1,1.4,0.1,2.1,0.3
		c0.6,0.2,1,0.7,1.6,0.7c0.4,0,0.7-0.4,0.5-0.7c-0.2-0.5-0.6-0.8-1.1-1c-0.7-1.9,3.4-2.9,4.6-2.7c2.3,0.3,3.2,2.4,2.6,4.4
		c-0.2,0.8,0.7,1.3,1.3,0.7c0.2-0.3,0.4-0.5,0.5-0.8c0.2,0.1,0.4,0,0.5-0.2c0.6-1.3,1.9-2.6,3.4-2.4c1.6,0.1,2.3,1.4,2.9,2.7
		c0,0,0,0.1,0.1,0.1c-0.2,0.2-0.4,0.4-0.6,0.6c-0.4,0.6,0.4,1.5,1,0.9c0.4-0.4,0.8-0.7,1.3-0.8c0.5-0.1,1,0,1.6,0
		C929,121.8,929.5,120.9,928.8,120.5z"/>
	<path id="XMLID_87_" class="st0" d="M943.6,138.8c-1.1,0.5-2.3,1.3-3.4,0.4c-0.7-0.5-0.7-1.1-0.4-1.6c0.4-0.1,0.8-0.3,1.2-0.6
		c0,0,0-0.1,0.1-0.1c0.6,0.7,1.4,1.1,2.3,1.1c0.5,0,0.6-0.8,0.3-1.1c-0.5-0.4-1-0.6-1.5-1c-0.2-0.2-0.4-0.4-0.6-0.6
		c-0.1-0.1-0.1-0.2-0.2-0.2c0,0,0-0.1,0-0.2c0.1-0.4-0.4-0.6-0.7-0.5c-0.6,0.2-0.6,0.8-0.4,1.3c-0.3,0-0.6,0.1-0.9,0.2
		c-0.8,0-1.5,0-2.1-0.6c-1-1-0.5-2.8,1.1-2.5c0.5,0.1,0.6-0.6,0.2-0.8c-2.1-1.1-3.9,1.2-3.3,3.2c0.4,1.3,1.5,2.1,2.8,2.4
		c-0.2,0.7-0.1,1.5,0.3,2.2c1.3,2.2,4.9,2.3,6.3,0.1C944.9,139.3,944.3,138.5,943.6,138.8z"/>
	<path id="XMLID_86_" class="st0" d="M872.2,152.8c-2.9,1.4-4.3-2.7-1.3-3.1c0.8-0.1,0.7-1.2-0.1-1.4c-1.7-0.4-2.9-2.4-1.8-4
		c0.8-1.1,2.1-1.3,3.3-1.3c0,0,0,0,0.1,0c0.1,0.3,0.2,0.6,0.4,0.9c0.3,0.5,1.2,0.1,1.1-0.5c-0.2-0.9-0.1-1.7,0.6-2.3
		c0.9-0.7-0.3-2.2-1.1-1.4c-0.6,0.6-1,1.4-1.1,2.3c-2-0.8-4.4,0.5-5,2.6c-0.4,1.7,0.4,3.4,1.7,4.3c-1.2,0.9-1.8,2.4-1.1,3.8
		c0.9,1.8,3.5,2,4.8,0.6C873,153.1,872.6,152.6,872.2,152.8z"/>
	<path id="XMLID_25_" class="st0" d="M936.9,174.5c0.5-0.6,0.9-1.5,0.5-2.2c-0.2-0.4-0.7-0.5-1-0.1c-0.4,0.5-0.4,1.1-0.7,1.7
		c0,0,0,0,0,0c-0.2,0.1-0.3,0.2-0.3,0.4c-0.3,0.3-0.7,0.6-1.2,0.7c-0.6,0.2-0.3,1.1,0.3,1c0.6-0.1,1.1-0.3,1.5-0.6
		c0.5,0.8,0.7,1.8,0,2.6c-1,1.3-2.9,0.9-3.6-0.6c-0.3-0.7-1.6-0.6-1.5,0.3c0,1.1-0.7,2.3-1.9,2.4c-1.9,0.2-2.4-2.2-1.9-3.6
		c0.2-0.4-0.4-0.7-0.7-0.4c-1.5,1.8-0.6,4.7,1.7,5.3c1.7,0.5,3.4-0.6,4.1-2c1.4,1,3.4,1.2,4.7-0.1
		C938.1,178.2,938.2,175.8,936.9,174.5z"/>
</g>
<g id="XMLID_106_">
	<path id="XMLID_112_" class="st0" d="M881.2,218.4c-0.7,0.4-0.6,1.5,0.2,1.7c0.9,0.2,1.9-0.1,2.7,0.6c0.6,0.5,0.7,1.4,0.5,2.1
		c-0.5,1.8-2.5,2.6-4.2,2.4c0.5-5.9-0.1-12-1.4-16.9c0-0.2-0.1-0.3-0.2-0.4c0.2-0.2,0.3-0.4,0.3-0.6c0.4,0.2,0.9,0.2,1.3-0.2
		c1.4-1.4,1.9-3,1.9-4.5c0.6,0.2,1.3-0.1,1.4-1c0.6-8.4-3.4-16.7-9.7-22.1c-6.9-5.9-16.1-7.4-24.9-7.3c1.7-5.2-4.7-9.7-9.5-7.8
		c-3.6,1.4-6.2,7.3-3.9,10.4c-12.9,5.5-21.7,18.9-16.3,33.7c-1.4,3.3-1.3,7,2.1,8.9c0.3,0.2,0.7-0.2,0.5-0.5c-1.8-2.8-2-5.2-1.2-7.3
		c0.1,2,1,4,2.3,5.4c-0.3-0.1-0.6,0.1-0.7,0.4c-0.7,3.3-0.8,6.5-0.3,9.6c-2.9,0.3-4.9,3.3-3.6,6.2c1,2.3,4.5,3.2,6.3,1.6
		c5.3,9.9,17,16.6,28.7,16.7c8.1,0.1,18.4-2.1,22.8-9.7c2.1-3.7,3.4-8.3,3.9-13.2c2.8,0.7,5.9-0.7,6.6-3.7
		C887.7,219.7,884.3,216.8,881.2,218.4z M840.5,166.6c1.8-0.7,4-0.3,5.3,1.2c1.2,1.3,1.1,2.8,1,4.4c-3.2,0.1-6.3,0.8-9.3,1.8
		C836.3,171.4,837.7,167.7,840.5,166.6z M820.4,206.5c-1-8.4,0.7-17,6.7-23.4c3.1-3.3,6.8-5.4,10.8-6.7c0.1,0,0.1,0.1,0.2,0.1
		c0.3,0.1,0.6-0.1,0.7-0.4c3.1-0.9,6.4-1.3,9.7-1.3c8.2-0.1,17,1.1,23.5,6.6c5.4,4.6,8.3,10.8,9.3,17.7c-1.1-1.8-2.9-3.4-4.9-4.3
		c-7.1-3.1-16-2.4-23.9-0.9c-0.4-0.5-1.3-0.5-1.3,0.3c-1.2,0.2-2.3,0.5-3.4,0.8c-5.1,1.2-10.1,2.7-15.1,4.3c-3.5,1.1-7.1,2.3-10,4.7
		C821.8,204.6,821.1,205.5,820.4,206.5z M874.4,197c-0.1,0.1-0.1,0.1-0.2,0.2c-0.9,1.4-1.2,3.3-1.5,5c-0.9-0.3-1.8-0.6-2.7-0.8
		c0.1-1,0.2-2.1,0.4-3.1c0.2-0.7,0.4-1.5,0.5-2.2C872.2,196.4,873.3,196.6,874.4,197z M868.8,201.2c-1.2-0.2-2.4-0.3-3.6-0.4
		c0-1.8,0.3-3.6,0.3-5.5c1.1,0.1,2.5,0.3,3.8,0.5C868.6,197.4,868.5,199.5,868.8,201.2z M863.9,200.8c-1.2,0-2.4,0-3.6,0.1
		c0,0,0,0,0,0c-0.2-1.3-0.4-2.5-0.6-3.8c-0.1-0.5-0.1-1.1-0.1-1.6c1-0.1,2-0.1,3-0.1c0.4,0,0.9,0,1.5,0
		C863.6,197,863.7,199,863.9,200.8z M859.1,200.9c-1.7,0.1-3.4,0.3-4.9,0.5c-0.2-1.7-0.4-3.6-0.9-5.3c1.5-0.2,2.9-0.4,4.4-0.6
		C857.8,197.3,858.5,199.3,859.1,200.9z M848.5,197c1-0.2,2-0.4,2.9-0.6c0.3,1.7,0.9,3.5,1.4,5.2c-1.3,0.2-2.7,0.4-4,0.7
		C848.9,200.7,848.9,198.7,848.5,197z M847.8,202.5c-1.2,0.3-2.3,0.5-3.5,0.9c-0.1-1.1-0.3-2.2-0.5-3.3c-0.1-0.6-0.2-1.3-0.3-1.9
		c0.5-0.1,1-0.3,1.5-0.4c0.7-0.2,1.3-0.3,2-0.5c0.1,0.6,0.2,1.1,0.3,1.6C847.5,200.2,847.6,201.4,847.8,202.5z M843.3,203.7
		c-1.3,0.4-2.5,0.8-3.8,1.2c-0.2-1.8-0.4-3.7-1-5.3c1.3-0.3,2.5-0.7,3.6-0.9C842.2,200.3,842.9,202.2,843.3,203.7z M838.4,205.3
		c-0.9,0.4-1.9,0.7-2.8,1.1c-0.5,0.2-1,0.4-1.5,0.7c-0.1-1.9-0.2-3.9-0.9-5.7c0-0.1-0.1-0.2-0.1-0.2c1.4-0.5,2.9-1,4.3-1.4
		C837.4,201.7,837.9,203.6,838.4,205.3z M822.1,207.7c0,0,0-0.1,0-0.1c0.4-0.5,0.9-1,1.5-1.4c-0.1,1.9,0.6,3.9,1.8,5.3
		c0.4,0.5,1-0.1,0.8-0.6c-0.9-1.9-1.2-3.6-1.4-5.6c1-0.7,2.1-1.3,3.2-1.9c0,0,0,0,0,0.1c-0.1,1.9,0.2,3.7,1,5.4
		c0.2,0.5,0.9,0.1,0.8-0.3c-0.3-1.7-0.6-3.4-0.8-5.1c0-0.2-0.1-0.3-0.3-0.4c1.1-0.5,2.3-1,3.5-1.4c0,0,0,0,0,0c-0.1,2,0.4,4,0.9,5.9
		c-3.5,1.5-7.2,3.4-9.5,6.3C822.7,211.8,822.3,209.9,822.1,207.7z M820.2,229.9c-0.5-1.7,0.7-3.1,2.2-3.7c0.4,1.6,0.9,3.1,1.5,4.6
		C822.6,231.8,820.8,231.9,820.2,229.9z M875.5,234.9c-3,9.3-13.1,11.9-21.9,11.8c-17.3-0.2-30.4-13.8-30-31.1
		c0-0.1-0.1-0.3-0.1-0.4c0.4,0,0.7-0.4,0.5-0.8c0,0,0-0.1,0-0.1c4.2-1.2,8.2-4.1,12.3-5.8c4.4-1.8,8.9-3.1,13.5-4
		c4.7-0.9,9.5-1.4,14.2-1.2c5.2,0.2,8.9,1.8,13.3,4.4c-0.2,0.2-0.4,0.4-0.4,0.8C877.3,217.4,878.3,226.3,875.5,234.9z M878.5,206.1
		c-0.5-0.6-1.1-1.2-1.7-1.7c0.8-1.4,1.7-3.1,1.6-4.7c0-0.7-1-1-1.3-0.4c-0.4,0.7-0.5,1.6-0.7,2.3c-0.2,0.7-0.5,1.3-0.7,1.9
		c-0.4-0.3-0.8-0.5-1.2-0.7c0.5-1.7,1.2-3.6,1.1-5.4c0-0.1,0-0.1,0-0.2c4,1.5,6.6,4,3.3,8C878.6,205.6,878.5,205.9,878.5,206.1z"/>
	<path id="XMLID_111_" class="st0" d="M843,216c0,0-0.1-0.6-0.1-0.3c-0.1-0.9-0.7-1.6-1.6-1.6c-0.9,0-1.6,0.7-1.6,1.6
		c0,1.1,0,2.2,0,3.3c0,2.1,3.2,2.1,3.2,0c0-0.7,0-1.5,0-2.2c0,0,0,0,0,0C843,216.5,843,216.3,843,216z"/>
	<path id="XMLID_110_" class="st0" d="M866.7,214.3c0-0.5-0.2-0.9-0.5-1.2c-0.1-0.1-0.3-0.3-0.5-0.3c-0.6-0.3-1.2-0.2-1.7,0.2
		c-0.6,0.6-0.6,1.3-0.5,2c0,0.2,0,0.5,0,0.7c0,0.3,0,0.7,0,1c0,0.9,0.8,1.6,1.6,1.6c0.9,0,1.5-0.7,1.6-1.6
		C866.8,216.2,866.9,215.2,866.7,214.3z"/>
	<path id="XMLID_109_" class="st0" d="M858.2,224.4c-0.1-0.6-0.8-0.7-1.3-0.5c-1.1,0.5-1.3,2-2.4,2.6c-0.4,0.2-1.1,0.4-1.5,0.1
		c-0.4-0.2-0.6-1-0.3-1.4c0.4-0.5-0.1-1.3-0.7-0.9c-2.1,1.2-1,4.2,1.2,4.5c1.2,0.2,2.4-0.2,3.3-1
		C857.5,226.9,858.4,225.6,858.2,224.4z"/>
	<path id="XMLID_108_" class="st0" d="M868.4,225.4c-0.1-1.5-2.4-2-2.8-0.4c-1.6,6.4-4.4,11-11.7,11.4c-5.4,0.3-11.1-1.1-13.7-6.2
		c-0.5-1-2.2-0.3-1.9,0.8C842.5,245.7,869.3,241.1,868.4,225.4z"/>
</g>
<g id="XMLID_129_">
	<path id="XMLID_134_" class="st0" d="M824.4,227.3c-0.6-0.4-1.7-0.9-2.7-1c1.1-7,0.7-14.2-1.3-20.6c-0.1-0.4-0.5-0.6-0.8-0.6
		c0.3-0.3,0-0.9-0.4-0.7c-0.1,0-0.2,0-0.2,0.1c-6-7.9-9.1-20.9-18.9-25.1c-4.9-2.1-10.6-1.6-15.4,0.5c-5.4,2.3-18.3,11.3-21.1,0.6
		c-0.2-0.8-1.6-0.7-1.5,0.2c0.5,4.1,3.7,6.4,7.7,6.9c7.1,0.9,12.7-5.3,19.3-6.7c15.7-3.5,18.1,11.3,25.4,20.6
		c-2.7-3-4.4-6.9-7.4-9.7c-3.8-3.7-8.8-6-14-6.7c-5.1-0.7-10.2,0.1-14.8,2.4c-5.4,2.8-15.7,10.7-19.7,1.5c-0.4-0.9-1.6-0.2-1.5,0.6
		c0.9,4.5,5.9,6.3,10.1,5.7c7.2-1.1,12.2-7.3,19.6-8.1c8-0.9,16.2,2.5,21.1,8.9c1.9,2.5,3.6,5.8,6.1,8c-8.8-4-14.3-14.2-24.2-15.8
		c-3.7-0.6-7.1,0.6-10.3,2.4c-5,2.8-11.8,8.3-17.8,6.7c-0.9-0.2-1.5,1.1-0.6,1.5c3.6,1.9,7.2,0.1,10.6-1.5
		c5.1-2.4,10.5-7.4,16.4-7.2c10.9,0.3,15.8,13.7,26.5,14.9c-10.3-0.4-17.1-12.2-27.9-12.4c-5.3-0.1-10.3,2.5-14.4,5.7
		c-0.9,0.7-1.7,1.4-2.5,2.1c-2.4,2-3.1,2.5-6.4,2.4c-2.3,0.7-3.7-0.1-4.3-2.4c-0.2-0.7-0.4-1.4-0.5-2.1c-0.2-1.5-0.3-3-0.4-4.5
		c0-0.9-1.2-0.8-1.3,0c-0.5,4.1-0.4,9.9,4.2,11.7c6.2,2.3,12-5.9,16.6-8.5c9.9-5.4,16.9,0.4,25,5.6c3,1.9,6.5,3.6,10,4
		c-9.8,1-18.8-9.1-29.1-7.6c-5.8,0.8-9.5,5.4-14.5,8c-9.2,4.8-13.1-2.9-15.7-10.2c-0.4-1-1.9-0.6-1.6,0.5c1,4.9,3.1,10.8,8.1,12.9
		c1.2,0.5,2.3,0.7,3.4,0.8c0,0,0,0,0,0c-1.1,4.1-1.8,8.6-1.9,13.1c-0.8-0.1-1.6,0-2.3,0.3c-1.5,0.7-2.4,2.3-2.3,3.9
		c0.1,1.7,1.1,3.1,2.7,3.7c0.8,0.3,1.7,0.3,2.5,0.1c0.7,4.2,2,8.1,4.2,11.6c5.5,8.6,15,13.9,25.2,13.7c15-0.3,24.8-11,28.9-24
		c2,1.6,5.3,0.6,5.8-2.2C826.2,229.7,825.6,228.2,824.4,227.3z M760,230.2c-1-0.3-1.5-1.2-1.5-2.1c0-0.9,0.4-1.7,1.3-2.1
		c0.5-0.2,0.9-0.3,1.4-0.3c0,1.5,0.1,3.1,0.3,4.6C761,230.3,760.5,230.4,760,230.2z M815.7,238.2c-4.5,9.7-13.6,16.5-24.5,16.8
		c-9.8,0.3-19-5-23.8-13.6c-5.3-9.5-2.7-19.9-3-30.2c0-0.1,0-0.2,0-0.2c4.7-0.4,8.9-4,12.7-6.6c9.2-6.3,16.7-0.6,25.6,2.7
		c5.3,2,11.4,2.9,16-0.9C818.8,217.3,820.5,227.6,815.7,238.2z M820.5,231.8c0.3-1.1,0.6-2.3,0.8-3.4c0.3,0,0.6,0,0.9,0.1
		c0.9,0.2,1.6,0.8,1.7,1.8C824,232.2,821.9,232.8,820.5,231.8z"/>
	<path id="XMLID_133_" class="st0" d="M794.4,234.5c-0.1-0.8-1.5-1-1.8-0.2c-0.3,0.6-0.5,1.3-1.1,1.6c-0.6,0.3-1.2,0.1-1.6-0.5
		c-0.9-1.2,0.5-2.6,1.8-2.3c0.8,0.2,1.4-1,0.6-1.4c-3.1-1.4-6.2,1.9-4.4,4.9c0.8,1.3,2.4,2,4,1.6
		C793.5,237.7,794.7,236.1,794.4,234.5z"/>
	<path id="XMLID_132_" class="st0" d="M797.6,241.8c-0.3-1.4-2.7-1.1-2.5,0.3c0.4,3-1.6,5.8-4.9,5.2c-2.9-0.5-3.8-3.1-4.8-5.5
		c-0.1-0.3-0.7-0.5-0.9-0.1c-1.9,3.8,2.2,7.9,5.8,8.3C795,250.5,798.6,246.3,797.6,241.8z"/>
	<path id="XMLID_131_" class="st0" d="M776.1,226.9C776.1,226.9,776.1,226.9,776.1,226.9c0-0.5,0-0.9,0-1.3c0-0.4-0.1-0.7-0.3-1
		c-0.2-0.4-0.6-0.7-1.1-0.8c-0.8-0.1-1.4,0.4-1.7,1.1c-0.4,1-0.6,2-0.4,3.1c0,0,0,0,0,0c0,0.1,0,0.1,0,0.2c0,0,0,0,0,0
		c0.1,0.3,0.2,0.6,0.5,0.8c0.6,1.4,3.1,1.2,3.1-0.7c0-0.3,0-0.6,0-0.9C776.1,227.3,776.1,227.1,776.1,226.9z"/>
	<path id="XMLID_130_" class="st0" d="M808.2,226.1c0,0,0-0.1,0-0.1h0c0-0.1,0-0.3,0-0.4c0-0.3-0.2-0.5-0.4-0.7
		c-0.1-0.7-0.7-1.3-1.5-1.3c-0.8,0-1.6,0.7-1.5,1.5c-0.1,1.1-0.1,2.1-0.1,3.2c0,0.8,0.6,1.5,1.4,1.6c0.9,0.1,1.5-0.4,1.8-1.2
		C808.2,227.8,808.3,227,808.2,226.1z"/>
</g>
<g id="XMLID_128_">
	<path id="XMLID_143_" class="st0" d="M857.5,155.8c-0.4-0.4-1.2-0.9-2-1.1c1.7-5.4,2.2-11.2,1.4-16.5c-0.1-0.3-0.3-0.5-0.6-0.6
		c0.3-0.2,0.1-0.7-0.2-0.6c-0.1,0-0.1,0-0.2,0c-3.8-7-4.8-17.7-12.1-22.2c-3.7-2.2-8.2-2.5-12.3-1.4c-4.6,1.2-15.9,6.8-16.8-2
		c-0.1-0.7-1.2-0.7-1.2,0c-0.1,3.3,2.2,5.5,5.3,6.4c5.5,1.6,10.7-2.7,16.1-3.1c12.9-1,13.1,11.1,17.7,19.4c-1.8-2.7-2.7-6-4.7-8.6
		c-2.6-3.4-6.3-5.8-10.3-7c-4-1.2-8.1-1.2-12,0.2c-4.7,1.6-13.7,6.7-15.8-1.2c-0.2-0.7-1.3-0.4-1.2,0.3c0.2,3.7,3.9,5.7,7.3,5.7
		c5.8,0,10.5-4.4,16.5-4.2c6.5,0.2,12.6,3.9,15.7,9.6c1.2,2.2,2.2,5.1,3.9,7.1c-6.5-4.2-9.7-13-17.3-15.4c-2.9-0.9-5.7-0.3-8.5,0.7
		c-4.3,1.6-10.3,5.2-14.9,3.3c-0.7-0.3-1.3,0.7-0.7,1.1c2.6,1.9,5.7,1,8.6,0.1c4.3-1.3,9.2-4.6,13.9-3.8c8.6,1.5,11,12.8,19.3,15
		c-8.1-1.5-12.2-11.7-20.7-13.1c-4.2-0.7-8.5,0.7-12.1,2.8c-0.8,0.4-1.5,0.9-2.3,1.4c-2.1,1.3-2.8,1.7-5.4,1.1
		c-1.9,0.3-2.9-0.5-3.1-2.4c-0.1-0.6-0.2-1.1-0.1-1.7c0-1.2,0.1-2.4,0.2-3.6c0.1-0.7-0.9-0.8-1-0.2c-0.9,3.2-1.5,7.8,2,9.8
		c4.7,2.6,10.2-3.3,14.2-4.8c8.5-3.1,13.4,2.3,19.2,7.4c2.2,1.9,4.7,3.7,7.5,4.3c-7.9-0.3-13.9-9.4-22.2-9.5
		c-4.7,0-8.2,3.2-12.4,4.7c-7.9,2.8-10.1-3.8-11.3-9.9c-0.2-0.9-1.4-0.7-1.4,0.2c0.3,4,1.2,8.9,4.9,11.2c0.9,0.5,1.7,0.8,2.6,1
		c0,0,0,0,0,0c-1.4,3.1-2.4,6.6-3.1,10.2c-0.6-0.2-1.3-0.2-1.9-0.1c-1.3,0.3-2.2,1.5-2.3,2.8c-0.1,1.3,0.5,2.6,1.7,3.3
		c0.6,0.3,1.3,0.5,2,0.4c0.1,3.4,0.7,6.7,2,9.7c3.3,7.5,10.3,12.8,18.4,13.8c12,1.5,21-5.8,25.8-15.7c1.4,1.5,4.1,1.1,4.9-1
		C858.7,157.9,858.4,156.6,857.5,155.8z M806,150.5c-0.7-0.3-1-1.1-0.9-1.9c0.1-0.7,0.6-1.3,1.3-1.6c0.4-0.1,0.8-0.1,1.1-0.1
		c-0.2,1.2-0.3,2.4-0.3,3.7C806.8,150.8,806.4,150.7,806,150.5z M849.2,163.4c-4.7,7.2-12.8,11.5-21.4,10.5
		c-7.8-0.9-14.5-6.2-17.3-13.6c-3.1-8.2,0.2-16.1,1.2-24.4c0-0.1,0-0.1,0-0.2c3.7,0.2,7.5-2.1,10.8-3.8c8.1-3.9,13.3,1.5,20,5.2
		c4,2.2,8.7,3.6,12.8,1.2C854.2,147.2,854.3,155.6,849.2,163.4z M853.9,158.9c0.4-0.9,0.7-1.7,1-2.6c0.2,0.1,0.5,0.1,0.7,0.2
		c0.7,0.3,1.2,0.8,1.1,1.6C856.6,159.6,854.8,159.9,853.9,158.9z"/>
	<path id="XMLID_142_" class="st0" d="M832.8,158c0-0.6-1.1-1-1.4-0.4c-0.3,0.5-0.5,0.9-1.1,1.1c-0.5,0.2-1-0.1-1.2-0.6
		c-0.5-1.1,0.7-2,1.7-1.6c0.6,0.2,1.3-0.7,0.6-1.1c-2.3-1.5-5.1,0.8-4,3.4c0.5,1.2,1.7,1.9,3,1.7C831.7,160.4,832.9,159.3,832.8,158
		z"/>
	<path id="XMLID_141_" class="st0" d="M834.5,164.1c-0.1-1.1-2-1.2-2.1,0c0,2.5-2,4.5-4.5,3.6c-2.3-0.8-2.7-2.9-3.2-4.9
		c-0.1-0.3-0.5-0.5-0.7-0.2c-2,2.8,0.8,6.5,3.7,7.3C831.4,170.8,834.7,167.9,834.5,164.1z"/>
	<path id="XMLID_140_" class="st0" d="M819.2,149.8C819.2,149.8,819.2,149.8,819.2,149.8c0.1-0.4,0.1-0.7,0.2-1c0-0.3,0-0.6-0.1-0.8
		c-0.1-0.4-0.4-0.6-0.8-0.7c-0.7-0.2-1.2,0.1-1.5,0.7c-0.4,0.7-0.7,1.6-0.7,2.4c0,0,0,0,0,0c0,0,0,0.1,0,0.1c0,0,0,0,0,0
		c0,0.2,0.1,0.5,0.3,0.7c0.3,1.2,2.3,1.3,2.5-0.2c0-0.2,0.1-0.5,0.1-0.7C819.1,150.1,819.1,150,819.2,149.8z"/>
	<path id="XMLID_139_" class="st0" d="M844.7,152.9C844.8,152.9,844.8,152.9,844.7,152.9L844.7,152.9c0-0.2,0-0.3,0-0.4
		c0-0.2-0.1-0.4-0.2-0.6c0-0.6-0.4-1.1-1-1.2c-0.6-0.1-1.3,0.4-1.4,1c-0.2,0.8-0.3,1.7-0.5,2.5c-0.1,0.6,0.3,1.3,0.9,1.4
		c0.7,0.2,1.2-0.1,1.5-0.7C844.5,154.3,844.7,153.6,844.7,152.9z"/>
</g>
<g id="XMLID_149_">
	<path id="XMLID_154_" class="st0" d="M953.9,183.6c-6.5-5.1-16.8-5.9-22.1,1.1c-0.4-0.1-0.9-0.2-1.3-0.2c-2.2-5.2-7.8-8.5-13.7-9.8
		c-0.2-0.2-0.5-0.4-0.8-0.6c-0.4-0.2-0.8-0.1-1.1,0.1c0,0-0.1,0.1-0.1,0.1c-2-0.3-4-0.4-5.9-0.2c-11.6,1-21.9,8.3-23.1,20.4
		c0,0.2,0.1,0.3,0.2,0.4c-0.9,3.5-1.6,7.4-1.9,11.3c-2.5-1.1-5.1,1.3-4.7,4c0.2,1.5,1.3,2.7,2.7,3.2c0.6,0.2,1.3,0.3,2,0.3
		c0.3,4,1.2,7.8,2.8,11.1c3.8,8,12.1,13.5,20.9,13.7c9.2,0.2,17.9-5,22.1-13.1c2-3.8,3-7.8,3.4-11.9c1,0.5,2.4,0.3,3.3-0.3
		c1.5-0.9,2.2-2.7,1.9-4.4c-0.2-1.6-1.3-3.2-2.9-3.6c-0.8-0.2-1.6-0.1-2.2,0.3c-0.3-4.3-0.9-8.5-1.7-12.7c0.2-0.3,0.1-0.6-0.1-0.9
		c1.3-0.3,2.3-1.6,2.6-2.9c1.9,2.6,3.6,5.3,4.7,8.4c1.1,3.1,1.3,6.3,1.8,9.6c0.2,1.1,1.7,0.7,1.8-0.2c0.6-6.3-2.5-13.6-7-18.2
		c9,2.9,13.3,13.1,14.1,21.9c0.1,1.1,1.5,1,1.6,0c1.3-9.8-6.6-22.6-17-23.5c-0.2-0.5-0.4-0.9-0.8-1.3c2.8,0.2,5.7-0.1,8.4,0.8
		c3.7,1.1,6.8,3.8,8.9,7c4.4,6.4,4.3,14.1,4.5,21.6c0,1.1,1.5,1,1.7,0c1.1-8.3,0-17.8-5.5-24.5c-4-4.9-10.4-7.9-16.6-6.7
		c6.6-4,14.7-2.2,20.3,3.7c6.1,6.3,7.3,14.3,6.8,22.6c0,0.9,1.4,1.1,1.6,0.2C965.9,200.8,961.6,189.6,953.9,183.6z M884,211.5
		c-0.2,0-0.5,0.1-0.7,0c-0.8-0.1-1.4-0.7-1.7-1.5c-0.5-1.5,1-2.7,2.4-2.3C884,209,884,210.3,884,211.5z M933.5,206.9
		c1.5-1.4,3.4,1.2,3.3,2.8c-0.1,0.9-0.6,1.8-1.5,2c-0.6,0.2-1.2,0-1.8-0.1C933.5,210,933.6,208.5,933.5,206.9z M929.8,190.4
		c-0.5,0.2-0.8,0.7-0.7,1.3c0.1,0.4,0.1,0.8,0.2,1.1c-0.5,0.4-1.1,0.8-1.6,1.1c0.1-5.1-2.1-11.5-6-15.3
		C926,181,929.1,184.8,929.8,190.4z M921.5,184.3c-0.3-1.3-0.8-2.8-1.4-4.3c1.3,1.4,2.5,2.9,3.4,4.6c1.7,3.2,2.4,6.5,2.8,10.1
		c-1.4,0.8-2.8,1.5-4.3,2C922.8,192.7,922.6,188.4,921.5,184.3z M916.3,176.7c1.6,2.2,3.5,8.6,3.7,9.5c0.9,3.7,0.9,7.3,0.6,11
		c-2.1,0.6-4.3,1.1-6.6,1.2c1.8-7,2.2-15.3-0.1-22.2C914.7,176.4,915.5,176.5,916.3,176.7z M910.7,183.1c0.3-1.1,0.9-4.2,1.8-5.8
		c0.4,3.4,1,6.8,1,10.3c0.1,3.7-0.3,7.3-0.8,10.9c-1,0-2.1,0-3.2,0c-0.7,0-1.5-0.1-2.2-0.1c0.8-3.4,1.2-6.9,2-10.4
		C909.8,186.4,910.3,184.8,910.7,183.1z M909.9,178.5c-0.5,1.6-0.8,3.2-1,4.1c-1.5,5-2.9,10.4-3,15.6c-1.5-0.2-3.1-0.4-4.6-0.7
		C904.4,191.3,905.6,184,909.9,178.5z M908.3,177.6c-1.6,2-2.8,4.4-3.8,6.8c-1.3,3-5.3,10-3.3,13c-0.1-0.2-0.3-0.2-0.5-0.1l-0.1,0
		c-0.1,0-0.1,0.1-0.1,0.2c-0.9-0.2-1.8-0.3-2.6-0.5c-0.8-0.2-1.7-0.3-2.5-0.5C898.1,189.9,902,181.7,908.3,177.6z M894.5,196.3
		c-1.1-0.3-2.2-0.6-3.3-1l0-0.1c0-0.1-0.1-0.2-0.2-0.1c1.3-0.7,2.6-5.4,3.3-6.7c1.2-2.2,2.7-4.3,4.5-6.1c1.7-1.7,3.6-2.9,5.6-3.9
		C899.4,183,895.8,190.5,894.5,196.3z M901.4,178c-1.5,1-3,2.2-4.2,3.5c-2.1,2.1-3.7,4.6-4.9,7.3c-0.8,1.8-2.1,4-2.1,6
		c-0.7-0.3-1.3-0.8-2-1.3c0-0.6,0.1-1.2,0.1-1.7c0-0.3-0.2-0.5-0.4-0.6C890.4,185.2,895.3,180.5,901.4,178z M928.8,221.7
		c-3.5,8.8-12,14.9-21.6,14.2c-8.7-0.6-16.5-6.7-19.1-15.1c-2.5-8.2-0.8-17.3,0-25.8c1.6,1.6,3.8,2.4,6.1,3
		c4.8,1.2,9.7,2.1,14.6,2.3c7.3,0.4,15.2-0.8,20.9-5.6C931.1,203.8,932.1,213.1,928.8,221.7z M931.4,189.7c0-1.4-0.1-2.7-0.5-3.9
		c0.1,0,0.1,0,0.2,0.1c0.1,0.3,0.4,0.5,0.7,0.4c0.3,0.3,0.6,0.6,0.7,1c-0.1,0.2,0,0.4,0.1,0.5c0,0.1,0,0.1,0,0.2
		C932.6,189,932.1,189.4,931.4,189.7z"/>
	<path id="XMLID_153_" class="st0" d="M912.6,217.4c-0.8,0.6-2,1.4-3,0.5c-0.9-0.9-0.2-2.4,0.8-2.9c0.7-0.4,0.2-1.4-0.5-1.2
		c-2.4,0.4-3.3,3.7-1.7,5.5c1.5,1.7,5.4,1.4,5.6-1.2C913.9,217.5,913.1,217,912.6,217.4z"/>
	<path id="XMLID_152_" class="st0" d="M917.7,220c-0.8,3.3-2.4,6.4-6,7.4c-3.1,0.8-9.4-0.9-9.3-5.1c0-0.8-1.1-0.9-1.4-0.2
		c-1.5,4.8,5.4,8,9.2,7.9c5.1-0.1,9.6-4.7,9.4-9.8C919.6,219.2,918,218.9,917.7,220z"/>
	<path id="XMLID_151_" class="st0" d="M898.4,210.8c-0.2-1.3-0.3-2.6-0.5-4c-0.3-2.3-3.5-1.9-3.2,0.4l0.5,3.9
		C895.5,213,898.6,212.6,898.4,210.8z"/>
	<path id="XMLID_150_" class="st0" d="M923.4,207.5c-0.1-1.1,0.1-2-0.7-2.9c-0.5-0.5-1.4-0.5-1.9,0c-0.9,0.9-0.7,1.9-0.6,3.1
		c0.1,1.1,0.2,2.3,0.5,3.4c0.4,1.7,3.2,1.3,3-0.4C923.6,209.6,923.4,208.5,923.4,207.5z"/>
</g>
<g id="XMLID_424_">
	<path id="XMLID_422_" d="M488.4,114.7c-0.4-0.2-1-0.4-1.1-1.1c0-0.2,0.1-0.5,0.2-0.5c1-0.6,2-1.1,3-1.6c0.5-0.3,0.9-0.7,1.3-0.9
		c0.2-0.1,0.6-0.2,0.7-0.1c0.3,0.3,0.6,0.7,0.8,1.1c0.1,0.1-0.1,0.4-0.3,0.5c-0.8,0.5-1.6,0.9-2.4,1.4
		C489.9,113.8,489.2,114.2,488.4,114.7z"/>
	<path id="XMLID_421_" d="M355.2,114.7c-0.6-0.4-1.1-0.9-1.6-1.2c-0.6-0.3-1.2-0.6-1.8-0.8c-0.5-0.3-1-0.5-1.4-0.8
		c-0.1-0.1-0.1-0.3-0.1-0.4c0.1-0.2,0.2-0.5,0.3-0.7c0.4-0.6,0.5-0.5,1.1-0.2c0.6,0.4,1.2,0.6,1.8,1c0.7,0.4,1.3,0.8,2,1.2
		c0.1,0.1,0.2,0.1,0.3,0.2c0.2,0.2,0.6,0.4,0.6,0.4c-0.2,0.4-0.4,0.8-0.6,1.1C355.7,114.6,355.5,114.6,355.2,114.7z"/>
	<path id="XMLID_420_" d="M351.5,193.8c-0.5-0.2-0.9-0.5-1.1-1.1c-0.1-0.3,0-0.5,0.2-0.6c1.1-0.6,2.1-1.3,3.2-1.9
		c0.5-0.3,1-0.5,1.5-0.8c0,0,0,0,0.1,0c0.3,0.3,0.7,0.6,1,1c0.2,0.3-0.1,0.5-0.4,0.7c-0.5,0.3-1,0.6-1.5,1c-0.1,0-0.1,0.1-0.2,0.1
		c-0.7,0.3-1.3,0.6-2,1C352,193.3,351.8,193.6,351.5,193.8z"/>
	<path id="XMLID_419_" d="M460.2,86.5c-0.3-0.2-0.7-0.3-0.8-0.5c-0.1-0.3,0-0.7,0.1-1.1c0.4-0.8,0.8-1.5,1.2-2.2
		c0.4-0.6,0.7-1.3,1.1-1.9c0.2-0.3,0.7-0.3,1-0.1c0,0,0.1,0.1,0.1,0.1c0.8,0.7,0.8,0.6,0.2,1.6c-0.7,1-1.2,2.1-1.8,3.1
		C461.1,85.9,460.9,86.5,460.2,86.5z"/>
	<path id="XMLID_544_" d="M501.5,153.2c-1,0-2,0-3,0c-0.5,0-1.1-0.6-1.1-1c0-0.7,0.5-1.4,1.1-1.4c1.6,0,3.2,0,4.8,0
		c0.1,0,0.2,0,0.3,0.1c0.4,0.2,0.7,1.1,0.5,1.8c-0.1,0.5-0.6,0.5-1,0.5C502.7,153.2,502.1,153.2,501.5,153.2
		C501.5,153.2,501.5,153.2,501.5,153.2z M500.9,152.7C500.9,152.7,500.9,152.7,500.9,152.7c0.8,0,1.6,0,2.4,0c0.5,0,0.6-0.2,0.6-0.7
		c0-0.4-0.1-0.7-0.7-0.7c-1.5,0-3.1,0-4.6,0c-0.6,0-0.6,0.3-0.6,0.7c0,0.4,0.1,0.7,0.6,0.7C499.4,152.7,500.2,152.7,500.9,152.7z"/>
	<path id="XMLID_541_" d="M339.4,152c0-0.9,0.3-1.2,1.2-1.2c1.5,0,3,0,4.5,0c0.7,0,1.2,0.6,1.2,1.3c0,0.6-0.6,1.2-1.2,1.2
		c-1.5,0-3,0-4.5,0C339.7,153.2,339.4,152.9,339.4,152z M342.7,152.7C342.7,152.7,342.7,152.7,342.7,152.7c0.8,0,1.6,0,2.4,0
		c0.5,0,0.6-0.3,0.6-0.7c0-0.4-0.1-0.7-0.6-0.7c-1.5,0-3.1,0-4.6,0c-0.5,0-0.7,0.2-0.7,0.7c0,0.5,0.2,0.7,0.7,0.7
		C341.2,152.7,342,152.7,342.7,152.7z"/>
	<path id="XMLID_538_" d="M487,190.7c0.1-0.4,0.9-1.6,1.2-1.6c0.1,0,0.2,0,0.2,0c0.9,0.6,1.9,1.2,2.8,1.8c0.7,0.4,1.4,0.8,2.1,1.1
		c0.4,0.2,0.5,0.4,0.2,0.8c-0.2,0.3-0.5,0.7-0.8,1c-0.4,0.3-0.7,0.2-1.2-0.2c-0.5-0.4-1.1-0.6-1.7-0.9c-0.6-0.3-1.1-0.7-1.7-1.1
		c-0.2-0.1-0.4-0.2-0.7-0.4C487.3,191.1,487.2,190.9,487,190.7z M493.2,192.6c-0.2-0.2-0.4-0.4-0.6-0.5c-1.2-0.7-2.5-1.4-3.7-2.2
		c-0.5-0.3-0.7-0.3-1,0.1c-0.3,0.5-0.2,0.7,0.3,1c1.2,0.7,2.5,1.4,3.7,2.1c0.2,0.1,0.5,0.2,0.7,0.2
		C492.8,193.2,492.9,192.9,493.2,192.6z"/>
	<path id="XMLID_535_" d="M381.6,223.8c-0.6-0.3-1.1-0.4-1.5-0.7c-0.2-0.1-0.2-0.7-0.1-0.9c0.4-0.7,1-1.4,1.4-2.1
		c0.4-0.7,0.8-1.5,1.1-2.2c0.3-0.6,1-0.7,1.5-0.2c0.1,0.1,0.2,0.2,0.4,0.3c0.4,0.2,0.4,0.5,0.2,0.9c-0.2,0.3-0.4,0.7-0.6,1
		c-0.6,1-1.2,2-1.8,3c-0.1,0.1-0.1,0.4-0.2,0.5C381.9,223.5,381.8,223.6,381.6,223.8z M381.4,223.4c0.2-0.2,0.3-0.4,0.4-0.5
		c0.8-1.3,1.5-2.6,2.3-3.8c0.2-0.4,0.3-0.6-0.1-0.9c-0.4-0.3-0.7-0.4-1,0.2c-0.8,1.3-1.5,2.6-2.3,4c-0.1,0.1-0.1,0.4,0,0.5
		C380.7,222.9,381,223.1,381.4,223.4z"/>
	<path id="XMLID_532_" d="M384.6,85.6c0.1,0.6-0.4,0.9-0.8,1c-0.4,0.1-0.9,0.1-1.2-0.4c-0.4-0.7-0.8-1.5-1.2-2.2
		c-0.4-0.6-0.8-1.2-1.3-1.8c-0.4-0.5-0.3-0.9,0.2-1.2c0.1-0.1,0.2-0.2,0.3-0.3c0.5-0.4,1.2-0.3,1.5,0.3c0.8,1.4,1.6,2.7,2.3,4
		C384.5,85.1,384.6,85.4,384.6,85.6z M381.4,80.7c-0.7,0-1,0.7-0.8,1.2c0.2,0.3,0.3,0.6,0.5,0.9c0.6,1,1.2,2.1,1.8,3.1
		c0.3,0.6,0.7,0.2,1.1,0c0.3-0.2,0.3-0.4,0.2-0.8c-0.8-1.4-1.6-2.7-2.4-4.1C381.6,80.9,381.5,80.8,381.4,80.7z"/>
	<path id="XMLID_529_" d="M460.4,217.1c0.3,0.3,0.5,0.4,0.7,0.6c0.5,0.8,0.9,1.6,1.3,2.4c0.4,0.7,1,1.4,1.4,2.2
		c0.1,0.2,0,0.7-0.2,0.8c-0.4,0.3-0.9,0.5-1.4,0.6c-0.1,0-0.4-0.2-0.5-0.3c-0.4-0.6-0.7-1.1-1-1.7c-0.1-0.2-0.3-0.5-0.4-0.7
		c-0.3-0.6-0.6-1.2-1-1.8c-0.4-0.5-0.3-0.9,0.1-1.2C459.7,217.6,460,217.4,460.4,217.1z M463.4,222.6c-0.1-0.2-0.2-0.4-0.2-0.5
		c-0.2-0.3-0.4-0.6-0.5-0.9c-0.6-1-1.2-2-1.7-3c-0.4-0.6-0.7-0.2-1.1,0c-0.3,0.2-0.4,0.4-0.2,0.7c0.8,1.3,1.6,2.7,2.4,4
		c0.1,0.2,0.4,0.4,0.5,0.3C462.8,223.1,463.1,222.8,463.4,222.6z"/>
	<path id="XMLID_406_" d="M422.2,69.6c0.8,0,0.8,0,0.8,0.8c0,1.7,0,3.4,0,5.1c0,0.5-0.2,0.7-0.7,0.8c-1.1,0.3-1.8-0.1-1.8-1.3
		c0-1.5,0-3,0-4.5c0-0.3,0.1-0.6,0.2-1c0.2,0,0.5,0,0.7,0c-0.1,0.1-0.2,0.3-0.2,0.4c-0.1,0.2-0.2,0.5-0.2,0.7c0,1.4,0,2.8,0,4.2
		c0,0.6,0.3,1.1,0.8,1.1c0.6,0,1-0.4,1-1c0-1.1,0-2.2,0-3.3C422.7,71,422.8,70.2,422.2,69.6z"/>
	<path id="XMLID_405_" d="M343,143.1c0.7,0.1,1.4,0.1,2.1,0.2c0.4,0.1,0.7,0.3,1,0.6c0.2,0.2,0,0.5-0.3,0.6c-1.4,0.1-2.7,0.1-4-0.5
		c-0.2-0.1-0.3-0.3-0.4-0.4c0.2-0.1,0.3-0.4,0.5-0.4C342.2,143.1,342.6,143.1,343,143.1C343,143.1,343,143.1,343,143.1z"/>
	<path id="XMLID_404_" d="M498.9,144.5c-0.4,0-0.8,0-1.1-0.1c-0.1,0-0.2-0.4-0.2-0.5c0.3-0.2,0.6-0.6,1-0.6c1-0.1,2.1-0.1,3.1-0.1
		c0.3,0,0.5,0.3,0.8,0.4c-0.2,0.1-0.4,0.4-0.6,0.4c-1,0.2-2,0.4-2.9,0.6C498.9,144.6,498.9,144.6,498.9,144.5z"/>
	<path id="XMLID_403_" d="M500.7,161c-0.7-0.2-1.7-0.3-2.5-0.6c-0.2-0.1-0.3-0.3-0.5-0.5c0.2-0.1,0.5-0.4,0.7-0.4
		c0.9,0,1.7,0.1,2.6,0.1c0.5,0,1,0.2,1.3,0.6c0.2,0.3,0.2,0.5-0.2,0.6C501.7,160.9,501.3,160.9,500.7,161z"/>
	<path id="XMLID_522_" d="M423.1,231.1c0,0.8,0,1.6,0,2.4c0,0.5-0.2,1.1-0.9,1c-0.2,0-0.3,0-0.5,0c-0.8,0-1.1-0.4-1-1.2
		c0.1-1.4,0-2.9,0-4.3c0-0.6,0.2-1.1,0.9-1.2c0.2,0,0.4,0,0.7,0c0.7,0.1,0.9,0.3,0.9,1C423.1,229.6,423.1,230.4,423.1,231.1z
		 M422.3,228.2c-0.3,0-0.6,0-0.9,0c-0.5,0-0.5,0.4-0.5,0.7c0,1.5,0,2.9,0,4.4c0,0.5,0.2,0.8,0.7,0.8c0.5,0.1,1-0.2,1-0.7
		c0-1.6,0-3.3,0-4.9C422.7,228.5,422.5,228.3,422.3,228.2z"/>
	<path id="XMLID_400_" d="M500.5,134.6c0.2,0.1,0.5,0.3,0.7,0.5c0,0.1-0.2,0.4-0.3,0.6c-0.3,0.4-0.8,0.5-1.3,0.4
		c-0.2-0.1-0.6,0.1-0.8,0.2c-0.6,0.4-1.2,0.5-1.8,0.3c-0.1,0-0.3-0.2-0.3-0.4c0-0.1,0.1-0.4,0.2-0.4c0.6-0.2,1.2-0.4,1.8-0.5
		c0.4-0.1,0.7-0.2,1.1-0.3C499.9,134.8,500.1,134.7,500.5,134.6z"/>
	<path id="XMLID_399_" d="M346.3,136.7c-0.4-0.2-0.8-0.4-1.2-0.5c-0.3-0.1-0.6-0.2-1-0.1c-0.5,0-1.3-0.3-1.5-0.8
		c0-0.1,0.2-0.5,0.3-0.5c0.4,0,0.8,0.1,1.2,0.2c0.3,0.1,0.6,0.2,0.8,0.2c0.6,0.2,1.2,0.3,1.8,0.5c0.2,0.1,0.3,0.4,0.5,0.6
		c-0.2,0.1-0.4,0.3-0.7,0.4C346.5,136.6,346.4,136.6,346.3,136.7C346.3,136.6,346.3,136.6,346.3,136.7z"/>
	<path id="XMLID_398_" d="M429.8,72.5c0-0.9,0.1-1,0.7-0.8c0.5,0.2,0.3,0.6,0.3,0.8c-0.1,1-0.3,2.1-0.4,3.1c0,0.3,0,0.5-0.4,0.5
		c-0.3,0-0.7,0-0.6-0.5c0.1-0.7,0.3-1.5,0.4-2.2C429.8,73.1,429.8,72.8,429.8,72.5z"/>
	<path id="XMLID_397_" d="M429.9,232.4c-0.1-0.9-0.2-1.9-0.3-2.8c0-0.3-0.2-0.6-0.2-1c-0.1-0.5,0.3-0.5,0.6-0.5
		c0.4,0,0.4,0.3,0.4,0.5c0.1,0.9,0.2,1.8,0.3,2.7c0,0,0,0.1,0,0.1C431,232.3,430.8,232.5,429.9,232.4z"/>
	<path id="XMLID_396_" d="M413.7,228c0.7,0,0.8,0.2,0.7,0.8c-0.2,1.1-0.3,2.2-0.4,3.3c0,0.1-0.1,0.4-0.2,0.4c-0.2,0-0.6,0-0.7-0.1
		c-0.2-0.2-0.2-0.5-0.2-0.8c0.3-1,0.5-2,0.4-3.1C413.2,228.1,413.5,228,413.7,228z"/>
	<path id="XMLID_395_" d="M438.8,229.6c0.1,0.3,0.1,0.6,0.2,0.8c0.2,0.4,0,0.5-0.3,0.7c-0.3,0.2-0.4-0.1-0.5-0.3
		c-0.3-0.6-0.5-1.2-0.5-1.9c0-0.4-0.3-0.8-0.4-1.2c-0.1-0.3-0.1-0.6,0-0.9c0-0.1,0.5-0.2,0.6-0.1c0.2,0.1,0.3,0.4,0.4,0.6
		c0.2,0.5,0.3,1,0.5,1.5c0.1,0.3,0.1,0.5,0.1,0.8C438.9,229.6,438.9,229.6,438.8,229.6z"/>
	<path id="XMLID_513_" d="M342.9,161c-0.6-0.1-0.9-0.1-1.3-0.2c-0.4-0.1-0.4-0.4-0.2-0.6c0.3-0.3,0.7-0.5,1.1-0.6
		c0.9-0.1,1.9-0.1,2.8-0.1c0.3,0,0.5,0.3,0.7,0.4c-0.2,0.2-0.4,0.5-0.6,0.5C344.7,160.7,343.7,160.9,342.9,161z M344.8,159.9
		c0,0.1,0,0.2,0,0.3c0.3,0,0.6-0.1,0.9-0.1c0-0.1,0-0.2,0-0.3C345.3,159.9,345,159.9,344.8,159.9z"/>
	<path id="XMLID_392_" d="M345.6,177.4c-0.2-0.1-0.4-0.2-0.6-0.3c0.1-0.2,0.2-0.4,0.4-0.6c0.2-0.3,0.6-0.5,1-0.4c0,0,0,0,0.1,0
		c0.7-0.3,1.4-0.5,2.1-0.8c0.2-0.1,0.5-0.2,0.6-0.1c0.1,0.1,0.2,0.4,0.2,0.6c0,0.2-0.2,0.5-0.4,0.5c-0.4,0-0.9,0-1.1,0.4
		c0,0.1-0.3,0-0.4,0.1c-0.3,0.1-0.7,0.2-1,0.3C346.1,177.2,345.8,177.3,345.6,177.4z"/>
	<path id="XMLID_391_" d="M491.8,121.4c-0.3-0.8-0.2-1,0.6-1.3c0.9-0.4,1.7-0.9,2.6-1.2c0.2-0.1,0.6,0.1,0.8,0.1
		c-0.1,0.2-0.1,0.4-0.2,0.6c-0.4,0.7-1.2,0.6-1.7,1C493.2,120.9,492.4,121.1,491.8,121.4z"/>
	<path id="XMLID_390_" d="M497.5,167.4c0.5,0.2,1,0.3,1.6,0.5c0.4,0.1,0.8,0.1,1.1,0.2c0.3,0.1,0.5,0.1,0.7,0.3
		c0.1,0.1,0.1,0.5,0.1,0.7c0,0.1-0.3,0.2-0.5,0.2c-1.1-0.2-2.2-0.5-3.3-0.8c-0.1,0-0.3-0.1-0.4-0.2c-0.1-0.2-0.2-0.4-0.3-0.5
		c0.2-0.1,0.3-0.2,0.5-0.2c0.1,0,0.3,0,0.4,0C497.5,167.5,497.5,167.5,497.5,167.4z"/>
	<path id="XMLID_389_" d="M498,177.4c-0.3-0.1-0.5-0.3-0.8-0.4c0,0-0.1-0.1-0.1-0.1c-0.7-0.2-1.4-0.4-2-0.6
		c-0.2-0.1-0.5-0.1-0.5-0.3c-0.1-0.2-0.1-0.5,0-0.8c0-0.1,0.4-0.1,0.6,0c0.3,0.1,0.6,0.2,0.9,0.3c0.2,0.1,0.4,0.2,0.6,0.3
		c0.2,0.1,0.4,0.2,0.6,0.2c0.5-0.1,0.9,0.1,1.2,0.6c0.1,0.1,0.2,0.3,0.3,0.5c-0.2,0.1-0.3,0.2-0.5,0.2
		C498.3,177.3,498.2,177.3,498,177.4C498.1,177.3,498.1,177.4,498,177.4z"/>
	<path id="XMLID_388_" d="M351.9,121.4c-0.7-0.3-1.3-0.5-2-0.8c-0.5-0.3-1.1-0.5-1.6-0.8c-0.2-0.1-0.3-0.4-0.5-0.7
		c0.5-0.3,0.8-0.4,1.2,0c0.3,0.3,0.8,0.4,1.2,0.6c0.4,0.2,0.8,0.3,1.3,0.5C352.2,120.4,352.3,120.7,351.9,121.4z"/>
	<path id="XMLID_505_" d="M345.5,169c-0.7-0.3-1.2,0-1.8,0.2c-0.3,0.1-0.7,0-1-0.1c-0.1,0-0.2-0.5-0.1-0.6c0.3-0.2,0.6-0.4,0.9-0.5
		c0.2-0.1,0.6,0.1,0.8-0.1c0.7-0.5,1.5-0.4,2.3-0.5c0.2,0,0.4,0.1,0.5,0.2c0.1,0.1,0,0.5-0.1,0.5C346.6,168.5,346,168.8,345.5,169z
		 M344.9,168.5c0-0.1,0-0.2,0-0.3c-0.4,0.1-0.7,0.1-1.1,0.2c0,0.1,0,0.2,0,0.2C344.2,168.6,344.5,168.6,344.9,168.5z"/>
	<path id="XMLID_385_" d="M398.6,225.2c-0.1,0.3-0.2,0.6-0.3,0.9c0,0.1-0.2,0.3-0.2,0.4c0.1,0.8-0.5,1.4-0.7,2.1
		c0,0.2-0.3,0.4-0.5,0.5c-0.1,0.1-0.5-0.1-0.5-0.1c0-0.3,0.1-0.5,0.1-0.8c0.1-0.3,0.2-0.6,0.3-0.9c0.1-0.2,0.2-0.4,0.3-0.6
		c0.1-0.1,0.2-0.3,0.2-0.4c-0.1-0.6,0.2-1,0.5-1.4c0.1-0.1,0.3-0.2,0.4-0.3c0.1,0.2,0.1,0.3,0.2,0.5
		C398.5,225,398.5,225.1,398.6,225.2C398.5,225.2,398.6,225.2,398.6,225.2z"/>
	<path id="XMLID_384_" d="M447.4,228.7c-0.1,0.1-0.3,0.3-0.5,0.3c-0.2,0-0.5-0.1-0.6-0.3c-0.4-1.1-0.8-2.2-1.1-3.4
		c-0.1-0.2-0.1-0.4,0-0.6c0-0.1,0.4-0.2,0.4-0.2c0.2,0.4,0.4,0.8,0.6,1.2c0.1,0.3,0.2,0.5,0.3,0.8c0,0.1,0.1,0.2,0.2,0.4
		c0.2,0.4,0.3,0.9,0.5,1.3C447.3,228.3,447.3,228.4,447.4,228.7z"/>
	<path id="XMLID_383_" d="M404.9,74.7c-0.1-0.4-0.2-0.8-0.2-1.2c0-0.2,0.2-0.4,0.3-0.6c0.2,0.1,0.4,0.2,0.5,0.3
		c0.2,0.6,0.6,1.1,0.5,1.8c-0.1,0.5,0.3,1,0.4,1.5c0.1,0.2,0.1,0.5,0,0.8c0,0.1-0.4,0.2-0.6,0.1c-0.2-0.1-0.4-0.3-0.4-0.6
		c-0.2-0.6-0.3-1.2-0.5-1.7c0-0.1-0.1-0.2-0.1-0.3C404.8,74.7,404.9,74.7,404.9,74.7z"/>
	<path id="XMLID_382_" d="M367.8,91.6c0.6,0.5,1.1,0.9,1.7,1.4c0.5,0.5,0.9,1,1.4,1.5c0.2,0.3,0.5,0.6,0.1,0.9
		c-0.4,0.3-0.7,0-0.9-0.4c-0.7-0.9-1.5-1.7-2.2-2.6c-0.2-0.2-0.2-0.4-0.4-0.6C367.6,91.8,367.7,91.7,367.8,91.6z"/>
	<path id="XMLID_381_" d="M445.5,79.7c-0.4-0.5-0.4-1-0.2-1.4c0.1-0.4,0.2-0.9,0.4-1.4c0.2-0.6,0.4-1.2,0.7-1.7
		c0.1-0.1,0.5-0.1,0.8-0.1c0,0.2,0,0.5-0.1,0.7c-0.1,0.3-0.2,0.6-0.4,1c-0.1,0.2-0.2,0.4-0.2,0.6c-0.1,0.2-0.2,0.4-0.2,0.5
		C446.4,78.7,445.8,79.1,445.5,79.7z"/>
	<path id="XMLID_497_" d="M413.7,76.2c-0.4,0.1-0.6-0.1-0.5-0.6c0.2-1.1-0.1-2.1-0.4-3.1c-0.2-0.7,0-0.9,0.6-0.9
		c0.4,0,0.5,0.1,0.5,0.6c0,0.9,0.2,1.7,0.3,2.6c0,0.3,0.2,0.6,0.2,0.9C414.5,76.1,414.3,76.2,413.7,76.2z M413.5,74.6
		c0.1,0,0.2,0,0.2,0c0.2-0.6,0.1-1.2-0.2-1.8C413.5,73.4,413.5,74,413.5,74.6z"/>
	<path id="XMLID_378_" d="M351.8,182.6c0.5,0.7,0.3,1.1-0.4,1.3c-0.5,0.1-0.9,0.3-1.3,0.6c-0.5,0.3-1,0.6-1.4,0.8
		c-0.1,0.1-0.4,0-0.5,0c-0.1-0.1-0.2-0.3-0.1-0.4c0.1-0.4,0.2-0.7,0.8-0.8c0.5,0,0.9-0.3,1.3-0.5
		C350.7,183.2,351.3,182.9,351.8,182.6z"/>
	<path id="XMLID_377_" d="M491.7,182.5c0.7,0.4,1.2,0.7,1.7,0.9c0.5,0.2,1.1,0.5,1.7,0.6c0.6,0.1,0.6,0.5,0.7,0.9
		c0,0.1-0.1,0.3-0.3,0.3c-0.2,0-0.4,0-0.5-0.1c-0.5-0.3-1-0.6-1.5-0.8c-0.5-0.2-1-0.4-1.5-0.6C491.4,183.5,491.8,183,491.7,182.5z"
		/>
	<path id="XMLID_376_" d="M365.4,100.9c-0.8,0.3-1.1-0.2-1.4-0.5c-0.7-0.6-1.4-1.2-2.1-1.8c-0.1-0.1-0.1-0.4-0.2-0.6
		c0.2,0,0.5-0.2,0.6-0.1c0.3,0.1,0.5,0.4,0.7,0.6c0.6,0.5,1.2,0.9,1.7,1.4C365,100.2,365.1,100.5,365.4,100.9z"/>
	<path id="XMLID_491_" d="M406.6,227.2c-0.1,0.3-0.3,0.5-0.3,0.6c-0.1,0.5-0.4,1.1-0.3,1.6c0.1,0.7-0.5,1.1-0.7,1.7
		c0,0-0.3,0.1-0.4,0c-0.1-0.1-0.3-0.4-0.3-0.5c0.3-0.8,0-1.7,0.5-2.4c0.2-0.2,0.1-0.6,0.2-1c0-0.5,0.4-0.7,0.7-0.7
		C406.3,226.6,406.5,226.9,406.6,227.2z M405.9,227.4c-0.1,0-0.2,0-0.2,0c-0.1,0.4-0.1,0.8-0.2,1.2c0.1,0,0.2,0,0.3,0
		C405.8,228.2,405.9,227.8,405.9,227.4z"/>
	<path id="XMLID_373_" d="M371.2,208.8c-0.3,0.4-0.7,0.8-1,1.2c-0.5,0.6-1,1.2-1.5,1.8c-0.1,0.1-0.2,0.2-0.3,0.2
		c-0.3,0-0.5,0.1-0.8,0.1c0.1-0.2,0.2-0.5,0.3-0.6c0.7-0.8,1.4-1.6,2-2.4C370.3,208.6,370.6,208.5,371.2,208.8z"/>
	<path id="XMLID_372_" d="M360.1,107.1c0,0.1-0.1,0.3-0.2,0.3c-0.1,0-0.3-0.1-0.4-0.2c-0.4-0.3-0.8-0.5-1.2-0.8
		c-0.7-0.5-1.3-1-1.9-1.6c-0.3-0.3,0-0.5,0.3-0.5c0.6-0.1,0.9,0.4,1.3,0.7c0.4,0.3,0.8,0.6,1.2,0.8
		C359.7,106.1,360.1,106.4,360.1,107.1z"/>
	<path id="XMLID_371_" d="M466.8,90.5c0-0.3-0.2-0.7-0.1-1c0.1-0.4,0.4-0.7,0.7-1c0.4-0.6,0.8-1.1,1.2-1.7c0.2-0.3,0.4-0.4,0.8-0.3
		c0.3,0.1,0.3,0.3,0.2,0.5c-0.5,0.7-1,1.3-1.5,2c-0.3,0.5-0.6,1-0.9,1.4C467,90.5,466.9,90.5,466.8,90.5z"/>
	<path id="XMLID_370_" d="M476.3,211.9c-0.5,0.5-0.9,0.1-1.2-0.2c-0.5-0.5-0.9-1-1.4-1.5c-0.2-0.2-0.4-0.5-0.6-0.7
		c-0.2-0.2-0.3-0.5-0.4-0.8c0.6-0.2,0.9,0,1.2,0.3C474.6,210,475.4,210.9,476.3,211.9z"/>
	<path id="XMLID_369_" d="M487.6,199.2c-0.6,0.6-1.2,0.4-1.8-0.1c-0.4-0.4-0.9-0.8-1.5-1c-0.6-0.3-0.8-0.7-0.5-1.6
		C485.1,197.4,486.3,198.3,487.6,199.2z"/>
	<path id="XMLID_368_" d="M481.8,97.7c0.1,0.1,0.3,0.2,0.3,0.3c0,0.2,0,0.4-0.1,0.5c-0.9,0.8-1.8,1.6-2.7,2.3
		c-0.1,0.1-0.4,0.1-0.7,0.1c0-0.2,0-0.5,0.1-0.6c0.4-0.4,0.9-0.8,1.3-1.2c0.4-0.3,0.8-0.7,1.2-1C481.3,97.9,481.5,97.8,481.8,97.7z"
		/>
	<path id="XMLID_482_" d="M494.5,128.2c0-0.1,0.1-0.4,0.3-0.4c0.5-0.2,1.1-0.3,1.6-0.5c0.5-0.2,0.9-0.3,1.4-0.5
		c0.2-0.1,0.5-0.1,0.7,0c0.2,0.1,0.3,0.3,0.5,0.5c-0.2,0.1-0.3,0.3-0.5,0.4c-0.5,0.3-1.2,0.4-1.7,0.6c-0.5,0.2-1.1,0.4-1.6,0.6
		C494.6,129,494.5,128.9,494.5,128.2z M495.8,128.2c0-0.1,0-0.1,0-0.2c-0.2,0-0.3-0.1-0.5-0.1c-0.2,0-0.4,0.1-0.5,0.2
		c0.2,0,0.4,0.1,0.5,0.1C495.5,128.3,495.7,128.2,495.8,128.2z"/>
	<path id="XMLID_365_" d="M483.8,107.5c-0.3-0.8-0.2-1.1,0.5-1.6c0.6-0.4,1.2-0.9,1.8-1.3c0.2-0.1,0.3-0.3,0.5-0.3
		c0.3,0,0.5,0.1,0.8,0.2c-0.1,0.2-0.2,0.5-0.4,0.6C486,106,484.9,106.7,483.8,107.5z"/>
	<path id="XMLID_364_" d="M398,79.6c-0.2-0.6-0.4-1.1-0.7-1.7c-0.3-0.7-0.6-1.4-0.8-2.1c-0.1-0.2-0.1-0.6,0-0.6
		c0.3-0.2,0.6-0.2,0.8,0.2c0.2,0.5,0.3,1,0.5,1.5c0.1,0.4,0.3,0.8,0.4,1.2c0.2,0.5,0.3,1,0,1.5C398.2,79.6,398.1,79.6,398,79.6z"/>
	<path id="XMLID_363_" d="M377,213.5c0,0.3,0.1,0.7,0,0.9c-0.2,0.4-0.5,0.8-0.7,1.1c-0.4,0.6-0.8,1.2-1.3,1.7
		c-0.2,0.2-0.5,0.2-0.8,0.3c0-0.2-0.1-0.5,0.1-0.7c0.8-1.1,1.6-2.3,2.5-3.4C376.8,213.5,376.9,213.5,377,213.5z"/>
	<path id="XMLID_362_" d="M466.8,213.5c1.1,1.3,2.2,2.4,3,3.9c-0.6,0.2-1,0.2-1.3-0.4c-0.2-0.4-0.6-0.7-0.8-1.1
		c-0.4-0.6-0.7-1.1-1-1.7C466.6,214,466.7,213.7,466.8,213.5z"/>
	<path id="XMLID_361_" d="M390.7,221.4c0.4,0.5,0.5,0.9,0.2,1.5c-0.3,0.4-0.5,0.9-0.7,1.4c-0.2,0.5-0.4,1-0.6,1.5
		c-0.1,0.2-0.4,0.2-0.6,0.3c-0.1-0.2-0.2-0.4-0.2-0.6c0.3-0.8,0.7-1.6,1.1-2.4C390.1,222.5,390.4,222,390.7,221.4z"/>
	<path id="XMLID_360_" d="M376.7,90.5c-0.9-1.2-1.8-2.4-2.7-3.7c0.5-0.5,0.8-0.5,1.2,0.1c0.5,0.8,1.1,1.6,1.7,2.4
		C377.2,89.7,377.2,90.1,376.7,90.5z"/>
	<path id="XMLID_359_" d="M478.9,202.9c0.2,0.1,0.3,0.2,0.4,0.3c0.9,0.8,1.8,1.6,2.7,2.5c0.1,0.1,0.1,0.3,0.1,0.4
		c-0.1,0.1-0.3,0.2-0.4,0.2c-0.1,0-0.3-0.1-0.4-0.2c-0.9-0.8-1.7-1.5-2.6-2.3c-0.1-0.1-0.2-0.4-0.2-0.6
		C478.6,203.1,478.8,203,478.9,202.9z"/>
	<path id="XMLID_472_" d="M345.5,126.6c0.3,0,0.4,0,0.5,0.1c0.7,0.3,1.4,0.6,2.1,0.8c0.2,0.1,0.5,0.1,0.7,0.1
		c0.5,0.1,0.6,0.4,0.6,0.9c-0.1,0.4-0.3,0.5-0.7,0.3c-0.2-0.1-0.5-0.2-0.8-0.3c-0.8-0.3-1.5-0.6-2.3-0.9c-0.1,0-0.1-0.1-0.2-0.1
		c-0.2-0.1-0.3-0.3-0.5-0.5C345.1,126.9,345.3,126.7,345.5,126.6z M347.9,128c0,0.1,0,0.1,0,0.2c0.3,0.1,0.6,0.1,0.9,0.2
		c0,0,0.1-0.1,0.1-0.2c-0.3-0.1-0.5-0.1-0.8-0.2C348,127.9,347.9,128,347.9,128z"/>
	<path id="XMLID_469_" d="M422.2,69.6c0.6,0.6,0.5,1.4,0.5,2.2c0,1.1,0,2.2,0,3.3c0,0.6-0.4,1.1-1,1c-0.5,0-0.8-0.6-0.8-1.1
		c0-1.4,0-2.8,0-4.2c0-0.3,0.1-0.5,0.2-0.7c0.1-0.1,0.1-0.3,0.2-0.4C421.7,69.6,422,69.6,422.2,69.6z M422.4,72.9
		C422.4,72.9,422.4,72.9,422.4,72.9c0-0.7,0-1.5,0-2.2c0-0.4-0.2-0.7-0.6-0.6c-0.4,0-0.5,0.3-0.5,0.7c0,1.4,0,2.8,0,4.2
		c0,0.4,0,0.8,0.5,0.8c0.5,0,0.6-0.3,0.6-0.7C422.4,74.3,422.4,73.6,422.4,72.9z"/>
	<path id="XMLID_354_" d="M390.9,82.4c-1-0.4-1-1.3-1.4-1.9c-0.3-0.6-0.5-1.2-0.8-1.8c-0.1-0.2,0.1-0.4,0.1-0.6
		c0.2,0.1,0.5,0.2,0.6,0.3c0.5,1,1,1.9,1.4,2.9C391,81.6,390.9,82,390.9,82.4z"/>
	<path id="XMLID_463_" d="M356.8,199.7c-0.2-0.1-0.4-0.2-0.5-0.3c0-0.1,0.1-0.3,0.2-0.4c0.3-0.2,0.7-0.4,1-0.7c0.7-0.5,1.3-1,2-1.6
		c0.1-0.1,0.3-0.1,0.4-0.2c0.1,0.2,0.2,0.3,0.2,0.5c-0.1,0.3-0.2,0.6-0.4,0.8c-0.7,0.6-1.5,1.1-2.2,1.6
		C357.3,199.5,357.1,199.6,356.8,199.7z M358.3,198.3c0,0-0.1-0.1-0.1-0.1c-0.1,0.1-0.2,0.2-0.3,0.3c0,0,0,0.1,0.1,0.1
		C358.1,198.5,358.2,198.4,358.3,198.3z M358.8,197.7c0,0,0,0.1-0.1,0.1c0,0,0.1,0.1,0.1,0c0,0,0.1-0.1,0.1-0.1
		C358.8,197.8,358.8,197.8,358.8,197.7z M357.5,198.9c0,0,0-0.1,0-0.1c0,0-0.1,0-0.1,0.1c0,0,0,0.1,0,0.1
		C357.4,199,357.4,198.9,357.5,198.9z"/>
	<path id="XMLID_349_" d="M452.8,82.3c0-0.3-0.1-0.7,0-0.9c0.4-1,0.9-2,1.3-2.9c0.2-0.5,0.4-0.5,1-0.1c-0.8,1.3-1,2.9-2.1,4
		C453,82.4,452.9,82.3,452.8,82.3z"/>
	<path id="XMLID_459_" d="M361.4,206.1c0.1-0.3,0.1-0.4,0.2-0.5c0.9-0.9,1.8-1.7,2.8-2.6c0.2-0.1,0.5,0,0.8,0c0,0.3,0.1,0.6,0,0.8
		c-0.2,0.3-0.5,0.6-0.8,0.8c-0.5,0.5-1.1,0.9-1.6,1.4c-0.2,0.2-0.5,0.3-0.8,0.4C361.8,206.4,361.6,206.2,361.4,206.1z M365.1,203.4
		c-0.1-0.1-0.1-0.1-0.2-0.2c-0.4,0-2.8,2.1-3,2.7c0.1,0,0.3,0.1,0.4,0C363.2,205.1,364.2,204.3,365.1,203.4z"/>
	<path id="XMLID_456_" d="M437.2,76.8c0.2-1,0.3-1.9,0.5-2.9c0.1-0.3,0.2-0.6,0.4-0.8c0.1-0.2,0.5-0.4,0.5-0.3
		c0.2,0.2,0.5,0.5,0.5,0.7c0,0.5-0.1,1-0.2,1.4c0,0.2-0.1,0.3-0.1,0.5c-0.1,0.4-0.2,0.7-0.3,1.1c0,0.2,0,0.3-0.1,0.5
		c-0.1,0.4-0.4,0.7-0.7,0.6c-0.3-0.1-0.5-0.4-0.7-0.6C437.1,76.9,437.1,76.8,437.2,76.8z M437.6,76.7c0,0,0.1,0.1,0.2,0.3
		c0.2-0.1,0.4-0.2,0.5-0.4c0.2-1,0.5-2,0.6-3.1c0-0.1-0.2-0.3-0.2-0.5c-0.1,0.1-0.3,0.2-0.3,0.4C438,74.5,437.8,75.5,437.6,76.7z"/>
	<path id="XMLID_453_" d="M453.1,221.3c0.1,0.2,0.2,0.3,0.3,0.5c0.3,0.7,0.7,1.4,1,2.1c0.2,0.5,0.5,1,0.7,1.4
		c0.1,0.3,0.2,0.6-0.2,0.7c-0.3,0.1-0.7,0.1-0.9-0.4c-0.4-1-0.9-2-1.3-3C452.5,222.2,452.5,221.8,453.1,221.3z M454.5,225.7
		c0.3-0.5-1-3.4-1.5-3.7C452.9,222.3,453.9,224.9,454.5,225.7z"/>
	<path id="XMLID_342_" d="M474.2,94.3c-0.1,0.1-0.2,0.2-0.2,0.3c-0.2,0.2-0.3,0.3-0.5,0.5c-0.2-0.1-0.3-0.2-0.5-0.2
		c0.2-0.2,0.3-0.4,0.5-0.6c0.4-0.4,0.7-0.9,1.1-1.3c0.3-0.3,0.6-0.5,0.9-0.8c0.4,0,0.5,0.1,0.2,0.4c-0.2,0.3-0.4,0.5-0.6,0.8
		c-0.1,0.2-0.3,0.4-0.4,0.6C474.5,94,474.4,94.2,474.2,94.3z"/>
	<path id="XMLID_341_" d="M473.5,95c0.2-0.2,0.3-0.3,0.5-0.5c0.1,0.3-0.1,0.9-0.5,1c-0.3,0.1-0.7,0.2-0.9,0c-0.4-0.3-0.2-0.7,0-1
		c0.3-0.3,0.6-0.5,0.9-0.7c0,0.1,0,0.2,0,0.3c-0.2,0.2-0.3,0.4-0.5,0.6c0,0.2,0,0.4-0.1,0.5C473.1,95.2,473.3,95.1,473.5,95z"/>
	<path id="XMLID_340_" d="M475.1,93.3c0.2-0.3,0.4-0.5,0.6-0.8c0.2-0.3,0.1-0.5-0.2-0.4c0,0,0-0.1,0-0.1c0.4-0.2,0.8-0.2,0.7,0.5
		C475.8,92.7,475.4,93,475.1,93.3z"/>
	<path id="XMLID_339_" d="M473.5,94.2c0-0.1,0-0.2,0-0.3c0.4-0.3,0.7-0.7,1-1C474.2,93.3,473.9,93.8,473.5,94.2z"/>
	<path id="XMLID_338_" d="M476.1,92.4c0.1-0.6-0.3-0.6-0.7-0.5c0.2-0.1,0.3-0.3,0.5-0.3c0.1,0,0.3,0.2,0.4,0.4
		C476.4,92.1,476.2,92.3,476.1,92.4z"/>
	<path id="XMLID_337_" d="M474.2,94.3c0.1-0.2,0.3-0.3,0.4-0.5c0.1,0.1,0.1,0.1,0.2,0.2C474.6,94.1,474.4,94.2,474.2,94.3z"/>
	<path id="XMLID_336_" d="M500.9,152.7c-0.8,0-1.5,0-2.3,0c-0.5,0-0.6-0.2-0.6-0.7c0-0.4,0-0.8,0.6-0.7c1.5,0,3.1,0,4.6,0
		c0.5,0,0.6,0.3,0.7,0.7c0,0.4-0.2,0.7-0.6,0.7C502.5,152.7,501.7,152.7,500.9,152.7C500.9,152.7,500.9,152.7,500.9,152.7z"/>
	<path id="XMLID_335_" d="M342.7,152.7c-0.8,0-1.5,0-2.3,0c-0.5,0-0.7-0.2-0.7-0.7c0-0.5,0.2-0.7,0.7-0.7c1.5,0,3.1,0,4.6,0
		c0.5,0,0.6,0.3,0.6,0.7c0,0.4-0.1,0.7-0.6,0.7C344.3,152.7,343.5,152.7,342.7,152.7C342.7,152.7,342.7,152.7,342.7,152.7z"/>
	<path id="XMLID_334_" d="M493.2,192.6c-0.2,0.3-0.4,0.6-0.6,0.7c-0.2,0.1-0.5,0-0.7-0.2c-1.2-0.7-2.5-1.4-3.7-2.1
		c-0.6-0.3-0.6-0.5-0.3-1c0.3-0.5,0.5-0.4,1-0.1c1.2,0.7,2.5,1.4,3.7,2.2C492.8,192.2,492.9,192.4,493.2,192.6z"/>
	<path id="XMLID_333_" d="M381.4,223.4c-0.3-0.2-0.6-0.4-0.8-0.7c-0.1-0.1,0-0.4,0-0.5c0.8-1.3,1.6-2.6,2.3-4c0.3-0.6,0.6-0.4,1-0.2
		c0.5,0.3,0.4,0.5,0.1,0.9c-0.8,1.3-1.5,2.6-2.3,3.8C381.7,223,381.5,223.1,381.4,223.4z"/>
	<path id="XMLID_332_" d="M381.4,80.7c0.1,0.1,0.3,0.2,0.3,0.3c0.8,1.4,1.6,2.7,2.4,4.1c0.2,0.3,0.2,0.6-0.2,0.8
		c-0.3,0.2-0.7,0.5-1.1,0c-0.6-1-1.2-2.1-1.8-3.1c-0.2-0.3-0.3-0.6-0.5-0.9C380.3,81.4,380.7,80.8,381.4,80.7z"/>
	<path id="XMLID_331_" d="M463.4,222.6c-0.3,0.2-0.6,0.5-0.9,0.6c-0.1,0-0.4-0.2-0.5-0.3c-0.8-1.3-1.6-2.7-2.4-4
		c-0.2-0.3-0.2-0.5,0.2-0.7c0.4-0.2,0.7-0.6,1.1,0c0.6,1,1.2,2,1.7,3c0.2,0.3,0.4,0.6,0.5,0.9C463.2,222.2,463.2,222.3,463.4,222.6z
		"/>
	<path id="XMLID_330_" d="M421.4,228.2c0.3,0,0.6,0,0.9,0c0,0.5,0,0.9,0,1.4c0,1.3,0,2.5,0,3.8c0,0.4-0.2,0.6-0.5,0.5
		c-0.2,0-0.5-0.3-0.5-0.5c0-1.6,0-3.2,0-4.8C421.3,228.5,421.4,228.3,421.4,228.2z"/>
	<path id="XMLID_329_" d="M421.4,228.2c0,0.1-0.1,0.3-0.1,0.4c0,1.6,0,3.2,0,4.8c0,0.2,0.3,0.4,0.5,0.5c0.3,0.1,0.5-0.1,0.5-0.5
		c0-1.3,0-2.5,0-3.8c0-0.5,0-0.9,0-1.4c0.1,0.1,0.4,0.3,0.4,0.4c0,1.6,0,3.3,0,4.9c0,0.4-0.5,0.7-1,0.7c-0.5-0.1-0.7-0.4-0.7-0.8
		c0-1.5,0-2.9,0-4.4C421,228.5,421,228.2,421.4,228.2z"/>
	<path id="XMLID_328_" d="M344.8,159.9c0.3,0,0.6-0.1,0.9-0.1c0,0.1,0,0.2,0,0.3c-0.3,0-0.6,0.1-0.9,0.1
		C344.8,160.1,344.8,160,344.8,159.9z"/>
	<path id="XMLID_327_" d="M344.9,168.5c-0.4,0-0.7,0.1-1.1,0.1c0-0.1,0-0.2,0-0.2c0.4-0.1,0.7-0.1,1.1-0.2
		C344.9,168.3,344.9,168.4,344.9,168.5z"/>
	<path id="XMLID_326_" d="M413.5,74.6c0-0.6,0-1.2,0-1.8c0.3,0.6,0.5,1.2,0.2,1.8C413.7,74.6,413.6,74.6,413.5,74.6z"/>
	<path id="XMLID_325_" d="M405.9,227.4c0,0.4-0.1,0.8-0.1,1.2c-0.1,0-0.2,0-0.3,0c0.1-0.4,0.1-0.8,0.2-1.2
		C405.7,227.4,405.8,227.4,405.9,227.4z"/>
	<path id="XMLID_324_" d="M495.8,128.2c-0.1,0-0.3,0.1-0.4,0.1c-0.2,0-0.4-0.1-0.5-0.1c0.2-0.1,0.4-0.2,0.5-0.2
		c0.1,0,0.3,0.1,0.5,0.1C495.8,128.1,495.8,128.2,495.8,128.2z"/>
	<path id="XMLID_323_" d="M347.9,128c0.1,0,0.1-0.1,0.2-0.1c0.3,0,0.5,0.1,0.8,0.2c0,0.1-0.1,0.2-0.1,0.2c-0.3,0-0.6-0.1-0.9-0.2
		C347.8,128.1,347.9,128,347.9,128z"/>
	<path id="XMLID_322_" d="M422.4,72.9c0,0.7,0,1.4,0,2.1c0,0.4-0.1,0.8-0.6,0.7c-0.5,0-0.5-0.4-0.5-0.8c0-1.4,0-2.8,0-4.2
		c0-0.4,0.1-0.6,0.5-0.7c0.4,0,0.6,0.2,0.6,0.6C422.4,71.4,422.4,72.2,422.4,72.9C422.4,72.9,422.4,72.9,422.4,72.9z"/>
	<path id="XMLID_321_" d="M358.3,198.3c-0.1,0.1-0.2,0.2-0.3,0.2c-0.1-0.1-0.1-0.1-0.1-0.1c0.1-0.1,0.2-0.2,0.3-0.3
		C358.2,198.2,358.3,198.3,358.3,198.3z"/>
	<path id="XMLID_320_" d="M358.8,197.7c0,0,0.1,0,0.1,0.1c0,0,0,0.1-0.1,0.1c0,0-0.1,0-0.1,0C358.7,197.8,358.7,197.8,358.8,197.7z"
		/>
	<path id="XMLID_319_" d="M357.5,198.9c0,0-0.1,0-0.1,0c0,0,0-0.1,0-0.1c0,0,0.1,0,0.1-0.1C357.4,198.9,357.4,198.9,357.5,198.9z"/>
	<path id="XMLID_318_" d="M365.1,203.4c-0.9,0.9-1.9,1.7-2.8,2.5c-0.1,0.1-0.2,0-0.4,0c0.3-0.6,2.6-2.7,3-2.7
		C365,203.3,365,203.4,365.1,203.4z"/>
	<path id="XMLID_317_" d="M437.6,76.7c0.3-1.2,0.5-2.2,0.7-3.3c0-0.1,0.2-0.2,0.3-0.4c0.1,0.2,0.3,0.3,0.2,0.5
		c-0.2,1-0.4,2.1-0.6,3.1c0,0.1-0.3,0.2-0.5,0.4C437.7,76.9,437.6,76.7,437.6,76.7z"/>
	<path id="XMLID_316_" d="M454.5,225.7c-0.6-0.8-1.7-3.4-1.5-3.7C453.6,222.3,454.8,225.2,454.5,225.7z"/>
	<path id="XMLID_315_" d="M473.5,95c-0.2,0.1-0.4,0.2-0.6,0.3c0-0.2,0-0.4,0.1-0.5C473.2,94.9,473.4,95,473.5,95z"/>
</g>
<path id="XMLID_423_" class="st1" d="M421.8,148.7c0-22.2,0-44.4,0-66.7c1.8-0.3,4.4-0.5,7.5,0c2.8,0.4,5.1,1.3,6.7,2
	C431.3,105.6,426.6,127.1,421.8,148.7z"/>
<g id="XMLID_148_">
	<path id="XMLID_220_" class="st2" d="M47.7,317.9v-5.2c2.4-0.1,4.1-0.3,5-0.5c1.5-0.3,2.8-1,3.7-2c0.7-0.7,1.1-1.6,1.5-2.8
		c0.2-0.7,0.3-1.2,0.3-1.5h6.3v38.6h-7.8v-26.6H47.7z"/>
</g>
<g id="XMLID_168_">
	<path id="XMLID_240_" class="st3" d="M337.9,336.9c1.1-2.6,3.6-5.3,7.7-8.2c3.5-2.5,5.8-4.3,6.8-5.4c1.6-1.7,2.4-3.5,2.4-5.5
		c0-1.6-0.5-3-1.4-4.1c-0.9-1.1-2.2-1.6-3.9-1.6c-2.3,0-3.9,0.9-4.7,2.6c-0.5,1-0.8,2.6-0.9,4.7h-7.4c0.1-3.3,0.7-5.9,1.8-8
		c2-3.8,5.6-5.8,10.8-5.8c4.1,0,7.3,1.1,9.7,3.4c2.4,2.3,3.6,5.3,3.6,9c0,2.9-0.9,5.4-2.6,7.6c-1.1,1.5-3,3.1-5.5,4.9l-3,2.2
		c-1.9,1.3-3.2,2.3-3.9,2.9c-0.7,0.6-1.3,1.3-1.8,2.1h16.8v6.7h-26.4C336.2,341.7,336.8,339.2,337.9,336.9z"/>
</g>
<g id="XMLID_169_">
	<path id="XMLID_242_" class="st4" d="M826.6,326.4c0.9-1.7,2.3-3,4.1-3.8c-1.8-1.2-3-2.5-3.5-3.9c-0.5-1.4-0.8-2.7-0.8-3.9
		c0-2.7,1-5,3-6.9c2-1.9,4.9-2.8,8.6-2.8s6.6,0.9,8.6,2.8c2,1.9,3,4.2,3,6.9c0,1.2-0.3,2.5-0.8,3.9s-1.7,2.6-3.5,3.6
		c1.8,1,3.2,2.4,4.1,4.1c0.9,1.7,1.4,3.6,1.4,5.6c0,3.1-1.2,5.8-3.5,8c-2.3,2.2-5.5,3.3-9.7,3.3c-4.1,0-7.3-1.1-9.4-3.3
		c-2.1-2.2-3.2-4.8-3.2-8C825.2,330,825.6,328.1,826.6,326.4z M834.1,335.8c0.9,1,2.3,1.5,3.9,1.5c1.7,0,3-0.5,3.9-1.5
		c0.9-1,1.4-2.4,1.4-4.2c0-1.9-0.5-3.3-1.4-4.3c-1-1-2.3-1.5-3.9-1.5s-2.9,0.5-3.9,1.5c-1,1-1.4,2.4-1.4,4.3
		C832.7,333.4,833.2,334.8,834.1,335.8z M834.6,318.9c0.8,0.9,2,1.3,3.4,1.3c1.5,0,2.6-0.4,3.4-1.3c0.8-0.9,1.2-2,1.2-3.3
		c0-1.5-0.4-2.6-1.2-3.4c-0.8-0.8-2-1.2-3.4-1.2c-1.5,0-2.6,0.4-3.4,1.2c-0.8,0.8-1.2,2-1.2,3.4C833.4,317,833.8,318.1,834.6,318.9z
		"/>
</g>
<g id="XMLID_170_">
	<path id="XMLID_186_" d="M96.8,316.1h4.7v3.8c1-1.3,2-2.3,3.1-3c1.6-1.1,3.5-1.6,5.7-1.6c3.2,0,6,1.2,8.2,3.7s3.4,6,3.4,10.6
		c0,6.2-1.6,10.6-4.9,13.3c-2.1,1.7-4.5,2.5-7.2,2.5c-2.2,0-4-0.5-5.4-1.4c-0.9-0.5-1.8-1.4-2.9-2.7v14.5h-4.8V316.1z M114.8,338.4
		c1.5-1.9,2.2-4.7,2.2-8.4c0-2.3-0.3-4.2-1-5.9c-1.2-3.1-3.5-4.7-6.8-4.7c-3.3,0-5.6,1.7-6.8,5c-0.7,1.8-1,4-1,6.8
		c0,2.2,0.3,4.1,1,5.6c1.2,2.9,3.5,4.4,6.8,4.4C111.4,341.2,113.3,340.3,114.8,338.4z"/>
	<path id="XMLID_223_" d="M145.1,316.7c1.9,0.9,3.3,2.2,4.3,3.7c1,1.4,1.6,3.1,1.9,5c0.3,1.3,0.4,3.4,0.4,6.3H131
		c0.1,2.9,0.8,5.2,2,7c1.3,1.8,3.2,2.6,5.9,2.6c2.5,0,4.5-0.8,5.9-2.5c0.8-1,1.4-2.1,1.8-3.3h4.7c-0.1,1-0.5,2.2-1.2,3.5
		c-0.7,1.3-1.5,2.3-2.3,3.2c-1.4,1.4-3.2,2.4-5.4,2.9c-1.1,0.3-2.4,0.4-3.9,0.4c-3.5,0-6.5-1.3-9-3.9c-2.4-2.6-3.7-6.2-3.7-10.8
		c0-4.6,1.2-8.3,3.7-11.1c2.5-2.9,5.7-4.3,9.7-4.3C141.2,315.3,143.2,315.8,145.1,316.7z M146.8,327.9c-0.2-2.1-0.6-3.7-1.3-5
		c-1.3-2.3-3.5-3.5-6.5-3.5c-2.2,0-4,0.8-5.5,2.4c-1.5,1.6-2.3,3.6-2.3,6H146.8z"/>
	<path id="XMLID_226_" d="M157.9,316h4.5v4.9c0.4-1,1.3-2.1,2.7-3.5c1.5-1.4,3.1-2.1,5-2.1c0.1,0,0.2,0,0.5,0s0.6,0.1,1.1,0.1v5.1
		c-0.3-0.1-0.5-0.1-0.8-0.1c-0.2,0-0.5,0-0.8,0c-2.4,0-4.3,0.8-5.6,2.3c-1.3,1.6-1.9,3.3-1.9,5.4v16.4h-4.8V316z"/>
	<path id="XMLID_228_" d="M178.7,335.5c0.1,1.6,0.6,2.8,1.2,3.7c1.2,1.5,3.4,2.3,6.4,2.3c1.8,0,3.4-0.4,4.8-1.2
		c1.4-0.8,2.1-2,2.1-3.6c0-1.2-0.5-2.2-1.6-2.8c-0.7-0.4-2.1-0.8-4.2-1.4l-3.9-1c-2.5-0.6-4.3-1.3-5.5-2c-2.1-1.3-3.1-3.1-3.1-5.4
		c0-2.7,1-4.9,3-6.5c2-1.7,4.6-2.5,7.9-2.5c4.3,0,7.5,1.3,9.4,3.8c1.2,1.6,1.8,3.3,1.8,5.2h-4.5c-0.1-1.1-0.5-2.1-1.2-2.9
		c-1.1-1.3-3.1-1.9-5.9-1.9c-1.9,0-3.3,0.3-4.2,1c-1,0.7-1.4,1.6-1.4,2.7c0,1.2,0.6,2.2,1.9,3c0.7,0.4,1.8,0.8,3.2,1.2l3.2,0.8
		c3.5,0.8,5.9,1.6,7,2.4c1.9,1.2,2.8,3.1,2.8,5.8c0,2.5-1,4.7-2.9,6.6c-1.9,1.8-4.9,2.8-8.9,2.8c-4.3,0-7.3-1-9.1-2.9
		c-1.8-1.9-2.7-4.3-2.9-7.1H178.7z"/>
	<path id="XMLID_230_" d="M223.8,318.8c2.5,2.4,3.8,6,3.8,10.8c0,4.6-1.1,8.4-3.3,11.4c-2.2,3-5.7,4.5-10.3,4.5c-3.9,0-7-1.3-9.3-4
		c-2.3-2.6-3.4-6.2-3.4-10.7c0-4.8,1.2-8.6,3.6-11.4c2.4-2.8,5.7-4.3,9.7-4.3C218.2,315.1,221.2,316.4,223.8,318.8z M220.8,337.7
		c1.2-2.4,1.7-5.1,1.7-8c0-2.7-0.4-4.8-1.3-6.5c-1.3-2.6-3.6-3.9-6.9-3.9c-2.9,0-5,1.1-6.3,3.3c-1.3,2.2-2,4.9-2,8.1
		c0,3,0.7,5.6,2,7.6c1.3,2,3.4,3,6.3,3C217.5,341.3,219.6,340.1,220.8,337.7z"/>
	<path id="XMLID_233_" d="M233.4,316h4.5v4c1.3-1.7,2.8-2.9,4.3-3.6s3.2-1.1,5-1.1c4,0,6.8,1.4,8.2,4.2c0.8,1.5,1.2,3.7,1.2,6.6
		v18.3h-4.9v-18c0-1.7-0.3-3.1-0.8-4.2c-0.9-1.8-2.4-2.7-4.6-2.7c-1.1,0-2.1,0.1-2.8,0.3c-1.3,0.4-2.5,1.2-3.5,2.3
		c-0.8,0.9-1.3,1.9-1.6,2.9c-0.2,1-0.4,2.4-0.4,4.3v14.9h-4.8V316z"/>
	<path id="XMLID_235_" d="M278.8,305.4h4.9v5.4h-4.9V305.4z M278.8,316.1h4.9v28.3h-4.9V316.1z"/>
	<path id="XMLID_238_" d="M290.9,316h4.5v4c1.3-1.7,2.8-2.9,4.3-3.6c1.5-0.7,3.2-1.1,5-1.1c4,0,6.8,1.4,8.2,4.2
		c0.8,1.5,1.2,3.7,1.2,6.6v18.3h-4.9v-18c0-1.7-0.3-3.1-0.8-4.2c-0.9-1.8-2.4-2.7-4.6-2.7c-1.1,0-2.1,0.1-2.8,0.3
		c-1.3,0.4-2.5,1.2-3.5,2.3c-0.8,0.9-1.3,1.9-1.6,2.9c-0.2,1-0.4,2.4-0.4,4.3v14.9h-4.8V316z"/>
</g>
<g id="XMLID_171_">
	<path id="XMLID_174_" d="M380.6,316.3h4.8v4.1c1.1-1.4,2.2-2.4,3.1-3.1c1.6-1.1,3.4-1.6,5.4-1.6c2.3,0,4.1,0.6,5.5,1.7
		c0.8,0.6,1.5,1.6,2.1,2.8c1.1-1.5,2.3-2.7,3.8-3.4c1.4-0.7,3.1-1.1,4.9-1.1c3.9,0,6.5,1.4,7.9,4.2c0.7,1.5,1.1,3.5,1.1,6v19.1h-5
		V325c0-1.9-0.5-3.2-1.4-3.9c-1-0.7-2.1-1.1-3.5-1.1c-1.9,0-3.5,0.6-4.9,1.9s-2,3.4-2,6.3v16.7h-4.9v-18.7c0-1.9-0.2-3.4-0.7-4.3
		c-0.7-1.3-2.1-2-4.1-2c-1.8,0-3.5,0.7-5,2.1c-1.5,1.4-2.2,4-2.2,7.7v15.2h-4.8V316.3z"/>
	<path id="XMLID_176_" d="M426.2,305.6h4.9v5.5h-4.9V305.6z M426.2,316.4h4.9v28.5h-4.9V316.4z"/>
	<path id="XMLID_179_" d="M438.4,316.3h4.6v4.1c1.4-1.7,2.8-2.9,4.3-3.6c1.5-0.7,3.2-1.1,5.1-1.1c4.1,0,6.8,1.4,8.2,4.3
		c0.8,1.6,1.2,3.8,1.2,6.7v18.4h-4.9v-18.1c0-1.7-0.3-3.2-0.8-4.2c-0.9-1.8-2.4-2.7-4.7-2.7c-1.1,0-2.1,0.1-2.8,0.3
		c-1.3,0.4-2.5,1.2-3.5,2.4c-0.8,0.9-1.3,1.9-1.6,2.9c-0.2,1-0.4,2.4-0.4,4.3v15h-4.8V316.3z"/>
	<path id="XMLID_181_" d="M473.7,316.3v19c0,1.5,0.2,2.7,0.7,3.6c0.8,1.7,2.4,2.6,4.7,2.6c3.3,0,5.5-1.5,6.7-4.5
		c0.6-1.6,1-3.8,1-6.6v-14.1h4.8v28.6h-4.5l0.1-4.2c-0.6,1.1-1.4,2-2.3,2.8c-1.8,1.5-4,2.2-6.6,2.2c-4,0-6.7-1.4-8.2-4.1
		c-0.8-1.5-1.2-3.4-1.2-5.9v-19.5H473.7z"/>
	<path id="XMLID_183_" d="M500.3,308.3h4.9v8h4.6v3.9h-4.6v18.7c0,1,0.3,1.7,1,2c0.4,0.2,1,0.3,1.9,0.3c0.2,0,0.5,0,0.7,0
		c0.3,0,0.6,0,0.9-0.1v3.8c-0.6,0.2-1.1,0.3-1.7,0.3c-0.6,0.1-1.2,0.1-1.9,0.1c-2.2,0-3.8-0.6-4.6-1.7c-0.8-1.2-1.2-2.6-1.2-4.5v-19
		h-3.9v-3.9h3.9V308.3z"/>
	<path id="XMLID_187_" d="M532.3,317.1c1.9,1,3.3,2.2,4.3,3.7c1,1.4,1.6,3.1,1.9,5.1c0.3,1.3,0.4,3.4,0.4,6.3h-20.8
		c0.1,2.9,0.8,5.3,2,7c1.3,1.8,3.2,2.6,5.9,2.6c2.5,0,4.5-0.8,6-2.5c0.8-1,1.4-2.1,1.8-3.4h4.7c-0.1,1.1-0.5,2.2-1.2,3.5
		c-0.7,1.3-1.5,2.3-2.4,3.2c-1.5,1.4-3.2,2.4-5.4,2.9c-1.2,0.3-2.5,0.4-3.9,0.4c-3.5,0-6.5-1.3-9-3.9c-2.5-2.6-3.7-6.2-3.7-10.9
		c0-4.6,1.2-8.3,3.7-11.2c2.5-2.9,5.7-4.3,9.7-4.3C528.4,315.6,530.4,316.1,532.3,317.1z M534,328.3c-0.2-2.1-0.6-3.8-1.4-5
		c-1.3-2.3-3.5-3.5-6.6-3.5c-2.2,0-4,0.8-5.5,2.4c-1.5,1.6-2.3,3.6-2.4,6.1H534z"/>
	<path id="XMLID_192_" d="M547.9,335.9c0.1,1.6,0.6,2.8,1.2,3.7c1.2,1.6,3.4,2.3,6.4,2.3c1.8,0,3.4-0.4,4.8-1.2
		c1.4-0.8,2.1-2,2.1-3.6c0-1.2-0.6-2.2-1.7-2.8c-0.7-0.4-2.1-0.8-4.2-1.4l-3.9-1c-2.5-0.6-4.3-1.3-5.5-2c-2.1-1.3-3.2-3.1-3.2-5.4
		c0-2.7,1-4.9,3-6.6c2-1.7,4.6-2.5,8-2.5c4.4,0,7.5,1.3,9.5,3.8c1.2,1.6,1.8,3.3,1.8,5.2h-4.5c-0.1-1.1-0.5-2.1-1.2-3
		c-1.1-1.3-3.1-1.9-5.9-1.9c-1.9,0-3.3,0.3-4.2,1c-1,0.7-1.4,1.6-1.4,2.7c0,1.2,0.6,2.2,1.9,3c0.7,0.4,1.8,0.8,3.2,1.2l3.2,0.8
		c3.5,0.8,5.9,1.6,7.1,2.4c1.9,1.2,2.8,3.2,2.8,5.8c0,2.6-1,4.8-2.9,6.6c-2,1.9-4.9,2.8-8.9,2.8c-4.3,0-7.4-1-9.2-2.9
		s-2.8-4.3-2.9-7.2H547.9z"/>
	<path id="XMLID_194_" d="M606.6,317.8c2,1.6,3.2,4.3,3.7,8.1h-4.7c-0.3-1.8-0.9-3.2-2-4.4c-1-1.2-2.6-1.8-4.9-1.8
		c-3.1,0-5.3,1.5-6.6,4.5c-0.9,1.9-1.3,4.3-1.3,7.2c0,2.9,0.6,5.3,1.8,7.2c1.2,2,3.1,2.9,5.7,2.9c2,0,3.6-0.6,4.7-1.8
		c1.2-1.2,2-2.9,2.4-5h4.7c-0.5,3.8-1.9,6.6-4,8.3s-4.9,2.6-8.2,2.6c-3.7,0-6.7-1.4-9-4.1c-2.2-2.7-3.3-6.2-3.3-10.3
		c0-5,1.2-8.9,3.7-11.7s5.6-4.2,9.3-4.2C601.9,315.4,604.6,316.2,606.6,317.8z"/>
	<path id="XMLID_196_" d="M630.4,327.6c1.1-0.1,1.8-0.6,2.2-1.4c0.2-0.4,0.3-1,0.3-1.9c0-1.6-0.6-2.8-1.7-3.6
		c-1.2-0.7-2.8-1.1-5-1.1c-2.5,0-4.3,0.7-5.3,2c-0.6,0.8-1,1.9-1.1,3.4h-4.5c0.1-3.5,1.2-6,3.4-7.4c2.2-1.4,4.8-2.1,7.7-2.1
		c3.4,0,6.1,0.6,8.2,1.9c2.1,1.3,3.1,3.3,3.1,6V340c0,0.5,0.1,0.9,0.3,1.2c0.2,0.3,0.6,0.5,1.3,0.5c0.2,0,0.5,0,0.7,0
		c0.3,0,0.6-0.1,0.9-0.1v3.6c-0.7,0.2-1.3,0.3-1.7,0.4c-0.4,0.1-0.9,0.1-1.6,0.1c-1.7,0-2.9-0.6-3.6-1.8c-0.4-0.6-0.7-1.5-0.8-2.6
		c-1,1.3-2.4,2.4-4.2,3.3s-3.9,1.4-6.1,1.4c-2.7,0-4.8-0.8-6.5-2.4c-1.7-1.6-2.5-3.6-2.5-6.1c0-2.7,0.8-4.7,2.5-6.2
		c1.7-1.5,3.8-2.4,6.5-2.7L630.4,327.6z M620.3,340.6c1,0.8,2.2,1.2,3.6,1.2c1.7,0,3.3-0.4,4.9-1.2c2.7-1.3,4-3.4,4-6.4v-3.9
		c-0.6,0.4-1.3,0.7-2.3,0.9c-0.9,0.3-1.8,0.4-2.7,0.5l-2.9,0.4c-1.7,0.2-3.1,0.6-3.9,1.1c-1.5,0.8-2.2,2.2-2.2,4
		C618.7,338.7,619.2,339.8,620.3,340.6z"/>
	<path id="XMLID_199_" d="M645.5,316.3h4.6v4.1c1.4-1.7,2.8-2.9,4.3-3.6c1.5-0.7,3.2-1.1,5.1-1.1c4.1,0,6.8,1.4,8.2,4.3
		c0.8,1.6,1.2,3.8,1.2,6.7v18.4H664v-18.1c0-1.7-0.3-3.2-0.8-4.2c-0.9-1.8-2.4-2.7-4.7-2.7c-1.1,0-2.1,0.1-2.8,0.3
		c-1.3,0.4-2.5,1.2-3.5,2.4c-0.8,0.9-1.3,1.9-1.6,2.9c-0.2,1-0.4,2.4-0.4,4.3v15h-4.8V316.3z"/>
	<path id="XMLID_201_" d="M694.1,335.9c0.1,1.6,0.6,2.8,1.2,3.7c1.2,1.6,3.4,2.3,6.4,2.3c1.8,0,3.4-0.4,4.8-1.2
		c1.4-0.8,2.1-2,2.1-3.6c0-1.2-0.6-2.2-1.7-2.8c-0.7-0.4-2.1-0.8-4.2-1.4l-3.9-1c-2.5-0.6-4.3-1.3-5.5-2c-2.1-1.3-3.2-3.1-3.2-5.4
		c0-2.7,1-4.9,3-6.6c2-1.7,4.6-2.5,8-2.5c4.4,0,7.5,1.3,9.5,3.8c1.2,1.6,1.8,3.3,1.8,5.2h-4.5c-0.1-1.1-0.5-2.1-1.2-3
		c-1.1-1.3-3.1-1.9-5.9-1.9c-1.9,0-3.3,0.3-4.2,1c-1,0.7-1.4,1.6-1.4,2.7c0,1.2,0.6,2.2,1.9,3c0.7,0.4,1.8,0.8,3.2,1.2l3.2,0.8
		c3.5,0.8,5.9,1.6,7.1,2.4c1.9,1.2,2.8,3.2,2.8,5.8c0,2.6-1,4.8-2.9,6.6c-2,1.9-4.9,2.8-8.9,2.8c-4.3,0-7.4-1-9.2-2.9
		s-2.8-4.3-2.9-7.2H694.1z"/>
	<path id="XMLID_203_" d="M734,327.6c1.1-0.1,1.8-0.6,2.2-1.4c0.2-0.4,0.3-1,0.3-1.9c0-1.6-0.6-2.8-1.7-3.6c-1.2-0.7-2.8-1.1-5-1.1
		c-2.5,0-4.3,0.7-5.3,2c-0.6,0.8-1,1.9-1.1,3.4h-4.5c0.1-3.5,1.2-6,3.4-7.4c2.2-1.4,4.8-2.1,7.7-2.1c3.4,0,6.1,0.6,8.2,1.9
		c2.1,1.3,3.1,3.3,3.1,6V340c0,0.5,0.1,0.9,0.3,1.2c0.2,0.3,0.6,0.5,1.3,0.5c0.2,0,0.5,0,0.7,0c0.3,0,0.6-0.1,0.9-0.1v3.6
		c-0.7,0.2-1.3,0.3-1.7,0.4c-0.4,0.1-0.9,0.1-1.6,0.1c-1.7,0-2.9-0.6-3.6-1.8c-0.4-0.6-0.7-1.5-0.8-2.6c-1,1.3-2.4,2.4-4.2,3.3
		c-1.8,0.9-3.9,1.4-6.1,1.4c-2.7,0-4.8-0.8-6.5-2.4c-1.7-1.6-2.5-3.6-2.5-6.1c0-2.7,0.8-4.7,2.5-6.2c1.7-1.5,3.8-2.4,6.5-2.7
		L734,327.6z M723.8,340.6c1,0.8,2.2,1.2,3.6,1.2c1.7,0,3.3-0.4,4.9-1.2c2.7-1.3,4-3.4,4-6.4v-3.9c-0.6,0.4-1.3,0.7-2.3,0.9
		c-0.9,0.3-1.8,0.4-2.7,0.5l-2.9,0.4c-1.7,0.2-3.1,0.6-3.9,1.1c-1.5,0.8-2.2,2.2-2.2,4C722.3,338.7,722.8,339.8,723.8,340.6z"/>
	<path id="XMLID_206_" d="M751.4,316.3l7.7,23.3l8-23.3h5.3l-10.8,28.6h-5.1l-10.6-28.6H751.4z"/>
	<path id="XMLID_208_" d="M794.2,317.1c1.9,1,3.3,2.2,4.3,3.7c1,1.4,1.6,3.1,1.9,5.1c0.3,1.3,0.4,3.4,0.4,6.3H780
		c0.1,2.9,0.8,5.3,2,7c1.3,1.8,3.2,2.6,5.9,2.6c2.5,0,4.5-0.8,6-2.5c0.8-1,1.4-2.1,1.8-3.4h4.7c-0.1,1.1-0.5,2.2-1.2,3.5
		c-0.7,1.3-1.5,2.3-2.4,3.2c-1.5,1.4-3.2,2.4-5.4,2.9c-1.2,0.3-2.5,0.4-3.9,0.4c-3.5,0-6.5-1.3-9-3.9c-2.5-2.6-3.7-6.2-3.7-10.9
		c0-4.6,1.2-8.3,3.7-11.2c2.5-2.9,5.7-4.3,9.7-4.3C790.3,315.6,792.3,316.1,794.2,317.1z M795.9,328.3c-0.2-2.1-0.6-3.8-1.4-5
		c-1.3-2.3-3.5-3.5-6.6-3.5c-2.2,0-4,0.8-5.5,2.4c-1.5,1.6-2.3,3.6-2.4,6.1H795.9z"/>
</g>
<g id="XMLID_172_">
	<path id="XMLID_184_" d="M872.4,305.6h4.6v37.5h-4.6V305.6z"/>
	<path id="XMLID_246_" d="M883.9,305.6h4.7v5.2h-4.7V305.6z M883.9,315.9h4.7v27.2h-4.7V315.9z"/>
	<path id="XMLID_249_" d="M897.8,315.8l7.3,22.3l7.6-22.3h5l-10.3,27.4h-4.9l-10.1-27.4H897.8z"/>
	<path id="XMLID_251_" d="M938.6,316.5c1.8,0.9,3.2,2.1,4.1,3.5c0.9,1.4,1.5,3,1.8,4.8c0.3,1.3,0.4,3.3,0.4,6H925
		c0.1,2.8,0.7,5,2,6.7c1.2,1.7,3.1,2.5,5.7,2.5c2.4,0,4.3-0.8,5.7-2.4c0.8-0.9,1.4-2,1.7-3.2h4.5c-0.1,1-0.5,2.1-1.2,3.4
		c-0.7,1.2-1.4,2.2-2.3,3c-1.4,1.4-3.1,2.3-5.1,2.8c-1.1,0.3-2.3,0.4-3.7,0.4c-3.4,0-6.3-1.2-8.6-3.7c-2.4-2.5-3.5-5.9-3.5-10.4
		c0-4.4,1.2-8,3.6-10.7c2.4-2.7,5.5-4.1,9.3-4.1C934.9,315.2,936.8,315.6,938.6,316.5z M940.2,327.3c-0.2-2-0.6-3.6-1.3-4.8
		c-1.3-2.2-3.3-3.3-6.3-3.3c-2.1,0-3.9,0.8-5.3,2.3c-1.4,1.5-2.2,3.5-2.3,5.8H940.2z"/>
	<path id="XMLID_254_" d="M953.5,334.6c0.1,1.5,0.5,2.7,1.2,3.5c1.2,1.5,3.2,2.2,6.2,2.2c1.7,0,3.3-0.4,4.6-1.1c1.3-0.7,2-1.9,2-3.4
		c0-1.2-0.5-2.1-1.6-2.7c-0.7-0.4-2-0.8-4-1.3l-3.7-0.9c-2.4-0.6-4.1-1.2-5.2-1.9c-2-1.2-3-3-3-5.2c0-2.6,0.9-4.7,2.8-6.3
		c1.9-1.6,4.4-2.4,7.6-2.4c4.2,0,7.2,1.2,9,3.6c1.2,1.5,1.7,3.2,1.7,5h-4.3c-0.1-1-0.5-2-1.1-2.8c-1.1-1.2-3-1.8-5.6-1.8
		c-1.8,0-3.1,0.3-4,1c-0.9,0.7-1.4,1.5-1.4,2.6c0,1.2,0.6,2.1,1.8,2.9c0.7,0.4,1.7,0.8,3.1,1.1l3.1,0.7c3.4,0.8,5.6,1.6,6.8,2.3
		c1.8,1.2,2.7,3,2.7,5.5c0,2.4-0.9,4.5-2.8,6.3c-1.9,1.8-4.7,2.7-8.6,2.7c-4.1,0-7-0.9-8.8-2.8c-1.7-1.8-2.6-4.1-2.8-6.9H953.5z"/>
</g>
<path id="XMLID_173_" class="st0" d="M116.8,196.6c-0.9-2.1-7.4-1.5-8.9,0c-1.5,1.5-2.5,3.1-7,3.4c-3,0.2-5.3-0.2-7.5-0.9
	c1-0.2,0.7-0.8-0.4-0.8c-0.7,0-1.3,0-2,0c-0.2-0.1-0.4-0.1-0.6-0.2c-1.8-1-5.9,0-5.3,1.2c1.5,3.1,11.1,4.8,18.1,4.3
	C111.2,203,118.3,199.9,116.8,196.6z"/>
</svg>
