<?xml version="1.0" encoding="utf-8"?>
<!-- Generator: Adobe Illustrator 19.0.0, SVG Export Plug-In . SVG Version: 6.00 Build 0)  -->
<svg version="1.1" id="Layer_1" xmlns="http://www.w3.org/2000/svg" xmlns:xlink="http://www.w3.org/1999/xlink" x="0px" y="0px"
	 viewBox="0 0 100 100" style="enable-background:new 0 0 100 100;" xml:space="preserve">
<style type="text/css">
	.st0{display:none;fill:#FFFFFF;}
	.st1{display:none;}
	.st2{display:inline;fill:#e31d1a;}
	.st3{display:inline;fill:#FFFFFF;}
	.st4{display:inline;fill:none;stroke:#FFFFFF;stroke-width:5;stroke-miterlimit:10;}
	.st5{display:inline;fill:#FFFFFF;stroke:#FFFFFF;stroke-width:0.25;stroke-miterlimit:10;}
	.st6{display:inline;fill:#313131;}
	.st7{fill:#313131;}
</style>
<image style="display:none;overflow:visible;" width="225" height="225" xlink:href="../../question mark.png"  transform="matrix(0.4444 0 0 0.4444 -9 -95)">
</image>
<path class="st0" d="M23.4-59.5c3.3,0,6.5,0,9.8,0c0.2-0.9,1.1-4,4.1-6.2c0.7-0.5,3.1-2.2,6.5-2.1c0.8,0,4.6,0.2,7,3.3
	c1.4,1.9,1.6,4,1.6,4.9c-1,2.8-2.4,4.5-3.5,5.5c-1.8,1.8-2.6,1.6-5.4,4.1c-1.5,1.3-2.7,2.5-3.8,4.4c-0.9,1.7-1.3,3.2-1.4,4.3
	c0,2,0,3.9,0,5.9c3,0,5.9,0,8.9,0c0.1-1.5,0.2-3,0.3-4.4c0.4-1.1,1.2-2.7,2.7-4.3c1.7-1.8,2.8-1.8,5.2-4c1.1-1,2.6-2.5,4-4.4
	c1.4-2.1,2.3-4.2,2.8-5.9c0.1-1.4,0.1-3.9-1.1-6.6c-0.8-1.9-1.8-3.1-2.5-4c-2.4-2.9-5-4.3-5.5-4.6c-3.5-1.8-6.6-2-8.5-2.1
	c-2.8-0.1-8.9-0.3-14.2,4C24.8-67.2,23.7-61.2,23.4-59.5z"/>
<g id="question_x5F_icon" class="st1">
	<rect x="-9" y="-95" class="st2" width="100" height="100"/>
	<path class="st3" d="M38.1-31.5c3.3,0,6.6,0,10,0c0,3.4,0,6.9,0,10.3c-3.4,0-6.8,0-10.1,0C38-24.6,38.1-28.1,38.1-31.5z"/>
	<circle class="st4" cx="41.7" cy="-47.6" r="40.5"/>
	<path class="st5" d="M23.6-59.8c3.1,0,6.3,0,9.4,0c2.1-5.1,6.6-8.1,11-7.8c3.3,0.3,7.3,2.6,7.9,6c0.6,3.5-2.5,6.7-3.3,7.6
		c-2.2,2.3-3.6,2-6.5,5.1c-1.5,1.7-2.3,3-2.7,3.8c-1,1.9-1.3,3.5-1.4,4.1c-0.4,2.3-0.3,4.3,0,5.7c3.1,0,6.1,0,9.2,0
		c0-1,0.1-2.1,0.1-3.1c0.5-2.1,1.4-3.5,2-4.2c0.8-1.1,1.6-1.8,2.3-2.3c1.3-1.1,2.3-1.5,3-2c1.3-1,3.7-2.9,5.4-6
		c0.6-1.2,1.6-3.3,1.7-6.3c0-1.9-0.4-5.6-2.8-9.2c-4.5-6.5-12.4-7.1-14.4-7.3c-1.9-0.1-6.7-0.4-11.6,2.4
		C25.5-69.1,23.8-61.2,23.6-59.8z"/>
</g>
<g id="_x39_RHpmW.tif" class="st1">
	
		<image style="display:inline;overflow:visible;" width="256" height="249" id="Layer_0_1_" xlink:href="8AD0065F2C977221.png"  transform="matrix(0.1874 0 0 0.1874 16.7659 -67.908)">
	</image>
</g>
<g id="yes_x5F_icon" class="st1">
	<rect x="-9" y="-95" class="st6" width="100" height="100"/>
	<circle class="st4" cx="40.7" cy="-44.6" r="40.5"/>
	<path class="st3" d="M25.9-45.2c3.3,2.9,6.6,5.8,9.9,8.8c6.1-9.6,12.2-19.2,18.2-28.9c1.7-1.9,4.6-2.4,6.8-1c2.2,1.4,3.1,4.2,2,6.6
		c-7.9,12-15.8,23.9-23.6,35.9c0,0.1-0.6,1.2-1.9,1.5C36-22.1,35.1-22.9,35-23c-5.5-5.3-11-10.6-16.5-15.9c-1.1-1.9-1.1-4.2,0.1-5.8
		C20.2-46.6,23.5-47.1,25.9-45.2z"/>
</g>
<g id="JqKaif.tif" class="st1">
	
		<image style="display:inline;overflow:visible;" width="117" height="90" id="Layer_1_1_" xlink:href="8AD0065F2C977227.png"  transform="matrix(0.7821 0 0 0.7821 4 14.6678)">
	</image>
</g>
<g id="people">
	<circle class="st7" cx="50.3" cy="51.3" r="8.8"/>
	<circle class="st7" cx="49.8" cy="24.8" r="9.3"/>
	<path class="st7" d="M43.2,42.3c-0.6,0.8-1.2,1.6-1.8,2.4c-0.6,1-1.2,1.9-1.8,2.9c-0.5,0.8-1,1.6-1.5,2.4c-0.9,0.5-2.2,1.2-3.8,1.2
		c-4,0.1-8.8-3.6-8.8-8.8c0-4.7,3.9-8.8,8.8-8.8C39.2,33.4,43.2,37.4,43.2,42.3z"/>
	<path class="st7" d="M27.6,33.3c-0.6,0.8-1.2,1.6-1.8,2.4c-0.6,1-1.2,1.9-1.8,2.9c-0.5,0.8-1,1.6-1.5,2.4c-0.9,0.5-2.2,1.2-3.8,1.2
		c-4,0.1-8.8-3.6-8.8-8.8c0-4.7,3.9-8.8,8.8-8.8C23.7,24.4,27.6,28.4,27.6,33.3z"/>
	<path class="st7" d="M57,42.3c0.6,0.8,1.2,1.6,1.8,2.4c0.6,1,1.2,1.9,1.8,2.9c0.5,0.8,1,1.6,1.5,2.4c0.9,0.5,2.2,1.2,3.8,1.2
		c4,0.1,8.8-3.6,8.8-8.8c0-4.7-3.9-8.8-8.8-8.8C61,33.4,57,37.4,57,42.3z"/>
	<path class="st7" d="M72,32.6c0.6,0.8,1.2,1.6,1.8,2.4c0.6,1,1.2,1.9,1.8,2.9c0.5,0.8,1,1.6,1.5,2.4c0.9,0.5,2.2,1.2,3.8,1.2
		c4,0.1,8.8-3.6,8.8-8.8c0-4.7-3.9-8.8-8.8-8.8C76,23.8,72,27.8,72,32.6z"/>
	<path class="st7" d="M22.2,43.6c-0.1,1,0,2.6,0.9,4c1.2,2,3,2.5,2.9,3.4c-0.1,1.1-2.9,0.6-5.4,2.4c-3.1,2.2-4,6.5-4,8.6
		c0,1.6,0,3.2,0,4.8c-4.2-0.6-8.3-1.2-12.5-1.9c0-3.8,0-7.7,0-11.5c0.3-1.3,1.2-3.8,3.4-6.1c2.3-2.4,4.7-3.4,5.4-3.6
		C17.2,42.1,21,43.2,22.2,43.6z"/>
	<path class="st7" d="M38.8,52.8c-0.1,0.9,0,2.4,0.8,3.9c1,2,2.6,2.4,2.5,3.4c-0.1,1.4-3.3,1-5.9,3.4c-2.3,2.2-2.8,5.4-3.1,7.5
		c-0.3,1.9-0.2,3.4-0.1,4.5c-4.6-0.8-9.2-1.5-13.9-2.2c0-3.8,0-7.5,0-11.2c0.4-1.3,1.5-4,4.1-6.2c2.3-2,4.6-2.7,5.8-3
		C33.2,51.4,36.9,52.2,38.8,52.8z"/>
	<path class="st7" d="M61.7,52.8c0.1,0.9,0,2.4-0.8,3.9c-1,2-2.6,2.4-2.5,3.4c0.1,1.4,3.3,1,5.9,3.4c2.3,2.2,2.8,5.4,3.1,7.5
		c0.3,1.9,0.2,3.4,0.1,4.5c4.6-0.8,9.1-1.7,13.7-2.5c0-3.6,0-7.2,0-10.8c-0.3-1.3-1.3-4.1-3.9-6.5c-2.2-2-4.4-2.6-5.8-3
		C67.3,51.4,63.5,52.2,61.7,52.8z"/>
	<path class="st7" d="M77.4,43.6c0.1,1,0,2.6-0.9,4c-1.2,2-3,2.5-2.9,3.4c0.1,1.1,2.9,0.6,5.4,2.4c3.1,2.2,4,6.5,4,8.6
		c0,1.6,0,3.2,0,4.8c4.2-0.6,8.3-1.2,12.5-1.9c0-3.8,0-7.7,0-11.5c-0.3-1.3-1.2-3.8-3.4-6.1c-2.3-2.4-4.7-3.4-5.4-3.6
		C82.5,42.1,78.6,43.2,77.4,43.6z"/>
	<path class="st7" d="M35.4,69.1c0.6-1.1,1.7-2.7,3.4-4.2c1.8-1.6,3.7-2.5,4.9-3c4.4,0,8.8,0,13.2,0c1.2,0.4,3.4,1.4,5.4,3.5
		c1.6,1.7,2.5,3.4,2.9,4.6c0,3.9,0,7.9,0,11.8c-3.1,1.2-8.4,2.9-15.1,2.9c-6.5,0-11.7-1.6-14.8-2.9C35.4,77.5,35.4,73.3,35.4,69.1z"
		/>
	<path class="st7" d="M25,23.8c0.2-0.5,1.5-3.9,5.2-5.4c4.4-1.7,8.2,0.8,8.5,1c0.2,4.2,0.5,8.3,0.8,12.5c-0.7,0-1.3,0-2,0
		c-0.2-0.4-0.4-0.8-0.6-1.1c-1.8,0-3.5,0-5.2,0c-0.1,0.4-0.2,0.8-0.2,1.2c-0.6-0.1-1.2-0.2-1.8-0.2C28.1,29.1,26.5,26.4,25,23.8z"/>
	<path class="st7" d="M74.6,23.3c-0.2-0.5-1.5-3.9-5.2-5.4c-4.4-1.7-8.2,0.8-8.5,1c-0.2,4.2-0.5,8.3-0.8,12.5c0.7,0,1.3,0,2,0
		c0.2-0.4,0.4-0.8,0.6-1.1c1.8,0,3.5,0,5.2,0c0.1,0.4,0.2,0.8,0.2,1.2c0.6-0.1,1.2-0.2,1.8-0.2C71.6,28.6,73.1,26,74.6,23.3z"/>
	<path class="st7" d="M44,35.8c3.9,0,7.8,0,11.6,0c0,0.5,0,1.1,0,1.6c0,0,0,0,0,0c-0.4,0-0.8,0-1.3,0c0,1,0,1.9,0,2.9
		c-0.7,0-1.4,0-2.1,0c-1.1,0-2.2,0-3.4,0c-1.2,0-2.3,0-3.5,0c0-1,0-1.9,0-2.9c-0.5,0-0.9,0-1.4,0C44,36.8,44,36.3,44,35.8z"/>
</g>
</svg>
