<?xml version="1.0" encoding="iso-8859-1"?>
<!-- Generator: Adobe Illustrator 19.0.0, SVG Export Plug-In . SVG Version: 6.00 Build 0)  -->
<svg xmlns="http://www.w3.org/2000/svg" xmlns:xlink="http://www.w3.org/1999/xlink" version="1.1" id="Layer_1" x="0px" y="0px" viewBox="0 0 496 496" style="enable-background:new 0 0 496 496;" xml:space="preserve" width="512px" height="512px">
<g>
	<g>
		<g>
			<path d="M464,400h-4.32c7.632-8.504,12.32-19.696,12.32-32c0-18.656-10.72-34.824-26.304-42.76     C447.104,315.592,448,305.808,448,296c0-82.768-51.36-156.968-128.256-186.544C318.424,93.016,304.776,80,288,80h-4.32     C291.312,71.496,296,60.304,296,48c0-26.472-21.528-48-48-48s-48,21.528-48,48c0,12.304,4.688,23.496,12.32,32H208     c-16.776,0-30.424,13.016-31.744,29.456C99.36,139.032,48,213.232,48,296c0,9.808,0.896,19.592,2.304,29.24     C34.72,333.176,24,349.344,24,368c0,12.304,4.688,23.496,12.32,32H32c-17.648,0-32,14.352-32,32v64h144v-29.152     C175.28,485.96,210.928,496,248,496c37.08,0,72.728-10.048,104-29.152V496h144v-64C496,414.352,481.648,400,464,400z M456,368     c0,17.648-14.352,32-32,32s-32-14.352-32-32s14.352-32,32-32S456,350.352,456,368z M248,16c17.648,0,32,14.352,32,32     s-14.352,32-32,32s-32-14.352-32-32S230.352,16,248,16z M192,112c0-8.824,7.176-16,16-16h80c8.824,0,16,7.176,16,16v48h-16v-40     h-16v40h-48v-40h-16v40h-16V112z M72,336c17.648,0,32,14.352,32,32s-14.352,32-32,32s-32-14.352-32-32S54.352,336,72,336z      M128,480h-16v-40H96v40H48v-40H32v40H16v-48c0-8.824,7.176-16,16-16h80c8.824,0,16,7.176,16,16V480z M352,432v15.672     C321.312,468.776,285.472,480,248,480s-73.304-11.224-104-32.32V432c0-7.976-3.04-15.192-7.88-20.8l29.544-29.544l-11.312-11.312     l-31.632,31.632c-3.376-1.2-6.944-1.976-10.72-1.976h-4.32c7.632-8.504,12.32-19.696,12.32-32c0-26.472-21.528-48-48-48     c-2.104,0-4.168,0.184-6.208,0.448C64.72,312.36,64,304.2,64,296c0-73.976,44.584-140.544,112-169.24V176h64v40h16v-40h64v-49.24     c67.416,28.696,112,95.264,112,169.24c0,8.2-0.72,16.36-1.792,24.448c-2.04-0.264-4.104-0.448-6.208-0.448     c-26.472,0-48,21.528-48,48c0,12.304,4.688,23.496,12.32,32H384c-3.776,0-7.344,0.776-10.712,1.976l-31.632-31.632     l-11.312,11.312l29.544,29.544C355.04,416.808,352,424.024,352,432z M480,480h-16v-40h-16v40h-48v-40h-16v40h-16v-48     c0-8.824,7.176-16,16-16h80c8.824,0,16,7.176,16,16V480z" fill="#fff"/>
			<path d="M392,262.224c0-38.72-31.496-70.224-70.224-70.224c-18.76,0-36.392,7.304-49.656,20.568L248,236.688l-24.12-24.12     C210.616,199.304,192.984,192,174.224,192C135.504,192,104,223.504,104,262.224c0,18.76,7.304,36.392,20.568,49.656L248,435.312     L371.432,311.88C384.696,298.616,392,280.984,392,262.224z M248,412.688l-112.12-112.12c-10.24-10.24-15.88-23.856-15.88-38.344     C120,232.328,144.328,208,174.224,208c14.488,0,28.104,5.64,38.344,15.88L248,259.312l35.432-35.432     c10.24-10.24,23.856-15.88,38.344-15.88C351.672,208,376,232.328,376,262.224c0,14.488-5.64,28.104-15.88,38.344L248,412.688z" fill="#fff"/>
			<rect x="240" y="304" width="16" height="16" fill="#fff"/>
			<rect x="272" y="304" width="16" height="16" fill="#fff"/>
			<rect x="208" y="304" width="16" height="16" fill="#fff"/>
		</g>
	</g>
</g>
<g>
</g>
<g>
</g>
<g>
</g>
<g>
</g>
<g>
</g>
<g>
</g>
<g>
</g>
<g>
</g>
<g>
</g>
<g>
</g>
<g>
</g>
<g>
</g>
<g>
</g>
<g>
</g>
<g>
</g>
</svg>
