<?xml version="1.0" encoding="utf-8"?>
<!-- Generator: Adobe Illustrator 19.0.0, SVG Export Plug-In . SVG Version: 6.00 Build 0)  -->
<svg version="1.1" id="Layer_1" xmlns="http://www.w3.org/2000/svg" xmlns:xlink="http://www.w3.org/1999/xlink" x="0px" y="0px"
	 viewBox="0 0 100 100" style="enable-background:new 0 0 100 100;" xml:space="preserve">
<style type="text/css">
	.st0{display:none;fill:#FFFFFF;}
	.st1{display:none;}
	.st2{display:inline;fill:#e31d1a;}
	.st3{display:inline;fill:#FFFFFF;}
	.st4{display:inline;fill:none;stroke:#FFFFFF;stroke-width:5;stroke-miterlimit:10;}
	.st5{display:inline;fill:#FFFFFF;stroke:#FFFFFF;stroke-width:0.25;stroke-miterlimit:10;}
	.st6{display:inline;fill:#313131;}
	.st7{display:inline;fill:#CA3435;}
	.st8{display:inline;}
	.st9{fill:#FFFFFF;}
	.st10{display:none;fill:#F21414;stroke:#FFFFFF;stroke-width:0.25;stroke-miterlimit:10;}
	.st11{opacity:0.45;fill:#040404;}
	.st12{fill:#FFFFFF;stroke:#FFFFFF;stroke-width:0.25;stroke-miterlimit:10;}
	.st13{fill:#e31d1a;stroke:#FFFFFF;stroke-width:0.25;stroke-miterlimit:10;}
	.st14{display:inline;opacity:0.45;fill:#040404;}
	.st15{display:inline;fill:#e31d1a;stroke:#FFFFFF;stroke-width:0.25;stroke-miterlimit:10;}
	.st16{display:inline;fill:#040404;stroke:#FFFFFF;stroke-width:0.25;stroke-miterlimit:10;}
	.st17{display:none;fill:none;stroke:#FFFFFF;stroke-width:3;stroke-miterlimit:10;}
	.st18{fill:none;stroke:#FFFFFF;stroke-width:3;stroke-miterlimit:10;}
</style>
<image style="display:none;overflow:visible;" width="225" height="225" xlink:href="DBC4456AD228EBBC.jpg"  transform="matrix(0.4444 0 0 0.4444 -66 -483)">
</image>
<path class="st0" d="M-33.6-447.5c3.3,0,6.5,0,9.8,0c0.2-0.9,1.1-4,4.1-6.2c0.7-0.5,3.1-2.2,6.5-2.1c0.8,0,4.6,0.2,7,3.3
	c1.4,1.9,1.6,4,1.6,4.9c-1,2.8-2.4,4.5-3.5,5.5c-1.8,1.8-2.6,1.6-5.4,4.1c-1.5,1.3-2.7,2.5-3.8,4.4c-0.9,1.7-1.3,3.2-1.4,4.3
	c0,2,0,3.9,0,5.9c3,0,5.9,0,8.9,0c0.1-1.5,0.2-3,0.3-4.4c0.4-1.1,1.2-2.7,2.7-4.3c1.7-1.8,2.8-1.8,5.2-4c1.1-1,2.6-2.5,4-4.4
	c1.4-2.1,2.3-4.2,2.8-5.9c0.1-1.4,0.1-3.9-1.1-6.6c-0.8-1.9-1.8-3.1-2.5-4c-2.4-2.9-5-4.3-5.5-4.6c-3.5-1.8-6.6-2-8.5-2.1
	c-2.8-0.1-8.9-0.3-14.2,4C-32.2-455.2-33.3-449.2-33.6-447.5z"/>
<g id="question_x5F_icon" class="st1">
	<rect x="-57" y="-388" class="st2" width="100" height="100"/>
	<path class="st3" d="M-9.9-324.5c3.3,0,6.6,0,10,0c0,3.4,0,6.9,0,10.3c-3.4,0-6.8,0-10.1,0C-10-317.6-9.9-321.1-9.9-324.5z"/>
	<circle class="st4" cx="-6.3" cy="-340.6" r="40.5"/>
	<path class="st5" d="M-24.4-352.8c3.1,0,6.3,0,9.4,0c2.1-5.1,6.6-8.1,11-7.8c3.3,0.3,7.3,2.6,7.9,6c0.6,3.5-2.5,6.7-3.3,7.6
		c-2.2,2.3-3.6,2-6.5,5.1c-1.5,1.7-2.3,3-2.7,3.8c-1,1.9-1.3,3.5-1.4,4.1c-0.4,2.3-0.3,4.3,0,5.7c3.1,0,6.1,0,9.2,0
		c0-1,0.1-2.1,0.1-3.1c0.5-2.1,1.4-3.5,2-4.2c0.8-1.1,1.6-1.8,2.3-2.3c1.3-1.1,2.3-1.5,3-2c1.3-1,3.7-2.9,5.4-6
		c0.6-1.2,1.6-3.3,1.7-6.3c0-1.9-0.4-5.6-2.8-9.2c-4.5-6.5-12.4-7.1-14.4-7.3c-1.9-0.1-6.7-0.4-11.6,2.4
		C-22.5-362.1-24.2-354.2-24.4-352.8z"/>
</g>
<g id="_x39_RHpmW.tif" class="st1">
	
		<image style="display:inline;overflow:visible;" width="256" height="249" id="Layer_0_1_" xlink:href="DBC4456AD228EBBC.png"  transform="matrix(0.1874 0 0 0.1874 -40.2341 -455.9081)">
	</image>
</g>
<g id="yes_x5F_icon" class="st1">
	<rect x="-66" y="-483" class="st6" width="100" height="100"/>
	<circle class="st4" cx="-16.3" cy="-432.6" r="40.5"/>
	<path class="st3" d="M-31.1-433.2c3.3,2.9,6.6,5.8,9.9,8.8c6.1-9.6,12.2-19.2,18.2-28.9c1.7-1.9,4.6-2.4,6.8-1
		c2.2,1.4,3.1,4.2,2,6.6c-7.9,12-15.8,23.9-23.6,35.9c0,0.1-0.6,1.2-1.9,1.5c-1.3,0.2-2.2-0.5-2.2-0.6c-5.5-5.3-11-10.6-16.5-15.9
		c-1.1-1.9-1.1-4.2,0.1-5.8C-36.8-434.6-33.5-435.1-31.1-433.2z"/>
</g>
<g id="JqKaif.tif" class="st1">
	
		<image style="display:inline;overflow:visible;" width="117" height="90" id="Layer_1_1_" xlink:href="DBC4456AD228EBBB.png"  transform="matrix(0.7821 0 0 0.7821 -53 -373.3322)">
	</image>
</g>
<g id="people" class="st1">
	<circle class="st6" cx="-6.7" cy="-336.7" r="8.8"/>
	<circle class="st6" cx="-7.2" cy="-363.2" r="9.3"/>
	<path class="st6" d="M-13.8-345.7c-0.6,0.8-1.2,1.6-1.8,2.4c-0.6,1-1.2,1.9-1.8,2.9c-0.5,0.8-1,1.6-1.5,2.4
		c-0.9,0.5-2.2,1.2-3.8,1.2c-4,0.1-8.8-3.6-8.8-8.8c0-4.7,3.9-8.8,8.8-8.8C-17.8-354.6-13.8-350.6-13.8-345.7z"/>
	<path class="st6" d="M-29.4-354.7c-0.6,0.8-1.2,1.6-1.8,2.4c-0.6,1-1.2,1.9-1.8,2.9c-0.5,0.8-1,1.6-1.5,2.4
		c-0.9,0.5-2.2,1.2-3.8,1.2c-4,0.1-8.8-3.6-8.8-8.8c0-4.7,3.9-8.8,8.8-8.8C-33.3-363.6-29.4-359.6-29.4-354.7z"/>
	<path class="st6" d="M0-345.7c0.6,0.8,1.2,1.6,1.8,2.4c0.6,1,1.2,1.9,1.8,2.9c0.5,0.8,1,1.6,1.5,2.4c0.9,0.5,2.2,1.2,3.8,1.2
		c4,0.1,8.8-3.6,8.8-8.8c0-4.7-3.9-8.8-8.8-8.8C4-354.6,0-350.6,0-345.7z"/>
	<path class="st6" d="M15-355.4c0.6,0.8,1.2,1.6,1.8,2.4c0.6,1,1.2,1.9,1.8,2.9c0.5,0.8,1,1.6,1.5,2.4c0.9,0.5,2.2,1.2,3.8,1.2
		c4,0.1,8.8-3.6,8.8-8.8c0-4.7-3.9-8.8-8.8-8.8C19-364.2,15-360.2,15-355.4z"/>
	<path class="st6" d="M-34.8-344.4c-0.1,1,0,2.6,0.9,4c1.2,2,3,2.5,2.9,3.4c-0.1,1.1-2.9,0.6-5.4,2.4c-3.1,2.2-4,6.5-4,8.6
		c0,1.6,0,3.2,0,4.8c-4.2-0.6-8.3-1.2-12.5-1.9c0-3.8,0-7.7,0-11.5c0.3-1.3,1.2-3.8,3.4-6.1c2.3-2.4,4.7-3.4,5.4-3.6
		C-39.8-345.9-36-344.8-34.8-344.4z"/>
	<path class="st6" d="M-18.2-335.2c-0.1,0.9,0,2.4,0.8,3.9c1,2,2.6,2.4,2.5,3.4c-0.1,1.4-3.3,1-5.9,3.4c-2.3,2.2-2.8,5.4-3.1,7.5
		c-0.3,1.9-0.2,3.4-0.1,4.5c-4.6-0.8-9.2-1.5-13.9-2.2c0-3.8,0-7.5,0-11.2c0.4-1.3,1.5-4,4.1-6.2c2.3-2,4.6-2.7,5.8-3
		C-23.8-336.6-20.1-335.8-18.2-335.2z"/>
	<path class="st6" d="M4.7-335.2c0.1,0.9,0,2.4-0.8,3.9c-1,2-2.6,2.4-2.5,3.4c0.1,1.4,3.3,1,5.9,3.4c2.3,2.2,2.8,5.4,3.1,7.5
		c0.3,1.9,0.2,3.4,0.1,4.5c4.6-0.8,9.1-1.7,13.7-2.5c0-3.6,0-7.2,0-10.8c-0.3-1.3-1.3-4.1-3.9-6.5c-2.2-2-4.4-2.6-5.8-3
		C10.3-336.6,6.5-335.8,4.7-335.2z"/>
	<path class="st6" d="M20.4-344.4c0.1,1,0,2.6-0.9,4c-1.2,2-3,2.5-2.9,3.4c0.1,1.1,2.9,0.6,5.4,2.4c3.1,2.2,4,6.5,4,8.6
		c0,1.6,0,3.2,0,4.8c4.2-0.6,8.3-1.2,12.5-1.9c0-3.8,0-7.7,0-11.5c-0.3-1.3-1.2-3.8-3.4-6.1c-2.3-2.4-4.7-3.4-5.4-3.6
		C25.5-345.9,21.6-344.8,20.4-344.4z"/>
	<path class="st6" d="M-21.6-318.9c0.6-1.1,1.7-2.7,3.4-4.2c1.8-1.6,3.7-2.5,4.9-3c4.4,0,8.8,0,13.2,0c1.2,0.4,3.4,1.4,5.4,3.5
		c1.6,1.7,2.5,3.4,2.9,4.6c0,3.9,0,7.9,0,11.8c-3.1,1.2-8.4,2.9-15.1,2.9c-6.5,0-11.7-1.6-14.8-2.9
		C-21.6-310.5-21.6-314.7-21.6-318.9z"/>
	<path class="st6" d="M-32-364.2c0.2-0.5,1.5-3.9,5.2-5.4c4.4-1.7,8.2,0.8,8.5,1c0.2,4.2,0.5,8.3,0.8,12.5c-0.7,0-1.3,0-2,0
		c-0.2-0.4-0.4-0.8-0.6-1.1c-1.8,0-3.5,0-5.2,0c-0.1,0.4-0.2,0.8-0.2,1.2c-0.6-0.1-1.2-0.2-1.8-0.2C-28.9-358.9-30.5-361.6-32-364.2
		z"/>
	<path class="st6" d="M17.6-364.7c-0.2-0.5-1.5-3.9-5.2-5.4c-4.4-1.7-8.2,0.8-8.5,1c-0.2,4.2-0.5,8.3-0.8,12.5c0.7,0,1.3,0,2,0
		c0.2-0.4,0.4-0.8,0.6-1.1c1.8,0,3.5,0,5.2,0c0.1,0.4,0.2,0.8,0.2,1.2c0.6-0.1,1.2-0.2,1.8-0.2C14.6-359.4,16.1-362,17.6-364.7z"/>
	<path class="st6" d="M-13-352.2c3.9,0,7.8,0,11.6,0c0,0.5,0,1.1,0,1.6c0,0,0,0,0,0c-0.4,0-0.8,0-1.3,0c0,1,0,1.9,0,2.9
		c-0.7,0-1.4,0-2.1,0c-1.1,0-2.2,0-3.4,0c-1.2,0-2.3,0-3.5,0c0-1,0-1.9,0-2.9c-0.5,0-0.9,0-1.4,0C-13-351.2-13-351.7-13-352.2z"/>
</g>
<g id="Pt1vgW.tif" class="st1">
	
		<image style="display:inline;overflow:visible;" width="197" height="62" id="Layer_1_2_" xlink:href="DBC4456AD228EBC4.png"  transform="matrix(0.4867 0 0 0.4867 2.1164 -163.465)">
	</image>
</g>
<g id="_x31_23_x5F_icon" class="st1">
	<circle class="st6" cx="17.1" cy="-148.2" r="15.1"/>
	<circle class="st6" cx="50.1" cy="-148.2" r="15.1"/>
	<circle class="st7" cx="82.7" cy="-148.1" r="15.1"/>
	<g id="_x31_23" class="st8">
		<g id="_x31_">
			<path class="st9" d="M13.9-151.1v-1.5c0.7,0,1.2-0.1,1.5-0.1c0.4-0.1,0.8-0.3,1.1-0.6c0.2-0.2,0.3-0.5,0.4-0.8
				c0.1-0.2,0.1-0.4,0.1-0.5h1.9v11.3h-2.3v-7.8H13.9z"/>
		</g>
		<g id="_x32_">
			<path class="st9" d="M46.9-145.6c0.3-0.8,1.1-1.6,2.2-2.4c1-0.7,1.7-1.3,2-1.6c0.5-0.5,0.7-1,0.7-1.6c0-0.5-0.1-0.9-0.4-1.2
				c-0.3-0.3-0.6-0.5-1.1-0.5c-0.7,0-1.1,0.3-1.4,0.8c-0.1,0.3-0.2,0.8-0.2,1.4h-2.2c0-1,0.2-1.7,0.5-2.3c0.6-1.1,1.6-1.7,3.2-1.7
				c1.2,0,2.2,0.3,2.9,1s1.1,1.5,1.1,2.6c0,0.8-0.2,1.6-0.8,2.2c-0.3,0.4-0.9,0.9-1.6,1.4l-0.9,0.6c-0.6,0.4-0.9,0.7-1.1,0.9
				c-0.2,0.2-0.4,0.4-0.5,0.6h4.9v2h-7.8C46.4-144.1,46.5-144.9,46.9-145.6z"/>
		</g>
		<g id="_x33_">
			<path class="st9" d="M81.4-146.8c0,0.5,0.1,0.8,0.2,1.1c0.3,0.5,0.8,0.8,1.5,0.8c0.4,0,0.8-0.1,1.1-0.4c0.3-0.3,0.5-0.7,0.5-1.3
				c0-0.7-0.3-1.2-0.9-1.5c-0.3-0.1-0.9-0.2-1.6-0.2v-1.6c0.7,0,1.2-0.1,1.5-0.2c0.5-0.2,0.7-0.7,0.7-1.3c0-0.4-0.1-0.8-0.4-1.1
				c-0.3-0.3-0.6-0.4-1.1-0.4c-0.5,0-0.9,0.2-1.2,0.5c-0.2,0.3-0.4,0.8-0.4,1.3h-2.1c0-0.6,0.1-1.1,0.3-1.6c0.2-0.4,0.5-0.9,0.9-1.2
				c0.3-0.3,0.6-0.5,1-0.6c0.4-0.1,0.9-0.2,1.5-0.2c1.1,0,2,0.3,2.6,0.8c0.7,0.6,1,1.3,1,2.3c0,0.7-0.2,1.2-0.6,1.7
				c-0.2,0.3-0.5,0.5-0.8,0.6c0.2,0,0.5,0.2,0.9,0.5c0.6,0.5,0.9,1.2,0.9,2.2c0,1-0.3,1.8-1,2.5s-1.6,1.1-2.9,1.1
				c-1.6,0-2.7-0.5-3.3-1.6c-0.3-0.6-0.5-1.3-0.5-2.2H81.4z"/>
		</g>
	</g>
</g>
<rect y="-197" class="st10" width="100" height="100"/>
<g id="IkQr6c.tif" class="st1">
	
		<image style="display:inline;overflow:visible;" width="115" height="120" id="Layer_1_3_" xlink:href="DBC4456AD228EBC7.png"  transform="matrix(0.8199 0 0 0.8199 1.7172 -197)">
	</image>
</g>
<g id="_x38_5_x25_" class="st1">
	<g id="base_x5F_circle" class="st8">
		<circle class="st11" cx="51.3" cy="54.7" r="45.3"/>
		<circle class="st12" cx="48.5" cy="47.9" r="45.3"/>
		<circle class="st13" cx="48.5" cy="47.9" r="37.8"/>
	</g>
	<g id="_x38_" class="st8">
		<path class="st9" d="M26.6,49.9c0.4-0.8,1.1-1.4,2-1.8c-0.9-0.6-1.4-1.2-1.7-1.8c-0.3-0.7-0.4-1.3-0.4-1.9c0-1.3,0.5-2.4,1.5-3.3
			c1-0.9,2.3-1.4,4.1-1.4s3.1,0.5,4.1,1.4c1,0.9,1.5,2,1.5,3.3c0,0.6-0.1,1.2-0.4,1.9c-0.3,0.7-0.8,1.2-1.7,1.7
			c0.9,0.5,1.5,1.1,2,1.9c0.4,0.8,0.7,1.7,0.7,2.7c0,1.5-0.6,2.8-1.7,3.8S33.9,58,31.9,58s-3.5-0.5-4.5-1.6s-1.5-2.3-1.5-3.8
			C25.9,51.6,26.1,50.7,26.6,49.9z M30.2,54.4c0.5,0.5,1.1,0.7,1.9,0.7c0.8,0,1.4-0.2,1.9-0.7c0.5-0.5,0.7-1.2,0.7-2
			c0-0.9-0.2-1.6-0.7-2.1c-0.5-0.5-1.1-0.7-1.9-0.7s-1.4,0.2-1.9,0.7c-0.5,0.5-0.7,1.2-0.7,2.1C29.5,53.2,29.7,53.9,30.2,54.4z
			 M30.4,46.3c0.4,0.4,0.9,0.6,1.6,0.6c0.7,0,1.3-0.2,1.6-0.6c0.4-0.4,0.6-0.9,0.6-1.6c0-0.7-0.2-1.2-0.6-1.6
			c-0.4-0.4-0.9-0.6-1.6-0.6c-0.7,0-1.3,0.2-1.6,0.6c-0.4,0.4-0.6,0.9-0.6,1.6C29.8,45.4,30,45.9,30.4,46.3z"/>
	</g>
	<g id="_x35_" class="st8">
		<path class="st9" d="M43.4,52.8c0.1,0.8,0.4,1.3,0.8,1.8c0.4,0.4,1,0.6,1.7,0.6c0.9,0,1.5-0.3,2-0.9c0.5-0.6,0.7-1.4,0.7-2.3
			c0-0.9-0.2-1.7-0.6-2.3c-0.4-0.6-1.1-0.9-2-0.9c-0.4,0-0.8,0.1-1.1,0.2c-0.5,0.2-1,0.6-1.2,1.1l-3.1-0.1l1.2-9.8h9.7v3h-7.2
			l-0.6,3.9c0.5-0.3,1-0.6,1.3-0.7c0.5-0.2,1.1-0.3,1.8-0.3c1.5,0,2.7,0.5,3.8,1.5c1.1,1,1.6,2.4,1.6,4.3c0,1.6-0.5,3.1-1.6,4.4
			c-1,1.3-2.6,1.9-4.7,1.9c-1.7,0-3.1-0.5-4.1-1.4c-1.1-0.9-1.7-2.2-1.8-3.8H43.4z"/>
	</g>
	<g id="_x25_" class="st8">
		<path class="st9" d="M61.1,47.6c-0.9,0.9-2,1.3-3.2,1.3c-1.3,0-2.3-0.4-3.2-1.3c-0.9-0.9-1.3-2-1.3-3.2c0-1.3,0.4-2.3,1.3-3.2
			c0.9-0.9,2-1.3,3.2-1.3c1.3,0,2.3,0.4,3.2,1.3c0.9,0.9,1.3,2,1.3,3.2C62.4,45.7,62,46.8,61.1,47.6z M59.2,45.8
			c0.4-0.4,0.6-0.8,0.6-1.4s-0.2-1-0.6-1.4c-0.4-0.4-0.8-0.6-1.4-0.6s-1,0.2-1.4,0.6c-0.4,0.4-0.6,0.8-0.6,1.4s0.2,1,0.6,1.4
			c0.4,0.4,0.8,0.6,1.4,0.6S58.9,46.2,59.2,45.8z M67.8,39.8h1.8L59.8,58h-1.9L67.8,39.8z M72.9,56.5c-0.9,0.9-2,1.3-3.2,1.3
			c-1.3,0-2.3-0.4-3.2-1.3s-1.3-2-1.3-3.2c0-1.3,0.4-2.3,1.3-3.2c0.9-0.9,2-1.3,3.2-1.3c1.3,0,2.3,0.4,3.2,1.3
			c0.9,0.9,1.3,2,1.3,3.2C74.3,54.6,73.8,55.6,72.9,56.5z M71.1,51.9c-0.4-0.4-0.8-0.6-1.4-0.6s-1,0.2-1.4,0.6
			c-0.4,0.4-0.6,0.8-0.6,1.4s0.2,1,0.6,1.4c0.4,0.4,0.8,0.6,1.4,0.6s1-0.2,1.4-0.6c0.4-0.4,0.6-0.8,0.6-1.4S71.5,52.3,71.1,51.9z"/>
	</g>
</g>
<g id="base_x5F_circle_1_" class="st1">
	<circle class="st14" cx="51.7" cy="54.7" r="45.3"/>
	<circle class="st5" cx="48.9" cy="47.9" r="45.3"/>
	<circle class="st15" cx="48.9" cy="47.9" r="37.8"/>
	<circle class="st5" cx="48.5" cy="46.5" r="16.5"/>
	<circle class="st16" cx="56.3" cy="47.8" r="3.5"/>
</g>
<g id="dIlv4d.tif" class="st1">
	
		<image style="display:inline;overflow:visible;" width="133" height="138" id="Layer_1_4_" xlink:href="DBC4456AD228EBC5.png"  transform="matrix(0.7143 0 0 0.7143 1.0312 0.7143)">
	</image>
</g>
<g id="base_x5F_circle_2_">
	<circle class="st11" cx="52.3" cy="54.7" r="45.3"/>
	<circle class="st12" cx="49.5" cy="47.9" r="45.3"/>
	<circle class="st13" cx="49.5" cy="47.9" r="37.8"/>
</g>
<g id="wW76QS.tif" class="st1">
	
		<image style="display:inline;overflow:visible;" width="66" height="56" id="Layer_1_5_" xlink:href="DBC4456AD228EBCB.png"  transform="matrix(0.8274 0 0 0.8274 23 24.6667)">
	</image>
</g>
<path class="st17" d="M39.6,48.1c5.5-3.5,11-7,16.5-10.5c-0.1-0.8-0.2-2.8,0.9-4.8c0.2-0.4,2.2-3.9,6-4.1c0.6,0,3.5-0.2,5.3,2.3
	c1.8,2.6,0.5,5.6,0.4,5.7c0.5,0,2.7,0.1,4.4,1.9c1.5,1.7,2.2,4.3,1.1,6.6c-1.2,2.4-3.8,3.5-6,3.3c-2-0.2-3.3-1.4-3.8-1.8
	c-6.4,3.8-12.8,7.6-19.1,11.4c1.3,2.6,1,5.6-0.6,7.7c-1.4,1.7-3.9,3.1-6.4,2.4c-2.9-0.8-5-4.3-4.2-8.1c-0.3,0-3.1,0.4-5.2-1.8
	c-0.1-0.1-2.2-2.2-1.8-5c0.5-3.6,4.9-5.3,7.4-5.7C36.7,47.2,38.6,47.7,39.6,48.1z"/>
<path class="st18" d="M37.5,48.5c6.3-4.3,12.7-8.6,19-12.8c0-1,0.2-2.6,1-4.3c1.5-2.9,5-6.2,8.7-5.3c1.6,0.4,3.2,1.5,4,3.2
	c1,2.1-0.3,3.4,0.8,5c1,1.4,2.2,0.8,4,2.7c0.5,0.5,1.5,1.6,1.8,3.3c0.4,2.2-0.6,3.9-0.8,4.3c-1.5,2.4-4.1,2.9-4.5,3
	c-2.5-0.2-5-0.4-7.5-0.7c-6.7,4.3-13.3,8.7-20,13c-0.2,1.6-0.4,3.1-0.7,4.7c-0.1,0.3-1.8,4.1-5.8,4.8c-2.2,0.4-5.5,0-7.2-2.7
	c-1.5-2.4-0.6-5.1-0.5-5.5c-3.5-0.6-6-3.5-6-6.8c0-3.7,3.2-6.9,7.2-6.8C33.2,47.8,35.3,48.2,37.5,48.5z"/>
</svg>
