<?xml version="1.0" encoding="utf-8"?>
<!-- Generator: Adobe Illustrator 19.0.0, SVG Export Plug-In . SVG Version: 6.00 Build 0)  -->
<svg version="1.1" id="Layer_1" xmlns="http://www.w3.org/2000/svg" xmlns:xlink="http://www.w3.org/1999/xlink" x="0px" y="0px"
	 viewBox="0 0 100 100" style="enable-background:new 0 0 100 100;" xml:space="preserve">
<style type="text/css">
	.st0{display:none;fill:#FFFFFF;}
	.st1{display:none;}
	.st2{display:inline;fill:#C10505;}
	.st3{display:inline;fill:#FFFFFF;}
	.st4{display:inline;fill:none;stroke:#FFFFFF;stroke-width:5;stroke-miterlimit:10;}
	.st5{display:inline;fill:#FFFFFF;stroke:#FFFFFF;stroke-width:0.25;stroke-miterlimit:10;}
	.st6{fill:#313131;}
	.st7{fill:none;stroke:#FFFFFF;stroke-width:5;stroke-miterlimit:10;}
	.st8{fill:#FFFFFF;}
</style>
<image style="overflow:visible;" width="225" height="225" xlink:href="../../question mark.png"  transform="matrix(0.4444 0 0 0.4444 0 0)">
</image>
<path class="st0" d="M32.4,35.5c3.3,0,6.5,0,9.8,0c0.2-0.9,1.1-4,4.1-6.2c0.7-0.5,3.1-2.2,6.5-2.1c0.8,0,4.6,0.2,7,3.3
	c1.4,1.9,1.6,4,1.6,4.9c-1,2.8-2.4,4.5-3.5,5.5c-1.8,1.8-2.6,1.6-5.4,4.1c-1.5,1.3-2.7,2.5-3.8,4.4c-0.9,1.7-1.3,3.2-1.4,4.3
	c0,2,0,3.9,0,5.9c3,0,5.9,0,8.9,0c0.1-1.5,0.2-3,0.3-4.4c0.4-1.1,1.2-2.7,2.7-4.3c1.7-1.8,2.8-1.8,5.2-4c1.1-1,2.6-2.5,4-4.4
	c1.4-2.1,2.3-4.2,2.8-5.9c0.1-1.4,0.1-3.9-1.1-6.6c-0.8-1.9-1.8-3.1-2.5-4c-2.4-2.9-5-4.3-5.5-4.6c-3.5-1.8-6.6-2-8.5-2.1
	c-2.8-0.1-8.9-0.3-14.2,4C33.8,27.8,32.7,33.8,32.4,35.5z"/>
<g id="question_x5F_icon" class="st1">
	<rect class="st2" width="100" height="100"/>
	<path class="st3" d="M47.1,63.5c3.3,0,6.6,0,10,0c0,3.4,0,6.9,0,10.3c-3.4,0-6.8,0-10.1,0C47,70.4,47.1,66.9,47.1,63.5z"/>
	<circle class="st4" cx="50.7" cy="47.4" r="40.5"/>
	<path class="st5" d="M32.6,35.2c3.1,0,6.3,0,9.4,0c2.1-5.1,6.6-8.1,11-7.8c3.3,0.3,7.3,2.6,7.9,6c0.6,3.5-2.5,6.7-3.3,7.6
		c-2.2,2.3-3.6,2-6.5,5.1c-1.5,1.7-2.3,3-2.7,3.8c-1,1.9-1.3,3.5-1.4,4.1c-0.4,2.3-0.3,4.3,0,5.7c3.1,0,6.1,0,9.2,0
		c0-1,0.1-2.1,0.1-3.1c0.5-2.1,1.4-3.5,2-4.2c0.8-1.1,1.6-1.8,2.3-2.3c1.3-1.1,2.3-1.5,3-2c1.3-1,3.7-2.9,5.4-6
		c0.6-1.2,1.6-3.3,1.7-6.3c0-1.9-0.4-5.6-2.8-9.2c-4.5-6.5-12.4-7.1-14.4-7.3c-1.9-0.1-6.7-0.4-11.6,2.4
		C34.5,25.9,32.8,33.8,32.6,35.2z"/>
</g>
<rect class="st6" width="100" height="100"/>
<circle class="st7" cx="49.7" cy="50.4" r="40.5"/>
<g id="_x39_RHpmW.tif" class="st1">
	
		<image style="display:inline;overflow:visible;" width="256" height="249" id="Layer_0_1_" xlink:href="AC6FC60A54E508CD.png"  transform="matrix(0.1874 0 0 0.1874 25.7659 27.092)">
	</image>
</g>
<path class="st8" d="M34.9,49.8c3.3,2.9,6.6,5.8,9.9,8.8c6.1-9.6,12.2-19.2,18.2-28.9c1.7-1.9,4.6-2.4,6.8-1c2.2,1.4,3.1,4.2,2,6.6
	c-7.9,12-15.8,23.9-23.6,35.9c0,0.1-0.6,1.2-1.9,1.5C45,72.9,44.1,72.1,44,72c-5.5-5.3-11-10.6-16.5-15.9c-1.1-1.9-1.1-4.2,0.1-5.8
	C29.2,48.4,32.5,47.9,34.9,49.8z"/>
</svg>
